<svg width="204" height="42" viewBox="0 0 204 42" fill="none" xmlns="http://www.w3.org/2000/svg">
<path d="M62.9204 41V9.95028H67.5673V12.4987C68.1341 11.6333 68.9289 10.9412 69.8641 10.4986C71.0034 9.88671 72.2793 9.57361 73.5726 9.5886C74.9428 9.49599 76.3161 9.71821 77.5873 10.2382C78.8585 10.7582 79.9937 11.5623 80.9062 12.5887C82.7117 15.0067 83.6001 17.9872 83.413 20.9991C83.5797 23.9893 82.6815 26.9419 80.8779 29.3328C79.9633 30.3757 78.8211 31.1943 77.5396 31.7252C76.2581 32.2562 74.8717 32.4852 73.4875 32.3946C72.2735 32.4091 71.0736 32.1337 69.9874 31.5912C69.0281 31.1364 68.1979 30.4488 67.5723 29.5911V41H62.9204ZM68.879 15.6239C67.7578 17.1842 67.2027 19.0805 67.3056 20.9991C67.2024 22.9178 67.7575 24.8141 68.879 26.3743C69.3607 26.9927 69.9768 27.4934 70.6806 27.8385C71.3844 28.1835 72.1576 28.364 72.9414 28.366C73.7253 28.3681 74.4993 28.1918 75.205 27.8505C75.9106 27.5092 76.5294 27.0118 77.0144 26.396C78.1381 24.8284 78.6953 22.9252 78.5944 20.9991C78.6975 19.081 78.1437 17.185 77.0244 15.6239C76.5412 15.0049 75.9232 14.5043 75.2175 14.1599C74.5118 13.8156 73.7369 13.6366 72.9517 13.6366C72.1665 13.6366 71.3916 13.8156 70.6859 14.1599C69.9802 14.5043 69.3622 15.0049 68.879 15.6239Z" fill="#2D2D39"/>
<path d="M86.1794 25.6911C86.1418 24.6567 86.363 23.6294 86.8229 22.7021C87.2827 21.7749 87.9667 20.977 88.8128 20.3809C90.8592 19.0111 93.2918 18.3356 95.7514 18.4541H99.5633V17.4907C99.6068 16.944 99.5198 16.3947 99.3094 15.8882C99.099 15.3816 98.7713 14.9323 98.3532 14.5773C97.4583 13.9212 96.3668 13.5891 95.2581 13.6356C94.3427 13.5909 93.439 13.8562 92.6929 14.3884C91.9468 14.9207 91.4019 15.6889 91.1462 16.569L86.971 15.6907C87.3879 13.9014 88.4322 12.3208 89.9145 11.2355C91.4817 10.1132 93.3729 9.53426 95.2998 9.58706C101.239 9.58706 104.208 12.4994 104.208 18.3241V32.0497H100.353L99.8533 29.1596C99.0821 30.2254 98.0553 31.0802 96.8673 31.6453C95.6792 32.2103 94.3681 32.4675 93.0547 32.393H92.9913C91.2116 32.4556 89.4731 31.8484 88.1194 30.6913C87.4487 30.0516 86.9273 29.2718 86.5925 28.4075C86.2578 27.5432 86.1178 26.6157 86.1827 25.6911H86.1794ZM91.0012 25.6911C90.9761 26.0564 91.031 26.4229 91.1622 26.7648C91.2933 27.1068 91.4975 27.416 91.7605 27.6709C92.0235 27.9257 92.3389 28.1202 92.6848 28.2405C93.0306 28.3609 93.3986 28.4044 93.763 28.3679C95.2527 28.3918 96.6998 27.8701 97.8315 26.9011C98.4162 26.3874 98.8762 25.7473 99.1769 25.0295C99.4775 24.3116 99.6108 23.5347 99.5666 22.7576V22.2576H95.5664C94.3848 22.1936 93.2145 22.5166 92.2329 23.1776C91.8382 23.4613 91.5194 23.8378 91.3046 24.2738C91.0898 24.7098 90.9856 25.192 91.0012 25.6778" fill="#2D2D39"/>
<path d="M109.376 32.0498V9.95047H114.03V13.634C114.71 12.3984 115.708 11.3673 116.921 10.6472C118.016 9.97048 119.274 9.60407 120.561 9.58712C121.523 9.57993 122.476 9.76172 123.367 10.1221L122.573 14.2973C121.799 13.8335 120.907 13.6021 120.005 13.6306C119.136 13.6748 118.293 13.9424 117.558 14.4075C116.823 14.8726 116.22 15.5196 115.808 16.2857C114.489 18.5791 113.871 21.2086 114.03 23.8494V32.0498H109.376Z" fill="#2D2D39"/>
<path d="M124.547 25.6911C124.509 24.6567 124.73 23.6294 125.19 22.7021C125.65 21.7749 126.334 20.977 127.18 20.3809C129.227 19.0111 131.659 18.3356 134.119 18.4541H137.931V17.4907C137.974 16.944 137.887 16.3947 137.677 15.8882C137.466 15.3817 137.139 14.9324 136.721 14.5773C135.826 13.9213 134.734 13.5892 133.626 13.6356C132.71 13.5909 131.806 13.8562 131.06 14.3884C130.314 14.9207 129.769 15.6889 129.514 16.569L125.338 15.6907C125.755 13.9014 126.8 12.3208 128.282 11.2355C129.849 10.1132 131.74 9.53426 133.667 9.58706C139.606 9.58706 142.576 12.4994 142.576 18.3241V32.0497H138.721L138.221 29.1596C137.45 30.2254 136.423 31.0802 135.235 31.6453C134.047 32.2103 132.736 32.4675 131.422 32.393H131.359C129.579 32.4554 127.841 31.8482 126.487 30.6913C125.816 30.0516 125.295 29.2718 124.96 28.4075C124.625 27.5432 124.485 26.6157 124.55 25.6911H124.547ZM129.369 25.6911C129.344 26.0564 129.398 26.4229 129.53 26.7648C129.661 27.1068 129.865 27.416 130.128 27.6709C130.391 27.9257 130.706 28.1202 131.052 28.2405C131.398 28.3609 131.766 28.4044 132.13 28.3679C133.62 28.3918 135.067 27.8701 136.199 26.9011C136.784 26.3874 137.244 25.7473 137.544 25.0295C137.845 24.3116 137.978 23.5347 137.934 22.7576V22.2576H133.934C132.752 22.1937 131.582 22.5167 130.6 23.1776C130.206 23.4613 129.887 23.8378 129.672 24.2738C129.457 24.7098 129.353 25.192 129.369 25.6778" fill="#2D2D39"/>
<path d="M147.744 32.0513V1H152.391V12.3922C153.069 11.5463 153.942 10.8777 154.935 10.4437C155.98 9.90315 157.136 9.61005 158.313 9.58704C159.699 9.49781 161.086 9.72929 162.368 10.2635C163.649 10.7977 164.79 11.6202 165.702 12.6672C167.502 15.0599 168.4 18.0111 168.237 21.0009C168.422 24.0084 167.531 26.9837 165.723 29.3946C164.81 30.4198 163.675 31.2231 162.404 31.743C161.133 32.2629 159.76 32.4858 158.39 32.3947C157.101 32.4071 155.83 32.0977 154.691 31.4947C153.751 31.0597 152.951 30.3697 152.383 29.5029V32.0513H147.744ZM153.703 15.6273C152.582 17.1872 152.027 19.0828 152.13 21.0009C152.027 22.9195 152.582 24.8158 153.703 26.3761C154.185 26.9945 154.801 27.4952 155.505 27.8402C156.208 28.1853 156.982 28.3657 157.765 28.3678C158.549 28.3699 159.323 28.1936 160.029 27.8523C160.735 27.511 161.353 27.0136 161.838 26.3978C162.962 24.8302 163.519 22.927 163.418 21.0009C163.521 19.0825 162.967 17.1865 161.847 15.6256C161.363 15.0067 160.745 14.506 160.04 14.1617C159.334 13.8173 158.559 13.6384 157.774 13.6384C156.989 13.6384 156.214 13.8173 155.508 14.1617C154.802 14.506 154.185 15.0067 153.701 15.6256" fill="#2D2D39"/>
<path d="M171.321 20.9581C171.236 17.9879 172.294 15.0985 174.276 12.8844C175.314 11.8392 176.548 11.0097 177.908 10.4436C179.268 9.8776 180.726 9.58618 182.199 9.58618C183.672 9.58618 185.131 9.8776 186.491 10.4436C187.851 11.0097 189.085 11.8392 190.123 12.8844C192.105 15.1146 193.162 18.017 193.078 20.9997C193.163 23.9796 192.106 26.8794 190.123 29.1051C189.123 30.1993 187.895 31.0608 186.526 31.6287C185.157 32.1967 183.68 32.4572 182.199 32.3919C182.196 32.3913 182.193 32.3914 182.19 32.3923C182.187 32.3931 182.185 32.3947 182.183 32.3969C182.18 32.399 182.179 32.4017 182.178 32.4046C182.177 32.4075 182.177 32.4106 182.178 32.4135C180.7 32.4744 179.226 32.2107 177.861 31.6412C176.496 31.0716 175.272 30.2099 174.276 29.1167C172.291 26.8673 171.235 23.9482 171.321 20.9497V20.9581ZM177.744 26.1749C178.243 26.8821 178.911 27.4527 179.687 27.8345C180.463 28.2162 181.323 28.397 182.188 28.36C183.053 28.3963 183.914 28.2174 184.693 27.8392C185.472 27.4611 186.146 26.8955 186.653 26.1933C187.699 24.6637 188.259 22.8538 188.259 21.0006C188.259 19.1474 187.699 17.3374 186.653 15.8078C186.122 15.1302 185.444 14.5824 184.67 14.2059C183.896 13.8295 183.046 13.6344 182.185 13.6353C181.324 13.6363 180.475 13.8333 179.702 14.2115C178.929 14.5896 178.252 15.139 177.722 15.8178C176.641 17.3085 176.083 19.1154 176.137 20.9564C176.089 22.8268 176.653 24.6618 177.744 26.1816" fill="#2D2D39"/>
<path d="M202.115 1H197.468V32.0513H202.115V1Z" fill="#2D2D39"/>
<path d="M24.1533 33.9782C22.6833 33.9782 21.2316 33.9082 19.8198 33.7749C25.2067 39.6785 31.3087 42.4519 35.2355 40.1835C37.7356 38.7384 38.9023 35.5033 38.804 31.3748C34.13 33.1583 29.1607 34.0417 24.1583 33.9782" fill="#FD6157"/>
<path d="M24.1531 8.01679C25.6248 8.01679 27.0749 8.0868 28.4866 8.22014C23.1064 2.31821 17.0045 -0.45524 13.0776 1.81153C10.5775 3.25659 9.41081 6.49173 9.50915 10.6202C14.1832 8.83667 19.1524 7.95333 24.1548 8.01679" fill="#FD6157"/>
<path d="M40.4632 13.5037C39.6705 18.4429 37.9507 23.1876 35.3946 27.4877C34.6562 28.7677 33.8696 29.9878 33.0479 31.1445C40.8532 29.4311 46.3068 25.5343 46.3068 20.9974C46.3068 18.1073 44.09 15.4755 40.4632 13.4971" fill="#55C0CF"/>
<path d="M12.9121 14.5091C13.6505 13.2291 14.4372 12.009 15.2589 10.8523C7.4519 12.5657 2 16.4642 2 20.9994C2 23.8895 4.2151 26.5213 7.84359 28.4997C8.63606 23.5599 10.3558 18.8147 12.9121 14.5141" fill="#55C0CF"/>
<path d="M35.3934 14.5068C36.1284 15.7802 36.7935 17.072 37.3935 18.367C39.8069 10.7467 39.1569 4.07972 35.2301 1.81296C32.7299 0.36623 29.3365 0.971256 25.813 3.12802C29.6963 6.2827 32.947 10.1442 35.3934 14.5085" fill="#A06BD6"/>
<path d="M12.9123 27.4883C12.1772 26.215 11.5122 24.9232 10.9122 23.6282C8.49206 31.2452 9.14209 37.9155 13.0706 40.1839C15.5707 41.6306 18.9642 41.0256 22.4877 38.8688C18.6044 35.7142 15.3537 31.8526 12.9073 27.4883" fill="#A06BD6"/>
</svg>
