<svg width="401" height="80" viewBox="0 0 401 80" fill="none" xmlns="http://www.w3.org/2000/svg">
<path d="M121.841 80.0002V17.9008H131.135V22.9977C132.268 21.2668 133.858 19.8826 135.728 18.9975C138.007 17.7737 140.559 17.1475 143.145 17.1774C145.886 16.9922 148.632 17.4367 151.175 18.4767C153.717 19.5167 155.987 21.1248 157.812 23.1777C161.423 28.0137 163.2 33.9747 162.826 39.9984C163.159 45.9789 161.363 51.8841 157.756 56.6658C155.927 58.7517 153.642 60.3889 151.079 61.4507C148.516 62.5125 145.743 62.9706 142.975 62.7894C140.547 62.8184 138.147 62.2676 135.975 61.1827C134.056 60.2731 132.396 58.8979 131.145 57.1825V80.0002H121.841ZM133.758 29.248C131.516 32.3686 130.405 36.1612 130.611 39.9984C130.405 43.8358 131.515 47.6285 133.758 50.7489C134.721 51.9857 135.954 52.987 137.361 53.6772C138.769 54.3673 140.315 54.7282 141.883 54.7323C143.451 54.7365 144.999 54.3839 146.41 53.7013C147.821 53.0187 149.059 52.0239 150.029 50.7922C152.276 47.657 153.391 43.8507 153.189 39.9984C153.395 36.1621 152.287 32.3702 150.049 29.248C149.082 28.0101 147.846 27.0088 146.435 26.3201C145.024 25.6314 143.474 25.2735 141.903 25.2735C140.333 25.2735 138.783 25.6314 137.372 26.3201C135.96 27.0088 134.724 28.0101 133.758 29.248" fill="#363636"/>
<path d="M168.359 49.3819C168.284 47.3132 168.726 45.2585 169.646 43.404C170.565 41.5495 171.933 39.9538 173.626 38.7615C177.718 36.0219 182.584 34.6709 187.503 34.908H195.127V32.9812C195.214 31.8877 195.04 30.7891 194.619 29.7761C194.198 28.763 193.543 27.8644 192.706 27.1543C190.917 25.8421 188.734 25.1779 186.516 25.2709C184.685 25.1816 182.878 25.7121 181.386 26.7766C179.894 27.8412 178.804 29.3776 178.292 31.1378L169.942 29.3811C170.776 25.8026 172.864 22.6413 175.829 20.4707C178.963 18.2261 182.746 17.0683 186.6 17.1739C198.478 17.1739 204.417 22.9986 204.417 34.648V62.0992H196.707L195.707 56.3189C194.164 58.4506 192.111 60.1602 189.735 61.2903C187.358 62.4204 184.736 62.9347 182.109 62.7858H181.983C178.423 62.911 174.946 61.6965 172.239 59.3824C170.897 58.103 169.855 56.5434 169.185 54.8148C168.516 53.0862 168.236 51.2311 168.365 49.3819H168.359ZM178.002 49.3819C177.952 50.1127 178.062 50.8455 178.324 51.5294C178.587 52.2133 178.995 52.8317 179.521 53.3415C180.047 53.8512 180.678 54.2401 181.37 54.4808C182.061 54.7216 182.797 54.8085 183.526 54.7355C186.505 54.7833 189.4 53.74 191.663 51.802C192.832 50.7746 193.752 49.4945 194.354 48.0587C194.955 46.6229 195.222 45.0691 195.133 43.515V42.515H187.133C184.77 42.3869 182.429 43.0329 180.466 44.355C179.676 44.9224 179.039 45.6753 178.609 46.5473C178.18 47.4193 177.971 48.3837 178.002 49.3553" fill="#363636"/>
<path d="M214.752 62.0995V17.9009H224.059V25.2679C225.42 22.7969 227.417 20.7345 229.843 19.2943C232.032 17.941 234.549 17.2081 237.123 17.1742C239.045 17.1599 240.951 17.5234 242.733 18.2443L241.146 26.5946C239.597 25.6671 237.814 25.2042 236.01 25.2613C234.272 25.3496 232.586 25.8848 231.116 26.815C229.646 27.7453 228.44 29.0391 227.616 30.5715C224.978 35.1581 223.741 40.4172 224.059 45.6988V62.0995H214.752Z" fill="#363636"/>
<path d="M245.094 49.3819C245.019 47.3132 245.461 45.2585 246.381 43.404C247.3 41.5495 248.668 39.9538 250.36 38.7615C254.453 36.0219 259.318 34.6709 264.238 34.908H271.861V32.9812C271.948 31.8877 271.774 30.7893 271.353 29.7762C270.933 28.7632 270.277 27.8646 269.441 27.1543C267.651 25.8424 265.468 25.1782 263.251 25.2709C261.42 25.1816 259.613 25.7121 258.121 26.7766C256.628 27.8412 255.539 29.3776 255.027 31.1378L246.677 29.3811C247.511 25.8026 249.599 22.6413 252.564 20.4707C255.698 18.2261 259.481 17.0683 263.334 17.1739C275.213 17.1739 281.152 22.9986 281.152 34.648V62.0992H273.441L272.441 56.3189C270.899 58.4506 268.845 60.1602 266.469 61.2903C264.093 62.4204 261.471 62.9347 258.844 62.7858H258.717C255.158 62.9106 251.681 61.6962 248.974 59.3824C247.632 58.103 246.59 56.5434 245.92 54.8148C245.25 53.0862 244.971 51.2311 245.1 49.3819H245.094ZM254.737 49.3819C254.687 50.1127 254.797 50.8455 255.059 51.5294C255.322 52.2133 255.73 52.8317 256.256 53.3415C256.782 53.8512 257.413 54.2401 258.104 54.4808C258.796 54.7216 259.532 54.8085 260.261 54.7355C263.24 54.7833 266.134 53.74 268.398 51.802C269.567 50.7746 270.487 49.4945 271.089 48.0587C271.69 46.6229 271.956 45.0691 271.868 43.515V42.515H263.868C261.504 42.3871 259.164 43.0331 257.201 44.355C256.411 44.9224 255.774 45.6753 255.344 46.5473C254.914 47.4193 254.706 48.3837 254.737 49.3553" fill="#363636"/>
<path d="M291.489 62.1027V0H300.782V22.7843C302.138 21.0926 303.883 19.7554 305.869 18.8875C307.961 17.8063 310.273 17.2201 312.626 17.1741C315.397 16.9956 318.172 17.4586 320.735 18.527C323.298 19.5954 325.58 21.2405 327.404 23.3343C331.004 28.1198 332.799 34.0222 332.474 40.0017C332.844 46.0168 331.062 51.9675 327.447 56.7891C325.62 58.8397 323.349 60.4461 320.807 61.486C318.266 62.5258 315.52 62.9716 312.78 62.7894C310.203 62.8142 307.66 62.1954 305.383 60.9893C303.501 60.1194 301.902 58.7393 300.766 57.0058V62.1027H291.489ZM303.406 29.2546C301.165 32.3745 300.054 36.1656 300.259 40.0017C300.053 43.839 301.163 47.6317 303.406 50.7522C304.369 51.989 305.602 52.9904 307.009 53.6805C308.417 54.3706 309.963 54.7314 311.531 54.7356C313.098 54.7398 314.647 54.3872 316.058 53.7046C317.469 53.022 318.707 52.0272 319.677 50.7955C321.924 47.6603 323.038 43.854 322.837 40.0017C323.042 36.1651 321.933 32.373 319.693 29.2513C318.727 28.0134 317.491 27.0121 316.08 26.3234C314.668 25.6347 313.118 25.2768 311.548 25.2768C309.977 25.2768 308.428 25.6347 307.016 26.3234C305.605 27.0121 304.369 28.0134 303.403 29.2513" fill="#363636"/>
<path d="M338.641 39.9159C338.473 33.9755 340.588 28.1967 344.551 23.7685C346.627 21.6782 349.096 20.0192 351.816 18.8871C354.536 17.755 357.453 17.1721 360.399 17.1721C363.345 17.1721 366.261 17.755 368.981 18.8871C371.701 20.0192 374.17 21.6782 376.246 23.7685C380.211 28.229 382.324 34.0338 382.156 39.9992C382.327 45.959 380.213 51.7585 376.246 56.2099C374.246 58.3984 371.791 60.1214 369.053 61.2572C366.314 62.3931 363.36 62.9141 360.399 62.7835C360.393 62.7823 360.386 62.7826 360.381 62.7843C360.375 62.786 360.37 62.7892 360.365 62.7935C360.361 62.7978 360.358 62.8031 360.356 62.8089C360.354 62.8147 360.354 62.8209 360.355 62.8269C357.399 62.9485 354.453 62.4212 351.722 61.2821C348.992 60.143 346.544 58.4196 344.551 56.2332C340.582 51.7344 338.47 45.8962 338.641 39.8992V39.9159ZM351.488 50.3496C352.485 51.7639 353.821 52.9051 355.374 53.6687C356.927 54.4323 358.646 54.7937 360.375 54.7198C362.106 54.7924 363.828 54.4345 365.386 53.6782C366.945 52.9219 368.292 51.7908 369.306 50.3863C371.398 47.3272 372.518 43.7073 372.518 40.0009C372.518 36.2945 371.398 32.6745 369.306 29.6154C368.244 28.2601 366.888 27.1645 365.34 26.4116C363.791 25.6587 362.092 25.2685 360.37 25.2704C358.649 25.2723 356.95 25.6664 355.404 26.4227C353.857 27.1791 352.503 28.2777 351.445 29.6354C349.282 32.6167 348.167 36.2306 348.275 39.9125C348.177 43.6533 349.306 47.3233 351.488 50.363" fill="#363636"/>
<path d="M400.23 0H390.937V62.1027H400.23V0Z" fill="#363636"/>
<path d="M44.3067 65.9564C41.3666 65.9564 38.4631 65.8164 35.6396 65.5497C46.4135 77.3569 58.6173 82.9038 66.471 78.3669C71.4712 75.4768 73.8047 69.0065 73.608 60.7495C64.2599 64.3166 54.3214 66.0833 44.3167 65.9564" fill="#FA6158"/>
<path d="M44.3062 14.0336C47.2497 14.0336 50.1498 14.1736 52.9733 14.4403C42.2128 2.63643 30.009 -2.91048 22.1553 1.62305C17.1551 4.51318 14.8216 10.9835 15.0183 19.2405C24.3664 15.6733 34.3048 13.9067 44.3096 14.0336" fill="#FA6158"/>
<path d="M76.9263 25.0077C75.341 34.8861 71.9015 44.3755 66.7892 52.9756C65.3125 55.5357 63.7391 57.9758 62.0957 60.2892C77.7064 56.8624 88.6135 49.0688 88.6135 39.995C88.6135 34.2148 84.18 28.9512 76.9263 24.9944" fill="#55BDCC"/>
<path d="M21.8243 27.0185C23.301 24.4584 24.8744 22.0183 26.5178 19.7048C10.9038 23.1316 0 30.9286 0 39.999C0 45.7793 4.43019 51.0429 11.6872 54.9997C13.2721 45.1201 16.7116 35.6296 21.8243 27.0285" fill="#55BDCC"/>
<path d="M66.7868 27.0137C68.2569 29.5605 69.5869 32.1439 70.787 34.734C75.6139 19.4934 74.3138 6.15945 66.4601 1.62592C61.4599 -1.26754 54.673 -0.0574881 47.626 4.25603C55.3925 10.5654 61.894 18.2885 66.7868 27.017" fill="#493372"/>
<path d="M21.8245 52.9767C20.3545 50.4299 19.0244 47.8465 17.8243 45.2563C12.9841 60.4903 14.2842 73.8309 22.1412 78.3678C27.1414 81.2613 33.9284 80.0512 40.9753 75.7377C33.2088 69.4283 26.7073 61.7053 21.8145 52.9767" fill="#493372"/>
</svg>
