<svg width="209" height="56" viewBox="0 0 209 56" version="1.1" xmlns="http://www.w3.org/2000/svg" xmlns:xlink="http://www.w3.org/1999/xlink">
<title>logo (horizontal lockup, inverted)</title>
<desc>Created using Figma</desc>
<g id="Canvas" transform="translate(-3876 -436)">
<g id="logo (horizontal lockup, inverted)">
<g id="mark-color@2x">
<g id="Fill 1">
<use xlink:href="#path0_fill" transform="translate(3918.18 453.229)" fill="#FFFFFF"/>
</g>
<g id="Fill 3">
<use xlink:href="#path1_fill" transform="translate(3900.49 477.381)" fill="#FFFFFF"/>
</g>
<g id="Fill 5">
<use xlink:href="#path2_fill" transform="translate(3886.84 466.545)" fill="#FFFFFF"/>
</g>
<g id="Fill 7">
<use xlink:href="#path3_fill" transform="translate(3908.68 436.013)" fill="#FFFFFF"/>
</g>
<g id="Fill 9">
<use xlink:href="#path4_fill" transform="translate(3886.84 436)" fill="#FFFFFF"/>
</g>
<g id="Fill 11">
<use xlink:href="#path5_fill" transform="translate(3876 449.879)" fill="#FFFFFF"/>
</g>
</g>
<g id="Page 1">
<g id="Fill 1">
<use xlink:href="#path6_fill" transform="translate(3954 453.474)" fill="#FFFFFF"/>
</g>
<g id="Fill 3">
<use xlink:href="#path7_fill" transform="translate(3968.79 453.474)" fill="#FFFFFF"/>
</g>
<g id="Fill 5">
<use xlink:href="#path8_fill" transform="translate(3990.54 453.473)" fill="#FFFFFF"/>
</g>
<g id="Fill 7">
<use xlink:href="#path7_fill" transform="translate(4009.1 453.474)" fill="#FFFFFF"/>
</g>
<g id="Fill 9">
<use xlink:href="#path9_fill" transform="translate(4030.85 453.473)" fill="#FFFFFF"/>
</g>
<g id="Group 13">
<mask id="mask0_outline" mask-type="alpha">
<g id="Clip 12">
<use xlink:href="#path10_fill" transform="translate(3954 453.057)" fill="#FFFFFF"/>
</g>
</mask>
<g id="Fill 11" mask="url(#mask0_outline)">
<use xlink:href="#path11_fill" transform="translate(4049.62 453.058)" fill="#FFFFFF"/>
</g>
</g>
<g id="Group 16">
<mask id="mask1_outline" mask-type="alpha">
<g id="Clip 15">
<use xlink:href="#path12_fill" transform="translate(3954 453.057)" fill="#FFFFFF"/>
</g>
</mask>
<g id="Fill 14" mask="url(#mask1_outline)">
<use xlink:href="#path13_fill" transform="translate(4072.46 453.473)" fill="#FFFFFF"/>
</g>
</g>
</g>
</g>
</g>
<defs>
<path id="path0_fill" fill-rule="evenodd" d="M 8.918 6.962C 9.124 6.314 9.324 5.666 9.498 5.024C 9.606 4.628 9.696 4.238 9.792 3.842C 9.934 3.264 10.07 2.688 10.186 2.118C 10.27 1.708 10.34 1.304 10.41 0.898C 10.462 0.6 10.532 0.296 10.576 0C 16.468 2.834 19.818 6.662 19.818 10.618C 19.818 14.842 16.008 18.916 9.368 21.794C 8.572 22.138 7.742 22.454 6.892 22.754C 6.634 22.846 6.366 22.928 6.102 23.014C 5.494 23.216 4.876 23.41 4.242 23.588C 3.928 23.676 3.612 23.76 3.292 23.844C 2.664 24.006 2.026 24.158 1.376 24.3C 1.06 24.366 0.748 24.438 0.428 24.504C 0.284 24.53 0.146 24.568 0 24.594C 0.006 24.588 0.01 24.582 0.014 24.576C 1.27 22.834 2.454 21.006 3.542 19.118C 4.654 17.194 5.626 15.202 6.522 13.19C 6.85 12.456 7.202 11.73 7.496 10.99C 7.9 9.98 8.266 8.978 8.602 7.984C 8.716 7.64 8.81 7.304 8.918 6.962Z"/>
<path id="path1_fill" fill-rule="evenodd" d="M 25.694 0.316C 25.322 0.452 24.952 0.588 24.57 0.714C 24.008 0.904 23.43 1.078 22.846 1.248C 22.466 1.358 22.088 1.474 21.698 1.578C 21.056 1.748 20.392 1.898 19.726 2.046C 19.376 2.124 19.036 2.21 18.682 2.282C 17.652 2.49 16.604 2.676 15.528 2.832C 14.738 2.944 13.926 3.018 13.122 3.102C 8.818 3.544 4.332 3.578 0.026 3.14C 0.016 3.14 0.008 3.14 0 3.138C 0.096 3.25 0.198 3.352 0.296 3.462C 0.502 3.698 0.714 3.926 0.924 4.158C 1.382 4.66 1.842 5.148 2.308 5.62C 2.534 5.85 2.758 6.076 2.986 6.296C 3.47 6.768 3.956 7.216 4.442 7.652C 4.644 7.832 4.844 8.02 5.046 8.192C 5.732 8.778 6.418 9.34 7.106 9.852C 12.868 14.124 18.352 15.426 22.01 13.316C 25.44 11.334 27.08 6.52 26.588 0C 26.3 0.112 25.988 0.208 25.694 0.316Z"/>
<path id="path2_fill" fill-rule="evenodd" d="M 16.8561 20.074C 16.4041 19.676 15.9581 19.254 15.5121 18.828C 15.2321 18.56 14.9521 18.298 14.6741 18.02C 14.1941 17.534 13.7201 17.024 13.2441 16.508C 13.0161 16.256 12.7841 16.018 12.5561 15.76C 11.8601 14.97 11.1721 14.152 10.4981 13.296C 10.0041 12.668 9.55209 12 9.08009 11.352C 7.78209 9.562 6.54209 7.722 5.43609 5.802C 4.34609 3.916 3.35609 1.98 2.47809 0.024L 2.46609 0C 2.41409 0.146 2.37409 0.29 2.32409 0.438C 2.22609 0.732 2.13609 1.028 2.04009 1.32C 1.83409 1.962 1.64409 2.6 1.47009 3.232C 1.38209 3.55 1.29609 3.868 1.21609 4.186C 1.05809 4.814 0.916091 5.438 0.788091 6.054C 0.730091 6.338 0.664091 6.62 0.612091 6.902C 0.450091 7.782 0.310091 8.654 0.212091 9.51C -0.615909 16.702 1.00409 22.038 4.65809 24.152C 8.08809 26.126 13.1301 25.112 18.4801 21.458C 18.2321 21.262 17.9901 21.038 17.7441 20.834C 17.4481 20.584 17.1501 20.336 16.8561 20.074Z"/>
<path id="path3_fill" fill-rule="evenodd" d="M 1.618 5.06115C 2.076 5.46515 2.53 5.89315 2.982 6.32715C 3.256 6.59115 3.532 6.84715 3.804 7.11915C 4.288 7.60515 4.762 8.11715 5.238 8.63715C 5.468 8.88915 5.7 9.12715 5.928 9.38715C 6.624 10.1771 7.31 10.9931 7.984 11.8511C 8.474 12.4731 8.93 13.1451 9.404 13.7951C 10.688 15.5651 11.922 17.3971 13.042 19.3351C 14.128 21.2151 15.12 23.1531 16.002 25.1191C 16.002 25.1191 16.008 25.1331 16.012 25.1411C 16.06 25.0051 16.096 24.8691 16.144 24.7351C 16.248 24.4251 16.342 24.1151 16.442 23.8051C 16.644 23.1751 16.832 22.5431 17.006 21.9191C 17.094 21.5971 17.18 21.2731 17.262 20.9551C 17.422 20.3211 17.566 19.6911 17.694 19.0711C 17.752 18.7891 17.818 18.5091 17.87 18.2311C 18.036 17.3491 18.176 16.4771 18.272 15.6311C 19.1 8.43515 17.48 3.10115 13.822 0.989146C 10.394 -0.980854 5.35 0.0291464 0 3.68515C 0.25 3.88315 0.494 4.10715 0.742 4.31515C 1.034 4.55915 1.326 4.80515 1.618 5.06115Z"/>
<path id="path4_fill" fill-rule="evenodd" d="M 0.979765 14C 1.34976 13.866 1.71776 13.732 2.09576 13.604C 2.66776 13.412 3.25777 13.236 3.84977 13.064C 4.21776 12.958 4.58177 12.846 4.95777 12.744C 5.62777 12.568 6.31576 12.412 7.00776 12.26C 7.33176 12.188 7.64576 12.108 7.97576 12.042C 9.00776 11.832 10.0618 11.646 11.1418 11.49C 11.9378 11.376 12.7458 11.302 13.5518 11.22C 17.8858 10.768 22.3118 10.732 26.6478 11.18C 26.6558 11.182 26.6638 11.182 26.6718 11.182C 26.5758 11.07 26.4758 10.97 26.3798 10.86C 26.1678 10.618 25.9498 10.386 25.7358 10.15C 25.2878 9.658 24.8398 9.18 24.3818 8.716C 24.1438 8.474 23.9058 8.236 23.6678 8.004C 23.2018 7.552 22.7338 7.12 22.2658 6.7C 22.0458 6.506 21.8318 6.304 21.6118 6.12C 20.9318 5.534 20.2478 4.976 19.5638 4.47C 15.6238 1.544 11.8458 0 8.62976 0C 7.14976 0 5.81376 0.338 4.65976 1.002C 1.23176 2.98 -0.406235 7.794 0.085765 14.318C 0.373765 14.206 0.685765 14.11 0.979765 14Z"/>
<path id="path5_fill" fill-rule="evenodd" d="M 9.246 24.592C 9.288 24.3 9.36 23.996 9.41 23.702C 9.48 23.294 9.55 22.886 9.634 22.476C 9.752 21.902 9.888 21.322 10.032 20.74C 10.124 20.352 10.214 19.966 10.32 19.576C 10.496 18.926 10.7 18.268 10.908 17.608C 11.012 17.276 11.106 16.948 11.216 16.612C 11.552 15.616 11.918 14.612 12.322 13.598C 12.618 12.862 12.97 12.132 13.298 11.396C 14.192 9.394 15.162 7.404 16.278 5.468C 17.37 3.578 18.55 1.752 19.802 0.022C 19.806 0.014 19.812 0.006 19.816 0C 19.668 0.03 19.526 0.064 19.376 0.096C 19.076 0.154 18.782 0.224 18.484 0.288C 17.824 0.432 17.172 0.586 16.534 0.752C 16.208 0.836 15.888 0.922 15.57 1.012C 14.944 1.19 14.332 1.38 13.73 1.576C 13.456 1.666 13.178 1.752 12.91 1.846C 12.062 2.144 11.238 2.46 10.456 2.798C 3.81 5.676 0 9.748 0 13.968C 0 17.928 3.35 21.756 9.246 24.592Z"/>
<path id="path6_fill" fill-rule="evenodd" d="M 14.7839 6.60699C 14.7839 4.48499 14.1279 2.854 12.8159 1.71198C 11.5039 0.570007 9.67505 0 7.32788 0L 0 0L 0 20.768L 3.80811 20.768L 3.80811 13.216L 7.32788 13.216C 9.67505 13.216 11.5039 12.646 12.8159 11.504C 14.1279 10.362 14.7839 8.73102 14.7839 6.60699ZM 9.98413 8.99097C 9.38721 9.60999 8.50122 9.91998 7.32812 9.91998L 3.80811 9.91998L 3.80811 3.26398L 7.32812 3.26398C 8.50122 3.26398 9.38721 3.578 9.98413 4.20795C 10.5811 4.83698 10.8801 5.63696 10.8801 6.60699C 10.8801 7.578 10.5811 8.37299 9.98413 8.99097Z"/>
<path id="path7_fill" fill-rule="evenodd" d="M 11.8081 0L 7.073 0L 0 20.767L 4 20.767L 5.47192 16.287L 13.1841 16.287L 14.624 20.767L 18.624 20.767L 11.8081 0ZM 12.2559 13.439L 6.43188 13.439L 9.37598 4.51099L 12.2559 13.439Z"/>
<path id="path8_fill" fill-rule="evenodd" d="M 14.177 10.144C 15.009 9.099 15.425 7.84003 15.425 6.36798C 15.425 4.427 14.752 2.89099 13.408 1.76001C 12.043 0.586975 10.134 0 7.68091 0L 0 0L 0 20.768L 3.77588 20.768L 3.77588 12.672L 6.65601 12.672L 11.2319 20.768L 16.1599 20.768L 10.593 12.32C 12.1489 11.915 13.345 11.19 14.177 10.144ZM 10.4648 9.19995C 9.76099 9.82996 8.71484 10.144 7.32788 10.144L 3.77588 10.144L 3.77588 3.26398L 7.68091 3.26398C 8.95996 3.26398 9.9209 3.57898 10.5598 4.20795C 11.2 4.83698 11.5198 5.66901 11.5198 6.70398C 11.5198 7.73895 11.168 8.57098 10.4648 9.19995Z"/>
<path id="path9_fill" fill-rule="evenodd" d="M 8.38403 0L 0 0L 0 20.768L 8.41577 20.768C 9.88794 20.768 11.1038 20.597 12.0642 20.256C 14.6018 19.318 15.8718 17.568 15.8718 15.008C 15.8718 13.728 15.488 12.677 14.72 11.856C 13.9519 11.035 12.9812 10.507 11.8079 10.272C 12.9812 9.93103 13.8928 9.34399 14.5442 8.51202C 15.1951 7.67999 15.5198 6.677 15.5198 5.50403C 15.5198 3.92499 14.9231 2.63501 13.7278 1.63202C 12.469 0.544006 10.6882 0 8.38403 0ZM 3.77612 8.76801L 8.22437 8.76801C 9.35425 8.76801 10.2083 8.52295 10.7839 8.03198C 11.3601 7.54095 11.6482 6.875 11.6482 6.03198C 11.6482 5.19 11.365 4.51697 10.8 4.01599C 10.2351 3.51495 9.38599 3.26398 8.25708 3.26398L 3.77612 3.26398L 3.77612 8.76801ZM 8.32007 17.472C 9.53589 17.472 10.4163 17.2271 10.9602 16.736C 11.5051 16.2451 11.7761 15.595 11.7761 14.784C 11.7761 13.973 11.4929 13.3181 10.928 12.816C 10.363 12.315 9.49292 12.064 8.32007 12.064L 3.77612 12.064L 3.77612 17.472L 8.32007 17.472Z"/>
<path id="path10_fill" fill-rule="evenodd" d="M 0 0L 130.78 0L 130.78 21.632L 0 21.632"/>
<path id="path11_fill" fill-rule="evenodd" d="M 13.248 0.687012C 12.0952 0.229004 10.8262 0 9.43994 0C 6.53906 0 4.26611 0.88501 2.62402 2.65503C 0.875 4.53302 0 7.242 0 10.783C 0 14.282 0.875 16.981 2.62402 18.88C 4.28809 20.715 6.54785 21.632 9.4082 21.632C 12.2881 21.632 14.5601 20.735 16.2231 18.943C 17.9722 17.023 18.8472 14.304 18.8472 10.783C 18.8472 7.28497 17.9722 4.59698 16.2231 2.71997C 15.3921 1.823 14.3999 1.146 13.248 0.687012ZM 13.4556 5.32703C 14.4478 6.61804 14.9438 8.453 14.9438 10.832C 14.9438 13.211 14.4478 15.0341 13.4556 16.304C 12.4639 17.5731 11.125 18.208 9.43994 18.208C 7.75488 18.208 6.40967 17.5731 5.40771 16.304C 4.40479 15.0341 3.90381 13.211 3.90381 10.832C 3.90381 8.453 4.40479 6.61804 5.40771 5.32703C 6.40967 4.03705 7.75488 3.39203 9.43994 3.39203C 11.125 3.39203 12.4639 4.03705 13.4556 5.32703Z"/>
<path id="path12_fill" fill-rule="evenodd" d="M 0 0L 130.78 0L 130.78 21.632L 0 21.632L 0 0Z"/>
<path id="path13_fill" fill-rule="evenodd" d="M 3.776 17.472L 12.32 17.472L 12.32 20.768L 0 20.768L 0 0L 3.776 0L 3.776 17.472Z"/>
</defs>
</svg>
