<svg width="192" height="40" viewBox="0 0 192 40" fill="none" xmlns="http://www.w3.org/2000/svg">
<path d="M60.9452 14.6671C61.832 13.1511 63.1822 12.3925 64.9957 12.3925C66.7317 12.3925 68.2169 13.0455 69.4514 14.3504C70.763 15.7325 71.4188 17.5373 71.4188 19.7635C71.4188 22.0094 70.7533 23.823 69.4224 25.2055C68.188 26.5112 66.7124 27.1634 64.9957 27.1634C63.2791 27.1634 62.0253 26.6551 61.2345 25.6378V33.5843H57.8204V12.7668H60.6269L60.9452 14.6671ZM64.3881 24.0825C64.7932 24.0825 65.2127 23.9962 65.6467 23.8234C66.0807 23.6506 66.4713 23.3819 66.8185 23.0172C67.5896 22.211 67.9758 21.1312 67.9758 19.7779C67.9758 18.4243 67.6431 17.3645 66.9776 16.5963C66.3122 15.8289 65.5021 15.4445 64.5473 15.4445C63.5925 15.4445 62.8113 15.7181 62.2037 16.2652C61.5961 16.8122 61.2731 17.5948 61.2345 18.6118V21.1168C61.2345 22.0194 61.5527 22.7485 62.1893 23.3055C62.7868 23.8234 63.5202 24.0825 64.3881 24.0825Z" fill="#493272"/>
<path d="M79.3402 18.5831C80.4586 18.5831 81.7513 18.7658 83.2172 19.1302V17.7481C83.2172 16.7695 83.0191 16.0445 82.6241 15.5742C82.2287 15.1039 81.5825 14.8687 80.6856 14.8687C79.7887 14.8687 79.0987 15.0459 78.6169 15.4014C78.1347 15.7569 77.8936 16.2604 77.8936 16.9127H74.1613C74.1613 15.3198 74.7255 14.1681 75.8539 13.4571C76.9822 12.7476 78.5591 12.3917 80.5843 12.3917C83.4776 12.3917 85.3482 13.3999 86.1973 15.4154C86.4866 16.1069 86.6313 16.9231 86.6313 17.8629V26.76H83.6512L83.3908 24.888C82.4838 26.4049 81.0951 27.1627 79.2245 27.1627C77.411 27.1627 76.0029 26.7212 75.0003 25.8382C74.0745 24.994 73.6116 23.9234 73.6116 22.6277C73.6116 21.3324 74.1223 20.3343 75.145 19.6336C76.1673 18.9338 77.5653 18.5831 79.3402 18.5831ZM83.2172 21.2897C82.0788 20.9829 81.0183 20.8294 80.0346 20.8294C78.1829 20.8294 77.2571 21.4436 77.2571 22.6721C77.2571 23.19 77.4689 23.6367 77.8936 24.011C78.3175 24.3853 78.9975 24.5725 79.9334 24.5725C80.8688 24.5725 81.6404 24.261 82.248 23.6367C82.8556 23.0133 83.1782 22.2306 83.2172 21.2897Z" fill="#493272"/>
<path d="M93.9712 15.5314C94.8199 13.5158 96.0929 12.5081 97.7903 12.5081C98.1178 12.5081 98.5325 12.5752 99.0344 12.7096L98.9766 16.1072C98.4361 15.9916 97.9061 15.9345 97.3853 15.9345C95.1088 15.9345 93.9708 17.4989 93.9708 20.6274V26.7604H90.5568V12.7384H93.9708V15.5314H93.9712Z" fill="#493272"/>
<path d="M106.496 18.5831C107.614 18.5831 108.907 18.7658 110.373 19.1302V17.7481C110.373 16.7695 110.174 16.0445 109.779 15.5742C109.384 15.1039 108.738 14.8687 107.841 14.8687C106.944 14.8687 106.254 15.0459 105.772 15.4014C105.29 15.7569 105.049 16.2604 105.049 16.9127H101.317C101.317 15.3198 101.881 14.1681 103.009 13.4571C104.138 12.7476 105.714 12.3917 107.739 12.3917C110.633 12.3917 112.503 13.3999 113.353 15.4154C113.642 16.1069 113.787 16.9231 113.787 17.8629V26.76H110.807L110.546 24.888C109.639 26.4049 108.25 27.1627 106.38 27.1627C104.567 27.1627 103.158 26.7212 102.156 25.8382C101.23 24.994 100.767 23.9234 100.767 22.6277C100.767 21.3324 101.278 20.3343 102.3 19.6336C103.323 18.9338 104.721 18.5831 106.496 18.5831ZM110.373 21.2897C109.235 20.9829 108.174 20.8294 107.19 20.8294C105.339 20.8294 104.413 21.4436 104.413 22.6721C104.413 23.19 104.625 23.6367 105.049 24.011C105.473 24.3853 106.153 24.5725 107.089 24.5725C108.024 24.5725 108.796 24.261 109.404 23.6367C110.011 23.0133 110.334 22.2306 110.373 21.2897Z" fill="#493272"/>
<path d="M129.532 14.4084C130.718 15.7517 131.312 17.5177 131.312 19.7064C131.312 21.8947 130.684 23.6991 129.431 25.1191C128.216 26.4824 126.701 27.1635 124.888 27.1635C124.02 27.1635 123.225 26.9335 122.502 26.4724C121.778 26.0117 121.204 25.3015 120.78 24.3417L119.941 26.7604H117.713V7.00854H121.127V14.5232C122.014 13.1031 123.341 12.3925 125.105 12.3925C126.87 12.3925 128.346 13.0651 129.532 14.4084ZM121.127 18.9002V20.7426C121.166 21.7211 121.522 22.5277 122.198 23.1612C122.834 23.7755 123.611 24.0826 124.527 24.0826C125.443 24.0826 126.229 23.6847 126.885 22.8877C127.54 22.0918 127.868 21.0405 127.868 19.7352C127.868 18.4299 127.545 17.3881 126.899 16.6111C126.253 15.8337 125.448 15.445 124.483 15.445C123.519 15.445 122.718 15.7617 122.082 16.3952C121.445 17.0286 121.127 17.8636 121.127 18.9002Z" fill="#493272"/>
<path d="M140.457 12.3925C141.402 12.3925 142.29 12.5416 143.119 12.8392C143.948 13.1367 144.662 13.5926 145.26 14.2068C146.591 15.5501 147.256 17.4125 147.256 19.7927C147.256 22.1346 146.591 23.9774 145.26 25.3207C144.063 26.5492 142.463 27.1634 140.457 27.1634C138.451 27.1634 136.831 26.5492 135.596 25.3207C134.265 23.9962 133.6 22.1534 133.6 19.7927C133.6 17.3933 134.265 15.5313 135.596 14.2068C136.812 12.9975 138.432 12.3925 140.457 12.3925ZM143.842 19.7639C143.842 18.2863 143.553 17.1773 142.974 16.4387C142.396 15.6997 141.59 15.3302 140.558 15.3302C139.527 15.3302 138.682 15.7001 138.027 16.4387C137.371 17.1777 137.043 18.2863 137.043 19.7639C137.043 21.242 137.337 22.3509 137.926 23.0892C138.513 23.829 139.319 24.1977 140.341 24.1977C141.364 24.1977 142.203 23.8286 142.859 23.0892C143.514 22.3505 143.842 21.242 143.842 19.7639Z" fill="#493272"/>
<path d="M150.433 7.00854H153.847V26.7608H150.433V7.00854Z" fill="#493272"/>
<path d="M157.671 26.3861C157.228 25.9642 157.006 25.4271 157.006 24.774C157.006 24.1218 157.228 23.5743 157.671 23.1328C158.115 22.6913 158.684 22.4706 159.378 22.4706C160.073 22.4706 160.651 22.6913 161.114 23.1328C161.577 23.5743 161.809 24.1218 161.809 24.774C161.809 25.4271 161.577 25.9646 161.114 26.3861C160.651 26.8084 160.073 27.0195 159.378 27.0195C158.684 27.0195 158.115 26.8084 157.671 26.3861Z" fill="#493272"/>
<path d="M170.084 12.3925C170.971 12.3925 171.767 12.5416 172.471 12.8392C173.175 13.1367 173.768 13.5258 174.25 14.0053C175.214 14.9267 175.783 16.0884 175.957 17.4889L172.514 17.5757C172.36 16.9618 172.075 16.4523 171.661 16.0496C171.246 15.6465 170.768 15.4449 170.229 15.4449C169.688 15.4449 169.226 15.5269 168.84 15.6893C168.454 15.8529 168.117 16.1072 167.827 16.4523C167.171 17.2589 166.844 18.3723 166.844 19.7927C166.844 21.2136 167.152 22.2834 167.769 23.0032C168.387 23.7226 169.134 24.0825 170.012 24.0825C170.889 24.0825 171.526 23.8762 171.921 23.4635C172.316 23.0512 172.515 22.4893 172.515 21.7791H175.957C175.957 23.3151 175.446 24.5912 174.424 25.6086C173.382 26.6451 171.926 27.1634 170.056 27.1634C168.204 27.1634 166.651 26.492 165.397 25.1479C164.066 23.7082 163.401 21.9134 163.401 19.7635C163.401 17.4989 164.066 15.6849 165.397 14.3216C166.65 13.0359 168.212 12.3925 170.084 12.3925Z" fill="#493272"/>
<path d="M184.978 12.3925C185.923 12.3925 186.81 12.5416 187.64 12.8392C188.468 13.1367 189.183 13.5926 189.781 14.2068C191.112 15.5501 191.777 17.4125 191.777 19.7927C191.777 22.1346 191.112 23.9774 189.781 25.3207C188.584 26.5492 186.984 27.1634 184.978 27.1634C182.972 27.1634 181.351 26.5492 180.117 25.3207C178.786 23.9962 178.12 22.1534 178.12 19.7927C178.12 17.3933 178.786 15.5313 180.117 14.2068C181.332 12.9975 182.953 12.3925 184.978 12.3925ZM188.363 19.7639C188.363 18.2863 188.074 17.1773 187.495 16.4387C186.917 15.6997 186.111 15.3302 185.079 15.3302C184.047 15.3302 183.203 15.7001 182.548 16.4387C181.891 17.1777 181.564 18.2863 181.564 19.7639C181.564 21.242 181.858 22.3509 182.446 23.0892C183.034 23.829 183.84 24.1977 184.862 24.1977C185.884 24.1977 186.724 23.8286 187.379 23.0892C188.035 22.3505 188.363 21.242 188.363 19.7639Z" fill="#493272"/>
<path fill-rule="evenodd" clip-rule="evenodd" d="M25.6141 4.554C25.2895 4.24227 24.9634 3.93485 24.6344 3.64467C24.4247 3.4608 24.2149 3.2841 24.0052 3.10884C23.9368 3.05144 23.8687 2.99234 23.8007 2.93326C23.6918 2.83856 23.5828 2.74391 23.4722 2.65633C27.315 0.0303344 30.9379 -0.695119 33.4002 0.719874C36.0276 2.23686 37.1912 6.06812 36.5965 11.2368C36.5275 11.8445 36.427 12.4708 36.3077 13.1043C36.2847 13.2274 36.2578 13.3511 36.2309 13.4753C36.2141 13.5526 36.1973 13.63 36.1813 13.7076C36.0894 14.153 35.9859 14.6055 35.871 15.0609C35.8121 15.2893 35.7504 15.522 35.6871 15.7533C35.5622 16.2015 35.4271 16.6554 35.282 17.1079C35.2551 17.1914 35.2288 17.2749 35.2025 17.3584C35.1586 17.4976 35.1147 17.6368 35.068 17.7759C35.0503 17.8253 35.0349 17.875 35.0195 17.9249C35.0047 17.9723 34.99 18.0199 34.9732 18.0675C34.9703 18.0618 34.966 18.0517 34.966 18.0517C34.3325 16.6396 33.62 15.2476 32.8399 13.8973C32.0355 12.5053 31.1491 11.1894 30.2269 9.91805C30.1159 9.76585 30.0063 9.61198 29.8967 9.45821C29.6703 9.14029 29.4441 8.82285 29.2069 8.52173C28.7228 7.90545 28.2301 7.31935 27.7301 6.75191C27.6287 6.63622 27.5261 6.5266 27.4235 6.41689C27.3605 6.3495 27.2974 6.28208 27.2345 6.21321C26.8926 5.83971 26.5522 5.47195 26.2045 5.12287C26.0743 4.99263 25.9428 4.86749 25.8113 4.74236C25.7455 4.67979 25.6797 4.61721 25.6141 4.554ZM18.9289 35.4632C19.2492 35.7692 19.5696 36.0723 19.8942 36.3582C20.0684 36.5134 20.2446 36.6618 20.4202 36.8098C20.4575 36.8412 20.4948 36.8726 20.532 36.904C20.6052 36.9647 20.6779 37.0279 20.7506 37.091C20.8534 37.1804 20.9563 37.2698 21.0607 37.3522C17.2179 39.9768 13.5964 40.7051 11.1328 39.2873C8.5082 37.7688 7.3446 33.9361 7.93933 28.7703C8.00972 28.1555 8.11027 27.5292 8.22663 26.8971C8.24995 26.7707 8.27717 26.6442 8.30448 26.5175C8.32092 26.4411 8.33739 26.3647 8.35305 26.288C8.44499 25.8455 8.54698 25.3973 8.66047 24.9463C8.71793 24.7179 8.7797 24.4894 8.84291 24.261C8.96789 23.8071 9.10436 23.3488 9.25232 22.8877C9.28384 22.7918 9.31446 22.6954 9.34513 22.5987C9.38157 22.4839 9.4181 22.3688 9.45631 22.2542C9.47193 22.208 9.48619 22.1623 9.50038 22.1168C9.51884 22.0577 9.5372 21.9989 9.55831 21.9396L9.56693 21.9568C10.1976 23.3618 10.9087 24.7523 11.6916 26.107C12.486 27.4861 13.3766 28.8077 14.309 30.0934C14.4198 30.2456 14.5291 30.3993 14.6384 30.553C14.8635 30.8695 15.0886 31.1861 15.3275 31.4897C15.8116 32.1046 16.3057 32.6921 16.8057 33.2595C16.8991 33.3652 16.9934 33.4663 17.0876 33.5672C17.1586 33.6431 17.2295 33.719 17.2998 33.7968C17.6417 34.1674 17.9822 34.5337 18.327 34.8828C18.4765 35.0324 18.6268 35.1754 18.7774 35.3187C18.8278 35.3668 18.8784 35.4148 18.9289 35.4632Z" fill="#493272"/>
<path fill-rule="evenodd" clip-rule="evenodd" d="M8.54584 10.0356C8.52727 10.0423 8.50869 10.0491 8.49011 10.0558C8.39418 10.0917 8.29557 10.1255 8.19712 10.1593C8.07888 10.1998 7.96086 10.2403 7.84798 10.2842C7.49459 5.5982 8.67112 2.14045 11.1333 0.719707C11.9622 0.242776 12.9218 0 13.9849 0C16.2948 0 19.0085 1.10901 21.8385 3.21067C22.3298 3.57412 22.8211 3.97491 23.3095 4.39582C23.4099 4.47983 23.5086 4.56908 23.6078 4.65874C23.6647 4.71013 23.7217 4.76165 23.7792 4.81241C24.1154 5.11409 24.4515 5.42438 24.7862 5.74904C24.9572 5.91568 25.1281 6.08663 25.2991 6.26045C25.6281 6.59373 25.9498 6.93706 26.2716 7.29045C26.3232 7.34736 26.3752 7.40396 26.4272 7.46061C26.53 7.57267 26.633 7.68496 26.7342 7.80042C26.7664 7.83735 26.7993 7.87271 26.8322 7.90811C26.8697 7.94846 26.9072 7.98886 26.9439 8.0317C26.9382 8.0317 26.9324 8.0317 26.9267 8.03027C23.8123 7.70848 20.6332 7.73434 17.5202 8.059C17.4241 8.06877 17.328 8.07839 17.2319 8.08801C16.7489 8.13633 16.266 8.18464 15.7892 8.25293C15.0134 8.36498 14.2564 8.49858 13.5151 8.64942C13.3654 8.67937 13.2202 8.71333 13.0749 8.74733C12.9903 8.76714 12.9055 8.78696 12.8198 8.806C12.3228 8.91518 11.8286 9.02723 11.3474 9.15364C11.1709 9.20152 10.9981 9.25246 10.8258 9.30326C10.7344 9.3302 10.6432 9.3571 10.5516 9.38349C10.1263 9.50703 9.70255 9.63345 9.2917 9.77136C9.03918 9.85687 8.79287 9.94611 8.54584 10.0356ZM36.0066 29.964L36.0452 29.9499C36.1357 29.9167 36.2286 29.885 36.3215 29.8533C36.4453 29.8111 36.5692 29.7689 36.6874 29.7229C37.0408 34.406 35.8628 37.8638 33.3991 39.2874C30.7717 40.803 26.8327 39.8678 22.694 36.7993C22.1999 36.4316 21.7071 36.0279 21.2144 35.607C21.1208 35.5274 21.0279 35.4429 20.9348 35.3583C20.8835 35.3117 20.8321 35.2651 20.7805 35.2191C20.4315 34.906 20.0824 34.5842 19.7347 34.2452C19.571 34.0871 19.4101 33.9248 19.2478 33.7596C18.913 33.4206 18.5826 33.0701 18.2537 32.7095C18.2087 32.6598 18.1636 32.6104 18.1186 32.561C18.0124 32.4447 17.9065 32.3286 17.8026 32.2096C17.7725 32.1758 17.7418 32.143 17.7112 32.1103C17.6703 32.0666 17.6294 32.0229 17.59 31.9769C17.5957 31.9783 17.6015 31.9783 17.6087 31.9783C20.7015 32.2929 23.9237 32.2685 27.0151 31.951C27.1374 31.9382 27.26 31.9258 27.3826 31.9133C27.839 31.8669 28.296 31.8205 28.7433 31.7571C29.5162 31.645 30.2689 31.5114 31.0087 31.362C31.1678 31.3297 31.323 31.2934 31.4784 31.257C31.5714 31.2353 31.6645 31.2135 31.7586 31.1925C32.237 31.0862 32.7139 30.9785 33.175 30.8564C33.3717 30.8039 33.5642 30.7472 33.7559 30.6907C33.8372 30.6668 33.9183 30.6429 33.9996 30.6193C34.4191 30.4972 34.8342 30.3722 35.2379 30.2358C35.4991 30.1496 35.7524 30.057 36.0066 29.964Z" fill="#FD6157"/>
<path fill-rule="evenodd" clip-rule="evenodd" d="M6.70806 27.2619C6.68336 27.3862 6.65862 27.5107 6.64113 27.6323C2.40621 25.5953 0 22.8458 0 20.0014C0 16.9703 2.73661 14.0455 7.51024 11.9783C8.07193 11.7356 8.66378 11.5086 9.27287 11.2946C9.40371 11.2487 9.53786 11.2054 9.67217 11.1621C9.73547 11.1417 9.79881 11.1213 9.86186 11.1006C10.2943 10.9598 10.7338 10.8234 11.1835 10.6955C11.4119 10.6309 11.6417 10.5691 11.8759 10.5088C12.3341 10.3895 12.8025 10.2789 13.2765 10.1755C13.3494 10.1598 13.422 10.1437 13.4946 10.1275C13.6349 10.0963 13.7751 10.065 13.9172 10.0376C13.9619 10.028 14.0057 10.0183 14.0491 10.0085C14.1104 9.99482 14.1711 9.98123 14.2333 9.96863C14.2326 9.96964 14.2318 9.97074 14.231 9.9719C14.2284 9.97565 14.2254 9.98004 14.2232 9.98443C13.3239 11.227 12.4764 12.5386 11.692 13.8961C10.8904 15.2867 10.1937 16.7161 9.55156 18.154C9.47786 18.3194 9.40248 18.4844 9.32716 18.6492C9.16172 19.0112 8.99663 19.3724 8.85053 19.7357C8.56035 20.464 8.29746 21.1851 8.05612 21.9005C8.00816 22.047 7.96443 22.1914 7.92076 22.3356C7.8925 22.429 7.86425 22.5222 7.8349 22.6159C7.6855 23.09 7.53897 23.5626 7.41255 24.0295C7.34343 24.2838 7.28377 24.5358 7.22392 24.7886C7.21785 24.8143 7.21178 24.8399 7.20569 24.8656C7.10226 25.2836 7.00458 25.7002 6.91982 26.1125C6.85949 26.407 6.80921 26.7 6.75893 26.993L6.75893 26.9931C6.74384 27.0818 6.72596 27.1718 6.70806 27.2619ZM37.12 15.984C36.995 16.4451 36.8513 16.9105 36.7034 17.376C36.6716 17.4765 36.6416 17.5763 36.6115 17.6761C36.5681 17.8202 36.5248 17.9641 36.4764 18.11C36.2351 18.824 35.9722 19.5437 35.682 20.2692C35.5343 20.641 35.3662 21.0079 35.1978 21.3752C35.1255 21.533 35.0532 21.6909 34.9824 21.8494C34.3388 23.2945 33.6407 24.7253 32.8419 26.1073C32.0605 27.4634 31.21 28.7764 30.3079 30.0276C30.305 30.0319 30.3021 30.0362 30.2978 30.0405C30.3511 30.031 30.403 30.0193 30.4546 30.0076C30.5046 29.9963 30.5544 29.9851 30.6053 29.9759C30.7271 29.9508 30.8473 29.9244 30.9671 29.8982C31.0734 29.8749 31.1795 29.8516 31.2862 29.8293C31.7531 29.7274 32.2113 29.6182 32.6624 29.5018C32.8922 29.4415 33.1192 29.3811 33.3447 29.3179C33.8001 29.1901 34.244 29.0507 34.6807 28.9056C34.7349 28.888 34.7893 28.8706 34.8437 28.8532C34.9798 28.8096 35.1158 28.7661 35.2482 28.7189C35.8587 28.5034 36.4548 28.2764 37.0266 28.0294C41.7959 25.9622 44.5325 23.0359 44.5325 20.002C44.5325 17.1605 42.1263 14.4109 37.8943 12.3754C37.8755 12.5013 37.8503 12.6292 37.825 12.7571C37.8076 12.8451 37.7903 12.9331 37.775 13.0204C37.7248 13.312 37.6745 13.6022 37.6141 13.8967C37.5308 14.3061 37.4331 14.7198 37.3311 15.135C37.3163 15.1964 37.3016 15.2576 37.2869 15.3187C37.2337 15.5406 37.1808 15.7609 37.12 15.984Z" fill="#55C0CF"/>
</svg>
