<svg width="203" height="42" viewBox="0 0 203 42" fill="none" xmlns="http://www.w3.org/2000/svg">
<path d="M61.9204 41V9.95028H66.5673V12.4987C67.1341 11.6333 67.9289 10.9412 68.8641 10.4986C70.0034 9.88671 71.2793 9.57361 72.5726 9.5886C73.9428 9.49599 75.3161 9.71821 76.5873 10.2382C77.8585 10.7582 78.9937 11.5623 79.9062 12.5887C81.7117 15.0067 82.6001 17.9872 82.413 20.9991C82.5797 23.9893 81.6815 26.9419 79.8779 29.3328C78.9633 30.3757 77.8211 31.1943 76.5396 31.7252C75.2581 32.2562 73.8717 32.4852 72.4875 32.3946C71.2735 32.4091 70.0736 32.1337 68.9874 31.5912C68.0281 31.1364 67.1979 30.4488 66.5723 29.5911V41H61.9204ZM67.879 15.6239C66.7578 17.1842 66.2027 19.0805 66.3056 20.9991C66.2024 22.9178 66.7575 24.8141 67.879 26.3743C68.3607 26.9927 68.9768 27.4934 69.6806 27.8385C70.3844 28.1835 71.1576 28.364 71.9414 28.366C72.7253 28.3681 73.4993 28.1918 74.205 27.8505C74.9106 27.5092 75.5294 27.0118 76.0144 26.396C77.1381 24.8284 77.6953 22.9252 77.5944 20.9991C77.6975 19.081 77.1437 17.185 76.0244 15.6239C75.5412 15.0049 74.9232 14.5043 74.2175 14.1599C73.5118 13.8156 72.7369 13.6366 71.9517 13.6366C71.1665 13.6366 70.3916 13.8156 69.6859 14.1599C68.9802 14.5043 68.3622 15.0049 67.879 15.6239" fill="#363636"/>
<path d="M85.1794 25.6911C85.1418 24.6567 85.363 23.6294 85.8229 22.7021C86.2827 21.7749 86.9667 20.977 87.8128 20.3809C89.8592 19.0111 92.2918 18.3356 94.7514 18.4541H98.5633V17.4907C98.6068 16.944 98.5198 16.3947 98.3094 15.8882C98.099 15.3816 97.7713 14.9323 97.3532 14.5773C96.4583 13.9212 95.3668 13.5891 94.2581 13.6356C93.3427 13.5909 92.439 13.8562 91.6929 14.3884C90.9468 14.9207 90.4019 15.6889 90.1462 16.569L85.971 15.6907C86.3879 13.9014 87.4322 12.3208 88.9145 11.2355C90.4817 10.1132 92.3729 9.53426 94.2998 9.58706C100.239 9.58706 103.208 12.4994 103.208 18.3241V32.0497H99.3533L98.8533 29.1596C98.0821 30.2254 97.0553 31.0802 95.8673 31.6453C94.6792 32.2103 93.3681 32.4675 92.0547 32.393H91.9913C90.2116 32.4556 88.4731 31.8484 87.1194 30.6913C86.4487 30.0516 85.9273 29.2718 85.5925 28.4075C85.2578 27.5432 85.1178 26.6157 85.1827 25.6911H85.1794ZM90.0012 25.6911C89.9761 26.0564 90.031 26.4229 90.1622 26.7648C90.2933 27.1068 90.4975 27.416 90.7605 27.6709C91.0235 27.9257 91.3389 28.1202 91.6848 28.2405C92.0306 28.3609 92.3986 28.4044 92.763 28.3679C94.2527 28.3918 95.6998 27.8701 96.8315 26.9011C97.4162 26.3874 97.8762 25.7473 98.1769 25.0295C98.4775 24.3116 98.6108 23.5347 98.5666 22.7576V22.2576H94.5664C93.3848 22.1936 92.2145 22.5166 91.2329 23.1776C90.8382 23.4613 90.5194 23.8378 90.3046 24.2738C90.0898 24.7098 89.9856 25.192 90.0012 25.6778" fill="#363636"/>
<path d="M108.376 32.0498V9.95047H113.029V13.634C113.71 12.3984 114.708 11.3673 115.921 10.6472C117.016 9.97048 118.274 9.60407 119.561 9.58712C120.523 9.57993 121.476 9.76172 122.367 10.1221L121.573 14.2973C120.799 13.8335 119.907 13.6021 119.005 13.6306C118.136 13.6748 117.293 13.9424 116.558 14.4075C115.823 14.8726 115.22 15.5196 114.808 16.2857C113.489 18.5791 112.871 21.2086 113.029 23.8494V32.0498H108.376Z" fill="#363636"/>
<path d="M123.547 25.6911C123.509 24.6567 123.73 23.6294 124.19 22.7021C124.65 21.7749 125.334 20.977 126.18 20.3809C128.227 19.0111 130.659 18.3356 133.119 18.4541H136.931V17.4907C136.974 16.944 136.887 16.3947 136.677 15.8882C136.466 15.3817 136.139 14.9324 135.721 14.5773C134.826 13.9213 133.734 13.5892 132.626 13.6356C131.71 13.5909 130.806 13.8562 130.06 14.3884C129.314 14.9207 128.769 15.6889 128.514 16.569L124.338 15.6907C124.755 13.9014 125.8 12.3208 127.282 11.2355C128.849 10.1132 130.74 9.53426 132.667 9.58706C138.606 9.58706 141.576 12.4994 141.576 18.3241V32.0497H137.721L137.221 29.1596C136.45 30.2254 135.423 31.0802 134.235 31.6453C133.047 32.2103 131.736 32.4675 130.422 32.393H130.359C128.579 32.4554 126.841 31.8482 125.487 30.6913C124.816 30.0516 124.295 29.2718 123.96 28.4075C123.625 27.5432 123.485 26.6157 123.55 25.6911H123.547ZM128.369 25.6911C128.344 26.0564 128.398 26.4229 128.53 26.7648C128.661 27.1068 128.865 27.416 129.128 27.6709C129.391 27.9257 129.706 28.1202 130.052 28.2405C130.398 28.3609 130.766 28.4044 131.13 28.3679C132.62 28.3918 134.067 27.8701 135.199 26.9011C135.784 26.3874 136.244 25.7473 136.544 25.0295C136.845 24.3116 136.978 23.5347 136.934 22.7576V22.2576H132.934C131.752 22.1937 130.582 22.5167 129.6 23.1776C129.206 23.4613 128.887 23.8378 128.672 24.2738C128.457 24.7098 128.353 25.192 128.369 25.6778" fill="#363636"/>
<path d="M146.744 32.0513V1H151.391V12.3922C152.069 11.5463 152.942 10.8777 153.935 10.4437C154.98 9.90315 156.136 9.61005 157.313 9.58704C158.699 9.49781 160.086 9.72929 161.368 10.2635C162.649 10.7977 163.79 11.6202 164.702 12.6672C166.502 15.0599 167.4 18.0111 167.237 21.0009C167.422 24.0084 166.531 26.9837 164.723 29.3946C163.81 30.4198 162.675 31.2231 161.404 31.743C160.133 32.2629 158.76 32.4858 157.39 32.3947C156.101 32.4071 154.83 32.0977 153.691 31.4947C152.751 31.0597 151.951 30.3697 151.383 29.5029V32.0513H146.744ZM152.703 15.6273C151.582 17.1872 151.027 19.0828 151.13 21.0009C151.027 22.9195 151.582 24.8158 152.703 26.3761C153.185 26.9945 153.801 27.4952 154.505 27.8402C155.208 28.1853 155.982 28.3657 156.765 28.3678C157.549 28.3699 158.323 28.1936 159.029 27.8523C159.735 27.511 160.353 27.0136 160.838 26.3978C161.962 24.8302 162.519 22.927 162.418 21.0009C162.521 19.0825 161.967 17.1865 160.847 15.6256C160.363 15.0067 159.745 14.506 159.04 14.1617C158.334 13.8173 157.559 13.6384 156.774 13.6384C155.989 13.6384 155.214 13.8173 154.508 14.1617C153.802 14.506 153.185 15.0067 152.701 15.6256" fill="#363636"/>
<path d="M170.321 20.9581C170.236 17.9879 171.294 15.0985 173.276 12.8844C174.314 11.8392 175.548 11.0097 176.908 10.4436C178.268 9.8776 179.726 9.58618 181.199 9.58618C182.672 9.58618 184.131 9.8776 185.491 10.4436C186.851 11.0097 188.085 11.8392 189.123 12.8844C191.105 15.1146 192.162 18.017 192.078 20.9997C192.163 23.9796 191.106 26.8794 189.123 29.1051C188.123 30.1993 186.895 31.0608 185.526 31.6287C184.157 32.1967 182.68 32.4572 181.199 32.3919C181.196 32.3913 181.193 32.3914 181.19 32.3923C181.187 32.3931 181.185 32.3947 181.183 32.3969C181.18 32.399 181.179 32.4017 181.178 32.4046C181.177 32.4075 181.177 32.4106 181.178 32.4135C179.7 32.4744 178.226 32.2107 176.861 31.6412C175.496 31.0716 174.272 30.2099 173.276 29.1167C171.291 26.8673 170.235 23.9482 170.321 20.9497V20.9581ZM176.744 26.1749C177.243 26.8821 177.911 27.4527 178.687 27.8345C179.463 28.2162 180.323 28.397 181.188 28.36C182.053 28.3963 182.914 28.2174 183.693 27.8392C184.472 27.4611 185.146 26.8955 185.653 26.1933C186.699 24.6637 187.259 22.8538 187.259 21.0006C187.259 19.1474 186.699 17.3374 185.653 15.8078C185.122 15.1302 184.444 14.5824 183.67 14.2059C182.896 13.8295 182.046 13.6344 181.185 13.6353C180.324 13.6363 179.475 13.8333 178.702 14.2115C177.929 14.5896 177.252 15.139 176.722 15.8178C175.641 17.3085 175.083 19.1154 175.137 20.9564C175.089 22.8268 175.653 24.6618 176.744 26.1816" fill="#363636"/>
<path d="M201.115 1H196.468V32.0513H201.115V1Z" fill="#363636"/>
<path d="M23.1533 33.9782C21.6833 33.9782 20.2316 33.9082 18.8198 33.7749C24.2067 39.6785 30.3087 42.4519 34.2355 40.1835C36.7356 38.7384 37.9023 35.5033 37.804 31.3748C33.13 33.1583 28.1607 34.0417 23.1583 33.9782" fill="#FA6158"/>
<path d="M23.1531 8.01679C24.6248 8.01679 26.0749 8.0868 27.4866 8.22014C22.1064 2.31821 16.0045 -0.45524 12.0776 1.81153C9.57753 3.25659 8.41081 6.49173 8.50915 10.6202C13.1832 8.83667 18.1524 7.95333 23.1548 8.01679" fill="#FA6158"/>
<path d="M39.4632 13.5037C38.6705 18.4429 36.9507 23.1876 34.3946 27.4877C33.6562 28.7677 32.8696 29.9878 32.0479 31.1445C39.8532 29.4311 45.3068 25.5343 45.3068 20.9974C45.3068 18.1073 43.09 15.4755 39.4632 13.4971" fill="#55BDCC"/>
<path d="M11.9121 14.5091C12.6505 13.2291 13.4372 12.009 14.2589 10.8523C6.4519 12.5657 1 16.4642 1 20.9994C1 23.8895 3.2151 26.5213 6.84359 28.4997C7.63606 23.5599 9.35581 18.8147 11.9121 14.5141" fill="#55BDCC"/>
<path d="M34.3934 14.5068C35.1284 15.7802 35.7935 17.072 36.3935 18.367C38.8069 10.7467 38.1569 4.07972 34.2301 1.81296C31.7299 0.36623 28.3365 0.971256 24.813 3.12802C28.6963 6.2827 31.947 10.1442 34.3934 14.5085" fill="#493372"/>
<path d="M11.9123 27.4883C11.1772 26.215 10.5122 24.9232 9.91217 23.6282C7.49206 31.2452 8.14209 37.9155 12.0706 40.1839C14.5707 41.6306 17.9642 41.0256 21.4877 38.8688C17.6044 35.7142 14.3537 31.8526 11.9073 27.4883" fill="#493372"/>
</svg>
