<?xml version="1.0" encoding="UTF-8" standalone="no"?>
<svg width="96px" height="96px" viewBox="0 0 96 96" version="1.1" xmlns="http://www.w3.org/2000/svg" xmlns:xlink="http://www.w3.org/1999/xlink">
    <!-- Generator: Sketch 3.7.1 (28215) - http://www.bohemiancoding.com/sketch -->
    <title>action-logo</title>
    <desc>Created with Sketch.</desc>
    <defs></defs>
    <g id="Symbols" stroke="none" stroke-width="1" fill="none" fill-rule="evenodd">
        <g id="Rectangle-35-+-Shape-+-Action" transform="translate(-26.000000, 0.000000)">
            <g id="action-logo" transform="translate(26.000000, 0.000000)">
                <g id="Rectangle-35-+-Shape" fill="#FFFFFF">
                    <rect id="Rectangle-35" x="0" y="0" width="96" height="96" rx="8"></rect>
                </g>
                <g id="1045-clapboard@2x" transform="translate(13.000000, 13.000000)" fill="#C62575">
                    <g id="_x31_045-clapboard_x40_2x.png">
                        <path d="M63,16 L63,8 C63,7.447 62.553,7 62,7 C61.949,7 61.905,7.021 61.856,7.029 L61.853,7.01 L7.853,15.01 L7.856,15.029 C7.375,15.102 7,15.499 7,16 L7,24 L7,32 L7,62 C7,62.553 7.447,63 8,63 L62,63 C62.553,63 63,62.553 63,62 L63,32 L63,24 C63,23.447 62.553,23 62,23 L21.574,23 L62.146,16.989 L62.143,16.97 C62.625,16.898 63,16.501 63,16 L63,16 Z M9,33 L23,33 L23,49 L9,49 L9,33 L9,33 Z M61,61 L9,61 L9,51 L61,51 L61,61 L61,61 Z M25,49 L25,33 L45,33 L45,49 L25,49 L25,49 Z M61,49 L47,49 L47,33 L61,33 L61,49 L61,49 Z M45.414,25 L54.586,25 L48.586,31 L39.414,31 L45.414,25 L45.414,25 Z M30.586,25 L24.586,31 L15.414,31 L21.414,25 L30.586,25 L30.586,25 Z M21.647,20.967 L14.94,15.982 L24.005,14.639 L30.712,19.623 L21.647,20.967 L21.647,20.967 Z M45.37,17.453 L38.663,12.469 L47.728,11.125 L54.435,16.109 L45.37,17.453 L45.37,17.453 Z M61,9.257 L60.986,9.161 L61,9.159 L61,9.257 L61,9.257 Z M53,55 L17,55 L17,57 L53,57 L53,55 L53,55 Z" id="Shape" transform="translate(35.000000, 35.000000) rotate(-15.000000) translate(-35.000000, -35.000000) "></path>
                    </g>
                </g>
            </g>
        </g>
    </g>
</svg>