<?xml version="1.0" encoding="UTF-8" standalone="no"?>
<svg width="56px" height="56px" viewBox="0 0 56 56" version="1.1" xmlns="http://www.w3.org/2000/svg" xmlns:xlink="http://www.w3.org/1999/xlink" xmlns:sketch="http://www.bohemiancoding.com/sketch/ns">
    <!-- Generator: Sketch 3.4.4 (17249) - http://www.bohemiancoding.com/sketch -->
    <title>Shape</title>
    <desc>Created with Sketch.</desc>
    <defs></defs>
    <g id="Welcome" stroke="none" stroke-width="1" fill="none" fill-rule="evenodd" sketch:type="MSPage">
        <g id="Desktop-HD" sketch:type="MSArtboardGroup" transform="translate(-265.000000, -1307.000000)" fill="#098D8F">
            <g id="Group" sketch:type="MSLayerGroup" transform="translate(0.000000, 963.000000)">
                <g id="A-dashboard-to-keep--+-_x37_95-gauge_x40_2x.png" transform="translate(265.000000, 344.000000)" sketch:type="MSShapeGroup">
                    <g id="_x37_95-gauge_x40_2x.png">
                        <path d="M13.777,18.635 L10.313,16.634 C9.835,16.358 9.224,16.522 8.947,17 C8.671,17.479 8.835,18.09 9.313,18.366 L12.777,20.366 C13.256,20.642 13.867,20.478 14.143,20 C14.419,19.522 14.256,18.91 13.777,18.635 L13.777,18.635 Z M12,28 C12,27.447 11.553,27 11,27 L7,27 C6.447,27 6,27.447 6,28 C6,28.553 6.447,29 7,29 L11,29 C11.553,29 12,28.553 12,28 L12,28 Z M12.777,35.634 L9.313,37.634 C8.835,37.91 8.671,38.521 8.947,39 C9.223,39.479 9.835,39.643 10.313,39.366 L13.777,37.366 C14.256,37.09 14.42,36.478 14.143,36 C13.866,35.522 13.256,35.358 12.777,35.634 L12.777,35.634 Z M43.223,20.366 L46.687,18.366 C47.166,18.09 47.33,17.478 47.053,17 C46.777,16.522 46.165,16.358 45.687,16.634 L42.223,18.635 C41.744,18.91 41.58,19.521 41.856,20 C42.132,20.479 42.744,20.643 43.223,20.366 L43.223,20.366 Z M28,12 C28.553,12 29,11.553 29,11 L29,7 C29,6.448 28.553,6 28,6 C27.447,6 27,6.448 27,7 L27,11 C27,11.553 27.447,12 28,12 L28,12 Z M46.687,37.634 L43.223,35.634 C42.744,35.359 42.133,35.522 41.857,36 C41.581,36.478 41.745,37.09 42.223,37.366 L45.687,39.366 C46.166,39.642 46.777,39.478 47.053,39 C47.329,38.522 47.165,37.91 46.687,37.634 L46.687,37.634 Z M49,27 L45,27 C44.447,27 44,27.447 44,28 C44,28.553 44.447,29 45,29 L49,29 C49.553,29 50,28.553 50,28 C50,27.447 49.553,27 49,27 L49,27 Z M18.366,9.313 C18.09,8.835 17.479,8.672 17,8.947 C16.521,9.223 16.357,9.835 16.634,10.313 L18.634,13.778 C18.91,14.256 19.522,14.42 20,14.143 C20.478,13.866 20.643,13.255 20.366,12.778 L18.366,9.313 L18.366,9.313 Z M28,0 C12.536,0 0,12.536 0,28 C0,43.464 12.536,56 28,56 C43.464,56 56,43.464 56,28 C56,12.536 43.464,0 28,0 L28,0 Z M28,54 C22.087,54 16.653,52.004 12.285,48.679 C16.279,44.579 21.824,42 28,42 C34.176,42 39.721,44.579 43.715,48.679 C39.347,52.004 33.913,54 28,54 L28,54 Z M45.275,47.394 C40.909,42.852 34.798,40 28,40 C21.202,40 15.091,42.852 10.725,47.394 C5.383,42.632 2,35.719 2,28 C2,13.641 13.641,2 28,2 C42.359,2 54,13.641 54,28 C54,35.719 50.617,42.632 45.275,47.394 L45.275,47.394 Z M39,8.947 C38.521,8.672 37.91,8.835 37.634,9.313 L35.634,12.778 C35.358,13.256 35.522,13.867 36,14.143 C36.478,14.419 37.09,14.255 37.366,13.778 L39.366,10.313 C39.643,9.835 39.479,9.224 39,8.947 L39,8.947 Z M37.313,17.272 L30.019,24.566 C29.425,24.215 28.74,24 28,24 C25.791,24 24,25.791 24,28 C24,30.209 25.791,32 28,32 C30.209,32 32,30.209 32,28 C32,27.26 31.785,26.575 31.435,25.98 L38.728,18.686 C39.119,18.295 39.119,17.662 38.728,17.272 C38.338,16.882 37.704,16.882 37.313,17.272 L37.313,17.272 Z M28,30 C26.896,30 26,29.104 26,28 C26,26.896 26.896,26 28,26 C29.104,26 30,26.896 30,28 C30,29.104 29.104,30 28,30 L28,30 Z" id="Shape"></path>
                    </g>
                </g>
            </g>
        </g>
    </g>
</svg>