<?xml version="1.0" encoding="UTF-8" standalone="no"?>
<svg width="112px" height="112px" viewBox="0 0 112 112" version="1.1" xmlns="http://www.w3.org/2000/svg" xmlns:xlink="http://www.w3.org/1999/xlink">
    <!-- Generator: Sketch 3.7.1 (28215) - http://www.bohemiancoding.com/sketch -->
    <title>github</title>
    <desc>Created with Sketch.</desc>
    <defs></defs>
    <g id="Welcome" stroke="none" stroke-width="1" fill="none" fill-rule="evenodd">
        <g id="Desktop-HD" transform="translate(-664.000000, -1124.000000)" fill="#C62575">
            <g id="github" transform="translate(664.000000, 1124.379845)">
                <g id="_x31_264-github_x40_2x.png">
                    <path d="M56,0 C25.072,0 0,24.9748217 0,55.7829457 C0,86.593062 25.072,111.565891 56,111.565891 C86.928,111.565891 112,86.593062 112,55.7829457 C112,24.9748217 86.928,0 56,0 L56,0 Z M70.7012827,105.589147 C69.4072578,105.245996 68.897248,104.11679 68.897248,103.099307 C68.897248,101.389536 68.9612493,95.763454 68.9612493,88.7926982 C68.9612493,83.9287307 67.2972173,80.7466026 65.4311814,79.1365854 C77.0174042,77.8457786 89.1796381,73.4386809 89.1796381,53.406237 C89.1796381,47.7123225 87.1675994,43.0578368 83.8335353,39.4128537 C84.3695456,38.094116 86.1535799,32.7932293 83.3155253,25.6129917 C83.3155253,25.6129917 78.9574415,24.2104613 69.0272505,30.9577698 C64.8731706,29.8026274 60.4230851,29.2240587 56.0050001,29.204108 C51.5829151,29.2240587 47.1328295,29.8026274 42.9847497,30.9577698 C33.0485586,24.2104613 28.6824747,25.6129917 28.6824747,25.6129917 C25.8524202,32.7932293 27.6384546,38.094116 28.1724649,39.4128537 C24.8444009,43.0578368 22.8183619,47.7123225 22.8183619,53.406237 C22.8183619,73.3888043 34.9605954,77.8617391 46.5088175,79.1784818 C45.0227889,80.481259 43.6787631,82.7795734 43.206754,86.1492376 C40.242697,87.4839358 32.7085521,89.7842453 28.0704629,81.8159572 C28.0704629,81.8159572 25.32241,76.8103401 20.1043097,76.4432482 C20.1043097,76.4432482 15.024212,76.3774111 19.7463028,79.6134059 C19.7463028,79.6134059 23.1563684,81.2174378 25.5204139,87.2405379 C25.5204139,87.2405379 28.5724725,97.3814514 43.0407508,94.2292493 C43.0667513,98.5824803 43.1107521,101.860372 43.1107521,103.099307 C43.1107521,104.112799 42.5907421,105.242006 41.2907171,105.585157 C19.7503029,99.2548171 4.01200023,79.4138994 4,55.8781221 C4.14000269,27.195078 27.3644493,3.98449612 55.9969999,3.98449612 C84.6415508,3.98449612 107.867997,27.2030582 108,55.8920875 C107.982,79.4258698 92.243697,99.2627974 70.7012827,105.589147 L70.7012827,105.589147 Z" id="Shape"></path>
                </g>
            </g>
        </g>
    </g>
</svg>