<?xml version="1.0" encoding="UTF-8" standalone="no"?>
<svg width="56px" height="48px" viewBox="0 0 56 48" version="1.1" xmlns="http://www.w3.org/2000/svg" xmlns:xlink="http://www.w3.org/1999/xlink">
    <!-- Generator: Sketch 3.7.1 (28215) - http://www.bohemiancoding.com/sketch -->
    <title>map-icon</title>
    <desc>Created with Sketch.</desc>
    <defs></defs>
    <g id="Welcome" stroke="none" stroke-width="1" fill="none" fill-rule="evenodd">
        <g id="Desktop-HD" transform="translate(-692.000000, -733.000000)" fill="#098D8F">
            <g id="map-icon" transform="translate(692.000000, 733.000000)">
                <g id="_x38_52-map_x40_2x.png">
                    <path d="M5.729,24.998 C5.862,25.058 6,25.086 6.137,25.086 C6.52,25.086 6.884,24.866 7.051,24.495 C7.24,24.07 7.577,23.557 7.997,23.05 C8.35,22.625 8.29,21.993 7.865,21.642 C7.441,21.289 6.809,21.347 6.457,21.774 C5.917,22.425 5.491,23.084 5.225,23.676 C5,24.18 5.226,24.772 5.729,24.998 L5.729,24.998 Z M14.457,25.331 C14.56,25.363 14.663,25.379 14.765,25.379 C15.187,25.379 15.579,25.109 15.716,24.686 L15.753,24.56 C15.883,24.096 15.948,23.618 15.948,23.139 C15.949,22.831 15.922,22.522 15.867,22.22 C15.767,21.677 15.251,21.32 14.704,21.414 C14.161,21.514 13.801,22.034 13.899,22.578 C13.932,22.761 13.949,22.947 13.948,23.137 C13.948,23.436 13.907,23.733 13.812,24.072 C13.644,24.598 13.932,25.162 14.457,25.331 L14.457,25.331 Z M14.269,32.66 C13.802,32.364 13.184,32.502 12.888,32.969 C12.592,33.435 12.73,34.053 13.196,34.35 C13.877,34.784 14.693,35.01 15.621,35.025 L15.638,35.025 C16.183,35.025 16.628,34.587 16.637,34.04 C16.646,33.488 16.205,33.033 15.653,33.024 C15.101,33.015 14.633,32.893 14.269,32.66 L14.269,32.66 Z M24.85,27.089 C24.344,27.544 23.843,28.056 23.374,28.541 C22.99,28.939 23.001,29.572 23.398,29.957 C23.591,30.145 23.842,30.238 24.092,30.238 C24.354,30.238 24.615,30.136 24.812,29.933 C25.256,29.472 25.728,28.989 26.186,28.578 C26.597,28.208 26.63,27.575 26.262,27.165 C25.893,26.753 25.262,26.72 24.85,27.089 L24.85,27.089 Z M10.334,20.948 C10.454,20.948 10.576,20.927 10.694,20.881 L10.787,20.847 C11.283,20.681 11.746,20.628 12.149,20.69 C12.688,20.763 13.204,20.394 13.286,19.848 C13.367,19.301 12.99,18.792 12.444,18.71 C11.744,18.606 10.956,18.681 10.14,18.953 L9.972,19.015 C9.457,19.214 9.201,19.793 9.401,20.31 C9.555,20.706 9.933,20.948 10.334,20.948 L10.334,20.948 Z M12.307,27.715 C12.001,28.495 11.785,29.161 11.644,29.752 C11.516,30.289 11.848,30.829 12.385,30.956 C12.463,30.975 12.541,30.983 12.617,30.983 C13.07,30.983 13.48,30.673 13.59,30.214 C13.708,29.716 13.898,29.137 14.168,28.444 C14.37,27.93 14.117,27.349 13.603,27.148 C13.088,26.949 12.508,27.2 12.307,27.715 L12.307,27.715 Z M31.395,25.735 C30.598,25.369 29.812,25.179 29.058,25.173 L29.05,25.173 C28.501,25.173 28.054,25.616 28.05,26.166 C28.045,26.718 28.489,27.17 29.041,27.175 C29.518,27.179 30.014,27.303 30.56,27.554 C30.696,27.616 30.837,27.645 30.977,27.645 C31.356,27.645 31.718,27.429 31.886,27.062 C32.116,26.561 31.896,25.967 31.395,25.735 L31.395,25.735 Z M49.374,23.578 C48.835,23.699 48.496,24.234 48.617,24.773 C48.761,25.415 48.872,26.045 48.947,26.647 C49.009,27.154 49.44,27.525 49.937,27.525 C49.979,27.525 50.02,27.523 50.062,27.517 C50.61,27.449 51,26.95 50.931,26.401 C50.848,25.734 50.726,25.039 50.568,24.336 C50.447,23.795 49.911,23.456 49.374,23.578 L49.374,23.578 Z M40.771,12.989 L43.984,14.06 L42.436,17.535 C42.21,18.039 42.437,18.632 42.942,18.856 C43.074,18.916 43.213,18.943 43.348,18.943 C43.731,18.943 44.096,18.722 44.262,18.349 L45.89,14.697 L48.771,15.658 C48.876,15.693 48.983,15.71 49.087,15.71 C49.506,15.71 49.897,15.445 50.036,15.025 C50.211,14.501 49.928,13.934 49.403,13.759 L46.708,12.861 L47.739,10.548 C47.964,10.044 47.737,9.451 47.233,9.227 C46.729,9 46.137,9.228 45.913,9.733 L44.802,12.224 L41.404,11.09 C40.879,10.913 40.313,11.198 40.139,11.723 C39.964,12.248 40.247,12.815 40.771,12.989 L40.771,12.989 Z M38,4 L36,4 L20,0 L18,0 L0,4 L0,48 L18,44 L20,44 L36,48 L38,48 L56,44 L56,0 L38,4 L38,4 Z M18,42 L17.78,42 L17.566,42.048 L2,45.507 L2,5.604 L18,2.048 L18,42 L18,42 Z M36,29.176 C35.632,28.844 35.264,28.51 34.892,28.188 C34.472,27.828 33.842,27.874 33.481,28.292 C33.121,28.711 33.167,29.342 33.585,29.703 C34.061,30.114 34.53,30.54 35.061,31.02 C35.246,31.186 35.469,31.267 35.694,31.267 C35.798,31.267 35.901,31.234 36.002,31.2 L36.002,45.939 L20.484,42.06 L20.246,42 L20,42 L20,33.862 C20.343,33.69 20.667,33.512 20.945,33.34 C21.231,33.162 21.507,32.972 21.775,32.772 C22.216,32.44 22.306,31.813 21.975,31.371 C21.644,30.929 21.017,30.84 20.576,31.169 C20.389,31.31 20.196,31.439 20,31.565 L20,2.062 L35.516,5.94 L35.754,6 L36,6 L36,29.176 L36,29.176 Z M54,42.396 L38,45.952 L38,33.448 C38.059,33.526 38.116,33.605 38.199,33.666 C38.828,34.124 39.421,34.499 40.011,34.811 C40.159,34.889 40.32,34.926 40.477,34.926 C40.836,34.926 41.183,34.733 41.362,34.393 C41.62,33.904 41.433,33.298 40.945,33.04 C40.441,32.773 39.928,32.449 39.378,32.048 C38.938,31.73 38.329,31.822 38,32.25 L38,6 L38.22,6 L38.435,5.952 L54,2.493 L54,42.396 L54,42.396 Z M48.767,21.667 C49.277,21.456 49.519,20.87 49.308,20.359 C49.032,19.693 48.731,19.053 48.413,18.46 C48.152,17.972 47.548,17.789 47.059,18.049 C46.573,18.311 46.389,18.916 46.649,19.403 C46.936,19.94 47.209,20.519 47.46,21.125 C47.619,21.511 47.991,21.743 48.384,21.743 C48.512,21.743 48.642,21.719 48.767,21.667 L48.767,21.667 Z M50.08,29.526 C49.537,29.43 49.017,29.789 48.919,30.334 C48.807,30.952 48.633,31.502 48.401,31.966 C48.155,32.461 48.356,33.062 48.85,33.309 C48.994,33.38 49.145,33.413 49.295,33.413 C49.662,33.413 50.016,33.21 50.191,32.859 C50.507,32.224 50.741,31.495 50.886,30.689 C50.985,30.146 50.624,29.625 50.08,29.526 L50.08,29.526 Z M46.049,33.846 C45.925,33.877 45.796,33.9 45.663,33.918 C45.298,33.971 44.932,33.997 44.584,33.997 L44.324,33.992 C43.777,33.964 43.31,34.409 43.293,34.961 C43.275,35.514 43.709,35.976 44.262,35.992 L44.574,35.999 C45.026,35.999 45.487,35.966 45.946,35.9 C46.14,35.872 46.328,35.837 46.508,35.795 C47.046,35.667 47.378,35.128 47.251,34.59 C47.124,34.052 46.585,33.725 46.049,33.846 L46.049,33.846 Z" id="Shape"></path>
                </g>
            </g>
        </g>
    </g>
</svg>