<?xml version="1.0" encoding="UTF-8" standalone="no"?>
<svg width="56px" height="44px" viewBox="0 0 56 44" version="1.1" xmlns="http://www.w3.org/2000/svg" xmlns:xlink="http://www.w3.org/1999/xlink">
    <!-- Generator: Sketch 3.7.1 (28215) - http://www.bohemiancoding.com/sketch -->
    <title>megaphone-icon</title>
    <desc>Created with Sketch.</desc>
    <defs></defs>
    <g id="Welcome" stroke="none" stroke-width="1" fill="none" fill-rule="evenodd">
        <g id="Desktop-HD" transform="translate(-1116.000000, -735.000000)" fill="#098D8F">
            <g id="megaphone-icon" transform="translate(1116.000000, 735.000000)">
                <g id="_x37_58-megaphone_x40_2x.png">
                    <path d="M52,0 C49.791,0 48,1.791 48,4 L7.224,15.65 C6.496,14.654 5.328,14 4,14 C1.791,14 0,15.791 0,18 L0,24 C0,26.209 1.791,28 4,28 C5.307,28 6.456,27.364 7.186,26.396 L15.227,29.077 L14.196,32.168 C13.497,34.264 14.628,36.529 16.723,37.229 L24.312,39.762 C26.408,40.461 28.673,39.329 29.373,37.234 L30.407,34.137 L48,40 C48,42.209 49.791,44 52,44 C54.209,44 56,42.209 56,40 L56,4 C56,1.791 54.209,0 52,0 L52,0 Z M6,24 C6,25.104 5.104,26 4,26 C2.896,26 2,25.104 2,24 L2,18 C2,16.896 2.896,16 4,16 C5.104,16 6,16.896 6,18 L6,24 L6,24 Z M27.475,36.6 C27.125,37.648 25.993,38.213 24.945,37.864 L17.357,35.332 C16.309,34.981 15.743,33.85 16.092,32.802 L17.124,29.709 L28.509,33.504 L27.475,36.6 L27.475,36.6 Z M48,38 L7.935,24.645 C7.97,24.434 8,24.221 8,24 L8,18 C8,17.81 7.97,17.628 7.944,17.444 L48,6 L48,38 L48,38 Z M54,40 C54,41.104 53.104,42 52,42 C50.896,42 50,41.104 50,40 L50,4 C50,2.896 50.896,2 52,2 C53.104,2 54,2.896 54,4 L54,40 L54,40 Z" id="Shape"></path>
                </g>
            </g>
        </g>
    </g>
</svg>