<?xml version="1.0" encoding="UTF-8" standalone="no"?>
<svg width="50px" height="45px" viewBox="0 0 50 45" version="1.1" xmlns="http://www.w3.org/2000/svg" xmlns:xlink="http://www.w3.org/1999/xlink" xmlns:sketch="http://www.bohemiancoding.com/sketch/ns">
    <!-- Generator: Sketch 3.4.4 (17249) - http://www.bohemiancoding.com/sketch -->
    <title>Page 1</title>
    <desc>Created with Sketch.</desc>
    <defs></defs>
    <g id="Welcome" stroke="none" stroke-width="1" fill="none" fill-rule="evenodd" sketch:type="MSPage">
        <g id="Desktop-HD" sketch:type="MSArtboardGroup" transform="translate(-32.000000, -32.000000)" fill-opacity="0.35" fill="#FFFFFF">
            <g id="Page-1" sketch:type="MSLayerGroup" transform="translate(32.000000, 32.000000)">
                <path d="M7.32404108,30.4732706 C7.35731057,30.2419685 7.41434399,30.0011607 7.45395053,29.7682743 C7.50939968,29.4450849 7.56484884,29.1218956 7.63138782,28.7971219 C7.72485925,28.3424389 7.83258904,27.883003 7.94665587,27.4219829 C8.0195319,27.1146362 8.09082367,26.8088737 8.17478953,26.4999427 C8.31420454,25.9850577 8.47579922,25.4638357 8.64056242,24.9410294 C8.72294402,24.6780419 8.79740431,24.4182231 8.8845387,24.1520671 C9.15069463,23.3631049 9.44061449,22.5678056 9.76063532,21.764585 C9.99510603,21.1815767 10.2739361,20.6033213 10.533755,20.020313 C11.2419199,18.4344672 12.0102867,16.858127 12.8943046,15.3245618 C13.7593114,13.8274347 14.6940257,12.3810039 15.6857735,11.0106177 C15.688942,11.0042806 15.6936948,10.9979436 15.6968633,10.9931908 C15.5796279,11.0169547 15.4671454,11.0438872 15.3483258,11.0692354 C15.1106865,11.1151789 14.8778001,11.1706281 14.6417451,11.2213245 C14.1189388,11.3353913 13.6024696,11.4573794 13.0970901,11.5888731 C12.8388555,11.6554121 12.5853736,11.7235354 12.3334761,11.7948271 C11.8376022,11.9358264 11.3528182,12.0863313 10.8759554,12.2415889 C10.6589116,12.3128807 10.4386993,12.3810039 10.2264082,12.4554642 C9.55468133,12.6915192 8.90196557,12.9418325 8.28251931,13.2095727 C3.01801823,15.489325 0,18.7148815 0,22.0576734 C0,25.1945112 2.65363807,28.2267878 7.32404108,30.4732706 M9.36298568,11.0898308 C9.65607406,10.982101 9.94757819,10.8775397 10.2470036,10.7745627 C10.7001024,10.6240579 11.1674596,10.4846428 11.636401,10.3483964 C11.9279051,10.2628462 12.2162407,10.1741276 12.5140819,10.0949145 C13.0448095,9.95549949 13.5897955,9.83192709 14.1379499,9.71152322 C14.3946003,9.65290554 14.6433294,9.58953508 14.9047325,9.53725445 C15.7222115,9.37249125 16.5571173,9.22515493 17.4126185,9.10158253 C18.0447389,9.01127962 18.6831963,8.95266194 19.3216537,8.88770722 C22.7547484,8.52807985 26.2607192,8.5011474 29.6953982,8.85443773 C29.7017353,8.85602199 29.7080723,8.85602199 29.7144094,8.85602199 C29.6383648,8.7688876 29.5591517,8.68967453 29.4831072,8.60095588 C29.3151755,8.40926023 29.142491,8.22707016 28.972975,8.0401273 C28.6181004,7.65039896 28.2632258,7.27017619 27.9004299,6.90421177 C27.7119028,6.71251613 27.5233757,6.52398901 27.3348485,6.34021467 C26.9657156,5.98217156 26.5949984,5.63838681 26.2242812,5.30569188 C26.0500124,5.15360278 25.8804965,4.99359236 25.7078119,4.84625604 C25.1675788,4.38206741 24.6257613,3.9416427 24.0839439,3.54082453 C20.9629486,1.22304991 17.9702786,0 15.4227861,0 C14.2504325,0 13.1921458,0.2677402 12.2780269,0.79371503 C9.56260263,2.36054969 8.26509243,6.17386721 8.65482077,11.3417283 C8.88295443,11.2514254 9.13009923,11.1753809 9.36298568,11.0898308 M27.1669168,4.01927152 C27.531297,4.33929235 27.8893401,4.67832432 28.2473832,5.02210907 C28.4660113,5.22964733 28.6830551,5.43243281 28.8985147,5.64947664 C29.281906,6.03445219 29.6589602,6.44002314 30.0344302,6.85193114 C30.2166203,7.0515481 30.4003946,7.24007522 30.5825847,7.44602922 C31.1323234,8.07022827 31.6757252,8.71819123 32.2096213,9.39625517 C32.5977654,9.89054477 32.9605613,10.4228566 33.334447,10.9377416 C34.3531272,12.3398131 35.3306165,13.7909967 36.2162187,15.3245618 C37.0764727,16.8153519 37.8622665,18.3505014 38.5625101,19.9078305 C38.5640943,19.9125832 38.5672628,19.9189203 38.5704314,19.9252573 C38.6068694,19.8159433 38.6369703,19.7097978 38.6734084,19.6036522 C38.7573742,19.3565074 38.8318345,19.1125312 38.9094633,18.8669706 C39.0694737,18.366344 39.2199786,17.8673016 39.3578093,17.3714277 C39.4275169,17.1163616 39.4956401,16.8612955 39.5605948,16.6093979 C39.6873357,16.107187 39.7998183,15.6081447 39.9012111,15.1170236 C39.9487389,14.8936427 39.9994353,14.6702618 40.0406261,14.4516337 C40.1721198,13.7513901 40.2846023,13.0622364 40.3606469,12.3920937 C41.0165312,6.69192073 39.7316951,2.46511095 36.8340807,0.79371503 C34.1186564,-0.768366845 30.1247331,0.0332694923 25.8868335,2.92771532 C26.0848662,3.08614147 26.2765618,3.26357876 26.4730103,3.42834196 C26.7043125,3.62162187 26.9371989,3.81648604 27.1669168,4.01927152 M21.940438,40.0960752 C21.5823949,39.7808072 21.2275203,39.446528 20.8758143,39.1090803 C20.6540176,38.8967892 20.4306368,38.6908352 20.2120087,38.4690386 C19.8317859,38.0856473 19.4547317,37.6800764 19.0792617,37.2713369 C18.8986559,37.0717199 18.7132973,36.8831928 18.5326915,36.6788231 C17.9829527,36.0530398 17.4379667,35.4050768 16.9040706,34.7285971 C16.512758,34.2295548 16.1531306,33.7004114 15.7808292,33.1871107 C14.7510592,31.7691966 13.768817,30.311676 12.8943046,28.7907849 C12.0308821,27.2968263 11.2466726,25.7632611 10.5495976,24.2138533 L10.540092,24.1948422 C10.5004855,24.3104933 10.467216,24.4261444 10.4291937,24.5417955 C10.3499806,24.7746819 10.2786888,25.0091526 10.2026443,25.2404548 C10.0410496,25.750587 9.88896051,26.2543822 9.75112976,26.7550088 C9.68142225,27.0069064 9.613299,27.2603883 9.54992854,27.5107016 C9.42477188,28.0081597 9.31387357,28.5024493 9.21089657,28.9904019 C9.16495299,29.215367 9.11425662,29.4403321 9.07306582,29.6621287 C8.94315637,30.3592038 8.83225806,31.0499418 8.75462925,31.7280058 C8.09874497,37.4265945 9.38358108,41.6534043 12.2780269,43.3263845 C14.9950354,44.8916349 18.9873745,44.08683 23.2252741,41.1939685 C23.03041,41.0371266 22.8387143,40.8612735 22.6438501,40.6980946 C22.4077952,40.5000619 22.1733245,40.3036135 21.940438,40.0960752 M39.7522905,33.0286845 C39.4576178,33.1379986 39.1645294,33.2441441 38.8619355,33.3439526 C38.416758,33.4944574 37.9589064,33.6322882 37.496302,33.7669504 C37.1937081,33.855669 36.8958669,33.9459719 36.5869359,34.0283535 C36.0768037,34.1630158 35.5508289,34.2818354 35.0232698,34.400655 C34.7476083,34.4624412 34.4782838,34.5305644 34.1978695,34.5875979 C33.3819748,34.7507768 32.5518218,34.8981131 31.6994891,35.0216855 C31.0737058,35.1119884 30.4304956,35.1690218 29.7936225,35.2355608 C26.3827074,35.5872669 22.830793,35.6126151 19.4198779,35.2656618 C19.4119566,35.2656618 19.4056196,35.2656618 19.3992825,35.2640775 C19.4753271,35.3527962 19.5561244,35.4335935 19.6337532,35.5223122 C19.7969322,35.709255 19.9648639,35.8882766 20.1312113,36.0720509 C20.4940072,36.4697006 20.8583874,36.8562604 21.2259361,37.2317304 C21.4065419,37.4123362 21.5839792,37.5913577 21.764585,37.7672108 C22.146392,38.1395122 22.5329518,38.4943868 22.9179274,38.8397558 C23.0763535,38.9823394 23.236364,39.1312599 23.3963744,39.2675064 C23.9381918,39.7332793 24.4831778,40.1768726 25.0281637,40.5824435 C29.5924212,43.9680104 33.9364664,44.9977804 36.8340807,43.3263845 C39.5510893,41.7563813 40.8501837,37.9430638 40.4604554,32.7783712 C40.2307375,32.8686741 39.9851769,32.9447186 39.7522905,33.0286845 M40.4778823,19.1616433 C40.6394769,18.6483425 40.7994873,18.1350418 40.9373181,17.6280781 C41.0228682,17.3128101 41.0925757,17.0038791 41.1702045,16.6917795 C41.2826871,16.233928 41.3904169,15.7776606 41.4823041,15.3245618 C41.548843,14.9997882 41.6042922,14.6797674 41.6597414,14.3581623 C41.7009322,14.1236916 41.754797,13.8812996 41.7912351,13.6468289 C46.4584696,15.8917275 49.1121076,18.9240041 49.1121076,22.0576734 C49.1121076,25.405218 46.0940894,28.6307745 40.8327568,30.9105268 C40.203805,31.1830198 39.5463365,31.4333331 38.8730253,31.6725566 C38.6686556,31.7454327 38.4547803,31.8103874 38.247242,31.8785106 C37.7656265,32.0369368 37.2745054,32.1906102 36.7738788,32.3331937 C36.5251497,32.4029012 36.2732521,32.4694402 36.0197703,32.5359792 C35.5238964,32.6643044 35.0169327,32.783124 34.5020477,32.8956065 C34.2533187,32.9478872 34.0061739,33.0065048 33.752692,33.0572012 C33.6370409,33.0793809 33.5293112,33.1078976 33.4136601,33.1300772 C33.4184128,33.1253245 33.4215814,33.1189874 33.4247499,33.1142346 C34.4196661,31.7343428 35.3559647,30.287912 36.2193872,28.7907849 C37.1002367,27.2683096 37.8701878,25.6888008 38.5799369,24.096618 C38.8397558,23.5136097 39.1170016,22.9385228 39.3514723,22.352346 C39.6714931,21.5522939 39.961413,20.7585789 40.2275689,19.9712009 C40.3178718,19.6987079 40.3923321,19.432552 40.4778823,19.1616433" sketch:type="MSShapeGroup"></path>
            </g>
        </g>
    </g>
</svg>