<?xml version="1.0" encoding="UTF-8" standalone="no"?>
<svg width="56px" height="43px" viewBox="0 0 56 43" version="1.1" xmlns="http://www.w3.org/2000/svg" xmlns:xlink="http://www.w3.org/1999/xlink" xmlns:sketch="http://www.bohemiancoding.com/sketch/ns">
    <!-- Generator: Sketch 3.4.4 (17249) - http://www.bohemiancoding.com/sketch -->
    <title>Shape</title>
    <desc>Created with Sketch.</desc>
    <defs></defs>
    <g id="Welcome" stroke="none" stroke-width="1" fill="none" fill-rule="evenodd" sketch:type="MSPage">
        <g id="Desktop-HD" sketch:type="MSArtboardGroup" transform="translate(-692.000000, -738.000000)" fill="#098D8F">
            <g id="Rectangle-28-+-729-top-list@2x-+-Check-the-status-of--+-Oval-1-+-2-+-Rectangle-28-+-1238-group-checked@2x-+-Check-in-with-your-t-+-Oval-1-+-1-+-Rectangle-28-+-704-compose@2x-+-Set-an-agenda-for-ne-+-Oval-1-+-3" sketch:type="MSLayerGroup" transform="translate(116.000000, 638.000000)">
                <g id="Rectangle-28-+-729-top-list@2x-+-Check-the-status-of--+-Oval-1-+-2" transform="translate(424.000000, 0.000000)" sketch:type="MSShapeGroup">
                    <g id="729-top-list@2x-+-Check-the-status-of-" transform="translate(23.000000, 100.000000)">
                        <g id="729-top-list@2x" transform="translate(129.000000, 0.000000)">
                            <g id="_x37_29-top-list_x40_2x.png">
                                <path d="M6,16 L4.58,20.2307692 L0,20.2307692 L3.696,22.8224176 L2.357,27 L6,24.5669451 L9.643,27 L8.304,22.8224176 L12,20.2307692 L7.42,20.2307692 L6,16 L6,16 Z M7.42,36.2307692 L6,32 L4.58,36.2307692 L0,36.2307692 L3.696,38.8224176 L2.357,43 L6,40.5669451 L9.643,43 L8.304,38.8224176 L12,36.2307692 L7.42,36.2307692 L7.42,36.2307692 Z M17,7 L55,7 C55.553,7 56,6.553 56,6 C56,5.448 55.553,5 55,5 L17,5 C16.447,5 16,5.448 16,6 C16,6.553 16.447,7 17,7 L17,7 Z M55,37 L17,37 C16.447,37 16,37.448 16,38 C16,38.553 16.447,39 17,39 L55,39 C55.553,39 56,38.553 56,38 C56,37.448 55.553,37 55,37 L55,37 Z M6,0 L4.58,4.23076923 L0,4.23076923 L3.696,6.82241758 L2.357,11 L6,8.56694505 L9.643,11 L8.304,6.82241758 L12,4.23076923 L7.42,4.23076923 L6,0 L6,0 Z M55,21 L17,21 C16.447,21 16,21.448 16,22 C16,22.553 16.447,23 17,23 L55,23 C55.553,23 56,22.553 56,22 C56,21.448 55.553,21 55,21 L55,21 Z" id="Shape"></path>
                            </g>
                        </g>
                    </g>
                </g>
            </g>
        </g>
    </g>
</svg>