<?xml version="1.0" encoding="UTF-8" standalone="no"?>
<svg width="104px" height="112px" viewBox="0 0 104 112" version="1.1" xmlns="http://www.w3.org/2000/svg" xmlns:xlink="http://www.w3.org/1999/xlink" xmlns:sketch="http://www.bohemiancoding.com/sketch/ns">
    <!-- Generator: Sketch 3.4.4 (17249) - http://www.bohemiancoding.com/sketch -->
    <title>Shape</title>
    <desc>Created with Sketch.</desc>
    <defs></defs>
    <g id="Welcome" stroke="none" stroke-width="1" fill="none" fill-rule="evenodd" sketch:type="MSPage">
        <g id="Desktop-HD" sketch:type="MSArtboardGroup" transform="translate(-668.000000, -1613.000000)" fill="#C62575">
            <g id="Group" sketch:type="MSLayerGroup" transform="translate(0.000000, 1427.000000)">
                <g id="Meetings-should-be-a-+-840-stopwatch-2@2x-+-Time-is-valuable." transform="translate(400.000000, 186.000000)" sketch:type="MSShapeGroup">
                    <g id="840-stopwatch-2@2x" transform="translate(268.000000, 0.000000)">
                        <g id="_x38_40-stopwatch-2_x40_2x.png">
                            <path d="M52,24 C53.106,24 54,23.106 54,22 C54,20.894 53.106,20 52,20 C50.894,20 50,20.894 50,22 C50,23.106 50.894,24 52,24 L52,24 Z M14,58 C12.894,58 12,58.894 12,60 C12,61.106 12.894,62 14,62 C15.106,62 16,61.106 16,60 C16,58.894 15.106,58 14,58 L14,58 Z M18.092,77.27 C17.134,77.82 16.806,79.042 17.36,80 C17.914,80.958 19.136,81.286 20.092,80.732 C21.048,80.18 21.376,78.956 20.822,78 C20.272,77.042 19.046,76.716 18.092,77.27 L18.092,77.27 Z M70,28.824 C70.958,29.374 72.18,29.046 72.732,28.092 C73.284,27.134 72.956,25.912 72,25.36 C71.044,24.808 69.82,25.136 69.268,26.092 C68.714,27.046 69.042,28.272 70,28.824 L70,28.824 Z M20.092,39.268 C19.134,38.716 17.912,39.042 17.36,40 C16.808,40.958 17.136,42.18 18.092,42.732 C19.048,43.284 20.272,42.956 20.822,42 C21.376,41.042 21.046,39.82 20.092,39.268 L20.092,39.268 Z M58,8.374 L58,4 L60,4 C61.106,4 62,3.106 62,2 C62,0.894 61.106,0 60,0 L44,0 C42.894,0 42,0.894 42,2 C42,3.106 42.894,4 44,4 L46,4 L46,8.374 C36.14,9.508 27.134,13.4 19.744,19.26 L17.624,17.14 C16.062,15.578 13.53,15.578 11.968,17.14 L9.14,19.968 C7.578,21.53 7.578,24.062 9.14,25.624 L11.26,27.746 C4.228,36.614 0,47.804 0,60 C0,88.718 23.282,112 52,112 C80.718,112 104,88.718 104,60 C104,33.314 83.888,11.352 58,8.374 L58,8.374 Z M50,4 L54,4 L54,8.102 C53.332,8.076 52.676,8 52,8 C51.324,8 50.67,8.076 50,8.102 L50,4 L50,4 Z M14.796,19.968 L16.712,21.884 C15.732,22.79 14.79,23.732 13.882,24.712 L11.968,22.796 L14.796,19.968 L14.796,19.968 Z M52,108 C25.49,108 4,86.51 4,60 C4,33.49 25.49,12 52,12 C78.51,12 100,33.49 100,60 C100,86.51 78.51,108 52,108 L52,108 Z M74.626,34.544 L56.038,53.132 C54.85,52.43 53.48,52 52,52 C47.582,52 44,55.582 44,60 C44,64.418 47.582,68 52,68 C56.418,68 60,64.418 60,60 C60,58.52 59.57,57.15 58.87,55.96 L77.456,37.372 C78.238,36.59 78.238,35.324 77.456,34.544 C76.676,33.764 75.408,33.764 74.626,34.544 L74.626,34.544 Z M52,64 C49.792,64 48,62.208 48,60 C48,57.792 49.792,56 52,56 C54.208,56 56,57.792 56,60 C56,62.208 54.208,64 52,64 L52,64 Z M34,91.178 C33.042,90.626 31.82,90.954 31.268,91.91 C30.716,92.866 31.042,94.09 32,94.64 C32.958,95.192 34.18,94.864 34.732,93.91 C35.286,92.954 34.958,91.728 34,91.178 L34,91.178 Z M83.908,39.268 C82.952,39.82 82.624,41.044 83.178,42 C83.728,42.958 84.954,43.286 85.908,42.732 C86.866,42.18 87.194,40.956 86.64,40 C86.086,39.044 84.866,38.716 83.908,39.268 L83.908,39.268 Z M85.908,77.27 C84.952,76.718 83.728,77.044 83.178,78 C82.626,78.958 82.954,80.18 83.908,80.732 C84.866,81.284 86.088,80.956 86.64,80 C87.192,79.044 86.866,77.82 85.908,77.27 L85.908,77.27 Z M90,58 C88.894,58 88,58.894 88,60 C88,61.106 88.894,62 90,62 C91.106,62 92,61.106 92,60 C92,58.894 91.106,58 90,58 L90,58 Z M32,25.36 C31.042,25.912 30.714,27.136 31.268,28.092 C31.82,29.048 33.044,29.376 34,28.824 C34.958,28.272 35.286,27.046 34.732,26.092 C34.18,25.134 32.958,24.806 32,25.36 L32,25.36 Z M70,91.178 C69.042,91.728 68.714,92.954 69.268,93.91 C69.82,94.866 71.044,95.194 72,94.64 C72.958,94.09 73.286,92.866 72.732,91.91 C72.178,90.954 70.958,90.624 70,91.178 L70,91.178 Z M52,96 C50.894,96 50,96.894 50,98 C50,99.106 50.894,100 52,100 C53.106,100 54,99.106 54,98 C54,96.894 53.106,96 52,96 L52,96 Z" id="Shape"></path>
                        </g>
                    </g>
                </g>
            </g>
        </g>
    </g>
</svg>