<?xml version="1.0" encoding="UTF-8" standalone="no"?>
<svg width="56px" height="56px" viewBox="0 0 56 56" version="1.1" xmlns="http://www.w3.org/2000/svg" xmlns:xlink="http://www.w3.org/1999/xlink" xmlns:sketch="http://www.bohemiancoding.com/sketch/ns">
    <!-- Generator: Sketch 3.4.4 (17249) - http://www.bohemiancoding.com/sketch -->
    <title>Shape</title>
    <desc>Created with Sketch.</desc>
    <defs></defs>
    <g id="Welcome" stroke="none" stroke-width="1" fill="none" fill-rule="evenodd" sketch:type="MSPage">
        <g id="Desktop-HD" sketch:type="MSArtboardGroup" transform="translate(-265.000000, -1105.000000)" fill="#098D8F">
            <g id="Group" sketch:type="MSLayerGroup" transform="translate(0.000000, 963.000000)">
                <g id="A-razor-focused-UX-w-+-908-target@2x" transform="translate(265.000000, 142.000000)" sketch:type="MSShapeGroup">
                    <g id="908-target@2x">
                        <g id="_x39_08-target_x40_2x.png">
                            <path d="M28,24 C25.791,24 24,25.791 24,28 C24,30.209 25.791,32 28,32 C30.209,32 32,30.209 32,28 C32,25.791 30.209,24 28,24 L28,24 Z M28,0 C12.536,0 0,12.536 0,28 C0,43.464 12.536,56 28,56 C43.464,56 56,43.464 56,28 C56,12.536 43.464,0 28,0 L28,0 Z M28,54 C13.641,54 2,42.359 2,28 C2,13.641 13.641,2 28,2 C42.359,2 54,13.641 54,28 C54,42.359 42.359,54 28,54 L28,54 Z M28,12 C19.163,12 12,19.164 12,28 C12,36.837 19.163,44 28,44 C36.837,44 44,36.837 44,28 C44,19.164 36.837,12 28,12 L28,12 Z M28,42 C20.268,42 14,35.732 14,28 C14,20.269 20.268,14 28,14 C35.732,14 42,20.269 42,28 C42,35.732 35.732,42 28,42 L28,42 Z" id="Shape"></path>
                        </g>
                    </g>
                </g>
            </g>
        </g>
    </g>
</svg>