<?xml version="1.0" encoding="UTF-8" standalone="no"?>
<svg width="56px" height="56px" viewBox="0 0 56 56" version="1.1" xmlns="http://www.w3.org/2000/svg" xmlns:xlink="http://www.w3.org/1999/xlink" xmlns:sketch="http://www.bohemiancoding.com/sketch/ns">
    <!-- Generator: Sketch 3.4.4 (17249) - http://www.bohemiancoding.com/sketch -->
    <title>Shape</title>
    <desc>Created with Sketch.</desc>
    <defs></defs>
    <g id="Welcome" stroke="none" stroke-width="1" fill="none" fill-rule="evenodd" sketch:type="MSPage">
        <g id="Desktop-HD" sketch:type="MSArtboardGroup" transform="translate(-268.000000, -725.000000)" fill="#098D8F">
            <g id="Rectangle-28-+-729-top-list@2x-+-Check-the-status-of--+-Oval-1-+-2-+-Rectangle-28-+-1238-group-checked@2x-+-Check-in-with-your-t-+-Oval-1-+-1-+-Rectangle-28-+-704-compose@2x-+-Set-an-agenda-for-ne-+-Oval-1-+-3" sketch:type="MSLayerGroup" transform="translate(116.000000, 638.000000)">
                <g id="Rectangle-28-+-1238-group-checked@2x-+-Check-in-with-your-t-+-Oval-1-+-1" sketch:type="MSShapeGroup">
                    <g id="1238-group-checked@2x-+-Check-in-with-your-t" transform="translate(45.000000, 87.000000)">
                        <g id="1238-group-checked@2x" transform="translate(107.000000, 0.000000)">
                            <g id="_x31_238-group-checked_x40_2x.png">
                                <path d="M45,34 C38.925,34 34,38.925 34,45 C34,51.075 38.925,56 45,56 C51.075,56 56,51.075 56,45 C56,38.925 51.075,34 45,34 L45,34 Z M45,54 C40.029,54 36,49.971 36,45 C36,40.029 40.029,36 45,36 C49.971,36 54,40.029 54,45 C54,49.971 49.97,54 45,54 L45,54 Z M33.6714069,36.1704645 C33.0863844,35.7815455 32.5384902,35.4666111 32.0337452,35.1756717 C30.0197827,34.0159134 29.1006049,33.8619454 29.1006049,30.3786711 C29.1006049,26.0165799 32.6870036,23.2001666 32.7201181,23.174172 L32.9087703,23.030202 L33.0131311,22.819246 C34.2152871,20.3687565 33.6272542,18.302187 33.22687,17.3723808 C35.8409071,11.5985836 32.6769689,6.82157884 32.0056481,5.90876901 C30.3037644,1.02978546 26.6742166,0 23.9146765,0 C20.6423636,0 17.736317,1.42970215 17.6901574,1.45569673 C14.662691,2.66244532 12.598555,4.58804416 11.5549471,7.17850448 C9.86911895,11.361633 11.3984059,15.9556759 11.9523209,17.366382 C10.5936237,20.6347011 12.160039,22.8662362 12.2292784,22.9642158 L12.4400069,23.179171 C12.4771352,23.2051656 16.0555062,25.9625911 16.0555062,30.3786711 C16.0555062,34.6577796 13.7013676,35.0646949 10.7210643,36.0544886 L10.3307148,36.182462 C6.9771209,37.2812331 0,39.5677567 0,47.0012081 L0,48 L32.4762751,48 C32.3237478,47.3511352 32.219387,46.6842741 32.1682101,46.0004166 L2.06413601,46.0004166 C2.67223831,40.7975005 8.01069411,39.047865 10.957883,38.0820662 L11.3552567,37.9500937 C14.3435878,36.9583004 18.0624445,36.0974797 18.0624445,30.3786711 C18.0624445,25.468694 14.6085037,22.3603416 13.8067318,21.705478 C13.5919894,21.3205582 12.9537831,19.8838575 13.9502279,17.8122891 L14.1529287,17.3913768 L13.9592592,16.9664653 C13.9381863,16.9174755 11.7556409,12.0464903 13.4173858,7.92234951 C14.2492617,5.85877942 15.9381003,4.30710269 18.5109952,3.27831702 C18.5360819,3.26631952 21.1290461,1.99958342 23.9146765,1.99958342 C27.0555348,1.99958342 29.0975945,3.53626328 30.1562545,6.69960425 L30.2124488,6.86856905 L30.3238338,7.00953968 C30.3599587,7.05353051 33.9052152,11.5705895 31.2139109,16.934472 L30.9620402,17.4373672 L31.2620775,17.9142679 C31.2731156,17.9312643 32.2735744,19.5609248 31.2992058,21.7514684 C30.4241807,22.4893147 27.0946701,25.6146636 27.0946701,30.3796709 C27.0946701,34.7937513 28.5898392,35.5036034 31.0312796,36.9083108 C31.5019066,37.1792543 32.0136759,37.4721933 32.5585596,37.8351177 C32.9489091,38.0940637 33.3874251,38.333014 33.8580521,38.5649656 C34.1972247,37.9780879 34.576536,37.4182045 35,36.8923141 C34.4992689,36.6523641 34.03968,36.4154135 33.6714069,36.1704645 L33.6714069,36.1704645 Z M33.8769654,5.09005239 C33.8856963,5.08708689 33.892487,5.08115589 33.9002477,5.07819039 C33.9206197,5.06632838 36.0218444,4.0036904 38.3054469,4.0036904 C40.8344833,4.0036904 42.4797636,5.27984448 43.3334468,7.90530166 L43.3887421,8.07433523 L43.4944824,8.2127253 C43.6138041,8.36693137 46.3853641,12.0609575 44.2162328,16.5131635 L43.9834101,17.0143333 L44.2569767,17.4848595 C44.2899599,17.5421925 45.0320822,18.8529441 44.2967506,20.5936934 C43.5197049,21.2757587 40.790829,23.9644799 40.790829,28.0371017 C40.790829,29.9449076 41.1429733,31.1419816 41.6959272,32 C42.4700626,31.8161389 43.2713607,31.7093809 44.0940009,31.6797259 C43.1549494,31.0016146 42.7445994,30.2473887 42.7445994,28.0371017 C42.7445994,24.3964546 45.6568231,22.038881 45.6830157,22.017134 L45.8653934,21.8728129 L45.9662833,21.6622623 C46.95966,19.5765264 46.5114764,17.8031566 46.1700031,16.9579887 C48.3013008,12.0313025 45.7247297,7.95274968 45.132002,7.1145013 C43.6933518,2.8926159 40.6336737,2 38.3054469,2 C35.5659,2 33.1290226,3.23266005 33.1018599,3.25144156 C33.0659664,3.26725757 33.0349234,3.28406208 33,3.29888958 C33.1998395,3.71010577 33.3938584,4.12725296 33.5587744,4.57998616 C33.6509334,4.71837622 33.7605541,4.8963063 33.8769654,5.09005239 L33.8769654,5.09005239 Z M43.7572494,46.6697248 L40.4057995,43.4142926 L39,44.7798165 L43.1318973,48.7943023 L43.1478045,48.7788508 C43.3178128,48.9101883 43.5236123,49 43.7572494,49 C43.9908865,49 44.196686,48.9092226 44.3666943,48.7788508 L44.3826015,48.7943023 L51,42.3655239 L49.5942005,41 L43.7572494,46.6697248 L43.7572494,46.6697248 Z" id="Shape"></path>
                            </g>
                        </g>
                    </g>
                </g>
            </g>
        </g>
    </g>
</svg>