<svg width="34" height="32" viewBox="0 0 34 32" fill="none" xmlns="http://www.w3.org/2000/svg">
<path d="M16.9999 25.6533C15.9382 25.6533 14.8897 25.6027 13.8701 25.5064C17.7607 29.7702 22.1678 31.7733 25.0039 30.1349C26.8096 29.0913 27.6522 26.7547 27.5812 23.7729C24.2054 25.0611 20.6165 25.6991 17.0036 25.6533" fill="#493372"/>
<path d="M17 6.90323C18.0629 6.90323 19.1102 6.95378 20.1298 7.05009C16.244 2.7875 11.837 0.784407 9.00087 2.42155C7.1952 3.46523 6.35255 5.80177 6.42357 8.78353C9.79933 7.49537 13.3883 6.85739 17.0012 6.90323" fill="#493372"/>
<path d="M28.7797 10.8661C28.2072 14.4334 26.9651 17.8602 25.119 20.9659C24.5857 21.8904 24.0175 22.7716 23.4241 23.607C29.0614 22.3695 33.0001 19.5551 33.0001 16.2784C33.0001 14.191 31.3991 12.2902 28.7797 10.8613" fill="#493372"/>
<path d="M8.88115 11.5923C9.41443 10.6678 9.98261 9.7866 10.5761 8.95117C4.93757 10.1887 1 13.0043 1 16.2798C1 18.3672 2.59982 20.2679 5.22046 21.6968C5.79281 18.1291 7.03488 14.7019 8.88115 11.5959" fill="#493372"/>
<path d="M25.1178 11.5905C25.6487 12.5102 26.129 13.4432 26.5624 14.3785C28.3054 8.87481 27.8359 4.05969 24.9998 2.42254C23.1942 1.37766 20.7433 1.81463 18.1985 3.37233C21.0031 5.65076 23.3509 8.4397 25.1178 11.5917" fill="#493372"/>
<path d="M8.88122 20.9662C8.35035 20.0465 7.87004 19.1136 7.43668 18.1782C5.68879 23.6795 6.15827 28.4971 8.99558 30.1354C10.8013 31.1803 13.2521 30.7433 15.7969 29.1856C12.9923 26.9072 10.6445 24.1182 8.87761 20.9662" fill="#493372"/>
</svg>
