<svg width="31" height="28" viewBox="0 0 31 28" version="1.1" xmlns="http://www.w3.org/2000/svg" xmlns:xlink="http://www.w3.org/1999/xlink">
<title>mark-color</title>
<desc>Created using Figma</desc>
<g id="Canvas" transform="translate(-1593 -176)">
<g id="mark-color">
<g id="Union">
<use xlink:href="#path0_fill" transform="translate(1598.42 176.162)" fill="#493272"/>
</g>
<g id="Union">
<use xlink:href="#path1_fill" transform="translate(1598.42 176.155)" fill="#FD6157"/>
</g>
<g id="Union">
<use xlink:href="#path2_fill" transform="translate(1593 183.095)" fill="#55C0CF"/>
</g>
</g>
</g>
<defs>
<path id="path0_fill" fill-rule="evenodd" d="M 12.4098 3.16357C 12.1838 2.94658 11.9568 2.73257 11.7278 2.53058C 11.5818 2.40257 11.4358 2.27957 11.2898 2.15758C 11.2421 2.11754 11.1946 2.07631 11.1472 2.0351C 11.0714 1.96925 10.9957 1.90346 10.9188 1.84258C 13.5939 0.0145721 16.1158 -0.490433 17.8298 0.494568C 19.6588 1.55057 20.4689 4.21758 20.0548 7.81557C 20.0068 8.23857 19.9368 8.67458 19.8539 9.11557C 19.838 9.20053 19.8195 9.28587 19.8008 9.37158C 19.7889 9.4261 19.7771 9.48076 19.7659 9.53557C 19.7018 9.84558 19.6299 10.1606 19.5498 10.4776C 19.5088 10.6366 19.4658 10.7986 19.4219 10.9596C 19.3348 11.2716 19.2408 11.5876 19.1398 11.9026C 19.1213 11.9598 19.1033 12.017 19.0852 12.0743C 19.0544 12.172 19.0237 12.2698 18.9908 12.3676C 18.9785 12.4019 18.9678 12.4365 18.957 12.4712C 18.9468 12.5042 18.9365 12.5374 18.9248 12.5706L 18.9198 12.5596C 18.4789 11.5766 17.9828 10.6076 17.4398 9.66757C 16.8799 8.69858 16.2628 7.78258 15.6208 6.89757C 15.5435 6.79138 15.4669 6.68402 15.3905 6.57675C 15.233 6.35568 15.0758 6.13496 14.9108 5.92557C 14.5739 5.49657 14.2308 5.08858 13.8828 4.69357C 13.8123 4.61308 13.7408 4.53682 13.6696 4.46051C 13.6256 4.41354 13.5817 4.36658 13.5378 4.31857C 13.2998 4.05858 13.0629 3.80257 12.8208 3.55957C 12.7295 3.46823 12.6372 3.38051 12.545 3.29276C 12.4999 3.24985 12.4548 3.20692 12.4098 3.16357ZM 7.7561 24.68C 7.979 24.893 8.20203 25.104 8.4281 25.303C 8.55078 25.4123 8.6748 25.5168 8.79846 25.621L 8.87207 25.683C 8.92297 25.7252 8.97351 25.7691 9.02405 25.813C 9.0957 25.8753 9.16736 25.9375 9.23999 25.995C 6.56506 27.822 4.04407 28.329 2.3291 27.342C 0.502075 26.285 -0.307983 23.617 0.106079 20.021C 0.155029 19.593 0.225098 19.157 0.30603 18.717C 0.322388 18.6284 0.341431 18.5399 0.360596 18.4512C 0.371826 18.3985 0.383179 18.3458 0.394043 18.293C 0.458008 17.985 0.529053 17.673 0.608032 17.359C 0.648071 17.2 0.69104 17.041 0.734985 16.882C 0.822021 16.566 0.916992 16.247 1.02002 15.926C 1.04199 15.8591 1.06335 15.7919 1.08472 15.7245C 1.11011 15.6447 1.1355 15.5647 1.16199 15.485C 1.17285 15.4527 1.18286 15.4208 1.19275 15.3891C 1.20557 15.348 1.21838 15.3071 1.23303 15.266L 1.23901 15.278C 1.6781 16.256 2.1731 17.224 2.71802 18.167C 3.271 19.127 3.89099 20.047 4.54004 20.942C 4.61707 21.0477 4.69299 21.1544 4.76892 21.2612C 4.92578 21.4818 5.08264 21.7024 5.24902 21.914C 5.58606 22.342 5.93005 22.751 6.27808 23.146C 6.34314 23.2196 6.40894 23.29 6.47461 23.3603C 6.52393 23.4132 6.57312 23.4659 6.62207 23.52C 6.85999 23.778 7.09705 24.033 7.33704 24.276C 7.44104 24.38 7.54565 24.4795 7.65039 24.5792L 7.7561 24.68Z"/>
<path id="path1_fill" fill-rule="evenodd" d="M 0.532227 6.98466L 0.489868 7C 0.423096 7.02501 0.35437 7.04855 0.285767 7.07208C 0.203491 7.1003 0.12146 7.12846 0.0428467 7.159C -0.203125 3.897 0.615845 1.49001 2.32983 0.501007C 2.90686 0.169006 3.57483 0 4.31494 0C 5.92285 0 7.81189 0.772003 9.78186 2.235C 10.1239 2.48801 10.4659 2.767 10.8059 3.06C 10.8754 3.11806 10.9435 3.17972 11.0121 3.24168C 11.0521 3.27791 11.0923 3.31422 11.1329 3.35001C 11.3668 3.56 11.6008 3.776 11.8339 4.002C 11.9529 4.118 12.0719 4.237 12.1909 4.358C 12.4199 4.59 12.6439 4.82899 12.8679 5.075L 12.9781 5.19565C 13.0491 5.27293 13.1201 5.35039 13.1899 5.42999C 13.2125 5.45593 13.2356 5.48074 13.2587 5.50562C 13.2845 5.53348 13.3105 5.5614 13.3359 5.591C 13.3319 5.591 13.3279 5.591 13.3239 5.59C 11.1559 5.366 8.94287 5.384 6.77588 5.61L 6.57483 5.63023C 6.23877 5.66386 5.90271 5.69748 5.57092 5.745C 5.03088 5.823 4.50391 5.916 3.98792 6.021C 3.88354 6.04187 3.78235 6.06555 3.68103 6.08925C 3.62231 6.10301 3.56348 6.11678 3.50391 6.13C 3.15784 6.20599 2.81384 6.284 2.47888 6.37199C 2.35608 6.40532 2.23572 6.44078 2.11584 6.47615C 2.05225 6.4949 1.98865 6.51363 1.92493 6.532C 1.62891 6.618 1.33386 6.70599 1.04785 6.802C 0.873291 6.86111 0.703003 6.92279 0.532227 6.98466ZM 19.6439 20.8587L 19.6715 20.8486C 19.7345 20.8255 19.7991 20.8035 19.8636 20.7814C 19.95 20.752 20.0361 20.7226 20.1184 20.6906C 20.3645 23.9506 19.5444 26.3576 17.8295 27.3486C 16.0005 28.4036 13.2584 27.7526 10.3774 25.6166C 10.0334 25.3606 9.69043 25.0796 9.34741 24.7866C 9.28284 24.7316 9.21863 24.6732 9.15417 24.6148C 9.11804 24.5819 9.08179 24.549 9.04541 24.5166C 8.80249 24.2986 8.55945 24.0746 8.3175 23.8386C 8.20349 23.7286 8.09143 23.6156 7.97852 23.5006C 7.74548 23.2646 7.5155 23.0206 7.2865 22.7696L 7.19067 22.6643C 7.11731 22.584 7.04419 22.5038 6.97241 22.4216C 6.95142 22.398 6.92993 22.3751 6.90857 22.3522C 6.88013 22.3218 6.85181 22.2915 6.82446 22.2596C 6.82849 22.2606 6.83252 22.2606 6.8374 22.2606C 8.99048 22.4796 11.2335 22.4626 13.3855 22.2416L 13.6411 22.2154C 13.9589 22.1831 14.2771 22.1507 14.5885 22.1066C 15.1265 22.0286 15.6505 21.9356 16.1654 21.8316C 16.276 21.8091 16.3839 21.7839 16.4921 21.7586C 16.5569 21.7434 16.6218 21.7282 16.6875 21.7136C 17.0205 21.6396 17.3524 21.5646 17.6735 21.4796C 17.8108 21.443 17.9452 21.4034 18.079 21.3639L 18.2474 21.3146C 18.5394 21.2296 18.8285 21.1426 19.1095 21.0476C 19.291 20.9877 19.4672 20.9233 19.6439 20.8587Z"/>
<path id="path2_fill" fill-rule="evenodd" d="M 4.66943 12.0392C 4.65234 12.1254 4.63513 12.2117 4.62305 12.296C 1.67505 10.878 0 8.964 0 6.98399C 0 4.87399 1.90503 2.838 5.22803 1.399C 5.61902 1.23 6.03101 1.07201 6.45496 0.923004C 6.5459 0.891113 6.63916 0.861069 6.73242 0.830994L 6.86499 0.787994C 7.16602 0.690002 7.47205 0.595001 7.78503 0.505997C 7.94397 0.460999 8.104 0.417999 8.26697 0.376007C 8.58606 0.292999 8.91199 0.216003 9.24194 0.143997C 9.29285 0.133072 9.34351 0.121796 9.39404 0.110535C 9.4917 0.0888062 9.58923 0.0670929 9.68799 0.0480042C 9.71887 0.0413971 9.74915 0.0346222 9.7793 0.0278778C 9.82214 0.0183105 9.8645 0.00880432 9.90796 0L 9.90613 0.00268555C 9.90442 0.00520325 9.90247 0.00810242 9.901 0.0110016C 9.27502 0.876007 8.68506 1.789 8.13904 2.73399C 7.58105 3.702 7.09595 4.69701 6.64905 5.698C 6.5979 5.81268 6.54565 5.92708 6.49341 6.04135C 6.37805 6.29379 6.26282 6.54568 6.16101 6.799C 5.95898 7.306 5.776 7.808 5.60803 8.306C 5.57446 8.40828 5.54395 8.50906 5.51355 8.60973C 5.4939 8.67442 5.47437 8.73906 5.45398 8.804C 5.34998 9.134 5.24805 9.463 5.16003 9.78799C 5.11182 9.96544 5.07019 10.1412 5.02844 10.3176L 5.01599 10.37C 4.94397 10.661 4.87598 10.951 4.81702 11.238C 4.77502 11.443 4.73999 11.647 4.70496 11.851C 4.69446 11.9131 4.68188 11.9761 4.66943 12.0392ZM 25.8398 4.18739C 25.7528 4.50839 25.6528 4.8324 25.5498 5.1564C 25.5278 5.2261 25.507 5.2953 25.4862 5.36447C 25.4559 5.46501 25.4257 5.56551 25.3918 5.6674C 25.2239 6.1644 25.0408 6.66541 24.8389 7.17039C 24.7358 7.42966 24.6185 7.68547 24.5012 7.94165C 24.451 8.05107 24.4009 8.16055 24.3518 8.2704C 23.9038 9.2764 23.4178 10.2724 22.8618 11.2344C 22.3179 12.1784 21.7258 13.0924 21.0978 13.9634C 21.0958 13.9664 21.0939 13.9694 21.0908 13.9724C 21.1279 13.9658 21.1639 13.9576 21.2 13.9495C 21.2347 13.9416 21.2694 13.9338 21.3048 13.9274C 21.3898 13.9099 21.4736 13.8915 21.5574 13.8732C 21.6311 13.857 21.7047 13.8409 21.7788 13.8254C 22.1038 13.7544 22.4229 13.6784 22.7368 13.5974C 22.8969 13.5554 23.0548 13.5134 23.2118 13.4694C 23.5288 13.3804 23.8378 13.2834 24.1418 13.1824L 24.256 13.1457C 24.3503 13.1154 24.4449 13.0852 24.5369 13.0524C 24.9618 12.9024 25.3768 12.7444 25.7748 12.5724C 29.0948 11.1334 30.9999 9.09641 30.9999 6.98441C 30.9999 5.00639 29.3248 3.09241 26.3788 1.6754C 26.3657 1.76308 26.3481 1.85217 26.3306 1.94121C 26.3185 2.00246 26.3064 2.06367 26.2958 2.1244C 26.2609 2.32739 26.2258 2.5294 26.1838 2.73441C 26.1259 3.01939 26.0579 3.3074 25.9868 3.59641L 25.9565 3.72221C 25.9193 3.87737 25.8823 4.03145 25.8398 4.18739Z"/>
</defs>
</svg>
