<svg width="31" height="28" viewBox="0 0 31 28" fill="none" xmlns="http://www.w3.org/2000/svg">
<path fill-rule="evenodd" clip-rule="evenodd" d="M5.91016 7.15527L5.94702 7.14197C6.11963 7.07941 6.29175 7.01703 6.46814 6.95728C6.75415 6.86127 7.04919 6.77325 7.34521 6.68726C7.40906 6.66888 7.47266 6.65015 7.53625 6.63135L7.53796 6.63086C7.65723 6.59564 7.77698 6.56036 7.89917 6.52728C8.23413 6.43927 8.57812 6.36127 8.92419 6.28528C8.98376 6.27203 9.0426 6.2583 9.10144 6.24451C9.20264 6.22083 9.30383 6.19714 9.4082 6.17627C9.92419 6.07129 10.4512 5.97827 10.9912 5.90027C11.3215 5.85297 11.656 5.81946 11.9907 5.78595L11.9941 5.78558L12.1962 5.76526C14.3632 5.53925 16.5762 5.5213 18.7441 5.7453C18.7482 5.74628 18.7522 5.74628 18.7562 5.74628C18.7321 5.71814 18.7075 5.69165 18.6831 5.66522L18.6788 5.66064C18.6558 5.63586 18.6328 5.61115 18.6102 5.58527C18.5404 5.50555 18.4692 5.42804 18.3982 5.35065L18.3788 5.32947C18.3485 5.29645 18.3182 5.26349 18.2882 5.23029C18.0642 4.98425 17.8402 4.7453 17.6112 4.51324C17.4922 4.39227 17.3732 4.27325 17.2542 4.15729C17.0211 3.93127 16.7871 3.71527 16.5532 3.50525C16.5186 3.47479 16.4844 3.44391 16.4501 3.41302L16.4323 3.39691C16.3638 3.33496 16.2955 3.27332 16.2262 3.21527C15.8862 2.9223 15.5442 2.64325 15.2021 2.39026C13.2322 0.927246 11.3431 0.155273 9.73523 0.155273C8.99512 0.155273 8.32715 0.32428 7.75012 0.65625C6.03613 1.64526 5.21716 4.05225 5.46313 7.31427C5.54126 7.28394 5.6228 7.25592 5.70447 7.22784L5.70581 7.22742C5.77454 7.20392 5.84326 7.1803 5.91016 7.15527ZM17.8303 3.32538C17.6044 3.1084 17.3773 2.89435 17.1483 2.69238C17.0023 2.56439 16.8563 2.44141 16.7103 2.3194C16.6626 2.27936 16.6151 2.2381 16.5677 2.1969L16.5637 2.19342C16.4893 2.12878 16.4149 2.06427 16.3394 2.00439C19.0144 0.176392 21.5364 -0.328613 23.2504 0.656372C25.0793 1.7124 25.8894 4.37939 25.4753 7.97736C25.4274 8.40039 25.3573 8.83636 25.2744 9.2774C25.2595 9.35724 25.2422 9.43744 25.2249 9.51801L25.2231 9.5257L25.2214 9.53333C25.2095 9.58789 25.1976 9.64258 25.1864 9.69739C25.1223 10.0074 25.0504 10.3224 24.9703 10.6394C24.9293 10.7984 24.8864 10.9604 24.8424 11.1214C24.7554 11.4333 24.6614 11.7494 24.5603 12.0644C24.5419 12.1217 24.5238 12.179 24.5057 12.2364C24.475 12.334 24.4441 12.4317 24.4114 12.5294C24.399 12.5637 24.3883 12.5983 24.3776 12.6329L24.3772 12.6342L24.3768 12.6355C24.3668 12.6677 24.3568 12.7 24.3453 12.7324L24.3403 12.7214C23.8994 11.7384 23.4033 10.7693 22.8604 9.82941C22.3004 8.86035 21.6833 7.9444 21.0414 7.05939C20.964 6.95331 20.8876 6.84601 20.8113 6.73883L20.8069 6.73273L20.8051 6.73016C20.6495 6.5119 20.4944 6.29413 20.3313 6.0874C19.9944 5.65839 19.6514 5.25037 19.3033 4.85535C19.2329 4.77509 19.1619 4.69904 19.0906 4.62292L19.0785 4.60999L19.0776 4.60901C19.0378 4.56647 18.998 4.52386 18.9584 4.48035C18.7203 4.2204 18.4834 3.96436 18.2413 3.72137C18.1501 3.63019 18.0581 3.5426 17.9659 3.45496L17.9441 3.43414C17.9061 3.39801 17.8682 3.36188 17.8303 3.32538ZM25.8398 11.282C25.7528 11.603 25.6528 11.9269 25.5498 12.251C25.5282 12.3194 25.5077 12.3874 25.4873 12.4553L25.4861 12.4592C25.4558 12.5597 25.4255 12.6602 25.3918 12.762C25.2239 13.259 25.0408 13.7599 24.8389 14.265C24.7358 14.5241 24.6187 14.7799 24.5013 15.0359L24.501 15.0368C24.4509 15.1461 24.4009 15.2553 24.3518 15.3649C23.9038 16.371 23.4178 17.3669 22.8618 18.329C22.3179 19.2729 21.7258 20.187 21.0978 21.058C21.0958 21.061 21.0939 21.064 21.0908 21.067C21.1267 21.0605 21.1616 21.0527 21.1965 21.0449L21.2 21.0441C21.2347 21.0362 21.2694 21.0284 21.3048 21.022C21.3784 21.0068 21.4512 20.9909 21.5236 20.9751L21.5389 20.9717L21.5408 20.9713L21.5552 20.9682C21.6298 20.9518 21.7041 20.9356 21.7788 20.92C22.1038 20.8489 22.4229 20.7729 22.7368 20.692C22.8969 20.65 23.0548 20.608 23.2118 20.564C23.5288 20.475 23.8378 20.3779 24.1418 20.277L24.2572 20.2398C24.3512 20.2097 24.4453 20.1796 24.5369 20.147C24.9618 19.9969 25.3768 19.839 25.7748 19.6669C29.0948 18.228 30.9999 16.191 30.9999 14.079C30.9999 12.101 29.3248 10.187 26.3788 8.76996C26.3657 8.85767 26.3481 8.94678 26.3306 9.03583L26.3302 9.03741C26.3182 9.09808 26.3063 9.15875 26.2958 9.21893C26.2609 9.42194 26.2258 9.62396 26.1838 9.82898C26.1259 10.114 26.0579 10.402 25.9868 10.691L25.9565 10.8169C25.9193 10.972 25.8823 11.1261 25.8398 11.282ZM25.0653 21.0136L25.0918 21.0039C25.1548 20.9808 25.2194 20.9587 25.2839 20.9367C25.3702 20.9073 25.4564 20.8779 25.5387 20.8459C25.7848 24.1059 24.9647 26.5129 23.2498 27.5039C21.4208 28.5589 18.6787 27.9079 15.7977 25.7719C15.4537 25.5159 15.1107 25.2349 14.7677 24.9419C14.703 24.8867 14.6385 24.8283 14.5741 24.7697C14.5381 24.7369 14.502 24.7042 14.4657 24.6719C14.2228 24.4539 13.9797 24.2299 13.7378 23.9939C13.6238 23.8839 13.5117 23.7709 13.3988 23.6559C13.1658 23.4199 12.9358 23.1759 12.7068 22.9249L12.6116 22.8203L12.6045 22.8126C12.5333 22.7346 12.4623 22.6567 12.3927 22.5769C12.3717 22.5533 12.3505 22.5306 12.3291 22.5078L12.3273 22.5057C12.2994 22.476 12.2716 22.4462 12.2448 22.4149C12.2488 22.4159 12.2528 22.4159 12.2577 22.4159C14.4108 22.6349 16.6538 22.6179 18.8058 22.3969L19.0172 22.3752L19.0643 22.3704L19.0681 22.37C19.3837 22.3379 19.6996 22.3057 20.0088 22.2619C20.5468 22.1839 21.0708 22.0909 21.5857 21.9869C21.6954 21.9645 21.8026 21.9395 21.9099 21.9144L21.9126 21.9138L21.9266 21.9105C21.9868 21.8965 22.047 21.8824 22.1078 21.8689C22.4408 21.7949 22.7727 21.7199 23.0938 21.6349C23.231 21.5983 23.3652 21.5587 23.499 21.5193L23.6677 21.4699C23.9597 21.3849 24.2488 21.2979 24.5298 21.2029C24.7117 21.1429 24.8882 21.0784 25.0653 21.0136ZM13.8486 25.4648C13.6226 25.2658 13.3995 25.0548 13.1766 24.8418L13.0723 24.7423L13.0648 24.7352C12.9622 24.6375 12.8596 24.5398 12.7576 24.4378C12.5176 24.1948 12.2805 23.9398 12.0426 23.6818C11.9969 23.6313 11.9509 23.5819 11.9049 23.5326L11.8945 23.5215C11.8291 23.4514 11.7635 23.3812 11.6986 23.3078C11.3506 22.9128 11.0066 22.5038 10.6696 22.0758C10.5033 21.8643 10.3464 21.6438 10.1897 21.4234C10.1136 21.3165 10.0376 21.2096 9.96057 21.1038C9.31152 20.2088 8.69153 19.2888 8.13855 18.3288C7.59363 17.3858 7.09863 16.4178 6.65955 15.4398L6.65356 15.4278C6.63892 15.4689 6.6261 15.5098 6.61328 15.5508C6.60339 15.5826 6.59338 15.6145 6.58252 15.6468C6.55603 15.7264 6.53064 15.8064 6.50537 15.8861L6.4989 15.9064C6.47961 15.967 6.46033 16.0276 6.44055 16.0878C6.33752 16.4088 6.24255 16.7278 6.15552 17.0438C6.11157 17.2028 6.0686 17.3618 6.02856 17.5208C5.94958 17.8348 5.87854 18.1468 5.81458 18.4548C5.80371 18.5077 5.79236 18.5604 5.78101 18.6131L5.77966 18.6194L5.77808 18.627C5.76001 18.7111 5.74207 18.7949 5.72656 18.8788C5.64563 19.3188 5.57556 19.7548 5.52661 20.1828C5.11255 23.7788 5.92261 26.4468 7.74963 27.5038C9.4646 28.4908 11.9856 27.9838 14.6605 26.1568C14.5879 26.0994 14.5162 26.0371 14.4447 25.9749L14.4371 25.9684C14.389 25.9266 14.3409 25.8849 14.2926 25.8448L14.218 25.782C14.0946 25.678 13.9709 25.5739 13.8486 25.4648ZM4.66943 19.1337C4.65234 19.2199 4.63513 19.3062 4.62305 19.3906C1.67505 17.9725 0 16.0585 0 14.0786C0 11.9686 1.90503 9.93256 5.22803 8.49353C5.61902 8.32452 6.03101 8.16656 6.45496 8.01752C6.54578 7.98566 6.63892 7.95569 6.73218 7.92566L6.86499 7.88257C7.16602 7.78455 7.47205 7.68951 7.78503 7.60052C7.94397 7.55554 8.104 7.51257 8.26697 7.47052C8.58606 7.38757 8.91199 7.31055 9.24194 7.23853C9.29309 7.22754 9.34412 7.21619 9.39502 7.2049C9.49231 7.18323 9.58948 7.16162 9.68799 7.14252C9.71912 7.13586 9.74951 7.12909 9.77979 7.12231C9.82239 7.11279 9.86462 7.10333 9.90796 7.09454L9.90625 7.09717C9.90442 7.09967 9.90247 7.1026 9.901 7.10553C9.27502 7.97052 8.68506 8.88354 8.13904 9.82855C7.58105 10.7966 7.09595 11.7916 6.64905 12.7925C6.5979 12.9072 6.54565 13.0215 6.49353 13.1357C6.37805 13.3882 6.26294 13.6401 6.16101 13.8936C5.95898 14.4005 5.776 14.9025 5.60803 15.4005C5.57446 15.5028 5.54395 15.6036 5.51355 15.7042C5.4939 15.7689 5.47437 15.8336 5.45398 15.8986C5.34998 16.2285 5.24805 16.5576 5.16003 16.8826C5.11194 17.0596 5.07043 17.235 5.02869 17.4109L5.01599 17.4645C4.94397 17.7556 4.87598 18.0455 4.81702 18.3325C4.77502 18.5375 4.73999 18.7415 4.70496 18.9456C4.69446 19.0076 4.68188 19.0706 4.66943 19.1337Z" fill="#493272"/>
</svg>
