<svg width="34" height="32" viewBox="0 0 34 32" fill="none" xmlns="http://www.w3.org/2000/svg">
<path d="M16.9999 24.8007C15.9382 24.8007 14.8897 24.7502 13.8701 24.6539C17.7607 28.9176 22.1678 30.9207 25.0039 29.2824C26.8096 28.2387 27.6522 25.9022 27.5812 22.9204C24.2054 24.2086 20.6165 24.8466 17.0036 24.8007" fill="white"/>
<path d="M17 6.05069C18.0629 6.05069 19.1102 6.10124 20.1298 6.19755C16.244 1.93496 11.837 -0.0681321 9.00087 1.56901C7.1952 2.61269 6.35255 4.94923 6.42357 7.93099C9.79933 6.64283 13.3883 6.00485 17.0012 6.05069" fill="white"/>
<path d="M28.7797 10.0136C28.2072 13.5809 26.9651 17.0077 25.119 20.1134C24.5857 21.0379 24.0175 21.919 23.4241 22.7545C29.0614 21.517 33.0001 18.7025 33.0001 15.4258C33.0001 13.3385 31.3991 11.4377 28.7797 10.0088" fill="white"/>
<path d="M8.88115 10.7397C9.41443 9.81523 9.98261 8.93406 10.5761 8.09863C4.93757 9.33612 1 12.1518 1 15.4273C1 17.5146 2.59982 19.4154 5.22046 20.8443C5.79281 17.2766 7.03488 13.8494 8.88115 10.7433" fill="white"/>
<path d="M25.1178 10.738C25.6487 11.6577 26.129 12.5906 26.5624 13.526C28.3054 8.02227 27.8359 3.20715 24.9998 1.57C23.1942 0.525123 20.7433 0.962096 18.1985 2.51979C21.0031 4.79822 23.3509 7.58716 25.1178 10.7392" fill="white"/>
<path d="M8.88122 20.1136C8.35035 19.194 7.87004 18.261 7.43668 17.3257C5.68879 22.827 6.15827 27.6445 8.99558 29.2829C10.8013 30.3278 13.2521 29.8908 15.7969 28.3331C12.9923 26.0546 10.6445 23.2657 8.87761 20.1136" fill="white"/>
</svg>
