<svg width="31" height="28" viewBox="0 0 31 28" fill="none" xmlns="http://www.w3.org/2000/svg">
<path d="M15.4998 23.0569C14.4712 23.0569 13.4555 23.0079 12.4678 22.9146C16.2368 27.0452 20.5061 28.9857 23.2536 27.3985C25.0029 26.3875 25.8192 24.1239 25.7504 21.2354C22.4801 22.4833 19.0033 23.1013 15.5033 23.0569" fill="#FA6158"/>
<path d="M15.4999 4.89285C16.5296 4.89285 17.5442 4.94183 18.5319 5.03512C14.7676 0.905742 10.4982 -1.03475 7.75076 0.551228C6.00152 1.56229 5.1852 3.82581 5.25401 6.7144C8.52428 5.46649 12.0011 4.84845 15.5011 4.89285" fill="#FA6158"/>
<path d="M26.9114 8.73171C26.3568 12.1875 25.1535 15.5073 23.3651 18.5159C22.8485 19.4115 22.2981 20.2651 21.7231 21.0744C27.1843 19.8756 31 17.1491 31 13.9748C31 11.9527 29.449 10.1113 26.9114 8.72705" fill="#55BDCC"/>
<path d="M7.63487 9.43552C8.15148 8.5399 8.70191 7.68627 9.27683 6.87695C3.81452 8.07577 0 10.8034 0 13.9766C0 15.9987 1.54983 17.8401 4.08857 19.2243C4.64304 15.7681 5.84629 12.448 7.63487 9.43902" fill="#55BDCC"/>
<path d="M23.3642 9.4337C23.8785 10.3247 24.3438 11.2284 24.7636 12.1345C26.4522 6.80284 25.9974 2.13819 23.2499 0.552207C21.5007 -0.460022 19.1264 -0.0367047 16.6611 1.47231C19.3781 3.67954 21.6526 6.38132 23.3642 9.43487" fill="#493372"/>
<path d="M7.63488 18.5163C7.1206 17.6253 6.6553 16.7215 6.23548 15.8154C4.54221 21.1448 4.99702 25.8118 7.74566 27.399C9.49491 28.4112 11.8692 27.9879 14.3345 26.4788C11.6175 24.2716 9.34305 21.5698 7.63138 18.5163" fill="#493372"/>
</svg>
