<svg width="14" height="10" viewBox="0 0 14 10" version="1.1" xmlns="http://www.w3.org/2000/svg" xmlns:xlink="http://www.w3.org/1999/xlink">
<title>fa-check</title>
<desc>Created using Figma</desc>
<g id="Canvas" transform="translate(-2721 -6105)">
<g id="fa-check">
<use xlink:href="#path0_fill" transform="translate(2721.95 6105.61)" fill="#493272"/>
</g>
</g>
<defs>
<path id="path0_fill" d="M 12.1094 1.8125C 12.1094 1.61719 12.0313 1.42187 11.8906 1.28125L 10.8281 0.21875C 10.6875 0.0781243 10.4922 0 10.2969 0C 10.1016 0 9.90625 0.0781243 9.76562 0.21875L 4.64062 5.35156L 2.34375 3.04687C 2.20313 2.90625 2.00781 2.82812 1.8125 2.82812C 1.61719 2.82812 1.42187 2.90625 1.28125 3.04687L 0.21875 4.10937C 0.0781249 4.25 0 4.44531 0 4.64062C 0 4.83594 0.0781249 5.03125 0.21875 5.17187L 3.04688 8L 4.10938 9.0625C 4.25 9.20312 4.44531 9.28125 4.64062 9.28125C 4.83594 9.28125 5.03125 9.20312 5.17188 9.0625L 6.23438 8L 11.8906 2.34375C 12.0313 2.20312 12.1094 2.00781 12.1094 1.8125Z"/>
</defs>
</svg>
