<svg width="24" height="18" viewBox="0 0 24 18" fill="none" xmlns="http://www.w3.org/2000/svg">
<path d="M17.0156 9.98438H14.0156V6H9.98438V9.98438H6.98438L12 15L17.0156 9.98438ZM19.3594 7.03125C20.6406 7.125 21.7344 7.65625 22.6406 8.625C23.5469 9.5625 24 10.6875 24 12C24 13.375 23.5 14.5625 22.5 15.5625C21.5312 16.5312 20.3594 17.0156 18.9844 17.0156H6C4.34375 17.0156 2.92188 16.4375 1.73438 15.2812C0.578125 14.0938 0 12.6719 0 11.0156C0 9.48438 0.515625 8.15625 1.54688 7.03125C2.57812 5.875 3.84375 5.21875 5.34375 5.0625C6 3.84375 6.92188 2.85938 8.10938 2.10938C9.29688 1.35938 10.5938 0.984375 12 0.984375C13.8125 0.984375 15.4062 1.5625 16.7812 2.71875C18.1562 3.84375 19.0156 5.28125 19.3594 7.03125Z" fill="#61BF8B"/>
</svg>
