<svg width="24" height="24" viewBox="0 0 24 24" fill="none" xmlns="http://www.w3.org/2000/svg">
<path fill-rule="evenodd" clip-rule="evenodd" d="M18 1H20V4H23V6H20V9H18V6H15V4H18V1ZM19.7719 10C19.9344 10.6348 20.0156 11.3015 20.0156 12C20.0156 14.1875 19.2188 16.0781 17.625 17.6719C16.0625 19.2344 14.1875 20.0156 12 20.0156C9.8125 20.0156 7.92188 19.2344 6.32812 17.6719C4.76562 16.0781 3.98438 14.1875 3.98438 12C3.98438 9.8125 4.76562 7.9375 6.32812 6.375C7.92188 4.78125 9.8125 3.98438 12 3.98438C12.6985 3.98438 13.3652 4.06563 14 4.22815V2.20285C13.3591 2.07803 12.6924 2.01562 12 2.01562C9.25 2.01562 6.89062 3 4.92188 4.96875C2.98438 6.90625 2.01562 9.25 2.01562 12C2.01562 14.75 2.98438 17.1094 4.92188 19.0781C6.89062 21.0156 9.25 21.9844 12 21.9844C14.75 21.9844 17.0938 21.0156 19.0312 19.0781C21 17.1094 21.9844 14.75 21.9844 12C21.9844 11.3076 21.922 10.6409 21.7972 10H19.7719ZM15.4688 14.0156H17.1094C16.7031 15.0469 16.0312 15.8906 15.0938 16.5469C14.1875 17.1719 13.1562 17.4844 12 17.4844C10.8438 17.4844 9.79688 17.1719 8.85938 16.5469C7.95312 15.8906 7.29688 15.0469 6.89062 14.0156H8.53125C9.3125 15.3281 10.4688 15.9844 12 15.9844C13.5312 15.9844 14.6875 15.3281 15.4688 14.0156ZM7.40625 10.5938C7.125 10.2812 6.98438 9.92188 6.98438 9.51562C6.98438 9.10938 7.125 8.76562 7.40625 8.48438C7.71875 8.17188 8.07812 8.01562 8.48438 8.01562C8.89062 8.01562 9.23438 8.17188 9.51562 8.48438C9.82812 8.76562 9.98438 9.10938 9.98438 9.51562C9.98438 9.92188 9.82812 10.2812 9.51562 10.5938C9.23438 10.875 8.89062 11.0156 8.48438 11.0156C8.07812 11.0156 7.71875 10.875 7.40625 10.5938ZM14.4375 10.5938C14.1562 10.2812 14.0156 9.92188 14.0156 9.51562C14.0156 9.10938 14.1562 8.76562 14.4375 8.48438C14.75 8.17188 15.1094 8.01562 15.5156 8.01562C15.9219 8.01562 16.2656 8.17188 16.5469 8.48438C16.8594 8.76562 17.0156 9.10938 17.0156 9.51562C17.0156 9.92188 16.8594 10.2812 16.5469 10.5938C16.2656 10.875 15.9219 11.0156 15.5156 11.0156C15.1094 11.0156 14.75 10.875 14.4375 10.5938Z" fill="#444258"/>
</svg>
