<svg width="14" height="14" viewBox="0 0 14 14" fill="none" xmlns="http://www.w3.org/2000/svg">
<path d="M2.49902 10.5C2.49902 10.7812 2.27246 11 1.99902 11C1.71777 11 1.49902 10.7812 1.49902 10.5C1.49902 10.2266 1.71777 10 1.99902 10C2.27246 10 2.49902 10.2266 2.49902 10.5ZM3.74902 6.5C3.74902 6.22656 3.52246 6 3.24902 6H0.999023C0.725586 6 0.499023 6.22656 0.499023 6.5V11.5C0.499023 11.7734 0.725586 12 0.999023 12H3.24902C3.52246 12 3.74902 11.7734 3.74902 11.5V6.5ZM12.999 6.5C12.999 5.6875 12.3115 5 11.499 5H9.33496C9.39746 4.75 9.47559 4.67188 9.56152 4.5C9.77246 4.09375 9.99902 3.64062 9.99902 3C9.99902 2.39844 9.99902 0.999999 8.24902 0.999999C8.11621 0.999999 7.99121 1.05469 7.89746 1.14844C7.56152 1.47656 7.46777 1.96094 7.38184 2.42187C7.28809 2.875 7.20215 3.34375 6.89746 3.64844C6.65527 3.89062 6.38965 4.22656 6.1084 4.58594C5.76465 5.03906 5.01465 5.96875 4.72559 5.99219C4.46777 6.01562 4.24902 6.23437 4.24902 6.49219V11.5C4.24902 11.7734 4.4834 11.9922 4.74902 12C5.02246 12.0078 5.49121 12.1719 5.9834 12.3438C6.82715 12.6328 7.88184 13 8.99902 13H9.13184H9.72559C9.86621 13 9.97559 13 10.0068 13C10.6943 12.9922 11.21 12.7891 11.5459 12.3906C11.8428 12.0391 11.9756 11.5625 11.9287 10.9766C12.124 10.7891 12.2725 10.5312 12.3506 10.2422C12.4365 9.92969 12.4365 9.61719 12.3506 9.32812C12.585 9.01562 12.7021 8.64844 12.6865 8.25781C12.6865 8.14844 12.6553 7.91406 12.5693 7.66406C12.835 7.35937 12.999 6.91406 12.999 6.5Z" fill="#82809A"/>
</svg>
