<svg width="18" height="18" viewBox="0 0 18 18" fill="none" xmlns="http://www.w3.org/2000/svg">
<path fill-rule="evenodd" clip-rule="evenodd" d="M18 9C18 13.9706 13.9705 18 9 18C4.02954 18 0 13.9706 0 9C0 4.02942 4.02954 0 9 0C13.9705 0 18 4.02942 18 9ZM12.2662 14.0339C11.3263 14.645 10.2046 15 9 15C5.68628 15 3 12.3137 3 9C3 7.79538 3.35499 6.67367 3.96608 5.73379L12.2662 14.0339ZM14.034 12.2661L5.73386 3.96603C6.67372 3.35498 7.79541 3 9 3C12.3137 3 15 5.68628 15 9C15 10.2046 14.645 11.3263 14.034 12.2661Z" fill="white"/>
</svg>
