<svg width="18" height="18" viewBox="0 0 18 18" fill="none" xmlns="http://www.w3.org/2000/svg">
<g id="lab_profile_FILL0_wght400_GRAD0_opsz48 1">
<path id="Vector" d="M6 8.8125V7.6875H12V8.8125H6ZM6 5.8125V4.6875H12V5.8125H6ZM4.125 10.6875H10.125C10.4554 10.6875 10.763 10.7625 11.0478 10.9125C11.3326 11.0625 11.575 11.2625 11.775 11.5125L13.875 14.25V2.625H4.125V10.6875ZM4.125 15.375H13.3125L10.8938 12.2063C10.7992 12.0827 10.6849 11.9862 10.5509 11.9167C10.417 11.8472 10.275 11.8125 10.125 11.8125H4.125V15.375ZM13.875 16.5H4.125C3.825 16.5 3.5625 16.3875 3.3375 16.1625C3.1125 15.9375 3 15.675 3 15.375V2.625C3 2.325 3.1125 2.0625 3.3375 1.8375C3.5625 1.6125 3.825 1.5 4.125 1.5H13.875C14.175 1.5 14.4375 1.6125 14.6625 1.8375C14.8875 2.0625 15 2.325 15 2.625V15.375C15 15.675 14.8875 15.9375 14.6625 16.1625C14.4375 16.3875 14.175 16.5 13.875 16.5Z" fill="#82809A"/>
</g>
</svg>
