<svg width="18" height="16" viewBox="0 0 18 16" fill="none" xmlns="http://www.w3.org/2000/svg">
<path d="M17.2617 7.48828L17.2266 7.55859H17.2617V9C17.2617 9.1875 17.2266 9.375 17.1562 9.5625L14.8711 14.8359C14.6367 15.4453 14.1797 15.75 13.5 15.75H6.75C6.35156 15.75 6 15.5977 5.69531 15.293C5.39062 14.9883 5.23828 14.6367 5.23828 14.2383V6.75C5.23828 6.35156 5.39062 6 5.69531 5.69531L10.6172 0.738281L11.4258 1.54688C11.6367 1.75781 11.7422 2.01562 11.7422 2.32031V2.56641L11.0039 6.01172H15.75C16.1484 6.01172 16.5 6.16406 16.8047 6.46875C17.1094 6.75 17.2617 7.08984 17.2617 7.48828ZM0.738281 15.75V6.75H3.76172V15.75H0.738281Z" fill="#82809A"/>
</svg>
