<svg width="36" height="24" viewBox="0 0 36 24" fill="none" xmlns="http://www.w3.org/2000/svg">
<path d="M1.85938 8.65625L2.54688 6.96875L3.25 8.65625H1.85938ZM11.5625 16.875H9.07812V16.0313H11.2969V15.1719H9.07812V14.4063H11.625L12.7188 15.6406L11.5625 16.875ZM14.0313 15.6563L15.5781 13.9844V17.375L14.0313 15.6563ZM18.5312 14.9219C18.5312 15.3125 18.25 15.4844 17.8906 15.4844H16.5938V14.4063H17.9062C18.25 14.4063 18.5312 14.5469 18.5312 14.9219ZM23.0469 14.8594C23.0469 15.2813 22.7188 15.3594 22.375 15.3594H21.1094V14.4063H22.3906C22.7031 14.4063 23.0469 14.4688 23.0469 14.8594ZM18.7031 7.57813C18.7031 7.98438 18.375 8.0625 18.0312 8.0625H16.7656V7.125H18.0469C18.3594 7.125 18.7031 7.1875 18.7031 7.57813ZM25.875 8.65625L26.5781 6.96875L27.2656 8.65625H25.875ZM10.9219 6.23438H9.23438L8.03125 9.10938L6.70313 6.23438H5.04688V10.25L3.32813 6.23438H1.82812L0.015625 10.4688H1.10938L1.5 9.53125H3.60938L4 10.4688H6.0625V7.15625L7.53125 10.4688H8.42188L9.89062 7.15625V10.4688H10.9219V6.23438ZM19.6094 14.9219C19.6094 13.8594 18.8594 13.5313 17.9062 13.5313H14.6719L13.3906 14.9219L12.1406 13.5313H8.07812V17.7656H12.0781L13.375 16.3594L14.625 17.7656H16.5938V16.3438C17.75 16.3438 19.6094 16.625 19.6094 14.9219ZM15.0625 9.59375H12.6875V8.75H15V7.89063H12.6875V7.125H15.0625V6.23438H11.6719V10.4688H15.0625V9.59375ZM36 18.3281C35.5469 18.5469 35.0156 18.5938 34.5156 18.5938H31.8906V18.2188C31.5312 18.5 30.9688 18.5938 30.5156 18.5938H22.25V17.2344C22.25 17.0625 22.2188 17.0469 22.0625 17.0469H21.9375V18.5938H19.2188V17C18.7656 17.1875 18.2812 17.2031 17.8125 17.2031H17.4844V18.5938H14.1875L13.375 17.6719L12.5156 18.5938H7.15625V12.6875H12.6094L13.3906 13.5938L14.2344 12.6875H17.8906C18.3125 12.6875 18.9844 12.7188 19.3125 13.0313V12.6875H22.5781C23.0156 12.6875 23.5625 12.7656 23.9375 13.0313V12.6875H28.875V13.0313C29.1719 12.75 29.7031 12.6875 30.0938 12.6875H32.8594V13.0313C33.2188 12.7656 33.6875 12.6875 34.125 12.6875H36V2.09375C36 0.953126 35.0781 0 33.9375 0H2.0625C0.921875 0 0 0.953126 0 2.09375V8.20313L1.21875 5.40625H3.85938L4.20312 6.09375V5.40625H7.29688L7.96875 6.92188L8.64062 5.40625H18.4531C18.8594 5.40625 19.2813 5.46875 19.5938 5.75V5.40625H22.2812V5.75C22.7969 5.46875 23.4062 5.40625 23.9844 5.40625H27.875L28.2344 6.09375V5.40625H31.125L31.5156 6.09375V5.40625H34.3281V11.3125H31.4844L30.9531 10.4062V11.3125H27.4063L27.0156 10.3594H26.1406L25.75 11.3125C24.6875 11.3125 23.2969 11.4844 22.2812 10.9531V11.3125H17.9219V9.96875C17.9219 9.85938 17.9062 9.75 17.7656 9.75L17.6094 9.76563V11.3125H9.15625V10.5781L8.84375 11.3125H7.07812L6.78125 10.5938V11.3125H3.375L2.98438 10.3594H2.125L1.73438 11.3125H0V21.9063C0 23.0469 0.921875 24 2.0625 24H33.9375C35.0781 24 36 23.0469 36 21.9063V18.3281ZM24.1562 14.6719C24.1562 13.6719 23.2969 13.5313 22.5 13.5313H20.0938V17.7656H21.1094V16.2188H22.1875C22.8594 16.2188 23.0938 16.3438 23.0938 17.0625V17.7656H24.1094V16.9219C24.1094 16.375 24 16 23.4375 15.7969C23.9062 15.6094 24.1562 15.1406 24.1562 14.6719ZM19.8281 7.375C19.8281 6.375 18.9688 6.25 18.1562 6.25L15.7656 6.23438V10.4688H16.7656V8.9375H17.8594C18.9844 8.9375 18.75 9.5625 18.7656 10.4688H19.7812V9.64062C19.7812 9.07812 19.6875 8.71875 19.1094 8.51562C19.5625 8.32812 19.8281 7.85938 19.8281 7.375ZM28.0938 16.8906L25.7344 16.875V16.0313H28.0469V15.1719H25.7344V14.4063H28.0938V13.5313H24.7188V17.7656H28.0938V16.8906ZM21.4375 6.23438H20.4063V10.4688H21.4375V6.23438ZM32.2656 16.4219C32.2656 14.3906 29.6406 15.7344 29.6406 14.8125C29.6406 14.4688 29.9375 14.4219 30.2031 14.4219H32.0625V13.5313H30.0313C29.25 13.5313 28.5938 13.9375 28.5938 14.7969C28.5938 16.8125 31.2031 15.5625 31.2031 16.4688C31.2031 16.7969 30.9219 16.8594 30.6719 16.8594H28.7031V17.7656H30.6719C31.5781 17.7656 32.2656 17.4219 32.2656 16.4219ZM36 15.6406C35.3594 14.7969 33.5938 15.5625 33.5938 14.8125C33.5938 14.4688 33.875 14.4219 34.1563 14.4219H36V13.5313H33.9844C33.2031 13.5313 32.5312 13.9375 32.5312 14.7969C32.5312 16.8125 35.1406 15.5781 35.1406 16.4688C35.1406 16.7813 34.875 16.8594 34.625 16.8594H32.6719V17.7656H34.625C35.125 17.7656 35.7031 17.6563 36 17.2188V15.6406ZM33.4219 6.25H32.3906V9.1875L30.6094 6.25H29.0625V10.25L27.3594 6.25H25.8438L24.4063 9.57812H23.9531C23.1406 9.57812 22.9688 9.07813 22.9688 8.35938C22.9688 6.90625 23.9375 7.14063 25 7.15625V6.23438H24.0156C22.5781 6.23438 21.9375 6.96875 21.9375 8.39063C21.9375 9.75 22.5625 10.4688 23.9531 10.4688H25.125L25.5156 9.53125H27.6094L28.0156 10.4688H30.0781V7.29688L31.9844 10.4688H33.4219V6.25Z" fill="#82809A"/>
</svg>
