<svg width="36" height="24" viewBox="0 0 36 24" fill="none" xmlns="http://www.w3.org/2000/svg">
<path d="M13.4063 17.3906C11.2344 16.5625 9.6875 14.4531 9.6875 11.9844C9.6875 9.51562 11.2344 7.40625 13.4063 6.5625V17.3906ZM21.2813 11.9844C21.2813 14.4531 19.7344 16.5625 17.5625 17.4063V6.5625C19.7344 7.40625 21.2813 9.51562 21.2813 11.9844ZM24.6406 11.9844C24.6406 6.92188 20.5469 2.82813 15.4844 2.82813C10.4375 2.82813 6.32813 6.92188 6.32813 11.9844C6.32813 17.0312 10.4375 21.1406 15.4844 21.1406C20.5469 21.1406 24.6406 17.0312 24.6406 11.9844ZM30.625 12.0938C30.625 17.5469 25.6406 22 20.1719 22H15.4688C9.9375 22 5.375 17.5469 5.375 12.0938C5.375 6.125 9.9375 2 15.4688 2H20.1719C25.6406 2 30.625 6.125 30.625 12.0938ZM36 2C36 0.906251 35.0938 0 34 0H2C0.90625 0 0 0.906251 0 2V22C0 23.0938 0.90625 24 2 24H34C35.0938 24 36 23.0938 36 22V2Z" fill="#82809A"/>
</svg>
