<svg width="36" height="24" viewBox="0 0 36 24" fill="none" xmlns="http://www.w3.org/2000/svg">
<path d="M4.89062 10.1406C4.89062 9.64062 4.6875 9.15625 4.32812 8.84375C4 8.53125 3.59375 8.42188 2.9375 8.42188H2.67188V11.8594H2.9375C3.59375 11.8594 4.01562 11.7344 4.32812 11.4531C4.6875 11.125 4.89062 10.6406 4.89062 10.1406ZM32.6406 9.125C32.6406 8.625 32.2969 8.35938 31.6562 8.35938H31.3438V9.9375H31.6406C32.2969 9.9375 32.6406 9.65625 32.6406 9.125ZM5.9375 10.1406C5.9375 10.9063 5.59375 11.6406 5 12.1406C4.5 12.5625 3.92188 12.7344 3.14062 12.7344H1.65625V7.53125H3.14062C4.79688 7.53125 5.9375 8.60938 5.9375 10.1406ZM6.40625 12.7344V7.53125H7.42188V12.7344H6.40625ZM11.4063 11.1563C11.4063 12.1719 10.6719 12.875 9.60938 12.875C8.84375 12.875 8.28125 12.5625 7.8125 11.875L8.46875 11.25C8.70312 11.7031 9.09375 11.9375 9.57813 11.9375C10.0312 11.9375 10.3594 11.625 10.3594 11.2031C10.3594 10.9844 10.2656 10.7969 10.0625 10.6719C9.95313 10.5938 9.75 10.5156 9.35938 10.375C8.40625 10.0312 8.07812 9.65625 8.07812 8.9375C8.07812 8.09375 8.78125 7.45313 9.70312 7.45313C10.2656 7.45313 10.7969 7.64062 11.2344 8.03125L10.7031 8.71875C10.4375 8.42188 10.1875 8.29688 9.875 8.29688C9.4375 8.29688 9.125 8.54688 9.125 8.875C9.125 9.15625 9.29688 9.3125 9.90625 9.53125C11.0625 9.95312 11.4063 10.3281 11.4063 11.1563ZM15.75 12.5625C15.2969 12.7812 14.9219 12.8594 14.4844 12.8594C12.9375 12.8594 11.7344 11.6719 11.7344 10.1406C11.7344 8.625 12.9688 7.42188 14.5 7.42188C14.9375 7.42188 15.3125 7.51563 15.75 7.73438V8.9375C15.3281 8.51562 14.9688 8.34375 14.4844 8.34375C13.5313 8.34375 12.7812 9.14063 12.7812 10.1406C12.7812 11.1875 13.5 11.9375 14.5312 11.9375C14.9844 11.9375 15.3438 11.7656 15.75 11.3594V12.5625ZM35 22C35 22.5469 34.5469 23 34 23H9.48438C23.7031 20.3281 32.5 15.3281 35 13.7656V22ZM21.7031 10.1719C21.7031 11.7344 20.4375 13 18.875 13C17.3125 13 16.0469 11.7344 16.0469 10.1719C16.0469 8.60938 17.3125 7.34375 18.875 7.34375C20.4375 7.34375 21.7031 8.60938 21.7031 10.1719ZM24.0781 12.875H23.5313L21.3125 7.53125H22.4219L23.8125 11.0312L25.2188 7.53125H26.3281L24.0781 12.875ZM26.7812 12.7344V7.53125H29.6563V8.42188H27.7969V9.57812H29.5938V10.4531H27.7969V11.8594H29.6563V12.7344H26.7812ZM32.8906 12.7344L31.4844 10.6563H31.3438V12.7344H30.3281V7.53125H31.8438C33.0156 7.53125 33.6875 8.09375 33.6875 9.07813C33.6875 9.875 33.2656 10.3906 32.5 10.5469L34.1406 12.7344H32.8906ZM36 2.09375C36 0.9375 35.0781 0 33.9375 0H2.0625C0.921875 0 0 0.9375 0 2.09375V21.9063C0 23.0625 0.921875 24 2.0625 24H33.9375C35.0781 24 36 23.0625 36 21.9063V2.09375Z" fill="#82809A"/>
</svg>
