<svg width="36" height="24" viewBox="0 0 36 24" fill="none" xmlns="http://www.w3.org/2000/svg">
<path d="M30.4844 13.5938C30.4844 13.0469 30.1094 12.625 29.6406 12.5312C29.5781 12.5156 29.4375 12.5 29.3594 12.5H26.9688V14.6875H29.3594C29.4375 14.6875 29.5781 14.6719 29.6406 14.6563C30.1094 14.5625 30.4844 14.1563 30.4844 13.5938ZM30.2031 10.2656C30.2031 9.71875 29.8281 9.34375 29.375 9.26563C29.3281 9.26563 29.2188 9.25 29.1406 9.25H26.9688V11.2656H29.1406C29.2188 11.2656 29.3281 11.2656 29.375 11.25C29.8281 11.1719 30.2031 10.8125 30.2031 10.2656ZM11.375 12.8281C11.375 14.7031 10.2188 16.2188 6.25 16.2188C6.25 16.2188 3.875 16.2188 2 15.7031V13.9531C3.15625 14.5156 4.35938 14.875 5.57813 14.875C7.01563 14.875 7.8125 14 7.8125 12.8281V8.01563H11.375V12.8281ZM22.5313 15.7031C20.8594 16.125 19.2812 16.1875 19.2812 16.1875C13.7812 16.4375 12.2188 14.2656 12.2188 12C12.2188 9.73438 13.7812 7.5625 19.2812 7.8125C19.2812 7.8125 20.8594 7.875 22.5313 8.29688V10.0469C21.7031 9.625 20.6875 9.23438 19.4062 9.14062C17.1562 8.96875 15.8125 10.0625 15.8125 12C15.8125 13.9375 17.1562 15.0313 19.4062 14.8594C20.6875 14.7656 21.7188 14.3594 22.5313 13.9375V15.7031ZM34 13.9063C34 15.1719 32.875 15.9844 31.3594 15.9844H23.6875V8.01563H30.7969C30.9375 8.01563 31.1094 8.03125 31.2031 8.03125C32.5312 8.09375 33.5156 8.78125 33.5156 9.96875C33.5156 10.8906 32.8438 11.6875 31.625 11.8594V11.9062C32.9688 12 34 12.75 34 13.9063ZM36 2C36 0.906251 35.0938 0 34 0H2C0.90625 0 0 0.906251 0 2V22C0 23.0938 0.90625 24 2 24H34C35.0938 24 36 23.0938 36 22V2Z" fill="#82809A"/>
</svg>
