<svg width="36" height="24" viewBox="0 0 36 24" fill="none" xmlns="http://www.w3.org/2000/svg">
<path d="M17.4844 3.32813C13.3281 6.73438 13.2969 13.1563 17.4844 16.5625C16.1875 17.4219 14.6562 17.8906 13.0938 17.8906C8.70312 17.8906 5.14063 14.3281 5.14063 9.9375C5.14063 5.5625 8.70312 2 13.0938 2C14.6562 2 16.1875 2.46875 17.4844 3.32813ZM18 3.70313C22.0312 6.875 22.0469 13.0313 18 16.1875C13.9531 13.0313 13.9688 6.875 18 3.70313ZM18.5156 3.32813C19.8125 2.46875 21.3438 2 22.9062 2C27.2969 2 30.8594 5.5625 30.8594 9.9375C30.8594 14.3281 27.2969 17.8906 22.9062 17.8906C21.3594 17.8906 19.8125 17.4219 18.5156 16.5625C22.7188 13.1719 22.6562 6.73438 18.5156 3.32813ZM30.0938 14.6094V14.875H30.0469V14.6094H29.9375V14.5625H30.2031V14.6094H30.0938ZM30.5469 14.875V14.6406L30.4688 14.8438H30.4062L30.3125 14.6406V14.875H30.2656V14.5625H30.3438L30.4375 14.7656L30.5313 14.5625H30.6094V14.875H30.5469ZM30.4219 21.75V21.7344C30.4062 21.7344 30.4062 21.7344 30.3906 21.7344H30.3438V21.7813H30.3906C30.4062 21.7813 30.4062 21.7813 30.4219 21.7813C30.4219 21.7656 30.4219 21.7656 30.4219 21.75ZM30.4219 21.8906L30.3594 21.8125H30.3438V21.8906H30.2969V21.6875H30.3906C30.4219 21.6875 30.4375 21.7031 30.4531 21.7031C30.4688 21.7188 30.4688 21.7344 30.4688 21.75C30.4688 21.7656 30.4688 21.7813 30.4531 21.7969C30.4375 21.7969 30.4375 21.8125 30.4062 21.8125L30.4688 21.8906H30.4219ZM10.7031 20.8281C10.7031 21.2031 10.9375 21.5 11.3438 21.5C11.7188 21.5 11.9688 21.2188 11.9688 20.8281C11.9688 20.4531 11.7188 20.1563 11.3438 20.1563C10.9375 20.1563 10.7031 20.4531 10.7031 20.8281ZM18.0938 20.1406C17.7813 20.1406 17.5938 20.3438 17.5469 20.6406H18.6406C18.5938 20.3125 18.3906 20.1406 18.0938 20.1406ZM23.6562 20.8281C23.6562 21.2031 23.8906 21.5 24.2813 21.5C24.6719 21.5 24.9219 21.2188 24.9219 20.8281C24.9219 20.4531 24.6719 20.1563 24.2813 20.1563C23.8906 20.1563 23.6562 20.4531 23.6562 20.8281ZM27.9063 20.8281C27.9063 21.2031 28.1563 21.5 28.5469 21.5C28.9219 21.5 29.1875 21.2188 29.1875 20.8281C29.1875 20.4531 28.9219 20.1563 28.5469 20.1563C28.1563 20.1563 27.9063 20.4531 27.9063 20.8281ZM30.375 21.9531C30.4062 21.9531 30.4219 21.9531 30.4375 21.9375C30.4688 21.9375 30.4844 21.9219 30.5 21.9063C30.5156 21.8906 30.5156 21.875 30.5313 21.8594C30.5313 21.8281 30.5469 21.8125 30.5469 21.7969C30.5469 21.7656 30.5313 21.75 30.5313 21.7344C30.5156 21.7031 30.5156 21.6875 30.5 21.6719C30.4844 21.6563 30.4688 21.6563 30.4375 21.6406C30.4219 21.625 30.4062 21.625 30.375 21.625C30.3594 21.625 30.3438 21.625 30.3125 21.6406C30.2969 21.6563 30.2812 21.6563 30.2656 21.6719C30.25 21.6875 30.2344 21.7031 30.2344 21.7344C30.2188 21.75 30.2188 21.7656 30.2188 21.7969C30.2188 21.8125 30.2188 21.8281 30.2344 21.8594C30.2344 21.875 30.25 21.8906 30.2656 21.9063C30.2812 21.9219 30.2969 21.9375 30.3125 21.9375C30.3438 21.9531 30.3594 21.9531 30.375 21.9531ZM9.35938 21.8906V20.7188C9.35938 20.3594 9.20313 20.1563 8.89063 20.1563C8.59375 20.1563 8.375 20.3438 8.375 20.7188V21.8906H7.92188V20.7188C7.92188 20.3594 7.76562 20.1563 7.45313 20.1563C7.14063 20.1563 6.9375 20.3438 6.9375 20.7188V21.8906H6.46875V19.7813H6.9375V20.0313C7.10938 19.7969 7.32812 19.7188 7.54688 19.7188C7.875 19.7188 8.10938 19.8594 8.25 20.0938C8.4375 19.7969 8.71875 19.7188 8.98438 19.7188C9.5 19.7344 9.82812 20.0625 9.82812 20.5625V21.8906H9.35938ZM11.9531 21.8906V21.625C11.7969 21.8281 11.5781 21.9375 11.2812 21.9375C10.6875 21.9375 10.2344 21.4688 10.2344 20.8281C10.2344 20.1875 10.6875 19.7188 11.2812 19.7188C11.5781 19.7188 11.7969 19.8438 11.9531 20.0313V19.7813H12.4062V20.8281V21.8906H11.9531ZM14.7344 21.25C14.7344 21.6563 14.375 21.9375 13.7656 21.9375C13.4219 21.9375 13.1094 21.8438 12.8594 21.6719L13.0625 21.3125C13.2188 21.4219 13.4531 21.5313 13.7656 21.5313C14.0781 21.5313 14.25 21.4375 14.25 21.2656C14.25 21.1563 14.1406 21.0938 13.875 21.0469L13.6719 21.0156C13.1875 20.9531 12.9375 20.75 12.9375 20.4063C12.9375 19.9844 13.2812 19.7188 13.8125 19.7188C14.1562 19.7188 14.4531 19.7969 14.6719 19.9375L14.4844 20.3125C14.3438 20.2344 14.0938 20.1406 13.8125 20.1406C13.5625 20.1406 13.4219 20.2344 13.4219 20.375C13.4219 20.5156 13.5781 20.5625 13.7813 20.5938L14 20.625C14.4531 20.6875 14.7344 20.875 14.7344 21.25ZM16.7656 21.7813C16.625 21.875 16.3906 21.9375 16.2031 21.9375C15.6563 21.9375 15.4688 21.6406 15.4688 21.1563V20.2031H15.0312V19.7813H15.4688V19.1406H15.9375V19.7813H16.6875V20.2031H15.9375V21.1563C15.9375 21.3594 16 21.5 16.2344 21.5C16.3594 21.5 16.5 21.4688 16.6406 21.3906L16.7656 21.7813ZM18.1094 19.7188C18.7031 19.7188 19.1094 20.1719 19.1094 20.8281C19.1094 20.8906 19.1094 20.9531 19.1094 21.0156H17.5312C17.6094 21.3906 17.875 21.5313 18.1719 21.5313C18.375 21.5313 18.6094 21.4375 18.7812 21.2969L19 21.6406C18.75 21.8594 18.4531 21.9375 18.1406 21.9375C17.5156 21.9375 17.0625 21.5 17.0625 20.8281C17.0625 20.1719 17.5 19.7188 18.1094 19.7188ZM20.5938 19.7188C20.6875 19.7188 20.8125 19.7344 20.9219 19.7813L20.7813 20.2188C20.6875 20.1719 20.5938 20.1563 20.5 20.1563C20.1875 20.1563 20.0469 20.3594 20.0469 20.7031V21.8906H19.5781V19.7813H20.0469V20.0313C20.1562 19.8438 20.3281 19.7188 20.5938 19.7188ZM21.0625 20.8281C21.0625 20.1875 21.5 19.7188 22.1875 19.7188C22.5 19.7188 22.7188 19.7969 22.9375 19.9688L22.7188 20.3438C22.5469 20.2188 22.375 20.1563 22.1719 20.1563C21.7969 20.1563 21.5312 20.4219 21.5312 20.8281C21.5312 21.2344 21.7969 21.5 22.1719 21.5C22.375 21.5156 22.5469 21.4375 22.7188 21.3125L22.9375 21.6875C22.7188 21.875 22.5 21.9375 22.1875 21.9375C21.5 21.9375 21.0625 21.4688 21.0625 20.8281ZM24.8906 21.8906V21.625C24.75 21.8281 24.5313 21.9375 24.2344 21.9375C23.6406 21.9375 23.1719 21.4688 23.1719 20.8281C23.1719 20.1875 23.6406 19.7188 24.2344 19.7188C24.5313 19.7188 24.75 19.8438 24.8906 20.0313V19.7813H25.3594V20.8281V21.8906H24.8906ZM26.9688 19.7188C27.0625 19.7188 27.2031 19.7344 27.2969 19.7813L27.1562 20.2188C27.0625 20.1719 26.9688 20.1563 26.875 20.1563C26.5781 20.1563 26.4219 20.3594 26.4219 20.7031V21.8906H25.9688V19.7813H26.4219V20.0313C26.5313 19.8438 26.7031 19.7188 26.9688 19.7188ZM29.1563 21.8906V21.625C29.0156 21.8281 28.7969 21.9375 28.4844 21.9375C27.9063 21.9375 27.4375 21.4688 27.4375 20.8281C27.4375 20.1875 27.9063 19.7188 28.4844 19.7188C28.7969 19.7188 29.0156 19.8438 29.1563 20.0313V18.9219H29.6094V20.8281V21.8906H29.1563ZM30.375 21.5781C30.4062 21.5781 30.4375 21.5938 30.4688 21.5938C30.4844 21.6094 30.5156 21.625 30.5313 21.6406C30.5469 21.6563 30.5625 21.6875 30.5781 21.7031C30.5938 21.7344 30.5938 21.7656 30.5938 21.7969C30.5938 21.8125 30.5938 21.8438 30.5781 21.875C30.5625 21.8906 30.5469 21.9219 30.5313 21.9375C30.5156 21.9531 30.4844 21.9688 30.4688 21.9844C30.4375 22 30.4062 22 30.375 22C30.3594 22 30.3281 22 30.2969 21.9844C30.2656 21.9688 30.25 21.9531 30.2344 21.9375C30.2031 21.9219 30.1875 21.8906 30.1875 21.875C30.1719 21.8438 30.1719 21.8125 30.1719 21.7969C30.1719 21.7656 30.1719 21.7344 30.1875 21.7031C30.1875 21.6875 30.2031 21.6563 30.2344 21.6406C30.25 21.625 30.2656 21.6094 30.2969 21.5938C30.3281 21.5938 30.3594 21.5781 30.375 21.5781ZM36 2C36 0.906251 35.0938 0 34 0H2C0.90625 0 0 0.906251 0 2V22C0 23.0938 0.90625 24 2 24H34C35.0938 24 36 23.0938 36 22V2Z" fill="#82809A"/>
</svg>
