<svg width="36" height="24" viewBox="0 0 36 24" fill="none" xmlns="http://www.w3.org/2000/svg">
<path d="M30.8594 13.4688C30.8594 13.4688 30.75 12.9688 30.2656 10.5781L30.0781 9.71875C29.9531 10.0938 29.7188 10.6875 29.7344 10.6719C28.9219 12.8906 28.7031 13.4688 28.7031 13.4688C29.2188 13.4688 30.4531 13.4688 30.8594 13.4688ZM8.29688 12.4531C7.23438 9.5 4.875 7.9375 2 7.20312L2.03125 7H6.21875C6.78125 7 7.26562 7.20313 7.39063 7.84375L8.29688 12.4531ZM11.0938 7H13.8438L9.76563 17.0156H7.03125L4.92188 9.04688C6.42188 9.65625 7.75 11 8.29688 12.4531L8.5625 13.8438L11.0938 7ZM13.2656 17.0313L14.8906 7H17.4844L15.8594 17.0313H13.2656ZM25.2656 7.25L24.9062 9.42188L24.6719 9.29688C24.2031 9.07813 23.5781 8.90625 22.7344 8.92188C21.7188 8.92188 21.25 9.35938 21.25 9.78125C21.25 10.25 21.7969 10.5781 22.7031 11.0312C24.1875 11.75 24.8906 12.6094 24.8906 13.75C24.8594 15.8281 23.0938 17.1875 20.375 17.1719C19.2031 17.1719 18.0938 16.9219 17.4844 16.6406L17.8438 14.3906L18.1875 14.5625C19.0156 14.9531 19.5781 15.0781 20.625 15.0781C21.3594 15.0781 22.1719 14.7813 22.1719 14.1094C22.1719 13.6719 21.8438 13.3438 20.8281 12.8594C19.8438 12.375 18.5469 11.5781 18.5625 10.1406C18.5781 8.1875 20.375 6.82812 22.9375 6.82812C23.9375 6.82812 24.75 7.04688 25.2656 7.25ZM31.9062 7L34 17.0313H31.5938C31.3594 15.875 31.2812 15.5313 31.2812 15.5313C30.9063 15.5313 28.2656 15.5313 27.9688 15.5313C27.9688 15.5313 27.8594 15.7969 27.4219 17.0313H24.7031L28.5469 7.84375C28.8125 7.1875 29.2812 7 29.9063 7H31.9062ZM36 2C36 0.906251 35.0938 0 34 0H2C0.90625 0 0 0.906251 0 2V22C0 23.0938 0.90625 24 2 24H34C35.0938 24 36 23.0938 36 22V2Z" fill="#82809A"/>
</svg>
