<svg width="48" height="48" viewBox="0 0 48 48" fill="none" xmlns="http://www.w3.org/2000/svg">
<path d="M12.9837 29.013C12.9837 31.2101 11.1889 33.0049 8.99186 33.0049C6.79479 33.0049 5 31.2101 5 29.013C5 26.816 6.79479 25.0212 8.99186 25.0212H12.9837V29.013Z" fill="#E01E5A"/>
<path d="M14.9951 29.013C14.9951 26.8159 16.7899 25.0211 18.987 25.0211C21.184 25.0211 22.9788 26.8159 22.9788 29.013V39.0081C22.9788 41.2052 21.184 42.9999 18.987 42.9999C16.7899 42.9999 14.9951 41.2052 14.9951 39.0081V29.013Z" fill="#E01E5A"/>
<path d="M18.987 12.9837C16.7899 12.9837 14.9951 11.1889 14.9951 8.99186C14.9951 6.79479 16.7899 5 18.987 5C21.184 5 22.9788 6.79479 22.9788 8.99186V12.9837H18.987Z" fill="#36C5F0"/>
<path d="M18.987 14.9951C21.184 14.9951 22.9788 16.7899 22.9788 18.9869C22.9788 21.184 21.184 22.9788 18.987 22.9788H8.99186C6.79479 22.9788 5 21.184 5 18.9869C5 16.7899 6.79479 14.9951 8.99186 14.9951H18.987Z" fill="#36C5F0"/>
<path d="M35.0164 18.9869C35.0164 16.7899 36.8111 14.9951 39.0082 14.9951C41.2053 14.9951 43.0001 16.7899 43.0001 18.9869C43.0001 21.184 41.2053 22.9788 39.0082 22.9788H35.0164V18.9869Z" fill="#2EB67D"/>
<path d="M33.005 18.987C33.005 21.184 31.2102 22.9788 29.0131 22.9788C26.816 22.9788 25.0212 21.184 25.0212 18.987V8.99186C25.0212 6.79479 26.816 5 29.0131 5C31.2102 5 33.005 6.79479 33.005 8.99186V18.987Z" fill="#2EB67D"/>
<path d="M29.0131 35.0162C31.2102 35.0162 33.005 36.811 33.005 39.0081C33.005 41.2051 31.2102 42.9999 29.0131 42.9999C26.816 42.9999 25.0212 41.2051 25.0212 39.0081V35.0162H29.0131Z" fill="#ECB22E"/>
<path d="M29.0133 33.0049C26.8163 33.0049 25.0215 31.2101 25.0215 29.013C25.0215 26.816 26.8163 25.0212 29.0133 25.0212H39.0085C41.2055 25.0212 43.0003 26.816 43.0003 29.013C43.0003 31.2101 41.2055 33.0049 39.0085 33.0049H29.0133Z" fill="#ECB22E"/>
</svg>
