<svg width="132" height="27" viewBox="0 0 132 27" fill="none" xmlns="http://www.w3.org/2000/svg">
<path d="M40.1843 26.3847V5.9037H43.2495V7.5847C43.6234 7.01385 44.1477 6.55731 44.7645 6.26541C45.516 5.86176 46.3577 5.65523 47.2107 5.66512C48.1146 5.60404 49.0204 5.75062 49.8589 6.09363C50.6974 6.43664 51.4462 6.967 52.0481 7.64407C53.2391 9.23903 53.825 11.205 53.7016 13.1917C53.8116 15.1641 53.2191 17.1117 52.0294 18.6888C51.4262 19.3767 50.6728 19.9167 49.8275 20.2669C48.9822 20.6171 48.0676 20.7682 47.1546 20.7084C46.3538 20.718 45.5623 20.5363 44.8459 20.1785C44.2131 19.8785 43.6655 19.425 43.2528 18.8592V26.3847H40.1843ZM44.1147 9.6461C43.3751 10.6753 43.009 11.9261 43.0769 13.1917C43.0088 14.4573 43.375 15.7082 44.1147 16.7373C44.4325 17.1452 44.8389 17.4755 45.3031 17.7031C45.7674 17.9307 46.2773 18.0497 46.7944 18.0511C47.3114 18.0525 47.822 17.9362 48.2875 17.7111C48.7529 17.4859 49.1611 17.1578 49.481 16.7516C50.2222 15.7176 50.5898 14.4622 50.5232 13.1917C50.5912 11.9265 50.2259 10.6758 49.4876 9.6461C49.1688 9.23784 48.7612 8.9076 48.2957 8.68046C47.8303 8.45332 47.3191 8.33527 46.8012 8.33527C46.2832 8.33527 45.7721 8.45332 45.3066 8.68046C44.8411 8.9076 44.4335 9.23784 44.1147 9.6461" fill="#2D2D39"/>
<path d="M55.5265 16.2868C55.5018 15.6046 55.6477 14.9269 55.951 14.3153C56.2544 13.7036 56.7055 13.1773 57.2636 12.7841C58.6134 11.8806 60.218 11.435 61.8405 11.5132H64.3549V10.8777C64.3836 10.5171 64.3262 10.1547 64.1874 9.82063C64.0486 9.4865 63.8325 9.19014 63.5567 8.95594C62.9664 8.52317 62.2464 8.30412 61.5151 8.33478C60.9112 8.30533 60.3151 8.48029 59.823 8.83138C59.3309 9.18248 58.9715 9.68921 58.8028 10.2697L56.0488 9.69035C56.3237 8.51012 57.0126 7.46752 57.9903 6.75162C59.0241 6.01133 60.2716 5.62947 61.5425 5.6643C65.4601 5.6643 67.4189 7.58534 67.4189 11.4274V20.4811H64.876L64.5461 18.5747C64.0375 19.2778 63.3602 19.8416 62.5765 20.2143C61.7928 20.5871 60.928 20.7567 60.0616 20.7076H60.0198C58.8459 20.7489 57.6992 20.3483 56.8063 19.5851C56.3638 19.1631 56.0199 18.6488 55.7991 18.0787C55.5783 17.5085 55.486 16.8967 55.5287 16.2868H55.5265ZM58.7071 16.2868C58.6906 16.5278 58.7268 16.7696 58.8133 16.9951C58.8998 17.2207 59.0345 17.4246 59.208 17.5927C59.3814 17.7609 59.5895 17.8891 59.8176 17.9685C60.0458 18.0479 60.2885 18.0766 60.5289 18.0525C61.5115 18.0683 62.466 17.7242 63.2126 17.085C63.5982 16.7462 63.9017 16.324 64.1 15.8504C64.2983 15.3769 64.3862 14.8644 64.357 14.3519V14.022H61.7184C60.939 13.9798 60.167 14.1929 59.5196 14.6289C59.2593 14.816 59.049 15.0643 58.9073 15.3519C58.7656 15.6395 58.6969 15.9576 58.7071 16.278" fill="#2D2D39"/>
<path d="M70.8274 20.481V5.90387H73.8969V8.33358C74.3458 7.5186 75.0044 6.83841 75.8044 6.36343C76.5267 5.91707 77.3566 5.67538 78.2056 5.6642C78.8395 5.65945 79.4682 5.77937 80.0559 6.01711L79.5325 8.77114C79.0216 8.46522 78.4336 8.31258 77.8384 8.33138C77.2653 8.36052 76.7094 8.53702 76.2244 8.84382C75.7395 9.15063 75.3419 9.57735 75.07 10.0827C74.2 11.5955 73.7921 13.3299 73.8969 15.0719V20.481H70.8274Z" fill="#2D2D39"/>
<path d="M80.8344 16.2868C80.8097 15.6046 80.9556 14.9269 81.2589 14.3153C81.5622 13.7036 82.0134 13.1773 82.5715 12.7841C83.9213 11.8806 85.5259 11.435 87.1483 11.5132H89.6627V10.8777C89.6913 10.5171 89.6339 10.1548 89.4951 9.82068C89.3564 9.48657 89.1402 9.19019 88.8645 8.95594C88.2742 8.52325 87.5542 8.3042 86.8229 8.33478C86.2191 8.30533 85.623 8.48029 85.1309 8.83138C84.6387 9.18248 84.2793 9.68921 84.1107 10.2697L81.3566 9.69035C81.6316 8.51012 82.3204 7.46752 83.2982 6.75162C84.3319 6.01133 85.5794 5.62947 86.8504 5.6643C90.768 5.6643 92.7268 7.58534 92.7268 11.4274V20.4811H90.1838L89.854 18.5747C89.3453 19.2778 88.668 19.8416 87.8844 20.2143C87.1007 20.5871 86.2359 20.7567 85.3695 20.7076H85.3277C84.1538 20.7487 83.0071 20.3482 82.1141 19.5851C81.6717 19.1631 81.3278 18.6488 81.107 18.0787C80.8861 17.5085 80.7938 16.8967 80.8366 16.2868H80.8344ZM84.015 16.2868C83.9984 16.5278 84.0347 16.7696 84.1212 16.9951C84.2077 17.2207 84.3424 17.4246 84.5158 17.5927C84.6893 17.7609 84.8973 17.8891 85.1255 17.9685C85.3536 18.0479 85.5964 18.0766 85.8367 18.0525C86.8194 18.0683 87.7739 17.7242 88.5204 17.085C88.906 16.7462 89.2095 16.324 89.4078 15.8504C89.6061 15.3769 89.694 14.8644 89.6649 14.3519V14.022H87.0263C86.2469 13.9799 85.4749 14.1929 84.8275 14.6289C84.5671 14.816 84.3568 15.0643 84.2151 15.3519C84.0734 15.6395 84.0047 15.9576 84.015 16.278" fill="#2D2D39"/>
<path d="M96.1357 20.4821V0H99.2009V7.5145C99.6478 6.95656 100.224 6.51552 100.879 6.22928C101.568 5.8727 102.331 5.67936 103.107 5.66419C104.021 5.60533 104.936 5.75802 105.781 6.11039C106.627 6.46277 107.379 7.00533 107.981 7.6959C109.168 9.27419 109.76 11.2209 109.653 13.193C109.775 15.1768 109.187 17.1394 107.995 18.7296C107.393 19.4059 106.644 19.9357 105.805 20.2787C104.967 20.6216 104.061 20.7687 103.158 20.7086C102.308 20.7167 101.469 20.5127 100.718 20.1149C100.098 19.828 99.5701 19.3728 99.1954 18.8011V20.4821H96.1357ZM100.066 9.64846C99.3269 10.6774 98.9608 11.9278 99.0283 13.193C98.9604 14.4586 99.3265 15.7094 100.066 16.7386C100.384 17.1465 100.79 17.4768 101.255 17.7044C101.719 17.932 102.229 18.051 102.746 18.0524C103.263 18.0537 103.773 17.9375 104.239 17.7123C104.704 17.4872 105.112 17.1591 105.432 16.7529C106.174 15.7189 106.541 14.4635 106.475 13.193C106.542 11.9276 106.177 10.677 105.438 9.64736C105.119 9.2391 104.712 8.90886 104.246 8.68172C103.781 8.45458 103.269 8.33653 102.751 8.33653C102.234 8.33653 101.722 8.45458 101.257 8.68172C100.791 8.90886 100.384 9.2391 100.065 9.64736" fill="#2D2D39"/>
<path d="M111.687 13.1644C111.632 11.2053 112.329 9.29935 113.637 7.83888C114.321 7.14946 115.135 6.60231 116.032 6.22893C116.93 5.85555 117.892 5.66333 118.863 5.66333C119.835 5.66333 120.797 5.85555 121.694 6.22893C122.591 6.60231 123.405 7.14946 124.09 7.83888C125.397 9.31 126.094 11.2245 126.039 13.1919C126.095 15.1575 125.398 17.0703 124.09 18.5384C123.43 19.2602 122.62 19.8284 121.717 20.203C120.814 20.5777 119.84 20.7495 118.863 20.7064C118.861 20.706 118.859 20.7061 118.857 20.7067C118.855 20.7073 118.854 20.7083 118.852 20.7097C118.851 20.7111 118.85 20.7129 118.849 20.7148C118.849 20.7167 118.848 20.7188 118.849 20.7207C117.874 20.7608 116.902 20.5869 116.002 20.2112C115.101 19.8356 114.294 19.2672 113.637 18.5461C112.327 17.0623 111.631 15.1368 111.687 13.1589V13.1644ZM115.924 16.6056C116.253 17.072 116.694 17.4484 117.206 17.7003C117.718 17.9521 118.285 18.0713 118.855 18.0469C119.426 18.0709 119.994 17.9528 120.508 17.7034C121.022 17.454 121.466 17.0809 121.801 16.6177C122.491 15.6088 122.86 14.4149 122.86 13.1925C122.86 11.9701 122.491 10.7762 121.801 9.76725C121.451 9.32026 121.003 8.95891 120.493 8.7106C119.982 8.4623 119.422 8.33359 118.854 8.33422C118.286 8.33486 117.726 8.46483 117.216 8.71427C116.706 8.96372 116.259 9.32608 115.91 9.77385C115.197 10.7571 114.829 11.949 114.865 13.1633C114.832 14.3971 115.205 15.6075 115.924 16.61" fill="#2D2D39"/>
<path d="M132 0H128.935V20.4821H132V0Z" fill="#2D2D39"/>
<path d="M14.6126 21.7532C13.6429 21.7532 12.6854 21.707 11.7542 21.619C15.3075 25.5132 19.3324 27.3426 21.9227 25.8463C23.5718 24.8931 24.3414 22.7591 24.2765 20.0359C21.1934 21.2124 17.9156 21.795 14.6159 21.7532" fill="#FD6157"/>
<path d="M14.6127 4.62842C15.5835 4.62842 16.54 4.6746 17.4712 4.76255C13.9223 0.869525 9.89731 -0.959902 7.30709 0.535303C5.65797 1.4885 4.88838 3.62246 4.95324 6.34571C8.03633 5.16923 11.3141 4.58656 14.6138 4.62842" fill="#FD6157"/>
<path d="M25.371 8.2478C24.8482 11.5058 23.7138 14.6355 22.0277 17.4719C21.5407 18.3162 21.0217 19.121 20.4797 19.884C25.6283 18.7538 29.2256 16.1834 29.2256 13.1908C29.2256 11.2844 27.7634 9.54841 25.371 8.24341" fill="#55C0CF"/>
<path d="M7.19787 8.91114C7.68491 8.06679 8.20383 7.26202 8.74584 6.49902C3.59619 7.62922 0 10.2008 0 13.1923C0 15.0986 1.46112 16.8346 3.85455 18.1396C4.37728 14.8812 5.51166 11.7512 7.19787 8.91444" fill="#55C0CF"/>
<path d="M22.027 8.9094C22.5118 9.74935 22.9505 10.6014 23.3463 11.4556C24.9382 6.42912 24.5094 2.03146 21.9192 0.536254C20.2701 -0.418038 18.0317 -0.0189509 15.7075 1.40369C18.269 3.48458 20.4133 6.03173 22.027 8.91049" fill="#A06BD6"/>
<path d="M7.19793 17.4723C6.71309 16.6323 6.27443 15.7803 5.87864 14.926C4.28229 19.9504 4.71106 24.3502 7.30238 25.8465C8.9515 26.8008 11.1899 26.4017 13.5141 24.9791C10.9526 22.8982 8.80833 20.351 7.19464 17.4723" fill="#A06BD6"/>
</svg>
