<svg width="132" height="27" viewBox="0 0 132 27" fill="none" xmlns="http://www.w3.org/2000/svg">
<path d="M40.1843 26.3846V5.90358H43.2495V7.58458C43.6234 7.01372 44.1477 6.55719 44.7645 6.26528C45.516 5.86164 46.3577 5.65511 47.2107 5.665C48.1146 5.60392 49.0204 5.75049 49.8589 6.09351C50.6974 6.43652 51.4462 6.96687 52.0481 7.64395C53.2391 9.2389 53.825 11.2049 53.7016 13.1916C53.8116 15.164 53.2191 17.1116 52.0294 18.6887C51.4262 19.3766 50.6728 19.9166 49.8275 20.2668C48.9822 20.617 48.0676 20.768 47.1546 20.7083C46.3538 20.7179 45.5623 20.5362 44.8459 20.1784C44.2131 19.8784 43.6655 19.4248 43.2528 18.8591V26.3846H40.1843ZM44.1147 9.64598C43.3751 10.6752 43.009 11.926 43.0769 13.1916C43.0088 14.4572 43.375 15.7081 44.1147 16.7372C44.4325 17.1451 44.8389 17.4754 45.3031 17.703C45.7674 17.9306 46.2773 18.0496 46.7944 18.051C47.3114 18.0524 47.822 17.9361 48.2875 17.7109C48.7529 17.4858 49.1611 17.1577 49.481 16.7515C50.2222 15.7175 50.5898 14.4621 50.5232 13.1916C50.5912 11.9263 50.2259 10.6757 49.4876 9.64598C49.1688 9.23772 48.7612 8.90747 48.2957 8.68034C47.8303 8.4532 47.3191 8.33515 46.8012 8.33515C46.2832 8.33515 45.7721 8.4532 45.3066 8.68034C44.8411 8.90747 44.4335 9.23772 44.1147 9.64598" fill="white"/>
<path d="M55.5265 16.2867C55.5018 15.6044 55.6477 14.9268 55.951 14.3151C56.2544 13.7035 56.7055 13.1772 57.2636 12.784C58.6134 11.8804 60.218 11.4349 61.8405 11.5131H64.3549V10.8776C64.3836 10.5169 64.3262 10.1546 64.1874 9.8205C64.0486 9.48638 63.8325 9.19001 63.5567 8.95582C62.9664 8.52305 62.2464 8.30399 61.5151 8.33465C60.9112 8.30521 60.3151 8.48017 59.823 8.83126C59.3309 9.18236 58.9715 9.68909 58.8028 10.2696L56.0488 9.69023C56.3237 8.51 57.0126 7.46739 57.9903 6.7515C59.0241 6.01121 60.2716 5.62935 61.5425 5.66417C65.4601 5.66417 67.4189 7.58522 67.4189 11.4273V20.481H64.876L64.5461 18.5746C64.0375 19.2777 63.3602 19.8415 62.5765 20.2142C61.7928 20.5869 60.928 20.7566 60.0616 20.7075H60.0198C58.8459 20.7487 57.6992 20.3482 56.8063 19.585C56.3638 19.163 56.0199 18.6487 55.7991 18.0785C55.5783 17.5084 55.486 16.8966 55.5287 16.2867H55.5265ZM58.7071 16.2867C58.6906 16.5277 58.7268 16.7694 58.8133 16.995C58.8998 17.2205 59.0345 17.4245 59.208 17.5926C59.3814 17.7607 59.5895 17.889 59.8176 17.9684C60.0458 18.0478 60.2885 18.0765 60.5289 18.0524C61.5115 18.0681 62.466 17.724 63.2126 17.0849C63.5982 16.746 63.9017 16.3238 64.1 15.8503C64.2983 15.3768 64.3862 14.8643 64.357 14.3517V14.0219H61.7184C60.939 13.9797 60.167 14.1927 59.5196 14.6288C59.2593 14.8159 59.049 15.0642 58.9073 15.3518C58.7656 15.6394 58.6969 15.9575 58.7071 16.2779" fill="white"/>
<path d="M70.8274 20.4811V5.90399H73.8969V8.3337C74.3458 7.51872 75.0044 6.83853 75.8044 6.36355C76.5267 5.91719 77.3566 5.6755 78.2056 5.66432C78.8395 5.65958 79.4682 5.77949 80.0559 6.01723L79.5325 8.77127C79.0216 8.46534 78.4336 8.3127 77.8384 8.3315C77.2653 8.36064 76.7094 8.53714 76.2244 8.84395C75.7395 9.15075 75.3419 9.57747 75.07 10.0829C74.2 11.5956 73.7921 13.3301 73.8969 15.072V20.4811H70.8274Z" fill="white"/>
<path d="M80.8344 16.2867C80.8097 15.6044 80.9556 14.9268 81.2589 14.3151C81.5622 13.7035 82.0134 13.1772 82.5715 12.784C83.9213 11.8804 85.5259 11.4349 87.1483 11.5131H89.6627V10.8776C89.6913 10.517 89.6339 10.1547 89.4951 9.82056C89.3564 9.48645 89.1402 9.19007 88.8645 8.95582C88.2742 8.52313 87.5542 8.30408 86.8229 8.33465C86.2191 8.30521 85.623 8.48017 85.1309 8.83126C84.6387 9.18236 84.2793 9.68909 84.1107 10.2696L81.3566 9.69023C81.6316 8.51 82.3204 7.46739 83.2982 6.7515C84.3319 6.01121 85.5794 5.62935 86.8504 5.66417C90.768 5.66417 92.7268 7.58522 92.7268 11.4273V20.481H90.1838L89.854 18.5746C89.3453 19.2777 88.668 19.8415 87.8844 20.2142C87.1007 20.5869 86.2359 20.7566 85.3695 20.7075H85.3277C84.1538 20.7486 83.0071 20.3481 82.1141 19.585C81.6717 19.163 81.3278 18.6487 81.107 18.0785C80.8861 17.5084 80.7938 16.8966 80.8366 16.2867H80.8344ZM84.015 16.2867C83.9984 16.5277 84.0347 16.7694 84.1212 16.995C84.2077 17.2205 84.3424 17.4245 84.5158 17.5926C84.6893 17.7607 84.8973 17.889 85.1255 17.9684C85.3536 18.0478 85.5964 18.0765 85.8367 18.0524C86.8194 18.0681 87.7739 17.724 88.5204 17.0849C88.906 16.746 89.2095 16.3238 89.4078 15.8503C89.6061 15.3768 89.694 14.8643 89.6649 14.3517V14.0219H87.0263C86.2469 13.9798 85.4749 14.1928 84.8275 14.6288C84.5671 14.8159 84.3568 15.0642 84.2151 15.3518C84.0734 15.6394 84.0047 15.9575 84.015 16.2779" fill="white"/>
<path d="M96.1357 20.4821V0H99.2009V7.5145C99.6478 6.95656 100.224 6.51552 100.879 6.22928C101.568 5.8727 102.331 5.67936 103.107 5.66419C104.021 5.60533 104.936 5.75802 105.781 6.11039C106.627 6.46277 107.379 7.00533 107.981 7.6959C109.168 9.27419 109.76 11.2209 109.653 13.193C109.775 15.1768 109.187 17.1394 107.995 18.7296C107.393 19.4059 106.644 19.9357 105.805 20.2787C104.967 20.6216 104.061 20.7687 103.158 20.7086C102.308 20.7167 101.469 20.5127 100.718 20.1149C100.098 19.828 99.5701 19.3728 99.1954 18.8011V20.4821H96.1357ZM100.066 9.64846C99.3269 10.6774 98.9608 11.9278 99.0283 13.193C98.9604 14.4586 99.3265 15.7094 100.066 16.7386C100.384 17.1465 100.79 17.4768 101.255 17.7044C101.719 17.932 102.229 18.051 102.746 18.0524C103.263 18.0537 103.773 17.9375 104.239 17.7123C104.704 17.4872 105.112 17.1591 105.432 16.7529C106.174 15.7189 106.541 14.4635 106.475 13.193C106.542 11.9276 106.177 10.677 105.438 9.64736C105.119 9.2391 104.712 8.90886 104.246 8.68172C103.781 8.45458 103.269 8.33653 102.751 8.33653C102.234 8.33653 101.722 8.45458 101.257 8.68172C100.791 8.90886 100.384 9.2391 100.065 9.64736" fill="white"/>
<path d="M111.687 13.1644C111.632 11.2053 112.329 9.29935 113.637 7.83888C114.321 7.14946 115.135 6.60231 116.032 6.22893C116.93 5.85555 117.892 5.66333 118.863 5.66333C119.835 5.66333 120.797 5.85555 121.694 6.22893C122.591 6.60231 123.405 7.14946 124.09 7.83888C125.397 9.31 126.094 11.2245 126.039 13.1919C126.095 15.1575 125.398 17.0703 124.09 18.5384C123.43 19.2602 122.62 19.8284 121.717 20.203C120.814 20.5777 119.84 20.7495 118.863 20.7064C118.861 20.706 118.859 20.7061 118.857 20.7067C118.855 20.7073 118.854 20.7083 118.852 20.7097C118.851 20.7111 118.85 20.7129 118.849 20.7148C118.849 20.7167 118.848 20.7188 118.849 20.7207C117.874 20.7608 116.902 20.5869 116.002 20.2112C115.101 19.8356 114.294 19.2672 113.637 18.5461C112.327 17.0623 111.631 15.1368 111.687 13.1589V13.1644ZM115.924 16.6056C116.253 17.072 116.694 17.4484 117.206 17.7003C117.718 17.9521 118.285 18.0713 118.855 18.0469C119.426 18.0709 119.994 17.9528 120.508 17.7034C121.022 17.454 121.466 17.0809 121.801 16.6177C122.491 15.6088 122.86 14.4149 122.86 13.1925C122.86 11.9701 122.491 10.7762 121.801 9.76725C121.451 9.32026 121.003 8.95891 120.493 8.7106C119.982 8.4623 119.422 8.33359 118.854 8.33422C118.286 8.33486 117.726 8.46483 117.216 8.71427C116.706 8.96372 116.259 9.32608 115.91 9.77385C115.197 10.7571 114.829 11.949 114.865 13.1633C114.832 14.3971 115.205 15.6075 115.924 16.61" fill="white"/>
<path d="M132 0H128.935V20.4821H132V0Z" fill="white"/>
<path d="M14.6126 21.7532C13.6429 21.7532 12.6854 21.707 11.7542 21.619C15.3075 25.5132 19.3324 27.3426 21.9227 25.8463C23.5718 24.8931 24.3414 22.7591 24.2765 20.0359C21.1934 21.2124 17.9156 21.795 14.6159 21.7532" fill="#FD6157"/>
<path d="M14.6127 4.62842C15.5835 4.62842 16.54 4.6746 17.4712 4.76255C13.9223 0.869525 9.89731 -0.959902 7.30709 0.535303C5.65797 1.4885 4.88838 3.62246 4.95324 6.34571C8.03633 5.16923 11.3141 4.58656 14.6138 4.62842" fill="#FD6157"/>
<path d="M25.371 8.2478C24.8482 11.5058 23.7138 14.6355 22.0277 17.4719C21.5407 18.3162 21.0217 19.121 20.4797 19.884C25.6283 18.7538 29.2256 16.1834 29.2256 13.1908C29.2256 11.2844 27.7634 9.54841 25.371 8.24341" fill="#55C0CF"/>
<path d="M7.19787 8.91102C7.68491 8.06667 8.20383 7.2619 8.74584 6.4989C3.59619 7.6291 0 10.2006 0 13.1921C0 15.0985 1.46112 16.8345 3.85455 18.1395C4.37728 14.8811 5.51166 11.751 7.19787 8.91431" fill="#55C0CF"/>
<path d="M22.027 8.9094C22.5118 9.74935 22.9505 10.6014 23.3463 11.4556C24.9382 6.42912 24.5094 2.03146 21.9192 0.536254C20.2701 -0.418038 18.0317 -0.0189509 15.7075 1.40369C18.269 3.48458 20.4133 6.03173 22.027 8.91049" fill="#A06BD6"/>
<path d="M7.19793 17.4724C6.71309 16.6324 6.27443 15.7804 5.87864 14.9261C4.28229 19.9505 4.71106 24.3503 7.30238 25.8466C8.9515 26.8009 11.1899 26.4018 13.5141 24.9792C10.9526 22.8983 8.80833 20.3512 7.19464 17.4724" fill="#A06BD6"/>
</svg>
