<svg width="32" height="29" viewBox="0 0 32 29" fill="none" xmlns="http://www.w3.org/2000/svg">
<path d="M15.9999 23.801C14.9382 23.801 13.8897 23.7504 12.8701 23.6541C16.7607 27.9179 21.1678 29.921 24.0039 28.2826C25.8096 27.239 26.6522 24.9024 26.5812 21.9207C23.2054 23.2088 19.6165 23.8468 16.0036 23.801" fill="#493272"/>
<path d="M15.9995 5.05069C17.0624 5.05069 18.1097 5.10124 19.1293 5.19755C15.2435 0.934959 10.8365 -1.06813 8.00038 0.56901C6.19471 1.61269 5.35206 3.94923 5.42308 6.93099C8.79885 5.64283 12.3878 5.00485 16.0007 5.05069" fill="#493272"/>
<path d="M27.7794 9.01385C27.2069 12.5811 25.9649 16.0079 24.1187 19.1136C23.5855 20.0381 23.0173 20.9193 22.4238 21.7547C28.0611 20.5172 31.9999 17.7027 31.9999 14.4261C31.9999 12.3387 30.3989 10.4379 27.7794 9.00903" fill="#493272"/>
<path d="M7.88115 9.73973C8.41443 8.81522 8.98261 7.93406 9.57608 7.09863C3.93757 8.33612 0 11.1518 0 14.4272C0 16.5146 1.59982 18.4154 4.22046 19.8443C4.79281 16.2766 6.03488 12.8493 7.88115 9.74334" fill="#493272"/>
<path d="M24.1176 9.73824C24.6484 10.6579 25.1287 11.5909 25.5621 12.5262C27.3052 7.02251 26.8357 2.20739 23.9996 0.570249C22.1939 -0.474633 19.743 -0.0376604 17.1982 1.52003C20.0029 3.79846 22.3507 6.5874 24.1176 9.73945" fill="#493272"/>
<path d="M7.88098 19.1137C7.35011 18.194 6.8698 17.261 6.43644 16.3257C4.68855 21.827 5.15802 26.6445 7.99533 28.2829C9.80101 29.3278 12.2519 28.8908 14.7967 27.3331C11.9921 25.0547 9.64424 22.2657 7.87736 19.1137" fill="#493272"/>
</svg>
