<?xml version="1.0" encoding="UTF-8"?>
<svg width="85px" height="86px" viewBox="0 0 85 86" version="1.1" xmlns="http://www.w3.org/2000/svg" xmlns:xlink="http://www.w3.org/1999/xlink">
    <!-- Generator: Sketch 42 (36781) - http://www.bohemiancoding.com/sketch -->
    <title>parabol-lockup-v-dark</title>
    <desc>Created with Sketch.</desc>
    <defs>
        <polyline id="path-1" points="0 0.234181818 84.8572519 0.234181818 84.8572519 14 0 14"></polyline>
        <polygon id="path-3" points="0 0.234181818 84.8572519 0.234181818 84.8572519 14 0 14"></polygon>
    </defs>
    <g id="Page-1" stroke="none" stroke-width="1" fill="none" fill-rule="evenodd">
        <g id="Mark-with-text" transform="translate(-758.000000, -1134.000000)">
            <g id="parabol-lockup-v-dark" transform="translate(758.000000, 1134.000000)">
                <g id="mark-color@2x" transform="translate(12.000000, 0.000000)" fill="#4E495F">
                    <path d="M51.0996,24.502 C51.3056,23.854 51.5056,23.206 51.6796,22.564 C51.7876,22.168 51.8776,21.778 51.9736,21.382 C52.1156,20.804 52.2516,20.228 52.3676,19.658 C52.4516,19.248 52.5216,18.844 52.5916,18.438 C52.6436,18.14 52.7136,17.836 52.7576,17.54 C58.6496,20.374 61.9996,24.202 61.9996,28.158 C61.9996,32.382 58.1896,36.456 51.5496,39.334 C50.7536,39.678 49.9236,39.994 49.0736,40.294 C48.8156,40.386 48.5476,40.468 48.2836,40.554 C47.6756,40.756 47.0576,40.95 46.4236,41.128 C46.1096,41.216 45.7936,41.3 45.4736,41.384 C44.8456,41.546 44.2076,41.698 43.5576,41.84 C43.2416,41.906 42.9296,41.978 42.6096,42.044 C42.4656,42.07 42.3276,42.108 42.1816,42.134 C42.1876,42.128 42.1916,42.122 42.1956,42.116 C43.4516,40.374 44.6356,38.546 45.7236,36.658 C46.8356,34.734 47.8076,32.742 48.7036,30.73 C49.0316,29.996 49.3836,29.27 49.6776,28.53 C50.0816,27.52 50.4476,26.518 50.7836,25.524 C50.8976,25.18 50.9916,24.844 51.0996,24.502" id="Fill-1"></path>
                    <path d="M50.1836,42.0078 C49.8116,42.1438 49.4416,42.2798 49.0596,42.4058 C48.4976,42.5958 47.9196,42.7698 47.3356,42.9398 C46.9556,43.0498 46.5776,43.1658 46.1876,43.2698 C45.5456,43.4398 44.8816,43.5898 44.2156,43.7378 C43.8656,43.8158 43.5256,43.9018 43.1716,43.9738 C42.1416,44.1818 41.0936,44.3678 40.0176,44.5238 C39.2276,44.6358 38.4156,44.7098 37.6116,44.7938 C33.3076,45.2358 28.8216,45.2698 24.5156,44.8318 C24.5056,44.8318 24.4976,44.8318 24.4896,44.8298 C24.5856,44.9418 24.6876,45.0438 24.7856,45.1538 C24.9916,45.3898 25.2036,45.6178 25.4136,45.8498 C25.8716,46.3518 26.3316,46.8398 26.7976,47.3118 C27.0236,47.5418 27.2476,47.7678 27.4756,47.9878 C27.9596,48.4598 28.4456,48.9078 28.9316,49.3438 C29.1336,49.5238 29.3336,49.7118 29.5356,49.8838 C30.2216,50.4698 30.9076,51.0318 31.5956,51.5438 C37.3576,55.8158 42.8416,57.1178 46.4996,55.0078 C49.9296,53.0258 51.5696,48.2118 51.0776,41.6918 C50.7896,41.8038 50.4776,41.8998 50.1836,42.0078" id="Fill-3"></path>
                    <path d="M27.6972,50.9296 C27.2452,50.5316 26.7992,50.1096 26.3532,49.6836 C26.0732,49.4156 25.7932,49.1536 25.5152,48.8756 C25.0352,48.3896 24.5612,47.8796 24.0852,47.3636 C23.8572,47.1116 23.6252,46.8736 23.3972,46.6156 C22.7012,45.8256 22.0132,45.0076 21.3392,44.1516 C20.8452,43.5236 20.3932,42.8556 19.9212,42.2076 C18.6232,40.4176 17.3832,38.5776 16.2772,36.6576 C15.1872,34.7716 14.1972,32.8356 13.3192,30.8796 L13.3072,30.8556 C13.2552,31.0016 13.2152,31.1456 13.1652,31.2936 C13.0672,31.5876 12.9772,31.8836 12.8812,32.1756 C12.6752,32.8176 12.4852,33.4556 12.3112,34.0876 C12.2232,34.4056 12.1372,34.7236 12.0572,35.0416 C11.8992,35.6696 11.7572,36.2936 11.6292,36.9096 C11.5712,37.1936 11.5052,37.4756 11.4532,37.7576 C11.2912,38.6376 11.1512,39.5096 11.0532,40.3656 C10.2252,47.5576 11.8452,52.8936 15.4992,55.0076 C18.9292,56.9816 23.9712,55.9676 29.3212,52.3136 C29.0732,52.1176 28.8312,51.8936 28.5852,51.6896 C28.2892,51.4396 27.9912,51.1916 27.6972,50.9296" id="Fill-5"></path>
                    <path d="M34.2968,5.3848 C34.7548,5.7888 35.2088,6.2168 35.6608,6.6508 C35.9348,6.9148 36.2108,7.1708 36.4828,7.4428 C36.9668,7.9288 37.4408,8.4408 37.9168,8.9608 C38.1468,9.2128 38.3788,9.4508 38.6068,9.7108 C39.3028,10.5008 39.9888,11.3168 40.6628,12.1748 C41.1528,12.7968 41.6088,13.4688 42.0828,14.1188 C43.3668,15.8888 44.6008,17.7208 45.7208,19.6588 C46.8068,21.5388 47.7988,23.4768 48.6808,25.4428 C48.6808,25.4428 48.6868,25.4568 48.6908,25.4648 C48.7388,25.3288 48.7748,25.1928 48.8228,25.0588 C48.9268,24.7488 49.0208,24.4388 49.1208,24.1288 C49.3228,23.4988 49.5108,22.8668 49.6848,22.2428 C49.7728,21.9208 49.8588,21.5968 49.9408,21.2788 C50.1008,20.6448 50.2448,20.0148 50.3728,19.3948 C50.4308,19.1128 50.4968,18.8328 50.5488,18.5548 C50.7148,17.6728 50.8548,16.8008 50.9508,15.9548 C51.7788,8.7588 50.1588,3.4248 46.5008,1.3128 C43.0728,-0.6572 38.0288,0.3528 32.6788,4.0088 C32.9288,4.2068 33.1728,4.4308 33.4208,4.6388 C33.7128,4.8828 34.0048,5.1288 34.2968,5.3848" id="Fill-7"></path>
                    <path d="M11.8204,14.3106 C12.1904,14.1766 12.5584,14.0426 12.9364,13.9146 C13.5084,13.7226 14.0984,13.5466 14.6904,13.3746 C15.0584,13.2686 15.4224,13.1566 15.7984,13.0546 C16.4684,12.8786 17.1564,12.7226 17.8484,12.5706 C18.1724,12.4986 18.4864,12.4186 18.8164,12.3526 C19.8484,12.1426 20.9024,11.9566 21.9824,11.8006 C22.7784,11.6866 23.5864,11.6126 24.3924,11.5306 C28.7264,11.0786 33.1524,11.0426 37.4884,11.4906 C37.4964,11.4926 37.5044,11.4926 37.5124,11.4926 C37.4164,11.3806 37.3164,11.2806 37.2204,11.1706 C37.0084,10.9286 36.7904,10.6966 36.5764,10.4606 C36.1284,9.9686 35.6804,9.4906 35.2224,9.0266 C34.9844,8.7846 34.7464,8.5466 34.5084,8.3146 C34.0424,7.8626 33.5744,7.4306 33.1064,7.0106 C32.8864,6.8166 32.6724,6.6146 32.4524,6.4306 C31.7724,5.8446 31.0884,5.2866 30.4044,4.7806 C26.4644,1.8546 22.6864,0.3106 19.4704,0.3106 C17.9904,0.3106 16.6544,0.6486 15.5004,1.3126 C12.0724,3.2906 10.4344,8.1046 10.9264,14.6286 C11.2144,14.5166 11.5264,14.4206 11.8204,14.3106" id="Fill-9"></path>
                    <path d="M9.246,38.7812 C9.288,38.4892 9.36,38.1852 9.41,37.8912 C9.48,37.4832 9.55,37.0752 9.634,36.6652 C9.752,36.0912 9.888,35.5112 10.032,34.9292 C10.124,34.5412 10.214,34.1552 10.32,33.7652 C10.496,33.1152 10.7,32.4572 10.908,31.7972 C11.012,31.4652 11.106,31.1372 11.216,30.8012 C11.552,29.8052 11.918,28.8012 12.322,27.7872 C12.618,27.0512 12.97,26.3212 13.298,25.5852 C14.192,23.5832 15.162,21.5932 16.278,19.6572 C17.37,17.7672 18.55,15.9412 19.802,14.2112 C19.806,14.2032 19.812,14.1952 19.816,14.1892 C19.668,14.2192 19.526,14.2532 19.376,14.2852 C19.076,14.3432 18.782,14.4132 18.484,14.4772 C17.824,14.6212 17.172,14.7752 16.534,14.9412 C16.208,15.0252 15.888,15.1112 15.57,15.2012 C14.944,15.3792 14.332,15.5692 13.73,15.7652 C13.456,15.8552 13.178,15.9412 12.91,16.0352 C12.062,16.3332 11.238,16.6492 10.456,16.9872 C3.81,19.8652 0,23.9372 0,28.1572 C0,32.1172 3.35,35.9452 9.246,38.7812" id="Fill-11"></path>
                </g>
                <g id="Page-1" transform="translate(0.000000, 72.000000)">
                    <path d="M4.75487405,6.8117 C5.51598092,6.8117 6.09086641,6.61442727 6.47823282,6.22051818 C6.86559924,5.82724545 7.05960687,5.32133636 7.05960687,4.70342727 C7.05960687,4.08615455 6.86559924,3.57706364 6.47823282,3.17679091 C6.09086641,2.77588182 5.51598092,2.57606364 4.75487405,2.57606364 L2.47090458,2.57606364 L2.47090458,6.8117 L4.75487405,6.8117 Z M8.31579008,1.58842727 C9.16708779,2.31515455 9.59273664,3.35306364 9.59273664,4.70342727 C9.59273664,6.05506364 9.16708779,7.09297273 8.31579008,7.8197 C7.46449237,8.54642727 6.27773664,8.90915455 4.75487405,8.90915455 L2.47090458,8.90915455 L2.47090458,13.7149727 L6.48854962e-05,13.7149727 L6.48854962e-05,0.498972727 L4.75487405,0.498972727 C6.27773664,0.498972727 7.46449237,0.8617 8.31579008,1.58842727 L8.31579008,1.58842727 Z" id="Fill-1" fill="#4F4A60"></path>
                    <path d="M13.7679237,9.05138182 L17.546855,9.05138182 L15.6781527,3.36992727 L13.7679237,9.05138182 Z M14.1838397,0.499290909 L17.2561679,0.499290909 L21.6787634,13.7146545 L19.0833435,13.7146545 L18.1489924,10.8637455 L13.1450229,10.8637455 L12.1899084,13.7146545 L9.59448855,13.7146545 L14.1838397,0.499290909 Z" id="Fill-3" fill="#4F4A60"></path>
                    <path d="M28.4621527,6.95399091 C29.3621145,6.95399091 30.0408168,6.75417273 30.4976107,6.35326364 C30.9537557,5.95299091 31.1821527,5.42353636 31.1821527,4.7649 C31.1821527,4.10626364 30.9745191,3.57680909 30.5592519,3.17653636 C30.1446336,2.77626364 29.521084,2.57580909 28.6911985,2.57580909 L26.1574198,2.57580909 L26.1574198,6.95399091 L28.4621527,6.95399091 Z M33.7159313,4.55108182 C33.7159313,5.48780909 33.4460076,6.28899091 32.9061603,6.95399091 C32.366313,7.61962727 31.5902824,8.08099091 30.5806641,8.33871818 L34.1928397,13.7147182 L30.9952824,13.7147182 L28.0261221,8.56271818 L26.1574198,8.56271818 L26.1574198,13.7147182 L23.7073435,13.7147182 L23.7073435,0.498718182 L28.6911985,0.498718182 C30.2828397,0.498718182 31.5215038,0.872263636 32.4071908,1.61871818 C33.2792519,2.33844545 33.7159313,3.3159 33.7159313,4.55108182 L33.7159313,4.55108182 Z" id="Fill-5" fill="#4F4A60"></path>
                    <path d="M39.9235916,9.05138182 L43.7025229,9.05138182 L41.8338206,3.36992727 L39.9235916,9.05138182 Z M40.3395076,0.499290909 L43.4118359,0.499290909 L47.8344313,13.7146545 L45.2390115,13.7146545 L44.3046603,10.8637455 L39.3006908,10.8637455 L38.3455763,13.7146545 L35.7501565,13.7146545 L40.3395076,0.499290909 Z" id="Fill-7" fill="#4F4A60"></path>
                    <path d="M55.2610305,11.6173909 C56.0500382,11.6173909 56.6210305,11.4614818 56.9740076,11.1490273 C57.3276336,10.8365727 57.5034733,10.4229364 57.5034733,9.90684545 C57.5034733,9.39075455 57.3198473,8.97393636 56.9532443,8.65448182 C56.5866412,8.33566364 56.0221374,8.17593636 55.2610305,8.17593636 L52.3126336,8.17593636 L52.3126336,11.6173909 L55.2610305,11.6173909 Z M52.3126336,6.07848182 L55.1987405,6.07848182 C55.9319466,6.07848182 56.4860687,5.92257273 56.8598092,5.61011818 C57.2335496,5.29766364 57.4204198,4.87384545 57.4204198,4.33739091 C57.4204198,3.80157273 57.2367939,3.3733 56.8701908,3.05448182 C56.5035878,2.73566364 55.9527099,2.57593636 55.2201527,2.57593636 L52.3126336,2.57593636 L52.3126336,6.07848182 Z M49.8625573,0.498845455 L55.3025573,0.498845455 C56.7975191,0.498845455 57.9531298,0.845027273 58.7700382,1.53739091 C59.5454198,2.17566364 59.9327863,2.99657273 59.9327863,4.00139091 C59.9327863,4.74784545 59.7219084,5.38611818 59.2995038,5.91557273 C58.8770992,6.44502727 58.2853435,6.81857273 57.5242366,7.03557273 C58.2853435,7.18511818 58.9153817,7.52111818 59.4137023,8.04357273 C59.9120229,8.56602727 60.1611832,9.23484545 60.1611832,10.0493909 C60.1611832,11.6784818 59.3371374,12.7921182 57.6903435,13.3890273 C57.0674427,13.6060273 56.2784351,13.7148455 55.3233206,13.7148455 L49.8625573,13.7148455 L49.8625573,0.498845455 Z" id="Fill-9" fill="#4F4A60"></path>
                    <g id="Group-13">
                        <mask id="mask-2" fill="white">
                            <use xlink:href="#path-1"></use>
                        </mask>
                        <g id="Clip-12"></g>
                        <path d="M71.7409084,7.1274 C71.7409084,5.61349091 71.4190763,4.44576364 70.7754122,3.62421818 C70.1317481,2.80330909 69.2629313,2.39285455 68.1696107,2.39285455 C67.0762901,2.39285455 66.2035802,2.80330909 65.5534275,3.62421818 C64.902626,4.44576364 64.5775496,5.61349091 64.5775496,7.1274 C64.5775496,8.64130909 64.902626,9.8014 65.5534275,10.6095818 C66.2035802,11.4171273 67.0762901,11.8212182 68.1696107,11.8212182 C69.2629313,11.8212182 70.1317481,11.4171273 70.7754122,10.6095818 C71.4190763,9.8014 71.7409084,8.64130909 71.7409084,7.1274 M68.1696107,0.234309091 C69.0689237,0.234309091 69.8923206,0.380036364 70.6404504,0.671490909 C71.3879313,0.963581818 72.0315954,1.3944 72.5707939,1.96521818 C73.7056412,3.15967273 74.2733893,4.87021818 74.2733893,7.09621818 C74.2733893,9.33685455 73.7056412,11.0671273 72.5707939,12.2889455 C71.4917481,13.4293091 70.0175496,14.0001273 68.1488473,14.0001273 C66.2931221,14.0001273 64.8267099,13.4165818 63.7470153,12.2488545 C62.6121679,11.0404 62.0444198,9.32285455 62.0444198,7.09621818 C62.0444198,4.84285455 62.6121679,3.11894545 63.7470153,1.92385455 C64.8124351,0.797490909 66.2872824,0.234309091 68.1696107,0.234309091" id="Fill-11" fill="#4F4A60" mask="url(#mask-2)"></path>
                    </g>
                    <g id="Group-16">
                        <mask id="mask-4" fill="white">
                            <use xlink:href="#path-3"></use>
                        </mask>
                        <g id="Clip-15"></g>
                        <polygon id="Fill-14" fill="#4F4A60" mask="url(#mask-4)" points="79.3136298 11.6173909 84.8574466 11.6173909 84.8574466 13.7148455 76.8635534 13.7148455 76.8635534 0.498845455 79.3136298 0.498845455"></polygon>
                    </g>
                </g>
            </g>
        </g>
    </g>
</svg>