<svg width="133" height="38" viewBox="0 0 133 38" version="1.1" xmlns="http://www.w3.org/2000/svg" xmlns:xlink="http://www.w3.org/1999/xlink">
<title>logo</title>
<desc>Created using Figma</desc>
<g id="Canvas" transform="translate(-20876 1644)">
<g id="logo">
<g id="PARABOL">
<use xlink:href="#path0_fill" transform="translate(20929.1 -1632.46)" fill="#FFFFFF"/>
<use xlink:href="#path1_fill" transform="translate(20929.1 -1632.46)" fill="#FFFFFF"/>
<use xlink:href="#path2_fill" transform="translate(20929.1 -1632.46)" fill="#FFFFFF"/>
<use xlink:href="#path3_fill" transform="translate(20929.1 -1632.46)" fill="#FFFFFF"/>
<use xlink:href="#path4_fill" transform="translate(20929.1 -1632.46)" fill="#FFFFFF"/>
<use xlink:href="#path5_fill" transform="translate(20929.1 -1632.46)" fill="#FFFFFF"/>
<use xlink:href="#path6_fill" transform="translate(20929.1 -1632.46)" fill="#FFFFFF"/>
</g>
<g id="Union">
<use xlink:href="#path7_fill" transform="translate(20876 -1644)" fill="#FFFFFF"/>
</g>
</g>
</g>
<defs>
<path id="path0_fill" d="M 4.351 0.247C 5.74433 0.247 6.82733 0.589 7.6 1.273C 8.38533 1.94433 8.778 2.91333 8.778 4.18C 8.778 5.434 8.38533 6.403 7.6 7.087C 6.82733 7.75833 5.74433 8.094 4.351 8.094L 2.261 8.094L 2.261 12.578L 0 12.578L 0 0.247L 4.351 0.247ZM 4.351 6.137C 5.04767 6.137 5.57333 5.95333 5.928 5.586C 6.28267 5.21867 6.46 4.75 6.46 4.18C 6.46 3.59733 6.28267 3.12233 5.928 2.755C 5.57333 2.375 5.04767 2.185 4.351 2.185L 2.261 2.185L 2.261 6.137L 4.351 6.137Z"/>
<path id="path1_fill" d="M 13.1677 0.247L 15.9797 0.247L 20.0267 12.578L 17.6517 12.578L 16.7967 9.918L 12.2177 9.918L 11.3437 12.578L 8.96874 12.578L 13.1677 0.247ZM 12.7877 8.227L 16.2457 8.227L 14.5357 2.926L 12.7877 8.227Z"/>
<path id="path2_fill" d="M 31.3693 4.028C 31.3693 4.902 31.1223 5.64933 30.6283 6.27C 30.1343 6.89067 29.425 7.32133 28.5003 7.562L 31.8063 12.578L 28.8803 12.578L 26.1633 7.771L 24.4533 7.771L 24.4533 12.578L 22.2113 12.578L 22.2113 0.247L 26.7713 0.247C 28.228 0.247 29.3616 0.595334 30.1723 1.292C 30.9703 1.96333 31.3693 2.87533 31.3693 4.028ZM 26.5623 6.27C 27.3856 6.27 28.0063 6.08633 28.4243 5.719C 28.8423 5.339 29.0513 4.845 29.0513 4.237C 29.0513 3.61633 28.8613 3.12233 28.4813 2.755C 28.1013 2.375 27.5313 2.185 26.7713 2.185L 24.4533 2.185L 24.4533 6.27L 26.5623 6.27Z"/>
<path id="path3_fill" d="M 37.2888 0.247L 40.1008 0.247L 44.1478 12.578L 41.7728 12.578L 40.9178 9.918L 36.3388 9.918L 35.4648 12.578L 33.0898 12.578L 37.2888 0.247ZM 36.9088 8.227L 40.3668 8.227L 38.6568 2.926L 36.9088 8.227Z"/>
<path id="path4_fill" d="M 46.3324 0.247L 51.3104 0.247C 52.6784 0.247 53.7361 0.57 54.4834 1.216C 55.1927 1.81133 55.5474 2.57767 55.5474 3.515C 55.5474 4.21167 55.3511 4.807 54.9584 5.301C 54.5784 5.795 54.0401 6.14333 53.3434 6.346C 54.0401 6.48533 54.6164 6.802 55.0724 7.296C 55.5284 7.77733 55.7564 8.398 55.7564 9.158C 55.7564 10.678 55.0027 11.7167 53.4954 12.274C 52.9254 12.4767 52.2034 12.578 51.3294 12.578L 46.3324 12.578L 46.3324 0.247ZM 51.2724 10.621C 51.9944 10.621 52.5137 10.4753 52.8304 10.184C 53.1597 9.89267 53.3244 9.50633 53.3244 9.025C 53.3244 8.54367 53.1534 8.15733 52.8114 7.866C 52.4821 7.562 51.9691 7.41 51.2724 7.41L 48.5744 7.41L 48.5744 10.621L 51.2724 10.621ZM 48.5744 5.453L 51.2154 5.453C 51.8867 5.453 52.3934 5.30733 52.7354 5.016C 53.0774 4.72467 53.2484 4.332 53.2484 3.838C 53.2484 3.33133 53.0774 2.93233 52.7354 2.641C 52.4061 2.337 51.9057 2.185 51.2344 2.185L 48.5744 2.185L 48.5744 5.453Z"/>
<path id="path5_fill" d="M 63.3837 0C 64.207 0 64.9607 0.139334 65.6447 0.418C 66.3287 0.684 66.9177 1.083 67.4117 1.615C 68.4504 2.72967 68.9697 4.32567 68.9697 6.403C 68.9697 8.493 68.4504 10.108 67.4117 11.248C 66.4237 12.312 65.0747 12.844 63.3647 12.844C 61.6674 12.844 60.3247 12.2993 59.3367 11.21C 58.298 10.0827 57.7787 8.48033 57.7787 6.403C 57.7787 4.30033 58.298 2.69167 59.3367 1.577C 60.312 0.525667 61.661 0 63.3837 0ZM 66.6517 6.441C 66.6517 5.02233 66.354 3.933 65.7587 3.173C 65.176 2.40033 64.3844 2.014 63.3837 2.014C 62.383 2.014 61.585 2.40033 60.9897 3.173C 60.3944 3.933 60.0967 5.02233 60.0967 6.441C 60.0967 7.847 60.3944 8.93 60.9897 9.69C 61.585 10.4373 62.383 10.811 63.3837 10.811C 64.3844 10.811 65.176 10.4373 65.7587 9.69C 66.354 8.93 66.6517 7.847 66.6517 6.441Z"/>
<path id="path6_fill" d="M 73.8644 10.621L 78.9374 10.621L 78.9374 12.578L 71.6224 12.578L 71.6224 0.247L 73.8644 0.247L 73.8644 10.621Z"/>
<path id="path7_fill" fill-rule="evenodd" d="M 7.91797 9.39551L 7.97656 9.3739L 8 9.36511C 8.2207 9.2854 8.43945 9.20605 8.66602 9.12976C 9.04883 9.00085 9.44336 8.88281 9.83984 8.76733L 10.0859 8.69495C 10.25 8.64661 10.4141 8.59814 10.582 8.55261C 11.0312 8.43445 11.4922 8.32983 11.9551 8.22778L 12.1895 8.17371C 12.3262 8.1416 12.4629 8.10962 12.6035 8.08154C 13.2949 7.94055 14 7.81567 14.7246 7.71106C 15.168 7.64734 15.6172 7.60229 16.0664 7.55713L 16.3379 7.52979C 19.2422 7.22644 22.2051 7.20239 25.1094 7.50293L 25.0234 7.39014L 24.9297 7.28821L 24.707 7.03955L 24.6484 6.97498L 24.5 6.81177C 24.1992 6.48157 23.8984 6.16077 23.5918 5.84937C 23.4336 5.68701 23.2734 5.52722 23.1133 5.37158C 22.8027 5.06824 22.4883 4.77832 22.1758 4.49646L 22.0078 4.34692C 21.918 4.26514 21.8281 4.18384 21.7363 4.10718C 21.2812 3.71387 20.8242 3.33948 20.3652 2.99988C 17.7266 1.03613 15.1953 0 13.041 0C 12.0508 0 11.1562 0.226807 10.3828 0.672485C 8.08594 1.99988 6.99023 5.23059 7.31836 9.60889C 7.42383 9.56812 7.5332 9.5304 7.64258 9.49268L 7.91797 9.39551ZM 23.8848 4.255C 23.582 3.96375 23.2773 3.67651 22.9707 3.4054C 22.7754 3.23352 22.5801 3.06848 22.3828 2.90466L 22.1914 2.73987L 22.1504 2.70374L 22.123 2.68005C 22.0449 2.61206 21.9668 2.54504 21.8867 2.48193C 25.4707 0.0283203 28.8477 -0.649414 31.1445 0.672607C 33.5938 2.08997 34.6797 5.66968 34.125 10.499C 34.0605 11.0668 33.9668 11.652 33.8555 12.2439L 33.7812 12.6041L 33.7383 12.8076C 33.6523 13.2236 33.5566 13.6465 33.4492 14.072L 33.2773 14.7189C 33.1602 15.1377 33.0352 15.5618 32.8984 15.9846L 32.832 16.1934C 32.7891 16.3318 32.7461 16.4703 32.6992 16.6088L 32.6113 16.8812L 32.6055 16.8665C 32.0137 15.547 31.3496 14.2465 30.623 12.9847C 29.8711 11.6842 29.0449 10.4547 28.1855 9.26685L 27.8652 8.82153C 27.6582 8.52979 27.4512 8.23865 27.2344 7.96216C 26.7832 7.38635 26.3242 6.83875 25.8574 6.30859C 25.7617 6.19971 25.666 6.09656 25.5684 5.99329L 25.3945 5.8053C 25.0762 5.4563 24.7578 5.11267 24.4355 4.7865L 24.0664 4.42957L 23.8848 4.255ZM 34.6133 14.9347C 34.4961 15.3655 34.3633 15.8004 34.2246 16.2352L 34.1387 16.5198L 34.1074 16.6249L 34.0137 16.9211C 33.7891 17.5883 33.543 18.2606 33.2734 18.9385C 33.1504 19.2478 33.0117 19.5536 32.873 19.8593L 32.832 19.9496L 32.6211 20.4149C 32.0195 21.7651 31.3691 23.1021 30.625 24.3932C 29.8965 25.6603 29.1035 26.8871 28.252 28.0682L 28.3945 28.0381L 28.5391 28.0078L 29.1738 27.871C 29.6094 27.7756 30.0371 27.6736 30.457 27.5649L 31.0938 27.3931C 31.5176 27.2737 31.9316 27.1434 32.3398 27.0078L 32.4941 26.9576C 32.6211 26.9174 32.7461 26.8771 32.8672 26.8334C 33.4375 26.6321 33.9941 26.4199 34.5273 26.1891C 38.9746 24.2577 41.5254 21.5236 41.5254 18.6888C 41.5254 16.0339 39.2812 13.465 35.3359 11.563C 35.3184 11.6826 35.2949 11.8042 35.2695 11.9257L 35.2246 12.1656C 35.1777 12.4381 35.1309 12.7092 35.0742 12.9844C 34.9961 13.3669 34.9062 13.7535 34.8105 14.1414L 34.7695 14.3124L 34.7422 14.4268C 34.7012 14.5958 34.6602 14.7644 34.6133 14.9347ZM 32.8613 28.2502C 33.1172 28.1658 33.3652 28.0745 33.6133 27.9832L 33.8691 27.8936C 33.9863 27.8539 34.1016 27.8143 34.2129 27.7711C 34.543 32.1467 33.4434 35.3774 31.1465 36.7076C 28.6953 38.1237 25.0234 37.2499 21.1641 34.3829C 20.7031 34.0393 20.2441 33.6621 19.7832 33.2688L 19.5488 33.0593L 19.3789 32.9065C 19.0547 32.6139 18.7285 32.3132 18.4043 31.9965C 18.252 31.8488 18.1016 31.6971 17.9492 31.5427C 17.6387 31.226 17.3301 30.8984 17.0234 30.5616L 16.8984 30.425C 16.7988 30.3157 16.6992 30.2064 16.6035 30.0945L 16.5215 30.006L 16.4219 29.8784C 19.3066 30.1724 22.3105 30.1495 25.1934 29.8529L 25.5332 29.818L 25.5488 29.8165C 25.9688 29.7736 26.3906 29.7303 26.8047 29.6718C 27.5254 29.567 28.2266 29.4421 28.918 29.3026C 29.0664 29.2725 29.2109 29.2385 29.3555 29.2046L 29.6172 29.1442C 30.0625 29.0449 30.5078 28.9442 30.9375 28.8301C 31.1152 28.7826 31.2891 28.7313 31.4629 28.6802L 31.707 28.6086C 32.0977 28.4946 32.4844 28.3778 32.8613 28.2502ZM 18.5508 33.9706C 18.248 33.7035 17.9512 33.4203 17.6523 33.1344L 17.502 32.9899C 17.3633 32.8593 17.2266 32.7285 17.0898 32.5922C 16.7695 32.266 16.4512 31.9237 16.1328 31.5774L 15.9316 31.3602L 15.6719 31.0754C 15.2051 30.5453 14.7441 29.9963 14.293 29.4219C 14.0898 29.1635 13.8984 28.895 13.707 28.6257L 13.6562 28.5546L 13.3438 28.1172C 12.4746 26.9159 11.6426 25.681 10.9023 24.3926C 10.1719 23.1268 9.50977 21.8275 8.92188 20.5149L 8.91406 20.4988L 8.85742 20.6735L 8.81836 20.7927L 8.71289 21.1194L 8.62891 21.3846C 8.49023 21.8156 8.36328 22.2437 8.24609 22.6678C 8.1875 22.8812 8.12891 23.0946 8.07617 23.308C 7.9707 23.7295 7.875 24.1483 7.78906 24.5616L 7.74609 24.7617L 7.67188 25.1307C 7.5625 25.7213 7.46875 26.3065 7.4043 26.881C 6.84961 31.7076 7.93359 35.2887 10.3809 36.7074C 12.6797 38.0321 16.0566 37.3517 19.6387 34.8994C 19.5391 34.821 19.4414 34.7361 19.3457 34.6512L 19.1465 34.4806L 19.082 34.4266L 19.0684 34.415C 18.8945 34.2693 18.7227 34.1235 18.5508 33.9706ZM 6.45312 24.3979C 6.39648 24.6731 6.34961 24.9469 6.30273 25.2207L 6.25586 25.4706C 6.23242 25.5872 6.20898 25.704 6.19336 25.818C 2.24414 23.9147 0 21.3457 0 18.6881C 0 15.8561 2.55273 13.1233 7.00391 11.1919C 7.52734 10.965 8.07812 10.7529 8.64648 10.553L 9.02148 10.428L 9.19531 10.3717C 9.59961 10.2402 10.0098 10.1127 10.4277 9.99329C 10.6406 9.93286 10.8555 9.87512 11.0742 9.81873C 11.502 9.7074 11.9375 9.604 12.3809 9.50732L 12.5781 9.46387C 12.7109 9.4342 12.8438 9.40466 12.9785 9.37854L 13.0137 9.37085C 13.1016 9.35181 13.1836 9.33362 13.2637 9.32886C 12.4238 10.4899 11.6348 11.7153 10.9023 12.9838C 10.1562 14.283 9.50586 15.6185 8.90625 16.962L 8.69141 17.4375C 8.53906 17.7715 8.38867 18.1047 8.25391 18.4398C 7.98242 19.1204 7.73828 19.7941 7.51172 20.4625C 7.46289 20.6125 7.41992 20.7603 7.375 20.9078L 7.30664 21.131C 7.16602 21.5739 7.0293 22.0155 6.91211 22.4517C 6.85352 22.6732 6.80078 22.8928 6.74805 23.113L 6.71875 23.2329C 6.62305 23.6234 6.53125 24.0127 6.45312 24.3979Z"/>
</defs>
</svg>
