<svg width="32" height="29" viewBox="0 0 32 29" version="1.1" xmlns="http://www.w3.org/2000/svg" xmlns:xlink="http://www.w3.org/1999/xlink">
<title>logo</title>
<desc>Created using Figma</desc>
<g id="Canvas" transform="translate(-21187 5312)">
<g id="logo">
<use xlink:href="#path0_fill" transform="translate(21187 -5312)" fill="#FFFFFF"/>
</g>
</g>
<defs>
<path id="path0_fill" fill-rule="evenodd" d="M 6.11426 7.14404L 6.05078 7.16699L 5.84473 7.23975C 5.75879 7.26904 5.67383 7.2981 5.59277 7.32983C 5.34082 3.98999 6.17969 1.52563 7.93457 0.512939C 8.52539 0.173096 9.20898 0 9.9668 0C 11.6133 0 13.5469 0.790527 15.5645 2.28833C 15.9141 2.54736 16.2646 2.83301 16.6123 3.13306C 16.6865 3.19507 16.7598 3.26074 16.832 3.3269L 16.9473 3.42993C 17.1875 3.64502 17.4268 3.86621 17.665 4.09741C 17.7871 4.21631 17.9092 4.33813 18.0303 4.46191C 18.2656 4.69946 18.4941 4.94434 18.7236 5.19604L 18.8428 5.32617L 19.0537 5.55957L 19.125 5.63818L 19.1904 5.72339C 16.9707 5.49414 14.7051 5.51245 12.4863 5.7439L 12.2754 5.76514C 11.9336 5.79932 11.5908 5.83374 11.2529 5.88208C 10.7002 5.96191 10.1602 6.05713 9.63184 6.16479C 9.52344 6.18652 9.41797 6.21118 9.3125 6.23584L 9.13672 6.27637C 8.78223 6.35425 8.42969 6.43408 8.08691 6.52417L 7.75488 6.61914L 7.70605 6.6333L 7.51953 6.68799C 7.2168 6.77588 6.91504 6.86597 6.62207 6.96436C 6.46094 7.01855 6.30469 7.07495 6.14844 7.13159L 6.11426 7.14404ZM 25.6641 21.3564L 25.6904 21.3467L 25.8896 21.2769C 25.9775 21.2471 26.0654 21.2173 26.1484 21.1848C 26.4004 24.5227 25.5605 26.9871 23.8047 28.0017C 21.9326 29.082 19.125 28.4153 16.1748 26.2285C 15.8223 25.9663 15.4717 25.6785 15.1201 25.3787L 14.9238 25.2043L 14.9053 25.187L 14.8115 25.1021C 14.5625 24.8789 14.3135 24.6497 14.0654 24.408C 13.9492 24.2954 13.834 24.1797 13.7188 24.062C 13.4805 23.8203 13.2441 23.5706 13.0098 23.3135L 12.9102 23.2043L 12.6885 22.957L 12.623 22.886C 12.5938 22.855 12.5645 22.824 12.5371 22.7913L 12.5508 22.7922C 14.7549 23.0166 17.0518 22.999 19.2549 22.7729L 19.5273 22.7449C 19.8486 22.7122 20.1709 22.6792 20.4863 22.6345C 21.0371 22.5547 21.5742 22.4595 22.1016 22.353C 22.2139 22.3301 22.3232 22.3044 22.4336 22.2786L 22.6357 22.2322C 22.9766 22.1565 23.3164 22.0796 23.6455 21.9927C 23.7793 21.957 23.9092 21.9187 24.0391 21.8804L 24.0625 21.8735L 24.2324 21.8237C 24.5322 21.7366 24.8281 21.6477 25.1152 21.5503C 25.3018 21.4888 25.4824 21.4229 25.6641 21.3564ZM 18.2559 3.24634C 18.0244 3.02417 17.792 2.80518 17.5576 2.59839C 17.4082 2.46729 17.2588 2.34131 17.1094 2.21631L 16.9629 2.09058C 16.8857 2.02319 16.8076 1.95605 16.7295 1.8938C 19.4688 0.0222168 22.0508 -0.494873 23.8057 0.513672C 25.6777 1.59497 26.5078 4.32568 26.084 8.00952C 26.0342 8.44263 25.9629 8.88892 25.8779 9.34058L 25.8389 9.53223L 25.8271 9.58813L 25.8252 9.59717L 25.7881 9.77051C 25.7217 10.0879 25.6484 10.4104 25.5664 10.7351L 25.4355 11.2285C 25.3467 11.5479 25.25 11.8716 25.1465 12.1941L 25.0967 12.3528L 25.0938 12.3606C 25.0615 12.4639 25.0293 12.5671 24.9941 12.6702L 24.96 12.7764L 24.9268 12.8779L 24.9219 12.8667C 24.4697 11.8604 23.9619 10.8682 23.4062 9.90576C 22.833 8.91357 22.2012 7.97559 21.5439 7.06958L 21.3047 6.73633C 21.1445 6.51172 20.9844 6.28735 20.8164 6.07446C 20.4717 5.63501 20.1201 5.21729 19.7646 4.81299C 19.6963 4.73511 19.627 4.66089 19.5576 4.58691L 19.4111 4.42896C 19.167 4.16284 18.9248 3.90063 18.6768 3.65186C 18.582 3.55713 18.4863 3.46606 18.3906 3.375L 18.2559 3.24634ZM 13.4912 25.2756C 13.7197 25.4937 13.9473 25.7097 14.1787 25.9136C 14.2568 25.9834 14.3369 26.0513 14.416 26.1187L 14.4668 26.1621L 14.5283 26.2141L 14.6338 26.3027L 14.791 26.4373L 14.8164 26.4587C 14.8809 26.5149 14.9453 26.5703 15.0107 26.6221C 12.2715 28.4927 9.69043 29.0117 7.93457 28.0012C 6.06348 26.9189 5.23438 24.1873 5.6582 20.5054C 5.70898 20.0671 5.78027 19.6208 5.86328 19.1704L 5.90527 18.9622L 5.91699 18.9072L 5.95312 18.7363C 6.01855 18.4209 6.0918 18.1013 6.17285 17.78C 6.21289 17.6172 6.25781 17.4543 6.30273 17.2915C 6.3916 16.968 6.48828 16.6414 6.59375 16.3127L 6.73926 15.8611L 6.77441 15.752L 6.8125 15.637L 6.81836 15.6492C 7.26758 16.6506 7.77441 17.6416 8.33301 18.6072C 8.89941 19.5901 9.53418 20.532 10.1982 21.4485L 10.4277 21.769L 10.4326 21.7761C 10.5928 22.0017 10.7539 22.2271 10.9238 22.4436C 11.2695 22.8818 11.6211 23.3005 11.9775 23.7051L 12.1826 23.9285L 12.3301 24.0879C 12.5732 24.3521 12.8164 24.6133 13.0615 24.8621C 13.168 24.968 13.2744 25.0693 13.3809 25.1707L 13.4912 25.2756ZM 4.77148 19.4788L 4.78027 19.4324L 4.81738 19.2378L 4.83008 19.1646L 4.84277 19.0898C 4.87109 18.9302 4.89844 18.7705 4.93164 18.6104C 4.99219 18.3164 5.0625 18.0195 5.13574 17.7214L 5.14844 17.6694C 5.19043 17.4883 5.2334 17.3079 5.2832 17.1257C 5.37305 16.793 5.47754 16.4561 5.58398 16.1182L 5.64844 15.9102L 5.74219 15.6084C 5.91406 15.0984 6.10156 14.5845 6.30762 14.0652C 6.4043 13.8264 6.51172 13.5889 6.62012 13.3508L 6.64746 13.2908L 6.80762 12.938C 7.26562 11.9131 7.76172 10.8943 8.33301 9.90332C 8.89258 8.93579 9.49609 8.00098 10.1377 7.11523L 9.91895 7.15308L 9.62109 7.21655L 9.46289 7.25146C 9.125 7.3252 8.79102 7.40405 8.46387 7.48901C 8.29785 7.53198 8.13379 7.57593 7.9707 7.62207C 7.65039 7.71313 7.33691 7.81055 7.0293 7.91089L 6.90723 7.9502L 6.89941 7.95264L 6.60938 8.04907C 6.1748 8.20166 5.75293 8.36328 5.35254 8.53638C 1.9502 10.0098 0 12.0942 0 14.2546C 0 16.282 1.71484 18.2417 4.7334 19.6936C 4.74414 19.6228 4.75781 19.551 4.77148 19.4788ZM 26.1602 12.3843C 26.2656 12.0525 26.3682 11.7207 26.457 11.3921C 26.502 11.228 26.541 11.0662 26.5801 10.9028L 26.6074 10.7869C 26.6807 10.491 26.75 10.196 26.8096 9.9043C 26.8486 9.71533 26.8809 9.52905 26.9131 9.34204L 26.9238 9.27979L 26.96 9.08838L 26.9678 9.04858C 26.9824 8.97192 26.998 8.89551 27.0088 8.82007C 30.0254 10.271 31.7402 12.2305 31.7402 14.2559C 31.7402 16.4182 29.79 18.5039 26.3906 19.9773C 25.9834 20.1533 25.5586 20.3152 25.123 20.4688C 25.0332 20.501 24.9404 20.5305 24.8477 20.5601L 24.7188 20.6018C 24.4072 20.7051 24.0908 20.8044 23.7666 20.8955L 23.2803 21.0266C 22.959 21.1096 22.6318 21.1875 22.2988 21.26L 21.8135 21.3645L 21.708 21.3867L 21.6016 21.4014C 22.2451 20.5095 22.8506 19.5737 23.4082 18.6072C 23.9775 17.6223 24.4746 16.6025 24.9336 15.5725L 25.0869 15.2344C 25.207 14.9727 25.3271 14.7112 25.4326 14.4463C 25.6387 13.9292 25.8262 13.4163 25.998 12.9075C 26.0322 12.8054 26.0625 12.7048 26.0928 12.6045L 26.1602 12.3843Z"/>
</defs>
</svg>
