<svg width="32" height="29" viewBox="0 0 32 29" version="1.1" xmlns="http://www.w3.org/2000/svg" xmlns:xlink="http://www.w3.org/1999/xlink">
<title>logo</title>
<desc>Created using Figma</desc>
<g id="Canvas" transform="translate(-22667 3338)">
<g id="logo">
<use xlink:href="#path0_fill" transform="translate(22667 -3338)" fill="#493272"/>
</g>
</g>
<defs>
<path id="path0_fill" fill-rule="evenodd" d="M 6.0906 7.15269L 6.05081 7.1671C 5.98243 7.19268 5.91215 7.21679 5.84199 7.24085C 5.75771 7.26976 5.67359 7.29861 5.59314 7.3299C 5.34127 3.99003 6.17982 1.52557 7.93473 0.51296C 8.52551 0.173034 9.20946 0 9.96712 0C 11.6135 0 13.5476 0.790429 15.5646 2.28835C 15.9148 2.54739 16.265 2.83305 16.6131 3.13305C 16.6847 3.19292 16.755 3.25652 16.8257 3.32042C 16.8662 3.35705 16.9068 3.39378 16.9479 3.42997C 17.1875 3.64498 17.4271 3.86614 17.6656 4.09753C 17.7875 4.2163 17.9093 4.33814 18.0311 4.46203C 18.2656 4.69957 18.495 4.94428 18.7243 5.19615C 18.7608 5.23641 18.7975 5.27644 18.8343 5.31651L 18.8351 5.3174C 18.9084 5.39728 18.9819 5.47732 19.054 5.55962C 19.0769 5.58593 19.1004 5.61113 19.1238 5.63635L 19.1239 5.63645C 19.1506 5.66518 19.1773 5.69395 19.2035 5.72447C 19.1994 5.72447 19.1953 5.72447 19.1912 5.72344C 16.9714 5.49409 14.7056 5.51252 12.4869 5.74392L 12.2813 5.7646C 11.9371 5.79904 11.593 5.83347 11.2531 5.88214C 10.7002 5.962 10.1606 6.05722 9.63231 6.16473C 9.52558 6.18608 9.42212 6.21028 9.31857 6.23451L 9.31855 6.23452C 9.2582 6.24864 9.19783 6.26276 9.13676 6.27633C 8.7825 6.35415 8.43029 6.43401 8.08729 6.52411C 7.96151 6.55823 7.83835 6.59454 7.71553 6.63075C 7.65039 6.64995 7.58535 6.66912 7.52007 6.68793C 7.217 6.77598 6.91496 6.86608 6.62213 6.96437C 6.44219 7.02531 6.26667 7.0889 6.09064 7.15267L 6.0906 7.15269ZM 25.6634 21.3566L 25.6909 21.3465C 25.7554 21.3228 25.8216 21.3003 25.8878 21.2777C 25.9761 21.2476 26.0643 21.2175 26.1486 21.1848C 26.4005 24.5226 25.5609 26.987 23.8049 28.0017C 21.9323 29.0819 19.1248 28.4153 16.175 26.2283C 15.8228 25.9662 15.4716 25.6785 15.1205 25.3785C 15.0538 25.3218 14.9875 25.2616 14.9212 25.2013L 14.9207 25.2009L 14.9206 25.2008C 14.8842 25.1678 14.8478 25.1347 14.8113 25.1021C 14.5625 24.8789 14.3137 24.6495 14.0659 24.4079C 13.9492 24.2953 13.8345 24.1796 13.7188 24.0618C 13.4802 23.8202 13.2447 23.5704 13.0103 23.3134C 12.9785 23.2783 12.9466 23.2434 12.9148 23.2085L 12.9139 23.2075C 12.8383 23.1246 12.7628 23.0418 12.6888 22.9571C 12.6673 22.933 12.6455 22.9097 12.6238 22.8864L 12.6237 22.8864L 12.6236 22.8863C 12.5945 22.8551 12.5654 22.824 12.5372 22.7912C 12.5413 22.7922 12.5454 22.7922 12.5505 22.7922C 14.7549 23.0165 17.0515 22.9991 19.2549 22.7728C 19.342 22.7637 19.4293 22.7548 19.5166 22.7459L 19.5167 22.7459C 19.842 22.7129 20.1678 22.6798 20.4866 22.6346C 21.0374 22.5547 21.5739 22.4595 22.1012 22.353C 22.2146 22.3299 22.3251 22.3041 22.4359 22.2782C 22.5022 22.2627 22.5686 22.2471 22.6357 22.2322C 22.9766 22.1564 23.3166 22.0796 23.6452 21.9926C 23.7854 21.9552 23.9225 21.9148 24.0591 21.8746L 24.0593 21.8745C 24.1172 21.8574 24.175 21.8404 24.2329 21.8236C 24.5319 21.7366 24.8278 21.6475 25.1155 21.5503C 25.3017 21.4889 25.4822 21.4228 25.6634 21.3566ZM 18.2563 3.24639C 18.0249 3.02421 17.7925 2.8051 17.558 2.59828C 17.4085 2.46723 17.259 2.34129 17.1095 2.21638C 17.0608 2.17546 17.0123 2.13334 16.9638 2.09122L 16.9638 2.09118L 16.9638 2.09117C 16.8861 2.0237 16.8085 1.95626 16.7297 1.89386C 19.4685 0.0222211 22.0508 -0.494834 23.8057 0.513679C 25.6783 1.59489 26.5077 4.32555 26.0838 8.00944C 26.0346 8.44254 25.963 8.88895 25.878 9.34048C 25.8616 9.42823 25.8424 9.51636 25.8232 9.60489L 25.8231 9.60531L 25.8231 9.60534C 25.8112 9.66025 25.7992 9.7153 25.7879 9.7705C 25.7224 10.0879 25.6486 10.4104 25.5667 10.735C 25.5247 10.8978 25.4807 11.0637 25.4357 11.2285C 25.3466 11.5479 25.2503 11.8715 25.1469 12.194C 25.1277 12.2535 25.109 12.313 25.0902 12.3725C 25.0589 12.4717 25.0277 12.5709 24.9944 12.6701C 24.9818 12.7053 24.9708 12.7407 24.9598 12.7763L 24.9598 12.7763C 24.9493 12.8101 24.9388 12.844 24.9268 12.878C 24.9248 12.8739 24.9217 12.8667 24.9217 12.8667C 24.4702 11.8602 23.9623 10.8681 23.4064 9.90565C 22.833 8.91352 22.2013 7.97566 21.5439 7.06953C 21.4648 6.96106 21.3867 6.85139 21.3086 6.7418C 21.1472 6.5152 20.9861 6.28895 20.817 6.07433C 20.4719 5.63509 20.1208 5.21735 19.7644 4.81292C 19.6922 4.7305 19.6191 4.65241 19.546 4.57426L 19.546 4.57423L 19.5459 4.57411C 19.501 4.52609 19.456 4.47805 19.4112 4.42896C 19.1675 4.16276 18.9249 3.90065 18.6771 3.65185C 18.5843 3.5591 18.4907 3.46999 18.397 3.38088L 18.3969 3.38073L 18.3968 3.38064C 18.3499 3.33604 18.303 3.29145 18.2563 3.24639ZM 13.4911 25.2758C 13.7194 25.4939 13.9478 25.7099 14.1792 25.9137C 14.3033 26.0243 14.4289 26.1301 14.5542 26.2356L 14.6338 26.3027C 14.6859 26.346 14.7376 26.3909 14.7894 26.4359L 14.7894 26.4359L 14.7895 26.436L 14.7896 26.436L 14.7896 26.4361C 14.8629 26.4997 14.9362 26.5634 15.0105 26.6222C 12.2717 28.4928 9.6905 29.0119 7.93456 28.0013C 6.06395 26.9191 5.23461 24.1874 5.6585 20.5056C 5.70867 20.0674 5.78034 19.621 5.86327 19.1705C 5.87989 19.0803 5.89929 18.9902 5.91875 18.8999C 5.93047 18.8455 5.94221 18.791 5.95337 18.7363C 6.0189 18.421 6.09159 18.1015 6.17248 17.78C 6.21344 17.6172 6.25746 17.4544 6.30251 17.2916C 6.39159 16.9681 6.48886 16.6415 6.59432 16.3128C 6.61678 16.2445 6.6386 16.1757 6.66047 16.1068C 6.68644 16.025 6.71247 15.943 6.73971 15.8613C 6.75083 15.8284 6.761 15.7958 6.77112 15.7634C 6.78427 15.7212 6.79735 15.6793 6.8124 15.6371L 6.81854 15.6494C 7.26802 16.6507 7.77484 17.6418 8.33285 18.6073C 8.89905 19.5902 9.53385 20.5322 10.1983 21.4486C 10.2772 21.5569 10.355 21.6663 10.4328 21.7757L 10.4331 21.776L 10.4332 21.7762L 10.4332 21.7762L 10.4332 21.7762C 10.5936 22.0018 10.7541 22.2274 10.9243 22.4438C 11.2693 22.882 11.6215 23.3007 11.9778 23.7052C 12.0444 23.7805 12.1116 23.8525 12.1787 23.9244L 12.1788 23.9245C 12.2294 23.9786 12.2799 24.0327 12.33 24.0881C 12.5737 24.3523 12.8164 24.6134 13.0621 24.8622C 13.1686 24.9687 13.2758 25.0706 13.383 25.1727L 13.3831 25.1728L 13.4911 25.2758ZM 4.73336 19.6935C 4.74582 19.6069 4.76345 19.5181 4.78106 19.4295L 4.78107 19.4294C 4.79383 19.3652 4.80656 19.3011 4.81732 19.2379C 4.85315 19.029 4.88899 18.8202 4.93199 18.6103C 4.9924 18.3164 5.06202 18.0195 5.13574 17.7216L 5.14873 17.6667C 5.19139 17.4865 5.23391 17.3069 5.28318 17.1257C 5.37328 16.7929 5.47771 16.456 5.5842 16.1182C 5.60511 16.0514 5.62523 15.985 5.64537 15.9185L 5.6454 15.9184C 5.67652 15.8156 5.70769 15.7127 5.74187 15.6083C 5.91388 15.0984 6.10125 14.5844 6.30807 14.0653C 6.4122 13.8064 6.52987 13.5489 6.64778 13.2909L 6.64779 13.2909C 6.70147 13.1735 6.7552 13.0559 6.80772 12.938C 7.26539 11.9131 7.76197 10.8944 8.33329 9.90327C 8.89232 8.93571 9.49641 8.00092 10.1374 7.11527C 10.1389 7.11214 10.1411 7.10901 10.1429 7.10634L 10.1445 7.104C 10.1002 7.11298 10.057 7.12266 10.0134 7.13242L 10.0133 7.13244C 9.98231 7.13937 9.95114 7.14635 9.91927 7.15315C 9.81801 7.17273 9.71808 7.19497 9.61803 7.21725L 9.61801 7.21725C 9.56632 7.22876 9.51459 7.24028 9.46262 7.25144C 9.12474 7.32516 8.79096 7.404 8.46435 7.48898C 8.29745 7.53198 8.13364 7.57601 7.97084 7.62208C 7.65037 7.71321 7.33706 7.81048 7.02888 7.91081C 6.98396 7.92557 6.93883 7.94011 6.89372 7.95465L 6.8937 7.95466L 6.89368 7.95466C 6.79796 7.98552 6.70234 8.01633 6.60909 8.04904C 6.17497 8.20159 5.75313 8.36337 5.3528 8.5364C 1.95048 10.0098 0 12.0944 0 14.2547C 0 16.282 1.71499 18.2417 4.73336 19.6935ZM 26.1597 12.3843C 26.2652 12.0525 26.3676 11.7208 26.4567 11.3921C 26.5 11.2332 26.5377 11.0762 26.5756 10.918L 26.6072 10.787C 26.6799 10.4911 26.7495 10.1963 26.8089 9.90445C 26.8519 9.69456 26.8877 9.48774 26.9235 9.27989C 26.9344 9.21768 26.9468 9.15496 26.9592 9.09221C 26.9772 9.00109 26.9952 8.90991 27.0085 8.82017C 30.0249 10.271 31.7398 12.2307 31.7398 14.2559C 31.7398 16.4183 29.7894 18.504 26.3901 19.9773C 25.9826 20.1534 25.5577 20.3152 25.1226 20.4688C 25.0282 20.5024 24.9313 20.5334 24.8343 20.5645C 24.7955 20.5769 24.7567 20.5893 24.7181 20.6019C 24.4069 20.7053 24.0905 20.8046 23.7659 20.8957C 23.6052 20.9408 23.4434 20.9838 23.2796 21.0268C 22.9581 21.1097 22.6315 21.1875 22.2987 21.2602C 22.223 21.276 22.1477 21.2925 22.0722 21.3091L 22.0714 21.3092L 22.071 21.3093C 21.9857 21.328 21.9001 21.3468 21.8134 21.3646C 21.7772 21.3712 21.7417 21.3792 21.706 21.3873C 21.6692 21.3956 21.6323 21.404 21.5943 21.4107C 21.5974 21.4077 21.5994 21.4046 21.6015 21.4015C 22.2445 20.5097 22.8506 19.5739 23.4076 18.6074C 23.9768 17.6224 24.4744 16.6026 24.9331 15.5726C 24.9835 15.4598 25.0351 15.3474 25.0865 15.235L 25.0867 15.2347L 25.0867 15.2346C 25.2067 14.9728 25.3265 14.7113 25.4318 14.4463C 25.6386 13.9293 25.826 13.4163 25.998 12.9075C 26.0324 12.8035 26.0633 12.7009 26.0942 12.5982L 26.0943 12.598C 26.1157 12.5269 26.1371 12.4559 26.1597 12.3843Z"/>
</defs>
</svg>
