<?xml version="1.0" encoding="UTF-8"?>
<svg width="44px" height="44px" viewBox="0 0 44 44" version="1.1" xmlns="http://www.w3.org/2000/svg" xmlns:xlink="http://www.w3.org/1999/xlink">
    <!-- Generator: Sketch 42 (36781) - http://www.bohemiancoding.com/sketch -->
    <title>avatar-team</title>
    <desc>Created with Sketch.</desc>
    <defs>
        <circle id="path-1" cx="22" cy="22" r="22"></circle>
    </defs>
    <g id="Symbols" stroke="none" stroke-width="1" fill="none" fill-rule="evenodd">
        <g id="avatars/team-avatar">
            <g id="avatar-team">
                <mask id="mask-2" fill="white">
                    <use xlink:href="#path-1"></use>
                </mask>
                <g id="Oval"></g>
                <circle id="Oval" fill="#FFFFFF" mask="url(#mask-2)" cx="22" cy="22" r="21"></circle>
                <path d="M22,42 C33.045695,42 42,33.045695 42,22 C42,10.954305 33.045695,2 22,2 C10.954305,2 2,10.954305 2,22 C2,33.045695 10.954305,42 22,42 Z M22,44 C9.8497355,44 0,34.1502645 0,22 C0,9.8497355 9.8497355,0 22,0 C34.1502645,0 44,9.8497355 44,22 C44,34.1502645 34.1502645,44 22,44 Z" id="Oval" fill="#B3B5C4" fill-rule="nonzero" mask="url(#mask-2)"></path>
                <path d="M16.265636,21.9999881 C15.4531351,20.8281117 15.0000095,19.42186 15.0000095,17.9999833 C15.0000095,17.6562329 15.0312596,17.3124825 15.0781346,16.9687321 C14.4062588,17.2031074 13.718758,17.3281075 13.0000072,17.3281075 C10.8906296,17.3281075 9.2656277,15.9999809 8.93750231,15.9999809 C6.95312494,15.9999809 7,20.249986 7,21.5156125 C7,23.2499896 8.46875175,23.9999905 10.0312536,23.9999905 L12.1250061,23.9999905 C13.1718824,22.749989 14.6406341,22.0468631 16.265636,21.9999881 Z M33.000031,31.9531249 C33.000031,28.4218707 32.171905,22.9999893 27.5937745,22.9999893 C27.0625239,22.9999893 25.1250216,25.1718669 22.0000179,25.1718669 C18.8750142,25.1718669 16.9375118,22.9999893 16.4062612,22.9999893 C11.8281308,22.9999893 11.0000048,28.4218707 11.0000048,31.9531249 C11.0000048,34.484378 12.6718818,36.0000048 15.1718847,36.0000048 L28.828151,36.0000048 C31.328154,36.0000048 33.000031,34.484378 33.000031,31.9531249 Z M17.0000119,11.9999762 C17.0000119,9.79684853 15.2031348,7.99997139 13.0000072,7.99997139 C10.7968795,7.99997139 9.00000238,9.79684853 9.00000238,11.9999762 C9.00000238,14.2031038 10.7968795,15.9999809 13.0000072,15.9999809 C15.2031348,15.9999809 17.0000119,14.2031038 17.0000119,11.9999762 Z M28.000025,17.9999833 C28.000025,14.6874794 25.3125218,11.9999762 22.0000179,11.9999762 C18.6875139,11.9999762 16.0000107,14.6874794 16.0000107,17.9999833 C16.0000107,21.3124873 18.6875139,23.9999905 22.0000179,23.9999905 C25.3125218,23.9999905 28.000025,21.3124873 28.000025,17.9999833 Z M37.0000358,21.5156125 C37.0000358,20.249986 37.0469108,15.9999809 35.0625335,15.9999809 C34.7344081,15.9999809 33.1094061,17.3281075 31.0000286,17.3281075 C30.2812778,17.3281075 29.5937769,17.2031074 28.9219011,16.9687321 C28.9687762,17.3124825 29.0000262,17.6562329 29.0000262,17.9999833 C29.0000262,19.42186 28.5469007,20.8281117 27.7343997,21.9999881 C29.3594017,22.0468631 30.8281534,22.749989 31.8750297,23.9999905 L33.9687821,23.9999905 C35.531284,23.9999905 37.0000358,23.2499896 37.0000358,21.5156125 Z M35.0000334,11.9999762 C35.0000334,9.79684853 33.2031562,7.99997139 31.0000286,7.99997139 C28.796901,7.99997139 27.0000238,9.79684853 27.0000238,11.9999762 C27.0000238,14.2031038 28.796901,15.9999809 31.0000286,15.9999809 C33.2031562,15.9999809 35.0000334,14.2031038 35.0000334,11.9999762 Z" id="" fill="#B3B5C4" mask="url(#mask-2)"></path>
            </g>
        </g>
    </g>
</svg>