<svg width="14" height="14" viewBox="0 0 14 14" version="1.1" xmlns="http://www.w3.org/2000/svg" xmlns:xlink="http://www.w3.org/1999/xlink">
<title>avatar-user</title>
<desc>Created using Figma</desc>
<g id="Canvas" transform="translate(-4547 290)">
<g id="avatar-user">
<g id="&#239;&#138;&#190;">
<use xlink:href="#path0_fill" transform="translate(4547 -290)" fill="#B3B5C4"/>
</g>
</g>
</g>
<defs>
<path id="path0_fill" d="M 7 0C 3.13281 0 0 3.13281 0 7C 0 10.8516 3.125 14 7 14C 10.8828 14 14 10.8438 14 7C 14 3.13281 10.8672 0 7 0ZM 11.8359 10.5547C 11.5547 9.15625 10.875 8 9.44531 8C 8.8125 8.61719 7.95313 9 7 9C 6.04687 9 5.1875 8.61719 4.55469 8C 3.125 8 2.44531 9.15625 2.16406 10.5547C 1.4375 9.55469 1 8.32812 1 7C 1 3.69531 3.69531 1 7 1C 10.3047 1 13 3.69531 13 7C 13 8.32812 12.5625 9.55469 11.8359 10.5547ZM 10 5.5C 10 7.15625 8.65625 8.5 7 8.5C 5.34375 8.5 4 7.15625 4 5.5C 4 3.84375 5.34375 2.5 7 2.5C 8.65625 2.5 10 3.84375 10 5.5Z"/>
</defs>
</svg>
