<svg width="44" height="44" viewBox="0 0 44 44" version="1.1" xmlns="http://www.w3.org/2000/svg" xmlns:xlink="http://www.w3.org/1999/xlink">
<title>avatar-organization</title>
<desc>Created using Figma</desc>
<g id="Canvas" transform="translate(-209 -301)">
<g id="avatar-organization">
<g id="Symbols">
<g id="avatars/org avatar">
<g id="avatar organization">
<mask id="mask0_alpha" mask-type="alpha">
<g id="mask 2">
<g id="Vector">
<use xlink:href="#path0_fill" transform="translate(209 301)" fill="#FFFFFF"/>
</g>
</g>
</mask>
<g id="Oval" mask="url(#mask0_alpha)">
<use xlink:href="#path1_fill" transform="translate(210 302)" fill="#FFFFFF"/>
</g>
<g id="Oval" mask="url(#mask0_alpha)">
<use xlink:href="#path2_fill" transform="translate(209 301)" fill="#B6ADC7"/>
</g>
<g id="&#239;&#134;&#173;" mask="url(#mask0_alpha)">
<use xlink:href="#path3_fill" transform="translate(220 309)" fill="#B6ADC7"/>
</g>
</g>
</g>
</g>
</g>
</g>
<defs>
<path id="path0_fill" d="M 22 44C 34.1503 44 44 34.1503 44 22C 44 9.84974 34.1503 0 22 0C 9.84974 0 0 9.84974 0 22C 0 34.1503 9.84974 44 22 44Z"/>
<path id="path1_fill" d="M 21 42C 32.598 42 42 32.598 42 21C 42 9.40202 32.598 0 21 0C 9.40202 0 0 9.40202 0 21C 0 32.598 9.40202 42 21 42Z"/>
<path id="path2_fill" d="M 22 42C 33.0457 42 42 33.0457 42 22C 42 10.9543 33.0457 2 22 2C 10.9543 2 2 10.9543 2 22C 2 33.0457 10.9543 42 22 42ZM 22 44C 9.84974 44 0 34.1503 0 22C 0 9.84974 9.84974 0 22 0C 34.1503 0 44 9.84974 44 22C 44 34.1503 34.1503 44 22 44Z"/>
<path id="path3_fill" fill-rule="evenodd" d="M 21 -2.29492e-10L 1 -2.29492e-10C 0.453125 -2.29492e-10 0 0.453125 0 1L 0 27C 0 27.5469 0.453125 28 1 28L 21 28C 21.5469 28 22 27.5469 22 27L 22 1C 22 0.453125 21.5469 -2.29492e-10 21 -2.29492e-10ZM 8.00001 4.50001C 8.00001 4.21876 8.21876 4 8.50001 4L 9.50001 4C 9.78126 4 10 4.21876 10 4.50001L 10 5.50001C 10 5.78126 9.78126 6.00001 9.50001 6.00001L 8.50001 6.00001C 8.21876 6.00001 8.00001 5.78126 8.00001 5.50001L 8.00001 4.50001ZM 8.00001 8.50001C 8.00001 8.21876 8.21876 8.00001 8.50001 8.00001L 9.50001 8.00001C 9.78126 8.00001 10 8.21876 10 8.50001L 10 9.50001C 10 9.78126 9.78126 10 9.50001 10L 8.50001 10C 8.21876 10 8.00001 9.78126 8.00001 9.50001L 8.00001 8.50001ZM 8.00001 12.5C 8.00001 12.2188 8.21876 12 8.50001 12L 9.50001 12C 9.78126 12 10 12.2188 10 12.5L 10 13.5C 10 13.7813 9.78126 14 9.50001 14L 8.50001 14C 8.21876 14 8.00001 13.7813 8.00001 13.5L 8.00001 12.5ZM 8.00001 16.5C 8.00001 16.2188 8.21876 16 8.50001 16L 9.50001 16C 9.78126 16 10 16.2188 10 16.5L 10 17.5C 10 17.7813 9.78126 18 9.50001 18L 8.50001 18C 8.21876 18 8.00001 17.7813 8.00001 17.5L 8.00001 16.5ZM 6.00001 21.5C 6.00001 21.7813 5.78126 22 5.50001 22L 4.50001 22C 4.21876 22 4 21.7813 4 21.5L 4 20.5C 4 20.2188 4.21876 20 4.50001 20L 5.50001 20C 5.78126 20 6.00001 20.2188 6.00001 20.5L 6.00001 21.5ZM 6.00001 17.5C 6.00001 17.7813 5.78126 18 5.50001 18L 4.50001 18C 4.21876 18 4 17.7813 4 17.5L 4 16.5C 4 16.2188 4.21876 16 4.50001 16L 5.50001 16C 5.78126 16 6.00001 16.2188 6.00001 16.5L 6.00001 17.5ZM 6.00001 13.5C 6.00001 13.7813 5.78126 14 5.50001 14L 4.50001 14C 4.21876 14 4 13.7813 4 13.5L 4 12.5C 4 12.2188 4.21876 12 4.50001 12L 5.50001 12C 5.78126 12 6.00001 12.2188 6.00001 12.5L 6.00001 13.5ZM 6.00001 9.50001C 6.00001 9.78126 5.78126 10 5.50001 10L 4.50001 10C 4.21876 10 4 9.78126 4 9.50001L 4 8.50001C 4 8.21876 4.21876 8.00001 4.50001 8.00001L 5.50001 8.00001C 5.78126 8.00001 6.00001 8.21876 6.00001 8.50001L 6.00001 9.50001ZM 6.00001 5.50001C 6.00001 5.78126 5.78126 6.00001 5.50001 6.00001L 4.50001 6.00001C 4.21876 6.00001 4 5.78126 4 5.50001L 4 4.50001C 4 4.21876 4.21876 4 4.50001 4L 5.50001 4C 5.78126 4 6.00001 4.21876 6.00001 4.50001L 6.00001 5.50001ZM 14 25.5C 14 25.7813 13.7813 26 13.5 26L 8.50001 26C 8.21876 26 8.00001 25.7813 8.00001 25.5L 8.00001 22.5C 8.00001 22.2188 8.21876 22 8.50001 22L 13.5 22C 13.7813 22 14 22.2188 14 22.5L 14 25.5ZM 14 17.5C 14 17.7813 13.7813 18 13.5 18L 12.5 18C 12.2188 18 12 17.7813 12 17.5L 12 16.5C 12 16.2188 12.2188 16 12.5 16L 13.5 16C 13.7813 16 14 16.2188 14 16.5L 14 17.5ZM 14 13.5C 14 13.7813 13.7813 14 13.5 14L 12.5 14C 12.2188 14 12 13.7813 12 13.5L 12 12.5C 12 12.2188 12.2188 12 12.5 12L 13.5 12C 13.7813 12 14 12.2188 14 12.5L 14 13.5ZM 14 9.50001C 14 9.78126 13.7813 10 13.5 10L 12.5 10C 12.2188 10 12 9.78126 12 9.50001L 12 8.50001C 12 8.21876 12.2188 8.00001 12.5 8.00001L 13.5 8.00001C 13.7813 8.00001 14 8.21876 14 8.50001L 14 9.50001ZM 14 5.50001C 14 5.78126 13.7813 6.00001 13.5 6.00001L 12.5 6.00001C 12.2188 6.00001 12 5.78126 12 5.50001L 12 4.50001C 12 4.21876 12.2188 4 12.5 4L 13.5 4C 13.7813 4 14 4.21876 14 4.50001L 14 5.50001ZM 18 21.5C 18 21.7813 17.7813 22 17.5 22L 16.5 22C 16.2188 22 16 21.7813 16 21.5L 16 20.5C 16 20.2188 16.2188 20 16.5 20L 17.5 20C 17.7813 20 18 20.2188 18 20.5L 18 21.5ZM 18 17.5C 18 17.7813 17.7813 18 17.5 18L 16.5 18C 16.2188 18 16 17.7813 16 17.5L 16 16.5C 16 16.2188 16.2188 16 16.5 16L 17.5 16C 17.7813 16 18 16.2188 18 16.5L 18 17.5ZM 18 13.5C 18 13.7813 17.7813 14 17.5 14L 16.5 14C 16.2188 14 16 13.7813 16 13.5L 16 12.5C 16 12.2188 16.2188 12 16.5 12L 17.5 12C 17.7813 12 18 12.2188 18 12.5L 18 13.5ZM 18 9.50001C 18 9.78126 17.7813 10 17.5 10L 16.5 10C 16.2188 10 16 9.78126 16 9.50001L 16 8.50001C 16 8.21876 16.2188 8.00001 16.5 8.00001L 17.5 8.00001C 17.7813 8.00001 18 8.21876 18 8.50001L 18 9.50001ZM 18 5.50001C 18 5.78126 17.7813 6.00001 17.5 6.00001L 16.5 6.00001C 16.2188 6.00001 16 5.78126 16 5.50001L 16 4.50001C 16 4.21876 16.2188 4 16.5 4L 17.5 4C 17.7813 4 18 4.21876 18 4.50001L 18 5.50001Z"/>
</defs>
</svg>
