<?xml version="1.0" encoding="UTF-8"?>
<svg width="44px" height="44px" viewBox="0 0 44 44" version="1.1" xmlns="http://www.w3.org/2000/svg" xmlns:xlink="http://www.w3.org/1999/xlink">
    <!-- Generator: Sketch 42 (36781) - http://www.bohemiancoding.com/sketch -->
    <title>avatar-user</title>
    <desc>Created with Sketch.</desc>
    <defs>
        <circle id="path-1" cx="22" cy="22" r="22"></circle>
    </defs>
    <g id="Symbols" stroke="none" stroke-width="1" fill="none" fill-rule="evenodd">
        <g id="New-user-icon-avatar">
            <g id="avatar-user">
                <mask id="mask-2" fill="white">
                    <use xlink:href="#path-1"></use>
                </mask>
                <g id="Oval"></g>
                <circle id="Oval" fill="#FFFFFF" mask="url(#mask-2)" cx="22" cy="22" r="21"></circle>
                <path d="M22,42 C33.045695,42 42,33.045695 42,22 C42,10.954305 33.045695,2 22,2 C10.954305,2 2,10.954305 2,22 C2,33.045695 10.954305,42 22,42 Z M22,44 C9.8497355,44 0,34.1502645 0,22 C0,9.8497355 9.8497355,0 22,0 C34.1502645,0 44,9.8497355 44,22 C44,34.1502645 34.1502645,44 22,44 Z" id="Oval" fill="#B3B5C4" fill-rule="nonzero" mask="url(#mask-2)"></path>
                <path d="M37.0000358,37.7890587 C37.0000358,31.6249888 35.4765964,24.4999803 29.3359641,24.4999803 C27.4375244,26.351545 24.8593963,27.4999839 22.0000179,27.4999839 C19.1406395,27.4999839 16.5625114,26.351545 14.6640716,24.4999803 C8.52343932,24.4999803 7,31.6249888 7,37.7890587 C7,41.2109378 9.25000268,44.0000036 11.9921935,44.0000036 L32.0078423,44.0000036 C34.7500331,44.0000036 37.0000358,41.2109378 37.0000358,37.7890587 Z M31.0000286,16.9999714 C31.0000286,12.0312155 26.9687738,7.99996066 22.0000179,7.99996066 C17.031262,7.99996066 13.0000072,12.0312155 13.0000072,16.9999714 C13.0000072,21.9687273 17.031262,25.9999821 22.0000179,25.9999821 C26.9687738,25.9999821 31.0000286,21.9687273 31.0000286,16.9999714 Z" id="" fill="#B3B5C4" mask="url(#mask-2)"></path>
            </g>
        </g>
    </g>
</svg>