<?xml version="1.0" encoding="UTF-8"?>
<svg width="44px" height="44px" viewBox="0 0 44 44" version="1.1" xmlns="http://www.w3.org/2000/svg" xmlns:xlink="http://www.w3.org/1999/xlink">
    <!-- Generator: Sketch 42 (36781) - http://www.bohemiancoding.com/sketch -->
    <title>avatar-organization</title>
    <desc>Created with Sketch.</desc>
    <defs>
        <circle id="path-1" cx="22" cy="22" r="22"></circle>
    </defs>
    <g id="Symbols" stroke="none" stroke-width="1" fill="none" fill-rule="evenodd">
        <g id="avatars/org-avatar">
            <g id="avatar-organization">
                <mask id="mask-2" fill="white">
                    <use xlink:href="#path-1"></use>
                </mask>
                <g id="Oval"></g>
                <circle id="Oval" fill="#FFFFFF" mask="url(#mask-2)" cx="22" cy="22" r="21"></circle>
                <path d="M22,42 C33.045695,42 42,33.045695 42,22 C42,10.954305 33.045695,2 22,2 C10.954305,2 2,10.954305 2,22 C2,33.045695 10.954305,42 22,42 Z M22,44 C9.8497355,44 0,34.1502645 0,22 C0,9.8497355 9.8497355,0 22,0 C34.1502645,0 44,9.8497355 44,22 C44,34.1502645 34.1502645,44 22,44 Z" id="Oval" fill="#B3B5C4" fill-rule="nonzero" mask="url(#mask-2)"></path>
                <path d="M32.000025,7.99997139 L12.0000012,7.99997139 C11.4531255,7.99997139 11,8.45309693 11,8.99997258 L11,35.0000036 C11,35.5468792 11.4531255,36.0000048 12.0000012,36.0000048 L32.000025,36.0000048 C32.5469007,36.0000048 33.0000262,35.5468792 33.0000262,35.0000036 L33.0000262,8.99997258 C33.0000262,8.45309693 32.5469007,7.99997139 32.000025,7.99997139 Z M19.0000095,12.4999768 C19.0000095,12.2187264 19.2187598,11.9999762 19.5000101,11.9999762 L20.5000113,11.9999762 C20.7812617,11.9999762 21.0000119,12.2187264 21.0000119,12.4999768 L21.0000119,13.4999779 C21.0000119,13.7812283 20.7812617,13.9999785 20.5000113,13.9999785 L19.5000101,13.9999785 C19.2187598,13.9999785 19.0000095,13.7812283 19.0000095,13.4999779 L19.0000095,12.4999768 Z M19.0000095,16.4999815 C19.0000095,16.2187312 19.2187598,15.9999809 19.5000101,15.9999809 L20.5000113,15.9999809 C20.7812617,15.9999809 21.0000119,16.2187312 21.0000119,16.4999815 L21.0000119,17.4999827 C21.0000119,17.781233 20.7812617,17.9999833 20.5000113,17.9999833 L19.5000101,17.9999833 C19.2187598,17.9999833 19.0000095,17.781233 19.0000095,17.4999827 L19.0000095,16.4999815 Z M19.0000095,20.4999863 C19.0000095,20.218736 19.2187598,19.9999857 19.5000101,19.9999857 L20.5000113,19.9999857 C20.7812617,19.9999857 21.0000119,20.218736 21.0000119,20.4999863 L21.0000119,21.4999875 C21.0000119,21.7812378 20.7812617,21.9999881 20.5000113,21.9999881 L19.5000101,21.9999881 C19.2187598,21.9999881 19.0000095,21.7812378 19.0000095,21.4999875 L19.0000095,20.4999863 Z M19.0000095,24.4999911 C19.0000095,24.2187407 19.2187598,23.9999905 19.5000101,23.9999905 L20.5000113,23.9999905 C20.7812617,23.9999905 21.0000119,24.2187407 21.0000119,24.4999911 L21.0000119,25.4999923 C21.0000119,25.7812426 20.7812617,25.9999928 20.5000113,25.9999928 L19.5000101,25.9999928 C19.2187598,25.9999928 19.0000095,25.7812426 19.0000095,25.4999923 L19.0000095,24.4999911 Z M17.0000072,29.499997 C17.0000072,29.7812474 16.7812569,29.9999976 16.5000066,29.9999976 L15.5000054,29.9999976 C15.218755,29.9999976 15.0000048,29.7812474 15.0000048,29.499997 L15.0000048,28.4999958 C15.0000048,28.2187455 15.218755,27.9999952 15.5000054,27.9999952 L16.5000066,27.9999952 C16.7812569,27.9999952 17.0000072,28.2187455 17.0000072,28.4999958 L17.0000072,29.499997 Z M17.0000072,25.4999923 C17.0000072,25.7812426 16.7812569,25.9999928 16.5000066,25.9999928 L15.5000054,25.9999928 C15.218755,25.9999928 15.0000048,25.7812426 15.0000048,25.4999923 L15.0000048,24.4999911 C15.0000048,24.2187407 15.218755,23.9999905 15.5000054,23.9999905 L16.5000066,23.9999905 C16.7812569,23.9999905 17.0000072,24.2187407 17.0000072,24.4999911 L17.0000072,25.4999923 Z M17.0000072,21.4999875 C17.0000072,21.7812378 16.7812569,21.9999881 16.5000066,21.9999881 L15.5000054,21.9999881 C15.218755,21.9999881 15.0000048,21.7812378 15.0000048,21.4999875 L15.0000048,20.4999863 C15.0000048,20.218736 15.218755,19.9999857 15.5000054,19.9999857 L16.5000066,19.9999857 C16.7812569,19.9999857 17.0000072,20.218736 17.0000072,20.4999863 L17.0000072,21.4999875 Z M17.0000072,17.4999827 C17.0000072,17.781233 16.7812569,17.9999833 16.5000066,17.9999833 L15.5000054,17.9999833 C15.218755,17.9999833 15.0000048,17.781233 15.0000048,17.4999827 L15.0000048,16.4999815 C15.0000048,16.2187312 15.218755,15.9999809 15.5000054,15.9999809 L16.5000066,15.9999809 C16.7812569,15.9999809 17.0000072,16.2187312 17.0000072,16.4999815 L17.0000072,17.4999827 Z M17.0000072,13.4999779 C17.0000072,13.7812283 16.7812569,13.9999785 16.5000066,13.9999785 L15.5000054,13.9999785 C15.218755,13.9999785 15.0000048,13.7812283 15.0000048,13.4999779 L15.0000048,12.4999768 C15.0000048,12.2187264 15.218755,11.9999762 15.5000054,11.9999762 L16.5000066,11.9999762 C16.7812569,11.9999762 17.0000072,12.2187264 17.0000072,12.4999768 L17.0000072,13.4999779 Z M25.0000167,33.5000018 C25.0000167,33.7812521 24.7812664,34.0000024 24.5000161,34.0000024 L19.5000101,34.0000024 C19.2187598,34.0000024 19.0000095,33.7812521 19.0000095,33.5000018 L19.0000095,30.4999982 C19.0000095,30.2187479 19.2187598,29.9999976 19.5000101,29.9999976 L24.5000161,29.9999976 C24.7812664,29.9999976 25.0000167,30.2187479 25.0000167,30.4999982 L25.0000167,33.5000018 Z M25.0000167,25.4999923 C25.0000167,25.7812426 24.7812664,25.9999928 24.5000161,25.9999928 L23.5000149,25.9999928 C23.2187646,25.9999928 23.0000143,25.7812426 23.0000143,25.4999923 L23.0000143,24.4999911 C23.0000143,24.2187407 23.2187646,23.9999905 23.5000149,23.9999905 L24.5000161,23.9999905 C24.7812664,23.9999905 25.0000167,24.2187407 25.0000167,24.4999911 L25.0000167,25.4999923 Z M25.0000167,21.4999875 C25.0000167,21.7812378 24.7812664,21.9999881 24.5000161,21.9999881 L23.5000149,21.9999881 C23.2187646,21.9999881 23.0000143,21.7812378 23.0000143,21.4999875 L23.0000143,20.4999863 C23.0000143,20.218736 23.2187646,19.9999857 23.5000149,19.9999857 L24.5000161,19.9999857 C24.7812664,19.9999857 25.0000167,20.218736 25.0000167,20.4999863 L25.0000167,21.4999875 Z M25.0000167,17.4999827 C25.0000167,17.781233 24.7812664,17.9999833 24.5000161,17.9999833 L23.5000149,17.9999833 C23.2187646,17.9999833 23.0000143,17.781233 23.0000143,17.4999827 L23.0000143,16.4999815 C23.0000143,16.2187312 23.2187646,15.9999809 23.5000149,15.9999809 L24.5000161,15.9999809 C24.7812664,15.9999809 25.0000167,16.2187312 25.0000167,16.4999815 L25.0000167,17.4999827 Z M25.0000167,13.4999779 C25.0000167,13.7812283 24.7812664,13.9999785 24.5000161,13.9999785 L23.5000149,13.9999785 C23.2187646,13.9999785 23.0000143,13.7812283 23.0000143,13.4999779 L23.0000143,12.4999768 C23.0000143,12.2187264 23.2187646,11.9999762 23.5000149,11.9999762 L24.5000161,11.9999762 C24.7812664,11.9999762 25.0000167,12.2187264 25.0000167,12.4999768 L25.0000167,13.4999779 Z M29.0000215,29.499997 C29.0000215,29.7812474 28.7812712,29.9999976 28.5000209,29.9999976 L27.5000197,29.9999976 C27.2187693,29.9999976 27.0000191,29.7812474 27.0000191,29.499997 L27.0000191,28.4999958 C27.0000191,28.2187455 27.2187693,27.9999952 27.5000197,27.9999952 L28.5000209,27.9999952 C28.7812712,27.9999952 29.0000215,28.2187455 29.0000215,28.4999958 L29.0000215,29.499997 Z M29.0000215,25.4999923 C29.0000215,25.7812426 28.7812712,25.9999928 28.5000209,25.9999928 L27.5000197,25.9999928 C27.2187693,25.9999928 27.0000191,25.7812426 27.0000191,25.4999923 L27.0000191,24.4999911 C27.0000191,24.2187407 27.2187693,23.9999905 27.5000197,23.9999905 L28.5000209,23.9999905 C28.7812712,23.9999905 29.0000215,24.2187407 29.0000215,24.4999911 L29.0000215,25.4999923 Z M29.0000215,21.4999875 C29.0000215,21.7812378 28.7812712,21.9999881 28.5000209,21.9999881 L27.5000197,21.9999881 C27.2187693,21.9999881 27.0000191,21.7812378 27.0000191,21.4999875 L27.0000191,20.4999863 C27.0000191,20.218736 27.2187693,19.9999857 27.5000197,19.9999857 L28.5000209,19.9999857 C28.7812712,19.9999857 29.0000215,20.218736 29.0000215,20.4999863 L29.0000215,21.4999875 Z M29.0000215,17.4999827 C29.0000215,17.781233 28.7812712,17.9999833 28.5000209,17.9999833 L27.5000197,17.9999833 C27.2187693,17.9999833 27.0000191,17.781233 27.0000191,17.4999827 L27.0000191,16.4999815 C27.0000191,16.2187312 27.2187693,15.9999809 27.5000197,15.9999809 L28.5000209,15.9999809 C28.7812712,15.9999809 29.0000215,16.2187312 29.0000215,16.4999815 L29.0000215,17.4999827 Z M29.0000215,13.4999779 C29.0000215,13.7812283 28.7812712,13.9999785 28.5000209,13.9999785 L27.5000197,13.9999785 C27.2187693,13.9999785 27.0000191,13.7812283 27.0000191,13.4999779 L27.0000191,12.4999768 C27.0000191,12.2187264 27.2187693,11.9999762 27.5000197,11.9999762 L28.5000209,11.9999762 C28.7812712,11.9999762 29.0000215,12.2187264 29.0000215,12.4999768 L29.0000215,13.4999779 Z" id="" fill="#B3B5C4" mask="url(#mask-2)"></path>
            </g>
        </g>
    </g>
</svg>