<svg width="200" height="160" viewBox="0 0 200 160" fill="none" xmlns="http://www.w3.org/2000/svg">
<g clip-path="url(#clip0)">
<g clip-path="url(#clip1)">
<path d="M117 118.02H122V129H117V118.02ZM124 129H127C128.1 129 129 128.1 129 127V118H124V129ZM127 111H112C110.9 111 110 111.9 110 113V116H129V113C129 111.9 128.1 111 127 111ZM110 127C110 128.1 110.9 129 112 129H115V118H110V127Z" fill="#493272"/>
<path fill-rule="evenodd" clip-rule="evenodd" d="M39 110L33.5 119H44.5L39 110ZM44.5 130C46.9853 130 49 127.985 49 125.5C49 123.015 46.9853 121 44.5 121C42.0147 121 40 123.015 40 125.5C40 127.985 42.0147 130 44.5 130ZM38 121.5H30V129.5H38V121.5Z" fill="#493272"/>
<path d="M23.0469 79.25C23.6719 78.625 23.9844 77.875 23.9844 77C23.9844 75.9062 23.5938 74.9688 22.8125 74.1875C22.0312 73.4062 21.0938 73.0156 20 73.0156C18.9062 73.0156 17.9688 73.4062 17.1875 74.1875C16.4062 74.9688 16.0156 75.9062 16.0156 77H17.9844C17.9844 76.4688 18.1875 76 18.5938 75.5938C19 75.1875 19.4688 74.9844 20 74.9844C20.5312 74.9844 21 75.1875 21.4062 75.5938C21.8125 76 22.0156 76.4688 22.0156 77C22.0156 77.5312 21.8125 78 21.4062 78.4062L20.1875 79.6719C19.4062 80.5156 19.0156 81.4531 19.0156 82.4844V83H20.9844C20.9844 81.9688 21.375 81.0312 22.1562 80.1875L23.0469 79.25ZM20.9844 86.9844V85.0156H19.0156V86.9844H20.9844ZM12.9219 72.9688C14.8906 71 17.25 70.0156 20 70.0156C22.75 70.0156 25.0938 71 27.0312 72.9688C29 74.9062 29.9844 77.25 29.9844 80C29.9844 82.75 29 85.1094 27.0312 87.0781C25.0938 89.0156 22.75 89.9844 20 89.9844C17.25 89.9844 14.8906 89.0156 12.9219 87.0781C10.9844 85.1094 10.0156 82.75 10.0156 80C10.0156 77.25 10.9844 74.9062 12.9219 72.9688Z" fill="#493272"/>
<path d="M23.0938 4.54688C22.1875 5.17188 21.1562 5.48438 20 5.48438C18.8438 5.48438 17.7969 5.17188 16.8594 4.54688C15.9531 3.89062 15.2969 3.04688 14.8906 2.01562L25.1094 2.01563C24.7031 3.04688 24.0312 3.89063 23.0938 4.54688ZM17.5156 -1.40625C17.2344 -1.125 16.8906 -0.984375 16.4844 -0.984375C16.0781 -0.984375 15.7188 -1.125 15.4062 -1.40625C15.125 -1.71875 14.9844 -2.07812 14.9844 -2.48438C14.9844 -2.89062 15.125 -3.23438 15.4062 -3.51562C15.7188 -3.82812 16.0781 -3.98437 16.4844 -3.98437C16.8906 -3.98437 17.2344 -3.82812 17.5156 -3.51562C17.8281 -3.23437 17.9844 -2.89062 17.9844 -2.48437C17.9844 -2.07812 17.8281 -1.71875 17.5156 -1.40625ZM24.5469 -1.40625C24.2656 -1.125 23.9219 -0.984375 23.5156 -0.984375C23.1094 -0.984375 22.75 -1.125 22.4375 -1.40625C22.1562 -1.71875 22.0156 -2.07812 22.0156 -2.48437C22.0156 -2.89062 22.1562 -3.23437 22.4375 -3.51562C22.75 -3.82812 23.1094 -3.98437 23.5156 -3.98437C23.9219 -3.98437 24.2656 -3.82812 24.5469 -3.51562C24.8594 -3.23437 25.0156 -2.89062 25.0156 -2.48437C25.0156 -2.07812 24.8594 -1.71875 24.5469 -1.40625ZM14.3281 5.67188C15.9219 7.23438 17.8125 8.01562 20 8.01562C22.1875 8.01562 24.0625 7.23438 25.625 5.67188C27.2188 4.07813 28.0156 2.1875 28.0156 0C28.0156 -2.1875 27.2188 -4.0625 25.625 -5.625C24.0625 -7.21875 22.1875 -8.01562 20 -8.01562C17.8125 -8.01562 15.9219 -7.21875 14.3281 -5.625C12.7656 -4.0625 11.9844 -2.1875 11.9844 0C11.9844 2.1875 12.7656 4.07812 14.3281 5.67188ZM12.9219 -7.03125C14.8906 -9 17.25 -9.98438 20 -9.98438C22.75 -9.98437 25.0938 -9 27.0312 -7.03125C29 -5.09375 29.9844 -2.75 29.9844 0C29.9844 2.75 29 5.10938 27.0312 7.07812C25.0938 9.01562 22.75 9.98438 20 9.98438C17.25 9.98438 14.8906 9.01562 12.9219 7.07812C10.9844 5.10938 10.0156 2.75 10.0156 0C10.0156 -2.75 10.9844 -5.09375 12.9219 -7.03125Z" fill="#493272"/>
<path d="M42.2031 44.7812C42.7031 45.25 43.2969 45.4844 43.9844 45.4844C44.6719 45.4844 45.2656 45.25 45.7656 44.7812C46.2656 44.2812 46.5156 43.6875 46.5156 43C46.5156 42.3125 46.2656 41.7344 45.7656 41.2656C45.2656 40.7656 44.6719 40.5156 43.9844 40.5156C43.2969 40.5156 42.7031 40.7656 42.2031 41.2656C41.7344 41.7344 41.5 42.3125 41.5 43C41.5 43.6875 41.7344 44.2812 42.2031 44.7812ZM38.2188 34.2344C37.75 34.7344 37.5156 35.3281 37.5156 36.0156C37.5156 36.7031 37.75 37.2969 38.2188 37.7969C38.7188 38.2656 39.3125 38.5 40 38.5C40.6875 38.5 41.2656 38.2656 41.7344 37.7969C42.2344 37.2969 42.4844 36.7031 42.4844 36.0156C42.4844 35.3281 42.2344 34.7344 41.7344 34.2344C41.2656 33.7344 40.6875 33.4844 40 33.4844C39.3125 33.4844 38.7188 33.7344 38.2188 34.2344ZM34.2344 44.7812C34.7344 45.25 35.3281 45.4844 36.0156 45.4844C36.7031 45.4844 37.2812 45.25 37.75 44.7812C38.25 44.2812 38.5 43.6875 38.5 43C38.5 42.3125 38.25 41.7344 37.75 41.2656C37.2812 40.7656 36.7031 40.5156 36.0156 40.5156C35.3281 40.5156 34.7344 40.7656 34.2344 41.2656C33.7344 41.7344 33.4844 42.3125 33.4844 43C33.4844 43.6875 33.7344 44.2812 34.2344 44.7812ZM32.9219 32.9688C34.8906 31 37.25 30.0156 40 30.0156C42.75 30.0156 45.0938 31 47.0312 32.9688C49 34.9062 49.9844 37.25 49.9844 40C49.9844 42.75 49 45.1094 47.0312 47.0781C45.0938 49.0156 42.75 49.9844 40 49.9844C37.25 49.9844 34.8906 49.0156 32.9219 47.0781C30.9844 45.1094 30.0156 42.75 30.0156 40C30.0156 37.25 30.9844 34.9062 32.9219 32.9688Z" fill="#493272"/>
<path d="M54 85.0156V86H66V85.0156C66 84.1094 65.3125 83.375 63.9375 82.8125C62.5625 82.2188 61.25 81.9219 60 81.9219C58.75 81.9219 57.4375 82.2188 56.0625 82.8125C54.6875 83.375 54 84.1094 54 85.0156ZM62.1094 79.1094C62.7031 78.5156 63 77.8125 63 77C63 76.1875 62.7031 75.4844 62.1094 74.8906C61.5156 74.2969 60.8125 74 60 74C59.1875 74 58.4844 74.2969 57.8906 74.8906C57.2969 75.4844 57 76.1875 57 77C57 77.8125 57.2969 78.5156 57.8906 79.1094C58.4844 79.7031 59.1875 80 60 80C60.8125 80 61.5156 79.7031 62.1094 79.1094ZM51 73.0156C51 72.4844 51.1875 72.0156 51.5625 71.6094C51.9688 71.2031 52.4531 71 53.0156 71H66.9844C67.5156 71 67.9844 71.2031 68.3906 71.6094C68.7969 72.0156 69 72.4844 69 73.0156V86.9844C69 87.5156 68.7969 87.9844 68.3906 88.3906C67.9844 88.7969 67.5156 89 66.9844 89H53.0156C52.4531 89 51.9688 88.7969 51.5625 88.3906C51.1875 87.9844 51 87.5156 51 86.9844V73.0156Z" fill="#493272"/>
<path d="M77.9844 125.016L86.9844 116.016L85.5781 114.562L77.9844 122.156L74.4219 118.594L73.0156 120L77.9844 125.016ZM72.9219 112.969C74.8906 111 77.25 110.016 80 110.016C82.75 110.016 85.0938 111 87.0312 112.969C89 114.906 89.9844 117.25 89.9844 120C89.9844 122.75 89 125.109 87.0312 127.078C85.0938 129.016 82.75 129.984 80 129.984C77.25 129.984 74.8906 129.016 72.9219 127.078C70.9844 125.109 70.0156 122.75 70.0156 120C70.0156 117.25 70.9844 114.906 72.9219 112.969Z" fill="#493272"/>
<path d="M168.484 119.016C169.172 119.016 169.766 119.266 170.266 119.766C170.766 120.234 171.016 120.812 171.016 121.5C171.016 122.188 170.766 122.781 170.266 123.281C169.766 123.75 169.172 123.984 168.484 123.984H166.984V128.016C166.984 128.547 166.781 129.016 166.375 129.422C166 129.797 165.547 129.984 165.016 129.984H161.219V128.484C161.219 127.734 160.953 127.109 160.422 126.609C159.891 126.078 159.25 125.812 158.5 125.812C157.75 125.812 157.109 126.078 156.578 126.609C156.047 127.109 155.781 127.734 155.781 128.484V129.984H151.984C151.453 129.984 150.984 129.797 150.578 129.422C150.203 129.016 150.016 128.547 150.016 128.016V124.219H151.516C152.266 124.219 152.891 123.953 153.391 123.422C153.922 122.891 154.188 122.25 154.188 121.5C154.188 120.75 153.922 120.109 153.391 119.578C152.891 119.047 152.266 118.781 151.516 118.781H150.016V114.984C150.016 114.453 150.203 114 150.578 113.625C150.984 113.219 151.453 113.016 151.984 113.016H156.016V111.516C156.016 110.828 156.25 110.234 156.719 109.734C157.219 109.234 157.812 108.984 158.5 108.984C159.188 108.984 159.766 109.234 160.234 109.734C160.734 110.234 160.984 110.828 160.984 111.516V113.016H165.016C165.547 113.016 166 113.219 166.375 113.625C166.781 114 166.984 114.453 166.984 114.984V119.016H168.484Z" fill="#493272"/>
<path d="M206 43.9844L208.016 46V46.9844H191.984V46L194 43.9844V39.0156C194 37.4531 194.391 36.0938 195.172 34.9375C195.984 33.7812 197.094 33.0312 198.5 32.6875V31.9844C198.5 31.5781 198.641 31.2344 198.922 30.9531C199.203 30.6406 199.562 30.4844 200 30.4844C200.438 30.4844 200.797 30.6406 201.078 30.9531C201.359 31.2344 201.5 31.5781 201.5 31.9844V32.6875C202.906 33.0312 204 33.7812 204.781 34.9375C205.594 36.0938 206 37.4531 206 39.0156V43.9844ZM200 49.9844C199.438 49.9844 198.953 49.7969 198.547 49.4219C198.172 49.0156 197.984 48.5469 197.984 48.0156H202.016C202.016 48.5469 201.812 49.0156 201.406 49.4219C201 49.7969 200.531 49.9844 200 49.9844Z" fill="#493272"/>
<path d="M6.98438 111H11.0156V123H6.98438V111ZM3 111C3.53125 111 4 111.203 4.40625 111.609C4.8125 112.016 5.01562 112.484 5.01562 113.016V123C5.01562 123.531 4.8125 124 4.40625 124.406L-2.15625 131.016L-3.23438 129.938C-3.51563 129.656 -3.65625 129.312 -3.65625 128.906V128.578L-2.67188 123.984H-9C-9.53125 123.984 -10 123.797 -10.4063 123.422C-10.8125 123.016 -11.0156 122.547 -11.0156 122.016L-10.9688 121.922H-11.0156L-11.0156 120C-11.0156 119.75 -10.9688 119.5 -10.875 119.25L-7.82812 112.219C-7.51562 111.406 -6.90625 111 -6 111H3Z" fill="#493272"/>
<path d="M97.5156 82.4844C98.2031 83.1719 99.0312 83.5156 100 83.5156C100.969 83.5156 101.797 83.1719 102.484 82.4844C103.172 81.7969 103.516 80.9688 103.516 80C103.516 79.0312 103.172 78.2031 102.484 77.5156C101.797 76.8281 100.969 76.4844 100 76.4844C99.0312 76.4844 98.2031 76.8281 97.5156 77.5156C96.8281 78.2031 96.4844 79.0312 96.4844 80C96.4844 80.9688 96.8281 81.7969 97.5156 82.4844ZM107.453 80.9844L109.562 82.625C109.781 82.7812 109.812 83 109.656 83.2812L107.641 86.75C107.516 86.9688 107.312 87.0312 107.031 86.9375L104.547 85.9531C103.891 86.4219 103.328 86.75 102.859 86.9375L102.484 89.5625C102.422 89.8438 102.266 89.9844 102.016 89.9844H97.9844C97.7344 89.9844 97.5781 89.8438 97.5156 89.5625L97.1406 86.9375C96.5469 86.6875 95.9844 86.3594 95.4531 85.9531L92.9688 86.9375C92.6875 87.0312 92.4844 86.9688 92.3594 86.75L90.3438 83.2812C90.1875 83 90.2188 82.7812 90.4375 82.625L92.5469 80.9844C92.5156 80.7656 92.5 80.4375 92.5 80C92.5 79.5625 92.5156 79.2344 92.5469 79.0156L90.4375 77.375C90.2188 77.2188 90.1875 77 90.3438 76.7188L92.3594 73.25C92.4844 73.0312 92.6875 72.9688 92.9688 73.0625L95.4531 74.0469C96.1094 73.5781 96.6719 73.25 97.1406 73.0625L97.5156 70.4375C97.5781 70.1562 97.7344 70.0156 97.9844 70.0156H102.016C102.266 70.0156 102.422 70.1562 102.484 70.4375L102.859 73.0625C103.453 73.3125 104.016 73.6406 104.547 74.0469L107.031 73.0625C107.312 72.9688 107.516 73.0312 107.641 73.25L109.656 76.7188C109.812 77 109.781 77.2188 109.562 77.375L107.453 79.0156C107.484 79.2344 107.5 79.5625 107.5 80C107.5 80.4375 107.484 80.7656 107.453 80.9844Z" fill="#493272"/>
<path d="M140 76.0156H141.5V80.2344L145.016 82.3438L144.266 83.5625L140 80.9844V76.0156ZM134.609 73.625C136.391 71.875 138.516 71 140.984 71C143.453 71 145.562 71.875 147.312 73.625C149.094 75.375 149.984 77.5 149.984 80C149.984 82.5 149.094 84.625 147.312 86.375C145.562 88.125 143.453 89 140.984 89C138.516 89 136.406 88.125 134.656 86.375L136.062 84.9219C137.438 86.2969 139.078 86.9844 140.984 86.9844C142.922 86.9844 144.578 86.3125 145.953 84.9688C147.328 83.5938 148.016 81.9375 148.016 80C148.016 78.0625 147.328 76.4219 145.953 75.0781C144.578 73.7031 142.922 73.0156 140.984 73.0156C139.047 73.0156 137.391 73.7031 136.016 75.0781C134.672 76.4219 134 78.0625 134 80H137L132.969 84.0312L132.875 83.8906L128.984 80H131.984C131.984 77.5 132.859 75.375 134.609 73.625Z" fill="#493272"/>
<path d="M186 76.0156V74H174V76.0156H186ZM186 79.0156V77H174V79.0156H186ZM186 82.0156V80H174V82.0156H186ZM189.984 71.9844V89.9844L186 86H171.984C171.453 86 170.984 85.7969 170.578 85.3906C170.203 84.9844 170.016 84.5156 170.016 83.9844V71.9844C170.016 71.4531 170.203 71 170.578 70.625C170.984 70.2188 171.453 70.0156 171.984 70.0156H188.016C188.547 70.0156 189 70.2188 189.375 70.625C189.781 71 189.984 71.4531 189.984 71.9844Z" fill="#493272"/>
<path d="M85.0156 40C85.0156 40.2812 84.9062 40.5156 84.6875 40.7031C84.5 40.8906 84.2656 40.9844 83.9844 40.9844H74L70.0156 45.0156V31C70.0156 30.7188 70.1094 30.4844 70.2969 30.2969C70.4844 30.1094 70.7188 30.0156 71 30.0156H83.9844C84.2656 30.0156 84.5 30.1094 84.6875 30.2969C84.9062 30.4844 85.0156 30.7188 85.0156 31V40ZM89 34C89.2812 34 89.5156 34.0938 89.7031 34.2812C89.8906 34.4688 89.9844 34.7031 89.9844 34.9844V49.9844L86 46H74.9844C74.7031 46 74.4688 45.9062 74.2812 45.7188C74.0938 45.5312 74 45.2969 74 45.0156V43H86.9844V34H89Z" fill="#493272"/>
<path d="M128.719 35.0312L126.891 36.8594L123.141 33.1094L124.969 31.2812C125.156 31.0938 125.391 31 125.672 31C125.953 31 126.188 31.0938 126.375 31.2812L128.719 33.625C128.906 33.8125 129 34.0469 129 34.3281C129 34.6094 128.906 34.8438 128.719 35.0312ZM111 45.25L122.062 34.1875L125.812 37.9375L114.75 49H111V45.25Z" fill="#493272"/>
<path d="M160.984 40.9844V34.9844H159.016V40.9844H160.984ZM160.984 45.0156V43H159.016V45.0156H160.984ZM171.016 40L168.578 42.7656L168.906 46.4688L165.297 47.2656L163.422 50.4531L160 49L156.578 50.4531L154.703 47.3125L151.094 46.4688L151.422 42.7656L148.984 40L151.422 37.1875L151.094 33.5312L154.703 32.7344L156.578 29.5469L160 31L163.422 29.5469L165.297 32.7344L168.906 33.5312L168.578 37.2344L171.016 40Z" fill="#493272"/>
<path d="M69 5.01563V-6.98437L51 -6.98438V5.01562L69 5.01563ZM69 -9C69.5312 -9 70 -8.79687 70.4062 -8.39062C70.8125 -8.01562 71.0156 -7.54687 71.0156 -6.98437L70.9688 5.01563C70.9688 5.54688 70.7656 6.01563 70.3594 6.42188C69.9844 6.79688 69.5312 6.98438 69 6.98438H63.9844V9H56.0156V6.98438H51C50.4375 6.98438 49.9531 6.79688 49.5469 6.42188C49.1719 6.01562 48.9844 5.54688 48.9844 5.01562V-6.98438C48.9844 -7.54688 49.1719 -8.01562 49.5469 -8.39062C49.9531 -8.79688 50.4375 -9 51 -9L69 -9Z" fill="#493272"/>
<path d="M104.219 6L103.094 1.17188L106.844 -2.0625L101.922 -2.48437L100 -6.98437L98.0781 -2.4375L93.1562 -2.0625L96.9062 1.17188L95.7812 6L100 3.46875L104.219 6ZM92.9219 -7.03125C94.8906 -9 97.25 -9.98438 100 -9.98438C102.75 -9.98437 105.094 -9 107.031 -7.03125C109 -5.09375 109.984 -2.75 109.984 0C109.984 2.75 109 5.10938 107.031 7.07812C105.094 9.01562 102.75 9.98438 100 9.98438C97.25 9.98438 94.8906 9.01562 92.9219 7.07812C90.9844 5.10938 90.0156 2.75 90.0156 0C90.0156 -2.75 90.9844 -5.09375 92.9219 -7.03125Z" fill="#493272"/>
<path d="M140 -8.01562L149.984 8.01562H130.016L140 -8.01562ZM140 -4.21875L133.625 6L146.375 6L140 -4.21875Z" fill="#493272"/>
<path d="M191.016 -2.01562L190.969 -1.92187H191.016V0C191.016 0.25 190.969 0.5 190.875 0.75L187.828 7.78125C187.516 8.59375 186.906 9 186 9H177C176.469 9 176 8.79688 175.594 8.39062C175.188 7.98438 174.984 7.51562 174.984 6.98438V-3C174.984 -3.53125 175.188 -4 175.594 -4.40625L182.156 -11.0156L183.234 -9.9375C183.516 -9.65625 183.656 -9.3125 183.656 -8.90625V-8.57812L182.672 -3.98437L189 -3.98437C189.531 -3.98437 190 -3.78125 190.406 -3.375C190.812 -3 191.016 -2.54687 191.016 -2.01562ZM168.984 9V-3H173.016V9H168.984Z" fill="#493272"/>
<path d="M23.0938 164.547C22.1875 165.172 21.1562 165.484 20 165.484C18.8438 165.484 17.7969 165.172 16.8594 164.547C15.9531 163.891 15.2969 163.047 14.8906 162.016H25.1094C24.7031 163.047 24.0312 163.891 23.0938 164.547ZM17.5156 158.594C17.2344 158.875 16.8906 159.016 16.4844 159.016C16.0781 159.016 15.7188 158.875 15.4062 158.594C15.125 158.281 14.9844 157.922 14.9844 157.516C14.9844 157.109 15.125 156.766 15.4062 156.484C15.7188 156.172 16.0781 156.016 16.4844 156.016C16.8906 156.016 17.2344 156.172 17.5156 156.484C17.8281 156.766 17.9844 157.109 17.9844 157.516C17.9844 157.922 17.8281 158.281 17.5156 158.594ZM24.5469 158.594C24.2656 158.875 23.9219 159.016 23.5156 159.016C23.1094 159.016 22.75 158.875 22.4375 158.594C22.1562 158.281 22.0156 157.922 22.0156 157.516C22.0156 157.109 22.1562 156.766 22.4375 156.484C22.75 156.172 23.1094 156.016 23.5156 156.016C23.9219 156.016 24.2656 156.172 24.5469 156.484C24.8594 156.766 25.0156 157.109 25.0156 157.516C25.0156 157.922 24.8594 158.281 24.5469 158.594ZM14.3281 165.672C15.9219 167.234 17.8125 168.016 20 168.016C22.1875 168.016 24.0625 167.234 25.625 165.672C27.2188 164.078 28.0156 162.188 28.0156 160C28.0156 157.812 27.2188 155.938 25.625 154.375C24.0625 152.781 22.1875 151.984 20 151.984C17.8125 151.984 15.9219 152.781 14.3281 154.375C12.7656 155.938 11.9844 157.812 11.9844 160C11.9844 162.188 12.7656 164.078 14.3281 165.672ZM12.9219 152.969C14.8906 151 17.25 150.016 20 150.016C22.75 150.016 25.0938 151 27.0312 152.969C29 154.906 29.9844 157.25 29.9844 160C29.9844 162.75 29 165.109 27.0312 167.078C25.0938 169.016 22.75 169.984 20 169.984C17.25 169.984 14.8906 169.016 12.9219 167.078C10.9844 165.109 10.0156 162.75 10.0156 160C10.0156 157.25 10.9844 154.906 12.9219 152.969Z" fill="#493272"/>
<path d="M69 165.016V153.016H51V165.016H69ZM69 151C69.5312 151 70 151.203 70.4062 151.609C70.8125 151.984 71.0156 152.453 71.0156 153.016L70.9688 165.016C70.9688 165.547 70.7656 166.016 70.3594 166.422C69.9844 166.797 69.5312 166.984 69 166.984H63.9844V169H56.0156V166.984H51C50.4375 166.984 49.9531 166.797 49.5469 166.422C49.1719 166.016 48.9844 165.547 48.9844 165.016V153.016C48.9844 152.453 49.1719 151.984 49.5469 151.609C49.9531 151.203 50.4375 151 51 151H69Z" fill="#493272"/>
<path d="M104.219 166L103.094 161.172L106.844 157.938L101.922 157.516L100 153.016L98.0781 157.562L93.1562 157.938L96.9062 161.172L95.7812 166L100 163.469L104.219 166ZM92.9219 152.969C94.8906 151 97.25 150.016 100 150.016C102.75 150.016 105.094 151 107.031 152.969C109 154.906 109.984 157.25 109.984 160C109.984 162.75 109 165.109 107.031 167.078C105.094 169.016 102.75 169.984 100 169.984C97.25 169.984 94.8906 169.016 92.9219 167.078C90.9844 165.109 90.0156 162.75 90.0156 160C90.0156 157.25 90.9844 154.906 92.9219 152.969Z" fill="#493272"/>
<path d="M140 151.984L149.984 168.016H130.016L140 151.984ZM140 155.781L133.625 166H146.375L140 155.781Z" fill="#493272"/>
<path d="M191.016 157.984L190.969 158.078H191.016V160C191.016 160.25 190.969 160.5 190.875 160.75L187.828 167.781C187.516 168.594 186.906 169 186 169H177C176.469 169 176 168.797 175.594 168.391C175.188 167.984 174.984 167.516 174.984 166.984V157C174.984 156.469 175.188 156 175.594 155.594L182.156 148.984L183.234 150.062C183.516 150.344 183.656 150.688 183.656 151.094V151.422L182.672 156.016H189C189.531 156.016 190 156.219 190.406 156.625C190.812 157 191.016 157.453 191.016 157.984ZM168.984 169V157H173.016V169H168.984Z" fill="#493272"/>
<path d="M6 43.9844L8.01562 46V46.9844H-8.01563V46L-6 43.9844L-6 39.0156C-6 37.4531 -5.60938 36.0938 -4.82812 34.9375C-4.01562 33.7812 -2.90625 33.0312 -1.5 32.6875V31.9844C-1.5 31.5781 -1.35938 31.2344 -1.07812 30.9531C-0.796875 30.6406 -0.4375 30.4844 0 30.4844C0.4375 30.4844 0.796875 30.6406 1.07812 30.9531C1.35938 31.2344 1.5 31.5781 1.5 31.9844V32.6875C2.90625 33.0312 4 33.7812 4.78125 34.9375C5.59375 36.0938 6 37.4531 6 39.0156L6 43.9844ZM0 49.9844C-0.5625 49.9844 -1.04688 49.7969 -1.45313 49.4219C-1.82813 49.0156 -2.01563 48.5469 -2.01563 48.0156H2.01562C2.01562 48.5469 1.8125 49.0156 1.40625 49.4219C1 49.7969 0.53125 49.9844 0 49.9844Z" fill="#493272"/>
<path d="M206.984 111H211.016V123H206.984V111ZM203 111C203.531 111 204 111.203 204.406 111.609C204.812 112.016 205.016 112.484 205.016 113.016V123C205.016 123.531 204.812 124 204.406 124.406L197.844 131.016L196.766 129.938C196.484 129.656 196.344 129.312 196.344 128.906V128.578L197.328 123.984H191C190.469 123.984 190 123.797 189.594 123.422C189.188 123.016 188.984 122.547 188.984 122.016L189.031 121.922H188.984V120C188.984 119.75 189.031 119.5 189.125 119.25L192.172 112.219C192.484 111.406 193.094 111 194 111H203Z" fill="#493272"/>
</g>
</g>
<defs>
<clipPath id="clip0">
<rect width="200" height="160" fill="white" fill-opacity="1.5"/>
</clipPath>
<clipPath id="clip1">
<rect width="200" height="160" fill="white"/>
</clipPath>
</defs>
</svg>
