<?xml version="1.0" encoding="UTF-8" standalone="no"?>
<svg width="56px" height="57px" viewBox="0 0 56 57" version="1.1" xmlns="http://www.w3.org/2000/svg" xmlns:xlink="http://www.w3.org/1999/xlink" xmlns:sketch="http://www.bohemiancoding.com/sketch/ns">
    <!-- Generator: Sketch 3.4.4 (17249) - http://www.bohemiancoding.com/sketch -->
    <title>Shape</title>
    <desc>Created with Sketch.</desc>
    <defs></defs>
    <g id="Welcome" stroke="none" stroke-width="1" fill="none" fill-rule="evenodd" sketch:type="MSPage">
        <g id="Desktop-HD" sketch:type="MSArtboardGroup" transform="translate(-1116.000000, -725.000000)" fill="#098D8F">
            <g id="Rectangle-28-+-729-top-list@2x-+-Check-the-status-of--+-Oval-1-+-2-+-Rectangle-28-+-1238-group-checked@2x-+-Check-in-with-your-t-+-Oval-1-+-1-+-Rectangle-28-+-704-compose@2x-+-Set-an-agenda-for-ne-+-Oval-1-+-3" sketch:type="MSLayerGroup" transform="translate(116.000000, 638.000000)">
                <g id="Rectangle-28-+-704-compose@2x-+-Set-an-agenda-for-ne-+-Oval-1-+-3" transform="translate(848.000000, 0.000000)" sketch:type="MSShapeGroup">
                    <g id="704-compose@2x-+-Set-an-agenda-for-ne" transform="translate(27.000000, 87.000000)">
                        <g id="704-compose@2x" transform="translate(125.000000, 0.000000)">
                            <g id="_x37_04-compose_x40_2x.png">
                                <path d="M45,22.037 C44.447,22.037 44,22.485 44,23.037 L44,54.037 L2,54.037 L2,12.037 L33,12.037 C33.553,12.037 34,11.59 34,11.037 C34,10.485 33.553,10.037 33,10.037 L2,10.037 C0.896,10.037 0,10.933 0,12.037 L0,54.037 C0,55.141 0.896,56.037 2,56.037 L44,56.037 C45.104,56.037 46,55.141 46,54.037 L46,23.037 C46,22.485 45.553,22.037 45,22.037 L45,22.037 Z M55.414,3.451 L52.558,0.592 C51.769,-0.197 50.491,-0.197 49.702,0.592 L20.423,29.895 L18.994,37.043 L26.135,35.613 L52.558,9.169 L51.13,7.74 L25.184,33.707 L22.565,33.469 L22.328,30.848 L48.273,4.881 L46.844,3.451 L48.273,2.021 L53.985,7.74 L55.414,6.31 C56.203,5.521 56.203,4.241 55.414,3.451 L55.414,3.451 Z" id="Shape"></path>
                            </g>
                        </g>
                    </g>
                </g>
            </g>
        </g>
    </g>
</svg>