<?xml version="1.0" encoding="UTF-8" standalone="no"?>
<svg width="112px" height="112px" viewBox="0 0 112 112" version="1.1" xmlns="http://www.w3.org/2000/svg" xmlns:xlink="http://www.w3.org/1999/xlink" xmlns:sketch="http://www.bohemiancoding.com/sketch/ns">
    <!-- Generator: Sketch 3.4.4 (17249) - http://www.bohemiancoding.com/sketch -->
    <title>Shape</title>
    <desc>Created with Sketch.</desc>
    <defs></defs>
    <g id="Welcome" stroke="none" stroke-width="1" fill="none" fill-rule="evenodd" sketch:type="MSPage">
        <g id="Desktop-HD" sketch:type="MSArtboardGroup" transform="translate(-664.000000, -2941.000000)" fill="#C62575">
            <g id="Group" sketch:type="MSLayerGroup" transform="translate(0.000000, 2781.000000)">
                <g id="1264-github@2x" transform="translate(664.000000, 160.000000)" sketch:type="MSShapeGroup">
                    <g id="_x31_264-github_x40_2x.png">
                        <path d="M56,0 C25.072,0 0,25.072 0,56 C0,86.93 25.072,112 56,112 C86.928,112 112,86.93 112,56 C112,25.072 86.928,0 56,0 L56,0 Z M70.7012827,106 C69.4072578,105.655514 68.897248,104.521913 68.897248,103.500471 C68.897248,101.784048 68.9612493,96.1360745 68.9612493,89.1381951 C68.9612493,84.2553016 67.2972173,81.0607917 65.4311814,79.4445099 C77.0174042,78.1486805 89.1796381,73.7244345 89.1796381,53.6140434 C89.1796381,47.8979736 87.1675994,43.225377 83.8335353,39.5662111 C84.3695456,38.2423421 86.1535799,32.9208294 83.3155253,25.7126532 C83.3155253,25.7126532 78.9574415,24.3046654 69.0272505,31.0782281 C64.8731706,29.918591 60.4230851,29.337771 56.0050001,29.3177427 C51.5829151,29.337771 47.1328295,29.918591 42.9847497,31.0782281 C33.0485586,24.3046654 28.6824747,25.7126532 28.6824747,25.7126532 C25.8524202,32.9208294 27.6384546,38.2423421 28.1724649,39.5662111 C24.8444009,43.225377 22.8183619,47.8979736 22.8183619,53.6140434 C22.8183619,73.6743638 34.9605954,78.1647031 46.5088175,79.4865693 C45.0227889,80.7944156 43.6787631,83.101673 43.206754,86.4844486 C40.242697,87.8243402 32.7085521,90.1336004 28.0704629,82.1343073 C28.0704629,82.1343073 25.32241,77.109213 20.1043097,76.7406927 C20.1043097,76.7406927 15.024212,76.6745994 19.7463028,79.9231857 C19.7463028,79.9231857 23.1563684,81.533459 25.5204139,87.5799953 C25.5204139,87.5799953 28.5724725,97.7603676 43.0407508,94.5959001 C43.0667513,98.9660697 43.1107521,102.256715 43.1107521,103.500471 C43.1107521,104.517908 42.5907421,105.651508 41.2907171,105.995994 C19.7503029,99.6410226 4.01200023,79.7229029 4,56.0955467 C4.14000269,27.3008954 27.3644493,4 55.9969999,4 C84.6415508,4 107.867997,27.3089067 108,56.1095664 C107.982,79.7349199 92.243697,99.6490339 70.7012827,106 L70.7012827,106 Z" id="Shape"></path>
                    </g>
                </g>
            </g>
        </g>
    </g>
</svg>