<?xml version="1.0" encoding="UTF-8" standalone="no"?>
<svg width="112px" height="44px" viewBox="0 0 112 44" version="1.1" xmlns="http://www.w3.org/2000/svg" xmlns:xlink="http://www.w3.org/1999/xlink" xmlns:sketch="http://www.bohemiancoding.com/sketch/ns">
    <!-- Generator: Sketch 3.4.4 (17249) - http://www.bohemiancoding.com/sketch -->
    <title>Shape</title>
    <desc>Created with Sketch.</desc>
    <defs></defs>
    <g id="Welcome" stroke="none" stroke-width="1" fill="none" fill-rule="evenodd" sketch:type="MSPage">
        <g id="Desktop-HD" sketch:type="MSArtboardGroup" transform="translate(-664.000000, -2059.000000)" fill="#C62575">
            <g id="Group" sketch:type="MSLayerGroup" transform="translate(0.000000, 1427.000000)">
                <g transform="translate(360.000000, 530.000000)" id="860-glasses@2x" sketch:type="MSShapeGroup">
                    <g transform="translate(304.000000, 102.000000)">
                        <g id="_x38_60-glasses_x40_2x.png">
                            <path d="M110,20 L103.898,20 C102.886,8.79 93.474,0 82,0 C72.592,0 64.586,5.918 61.442,14.222 C60.192,13.056 58.382,11.954 55.97,11.954 C53.588,11.954 51.792,13.028 50.544,14.178 C47.386,5.896 39.392,0 30,0 C18.526,0 9.114,8.79 8.102,20 L2,20 C0.894,20 0,20.896 0,22 C0,23.106 0.894,24 2,24 L8.102,24 C9.114,35.21 18.526,44 30,44 C42.15,44 52,34.15 52,22 C52,20.93 51.898,19.884 51.75,18.856 C51.786,18.802 51.838,18.766 51.868,18.708 C51.882,18.68 53.358,15.866 55.97,15.866 C58.582,15.866 60.056,18.68 60.066,18.696 C60.112,18.79 60.18,18.864 60.238,18.948 C60.098,19.948 60,20.96 60,22 C60,34.15 69.85,44 82,44 C93.474,44 102.886,35.21 103.898,24 L110,24 C111.106,24 112,23.106 112,22 C112,20.896 111.106,20 110,20 L110,20 Z M30,40 C20.058,40 12,31.942 12,22 C12,12.058 20.058,4 30,4 C39.942,4 48,12.058 48,22 C48,31.942 39.942,40 30,40 L30,40 Z M82,40 C72.058,40 64,31.942 64,22 C64,12.058 72.058,4 82,4 C91.942,4 100,12.058 100,22 C100,31.942 91.942,40 82,40 L82,40 Z" id="Shape"></path>
                        </g>
                    </g>
                </g>
            </g>
        </g>
    </g>
</svg>