<svg width="48" height="48" viewBox="0 0 48 48" fill="none" xmlns="http://www.w3.org/2000/svg">
<path d="M15.8726 22.4735C15.7537 22.3178 15.5967 22.1955 15.4167 22.1184C15.2367 22.0412 15.0398 22.0118 14.8451 22.0329C14.6504 22.0541 14.4645 22.1251 14.3052 22.2391C14.146 22.3532 14.0189 22.5063 13.9362 22.6838L4.12379 42.3025C4.0344 42.4813 3.9922 42.6799 4.00119 42.8796C4.01017 43.0793 4.07005 43.2734 4.17514 43.4434C4.28023 43.6135 4.42704 43.7539 4.60163 43.8512C4.77621 43.9486 4.97279 43.9997 5.17269 43.9997H18.8359C19.0547 44.0048 19.2703 43.9462 19.4565 43.8311C19.6427 43.716 19.7915 43.5494 19.8848 43.3513C22.8321 37.261 21.0459 28.0007 15.8726 22.4735Z" fill="url(#paint0_linear)"/>
<path d="M23.0697 4.62937C20.6247 8.39138 19.1999 12.7245 18.935 17.2033C18.6702 21.6822 19.5744 26.153 21.5589 30.177L28.1461 43.3513C28.2435 43.5461 28.3932 43.71 28.5784 43.8245C28.7637 43.939 28.9772 43.9997 29.195 43.9997H42.8557C43.0556 43.9997 43.2522 43.9486 43.4268 43.8512C43.6014 43.7539 43.7482 43.6135 43.8533 43.4434C43.9584 43.2734 44.0183 43.0793 44.0272 42.8796C44.0362 42.6799 43.994 42.4812 43.9046 42.3024C43.9046 42.3024 25.5263 5.54148 25.0644 4.62201C24.9731 4.43485 24.8309 4.27722 24.6541 4.1672C24.4772 4.05719 24.273 3.99924 24.0647 4.00001C23.8565 4.00078 23.6527 4.06023 23.4767 4.17155C23.3007 4.28286 23.1596 4.44154 23.0697 4.62937V4.62937Z" fill="#2684FF"/>
<defs>
<linearGradient id="paint0_linear" x1="21.2502" y1="25.5011" x2="10.895" y2="43.4372" gradientUnits="userSpaceOnUse">
<stop stop-color="#0052CC"/>
<stop offset="0.923" stop-color="#2684FF"/>
</linearGradient>
</defs>
</svg>
