<svg xmlns="http://www.w3.org/2000/svg" width="18" height="18" viewBox="0 0 18 18" fill="none">
<g clip-path="url(#clip0_1394_19877)">
<path d="M9 10.6875C9.44755 10.6875 9.87678 10.5097 10.1932 10.1932C10.5097 9.87678 10.6875 9.44755 10.6875 9C10.6875 8.55245 10.5097 8.12322 10.1932 7.80676C9.87678 7.49029 9.44755 7.3125 9 7.3125C8.55245 7.3125 8.12322 7.49029 7.80676 7.80676C7.49029 8.12322 7.3125 8.55245 7.3125 9C7.3125 9.44755 7.49029 9.87678 7.80676 10.1932C8.12322 10.5097 8.55245 10.6875 9 10.6875Z" fill="#66BC8C"/>
<path d="M9 0C11.3869 0 13.6761 0.948212 15.364 2.63604C17.0518 4.32387 18 6.61305 18 9C18 11.3869 17.0518 13.6761 15.364 15.364C13.6761 17.0518 11.3869 18 9 18C6.61305 18 4.32387 17.0518 2.63604 15.364C0.948212 13.6761 0 11.3869 0 9C0 6.61305 0.948212 4.32387 2.63604 2.63604C4.32387 0.948212 6.61305 0 9 0ZM1.6875 9C1.6875 10.9394 2.45792 12.7994 3.82928 14.1707C5.20064 15.5421 7.0606 16.3125 9 16.3125C10.9394 16.3125 12.7994 15.5421 14.1707 14.1707C15.5421 12.7994 16.3125 10.9394 16.3125 9C16.3125 7.0606 15.5421 5.20064 14.1707 3.82928C12.7994 2.45792 10.9394 1.6875 9 1.6875C7.0606 1.6875 5.20064 2.45792 3.82928 3.82928C2.45792 5.20064 1.6875 7.0606 1.6875 9Z" fill="#66BC8C"/>
</g>
<defs>
<clipPath id="clip0_1394_19877">
<rect width="18" height="18" fill="white"/>
</clipPath>
</defs>
</svg>
