<svg width="48" height="48" viewBox="0 0 48 48" fill="none" xmlns="http://www.w3.org/2000/svg">
<path d="M24 4C21.3736 4 18.7728 4.51732 16.3463 5.52241C13.9198 6.5275 11.715 8.00069 9.85786 9.85786C6.10714 13.6086 4 18.6957 4 24C4 32.84 9.74 40.34 17.68 43C18.68 43.16 19 42.54 19 42C19 41.54 19 40.28 19 38.62C13.46 39.82 12.28 35.94 12.28 35.94C11.36 33.62 10.06 33 10.06 33C8.24 31.76 10.2 31.8 10.2 31.8C12.2 31.94 13.26 33.86 13.26 33.86C15 36.9 17.94 36 19.08 35.52C19.26 34.22 19.78 33.34 20.34 32.84C15.9 32.34 11.24 30.62 11.24 23C11.24 20.78 12 19 13.3 17.58C13.1 17.08 12.4 15 13.5 12.3C13.5 12.3 15.18 11.76 19 14.34C20.58 13.9 22.3 13.68 24 13.68C25.7 13.68 27.42 13.9 29 14.34C32.82 11.76 34.5 12.3 34.5 12.3C35.6 15 34.9 17.08 34.7 17.58C36 19 36.76 20.78 36.76 23C36.76 30.64 32.08 32.32 27.62 32.82C28.34 33.44 29 34.66 29 36.52C29 39.2 29 41.36 29 42C29 42.54 29.32 43.18 30.34 43C38.28 40.32 44 32.84 44 24C44 21.3736 43.4827 18.7728 42.4776 16.3463C41.4725 13.9198 39.9993 11.715 38.1421 9.85786C36.285 8.00069 34.0802 6.5275 31.6537 5.52241C29.2272 4.51732 26.6264 4 24 4V4Z" fill="#24292E"/>
</svg>
