<svg xmlns="http://www.w3.org/2000/svg" width="15" height="16" viewBox="0 0 15 16" fill="none">
<path d="M4.13126 4.79821C4.52876 5.59147 5.13916 6.25848 5.89416 6.72459C6.64916 7.1907 7.51897 7.43753 8.40626 7.43746H9.95651C10.1556 6.87418 10.5473 6.39941 11.0626 6.09707C11.5778 5.79473 12.1834 5.68429 12.7722 5.78527C13.361 5.88625 13.8952 6.19214 14.2803 6.64888C14.6654 7.10562 14.8766 7.6838 14.8766 8.28121C14.8766 8.87862 14.6654 9.45679 14.2803 9.91354C13.8952 10.3703 13.361 10.6762 12.7722 10.7771C12.1834 10.8781 11.5778 10.7677 11.0626 10.4653C10.5473 10.163 10.1556 9.68823 9.95651 9.12496H8.40626C7.50608 9.12607 6.61563 8.93877 5.79218 8.57509C4.96873 8.21142 4.23052 7.67943 3.62501 7.01333V10.9565C4.18797 11.1555 4.66244 11.5471 4.96457 12.0622C5.2667 12.5772 5.37702 13.1825 5.27605 13.771C5.17508 14.3595 4.86931 14.8934 4.41278 15.2782C3.95625 15.6631 3.37837 15.8742 2.78126 15.8742C2.18414 15.8742 1.60626 15.6631 1.14973 15.2782C0.693203 14.8934 0.387432 14.3595 0.286459 13.771C0.185486 13.1825 0.295814 12.5772 0.597941 12.0622C0.900069 11.5471 1.37454 11.1555 1.93751 10.9565V5.04346C1.39736 4.85248 0.937973 4.4839 0.634452 3.99799C0.330932 3.51208 0.20123 2.93758 0.266549 2.36839C0.331868 1.79921 0.588345 1.26902 0.994052 0.864504C1.39976 0.459984 1.93069 0.20506 2.50006 0.141407C3.06944 0.0777548 3.64356 0.209138 4.12858 0.51408C4.6136 0.819022 4.98083 1.27948 5.17023 1.82019C5.35962 2.36089 5.35999 2.94986 5.17127 3.4908C4.98255 4.03174 4.61589 4.49266 4.13126 4.79821ZM2.78126 14.1875C3.00503 14.1875 3.21964 14.0986 3.37788 13.9403C3.53611 13.7821 3.62501 13.5675 3.62501 13.3437C3.62501 13.1199 3.53611 12.9053 3.37788 12.7471C3.21964 12.5889 3.00503 12.5 2.78126 12.5C2.55748 12.5 2.34287 12.5889 2.18463 12.7471C2.0264 12.9053 1.93751 13.1199 1.93751 13.3437C1.93751 13.5675 2.0264 13.7821 2.18463 13.9403C2.34287 14.0986 2.55748 14.1875 2.78126 14.1875ZM12.3438 9.12496C12.5675 9.12496 12.7821 9.03606 12.9404 8.87783C13.0986 8.71959 13.1875 8.50498 13.1875 8.28121C13.1875 8.05743 13.0986 7.84282 12.9404 7.68459C12.7821 7.52635 12.5675 7.43746 12.3438 7.43746C12.12 7.43746 11.9054 7.52635 11.7471 7.68459C11.5889 7.84282 11.5 8.05743 11.5 8.28121C11.5 8.50498 11.5889 8.71959 11.7471 8.87783C11.9054 9.03606 12.12 9.12496 12.3438 9.12496ZM3.62501 2.65621C3.62426 2.43268 3.53484 2.21858 3.37639 2.06091C3.21793 1.90324 3.00339 1.8149 2.77985 1.81527C2.55632 1.81564 2.34207 1.9047 2.18414 2.0629C2.02621 2.22109 1.93751 2.43549 1.93751 2.65902C1.93751 2.88255 2.02621 3.09695 2.18414 3.25514C2.34207 3.41334 2.55632 3.5024 2.77985 3.50277C3.00339 3.50314 3.21793 3.4148 3.37639 3.25713C3.53484 3.09947 3.62426 2.88536 3.62501 2.66183V2.65621Z" fill="#A06BD6"/>
</svg>
