<svg xmlns="http://www.w3.org/2000/svg" width="18" height="18" viewBox="0 0 18 18" fill="none">
<path d="M3.65738 1.12504C4.25488 1.12453 4.83329 1.3354 5.29027 1.72032C5.74725 2.10525 6.05333 2.63942 6.15436 3.22832C6.25538 3.81721 6.14483 4.42286 5.84226 4.93808C5.5397 5.4533 5.06463 5.84489 4.50113 6.04354V11.9565C5.06441 12.1556 5.53917 12.5474 5.84151 13.0626C6.14385 13.5779 6.2543 14.1834 6.15332 14.7723C6.05234 15.3611 5.74645 15.8952 5.28971 16.2803C4.83297 16.6654 4.25479 16.8766 3.65738 16.8766C3.05997 16.8766 2.48179 16.6654 2.02505 16.2803C1.56831 15.8952 1.26242 15.3611 1.16144 14.7723C1.06046 14.1834 1.17091 13.5779 1.47325 13.0626C1.77559 12.5474 2.25035 12.1556 2.81363 11.9565V6.04354C2.25145 5.84372 1.77788 5.45182 1.47641 4.93695C1.17495 4.42208 1.06496 3.8173 1.16584 3.22925C1.26671 2.6412 1.57198 2.10766 2.02781 1.72269C2.48363 1.33773 3.06075 1.12607 3.65738 1.12504ZM14.3449 7.31254C14.5687 7.31254 14.7833 7.40144 14.9415 7.55967C15.0997 7.71791 15.1886 7.93252 15.1886 8.15629V11.9565C15.7519 12.1556 16.2267 12.5474 16.529 13.0626C16.8314 13.5779 16.9418 14.1834 16.8408 14.7723C16.7398 15.3611 16.4339 15.8952 15.9772 16.2803C15.5205 16.6654 14.9423 16.8766 14.3449 16.8766C13.7475 16.8766 13.1693 16.6654 12.7126 16.2803C12.2558 15.8952 11.9499 15.3611 11.8489 14.7723C11.748 14.1834 11.8584 13.5779 12.1607 13.0626C12.4631 12.5474 12.9379 12.1556 13.5011 11.9565V8.15629C13.5011 7.93252 13.59 7.71791 13.7483 7.55967C13.9065 7.40144 14.1211 7.31254 14.3449 7.31254ZM12.0611 1.38042C12.2193 1.22241 12.4338 1.13366 12.6574 1.13366C12.881 1.13366 13.0954 1.22241 13.2536 1.38042L14.3449 2.47167L15.4361 1.38042C15.5399 1.272 15.6708 1.19332 15.8153 1.15253C15.9597 1.11173 16.1124 1.11031 16.2576 1.14841C16.4028 1.18652 16.5351 1.26275 16.6409 1.36922C16.7467 1.47568 16.8221 1.60851 16.8593 1.75392C16.897 1.89879 16.8956 2.0511 16.8551 2.19523C16.8145 2.33935 16.7364 2.47009 16.6286 2.57404L15.5374 3.66529L16.6286 4.75654C16.7776 4.91659 16.8587 5.12815 16.8549 5.34675C16.8512 5.56536 16.7628 5.77399 16.6084 5.92879C16.4536 6.08319 16.2449 6.17157 16.0263 6.17534C15.8077 6.17912 15.5962 6.098 15.4361 5.94904L14.3449 4.85779L13.2536 5.94904C13.1505 6.06011 13.0193 6.1413 12.8739 6.18407C12.7285 6.22683 12.5743 6.22959 12.4274 6.19204C12.2806 6.1545 12.1466 6.07804 12.0396 5.97073C11.9325 5.86342 11.8564 5.72923 11.8193 5.58229C11.7817 5.43562 11.7843 5.28153 11.8268 5.13622C11.8694 4.99091 11.9503 4.85975 12.0611 4.75654L13.1524 3.66529L12.0611 2.57404C11.9031 2.41584 11.8144 2.20139 11.8144 1.97779C11.8144 1.7542 11.9031 1.53975 12.0611 1.38154V1.38042ZM2.81363 3.65629C2.81363 3.88007 2.90252 4.09468 3.06076 4.25291C3.21899 4.41115 3.4336 4.50004 3.65738 4.50004C3.88116 4.50004 4.09577 4.41115 4.254 4.25291C4.41224 4.09468 4.50113 3.88007 4.50113 3.65629C4.50113 3.43252 4.41224 3.21791 4.254 3.05967C4.09577 2.90144 3.88116 2.81254 3.65738 2.81254C3.4336 2.81254 3.21899 2.90144 3.06076 3.05967C2.90252 3.21791 2.81363 3.43252 2.81363 3.65629ZM3.65738 13.5C3.4336 13.5 3.21899 13.5889 3.06076 13.7472C2.90252 13.9054 2.81363 14.12 2.81363 14.3438C2.81363 14.5676 2.90252 14.7822 3.06076 14.9404C3.21899 15.0986 3.4336 15.1875 3.65738 15.1875C3.88116 15.1875 4.09577 15.0986 4.254 14.9404C4.41224 14.7822 4.50113 14.5676 4.50113 14.3438C4.50113 14.12 4.41224 13.9054 4.254 13.7472C4.09577 13.5889 3.88116 13.5 3.65738 13.5ZM14.3449 13.5C14.1211 13.5 13.9065 13.5889 13.7483 13.7472C13.59 13.9054 13.5011 14.12 13.5011 14.3438C13.5011 14.5676 13.59 14.7822 13.7483 14.9404C13.9065 15.0986 14.1211 15.1875 14.3449 15.1875C14.5687 15.1875 14.7833 15.0986 14.9415 14.9404C15.0997 14.7822 15.1886 14.5676 15.1886 14.3438C15.1886 14.12 15.0997 13.9054 14.9415 13.7472C14.7833 13.5889 14.5687 13.5 14.3449 13.5Z" fill="#FD6157"/>
</svg>
