<svg xmlns="http://www.w3.org/2000/svg" width="18" height="18" viewBox="0 0 18 18" fill="none">
<path d="M1.68863 3.65621C1.68877 3.19218 1.81646 2.73712 2.05775 2.34076C2.29904 1.9444 2.64463 1.62199 3.05677 1.40877C3.46891 1.19555 3.93173 1.09973 4.39465 1.13176C4.85757 1.1638 5.30277 1.32247 5.68161 1.59044C6.06045 1.8584 6.35833 2.22534 6.54272 2.65116C6.7271 3.07699 6.79089 3.5453 6.7271 4.00492C6.66332 4.46454 6.47442 4.89779 6.18104 5.25731C5.88767 5.61682 5.50112 5.88878 5.06363 6.04346V11.9565C5.62691 12.1555 6.10167 12.5473 6.40401 13.0625C6.70635 13.5778 6.8168 14.1834 6.71582 14.7722C6.61484 15.361 6.30895 15.8951 5.85221 16.2802C5.39547 16.6653 4.81729 16.8765 4.21988 16.8765C3.62247 16.8765 3.04429 16.6653 2.58755 16.2802C2.13081 15.8951 1.82492 15.361 1.72394 14.7722C1.62296 14.1834 1.73341 13.5778 2.03575 13.0625C2.33809 12.5473 2.81285 12.1555 3.37613 11.9565V6.04346C2.8825 5.86893 2.45513 5.54563 2.1529 5.11808C1.85068 4.69053 1.68847 4.17979 1.68863 3.65621ZM8.07526 3.45708L10.7708 0.761583C10.8101 0.722148 10.8602 0.695281 10.9149 0.684387C10.9695 0.673493 11.0261 0.679064 11.0776 0.700392C11.129 0.721721 11.173 0.757847 11.2039 0.804191C11.2348 0.850535 11.2512 0.905009 11.2511 0.960708V2.81246H12.3761C13.1221 2.81246 13.8374 3.10877 14.3649 3.63622C14.8923 4.16367 15.1886 4.87904 15.1886 5.62496V11.9565C15.7519 12.1555 16.2267 12.5473 16.529 13.0625C16.8314 13.5778 16.9418 14.1834 16.8408 14.7722C16.7398 15.361 16.4339 15.8951 15.9772 16.2802C15.5205 16.6653 14.9423 16.8765 14.3449 16.8765C13.7475 16.8765 13.1693 16.6653 12.7126 16.2802C12.2558 15.8951 11.9499 15.361 11.8489 14.7722C11.748 14.1834 11.8584 13.5778 12.1607 13.0625C12.4631 12.5473 12.9379 12.1555 13.5011 11.9565V5.62496C13.5011 5.32659 13.3826 5.04044 13.1716 4.82946C12.9606 4.61848 12.6745 4.49996 12.3761 4.49996H11.2511V6.35171C11.2512 6.40741 11.2348 6.46188 11.2039 6.50823C11.173 6.55457 11.129 6.5907 11.0776 6.61202C11.0261 6.63335 10.9695 6.63892 10.9149 6.62803C10.8602 6.61714 10.8101 6.59027 10.7708 6.55083L8.07526 3.85533C8.04906 3.82921 8.02828 3.79817 8.0141 3.764C7.99993 3.72983 7.99263 3.6932 7.99263 3.65621C7.99263 3.61921 7.99993 3.58258 8.0141 3.54841C8.02828 3.51425 8.04906 3.48321 8.07526 3.45708ZM4.21988 2.81246C3.9961 2.81246 3.78149 2.90135 3.62326 3.05959C3.46502 3.21782 3.37613 3.43243 3.37613 3.65621C3.37613 3.87998 3.46502 4.0946 3.62326 4.25283C3.78149 4.41106 3.9961 4.49996 4.21988 4.49996C4.44366 4.49996 4.65827 4.41106 4.8165 4.25283C4.97474 4.0946 5.06363 3.87998 5.06363 3.65621C5.06363 3.43243 4.97474 3.21782 4.8165 3.05959C4.65827 2.90135 4.44366 2.81246 4.21988 2.81246ZM4.21988 13.5C3.9961 13.5 3.78149 13.5889 3.62326 13.7471C3.46502 13.9053 3.37613 14.1199 3.37613 14.3437C3.37613 14.5675 3.46502 14.7821 3.62326 14.9403C3.78149 15.0986 3.9961 15.1875 4.21988 15.1875C4.44366 15.1875 4.65827 15.0986 4.8165 14.9403C4.97474 14.7821 5.06363 14.5675 5.06363 14.3437C5.06363 14.1199 4.97474 13.9053 4.8165 13.7471C4.65827 13.5889 4.44366 13.5 4.21988 13.5ZM13.5011 14.3437C13.5011 14.5675 13.59 14.7821 13.7483 14.9403C13.9065 15.0986 14.1211 15.1875 14.3449 15.1875C14.5687 15.1875 14.7833 15.0986 14.9415 14.9403C15.0997 14.7821 15.1886 14.5675 15.1886 14.3437C15.1886 14.1199 15.0997 13.9053 14.9415 13.7471C14.7833 13.5889 14.5687 13.5 14.3449 13.5C14.1211 13.5 13.9065 13.5889 13.7483 13.7471C13.59 13.9053 13.5011 14.1199 13.5011 14.3437Z" fill="#66BC8C"/>
</svg>
