<svg xmlns="http://www.w3.org/2000/svg" width="18" height="18" viewBox="0 0 18 18" fill="none">
<path d="M3.65738 1.125C4.25488 1.12449 4.83329 1.33535 5.29027 1.72028C5.74725 2.10521 6.05333 2.63938 6.15436 3.22828C6.25538 3.81717 6.14483 4.42281 5.84226 4.93804C5.5397 5.45326 5.06463 5.84485 4.50113 6.0435V11.9565C5.06441 12.1556 5.53917 12.5473 5.84151 13.0626C6.14385 13.5778 6.2543 14.1834 6.15332 14.7722C6.05234 15.361 5.74645 15.8952 5.28971 16.2803C4.83297 16.6653 4.25479 16.8766 3.65738 16.8766C3.05997 16.8766 2.48179 16.6653 2.02505 16.2803C1.56831 15.8952 1.26242 15.361 1.16144 14.7722C1.06046 14.1834 1.17091 13.5778 1.47325 13.0626C1.77559 12.5473 2.25035 12.1556 2.81363 11.9565V6.0435C2.25145 5.84368 1.77788 5.45178 1.47641 4.93691C1.17495 4.42203 1.06496 3.81725 1.16584 3.22921C1.26671 2.64116 1.57198 2.10762 2.02781 1.72265C2.48363 1.33769 3.06075 1.12603 3.65738 1.125ZM14.3449 16.875C13.6736 16.875 13.0297 16.6083 12.555 16.1336C12.0803 15.6589 11.8136 15.0151 11.8136 14.3438C11.8136 13.6724 12.0803 13.0286 12.555 12.5539C13.0297 12.0792 13.6736 11.8125 14.3449 11.8125C15.0162 11.8125 15.66 12.0792 16.1347 12.5539C16.6094 13.0286 16.8761 13.6724 16.8761 14.3438C16.8761 15.0151 16.6094 15.6589 16.1347 16.1336C15.66 16.6083 15.0162 16.875 14.3449 16.875ZM2.81363 3.65625C2.81363 3.88003 2.90252 4.09464 3.06076 4.25287C3.21899 4.41111 3.4336 4.5 3.65738 4.5C3.88116 4.5 4.09577 4.41111 4.254 4.25287C4.41224 4.09464 4.50113 3.88003 4.50113 3.65625C4.50113 3.43247 4.41224 3.21786 4.254 3.05963C4.09577 2.9014 3.88116 2.8125 3.65738 2.8125C3.4336 2.8125 3.21899 2.9014 3.06076 3.05963C2.90252 3.21786 2.81363 3.43247 2.81363 3.65625ZM3.65738 13.5C3.4336 13.5 3.21899 13.5889 3.06076 13.7471C2.90252 13.9054 2.81363 14.12 2.81363 14.3438C2.81363 14.5675 2.90252 14.7821 3.06076 14.9404C3.21899 15.0986 3.4336 15.1875 3.65738 15.1875C3.88116 15.1875 4.09577 15.0986 4.254 14.9404C4.41224 14.7821 4.50113 14.5675 4.50113 14.3438C4.50113 14.12 4.41224 13.9054 4.254 13.7471C4.09577 13.5889 3.88116 13.5 3.65738 13.5ZM14.3449 13.5C14.1211 13.5 13.9065 13.5889 13.7483 13.7471C13.59 13.9054 13.5011 14.12 13.5011 14.3438C13.5011 14.5675 13.59 14.7821 13.7483 14.9404C13.9065 15.0986 14.1211 15.1875 14.3449 15.1875C14.5687 15.1875 14.7833 15.0986 14.9415 14.9404C15.0997 14.7821 15.1886 14.5675 15.1886 14.3438C15.1886 14.12 15.0997 13.9054 14.9415 13.7471C14.7833 13.5889 14.5687 13.5 14.3449 13.5ZM15.7511 8.4375C15.7511 8.81046 15.603 9.16815 15.3392 9.43187C15.0755 9.69559 14.7178 9.84375 14.3449 9.84375C13.9719 9.84375 13.6142 9.69559 13.3505 9.43187C13.0868 9.16815 12.9386 8.81046 12.9386 8.4375C12.9386 8.06454 13.0868 7.70686 13.3505 7.44313C13.6142 7.17941 13.9719 7.03125 14.3449 7.03125C14.7178 7.03125 15.0755 7.17941 15.3392 7.44313C15.603 7.70686 15.7511 8.06454 15.7511 8.4375ZM15.7511 3.65625C15.7511 4.02921 15.603 4.3869 15.3392 4.65062C15.0755 4.91434 14.7178 5.0625 14.3449 5.0625C13.9719 5.0625 13.6142 4.91434 13.3505 4.65062C13.0868 4.3869 12.9386 4.02921 12.9386 3.65625C12.9386 3.28329 13.0868 2.92561 13.3505 2.66188C13.6142 2.39816 13.9719 2.25 14.3449 2.25C14.7178 2.25 15.0755 2.39816 15.3392 2.66188C15.603 2.92561 15.7511 3.28329 15.7511 3.65625Z" fill="#A7A3C2"/>
</svg>
