<svg xmlns="http://www.w3.org/2000/svg" width="18" height="19" viewBox="0 0 18 19" fill="none">
<g clip-path="url(#clip0_1391_20268)">
<path d="M12.6885 8.12745C12.8375 7.9675 12.9187 7.75595 12.9148 7.53736C12.911 7.31877 12.8224 7.11021 12.6678 6.95562C12.5132 6.80104 12.3047 6.71248 12.0861 6.70863C11.8675 6.70477 11.6559 6.78591 11.496 6.93495L8.15473 10.2762L6.50098 8.62245C6.34104 8.47341 6.12949 8.39227 5.9109 8.39613C5.69231 8.39998 5.48375 8.48854 5.32916 8.64312C5.17457 8.79771 5.08602 9.00627 5.08216 9.22486C5.07831 9.44345 5.15944 9.655 5.30848 9.81495L7.55848 12.0649C7.71669 12.223 7.93114 12.3117 8.15473 12.3117C8.37833 12.3117 8.59278 12.223 8.75098 12.0649L12.6885 8.12745Z" fill="#A06BD6"/>
<path d="M18 9.5C18 11.8869 17.0518 14.1761 15.364 15.864C13.6761 17.5518 11.3869 18.5 9 18.5C6.61305 18.5 4.32387 17.5518 2.63604 15.864C0.948212 14.1761 0 11.8869 0 9.5C0 7.11305 0.948212 4.82387 2.63604 3.13604C4.32387 1.44821 6.61305 0.5 9 0.5C11.3869 0.5 13.6761 1.44821 15.364 3.13604C17.0518 4.82387 18 7.11305 18 9.5ZM16.3125 9.5C16.3125 7.5606 15.5421 5.70064 14.1707 4.32928C12.7994 2.95792 10.9394 2.1875 9 2.1875C7.0606 2.1875 5.20064 2.95792 3.82928 4.32928C2.45792 5.70064 1.6875 7.5606 1.6875 9.5C1.6875 11.4394 2.45792 13.2994 3.82928 14.6707C5.20064 16.0421 7.0606 16.8125 9 16.8125C10.9394 16.8125 12.7994 16.0421 14.1707 14.6707C15.5421 13.2994 16.3125 11.4394 16.3125 9.5Z" fill="#A06BD6"/>
</g>
<defs>
<clipPath id="clip0_1391_20268">
<rect width="18" height="19" fill="white"/>
</clipPath>
</defs>
</svg>
