<svg
      version='1.1'
      width='24'
      height='24'
      viewBox='0 0 24 24'
      xmlns='http://www.w3.org/2000/svg'
    >
      <path
        d="M21.792 9.79l-.028-.073-2.74-7.26a.722.722 0 0 0-.282-.344.725.725 0 0 0-.838.046.746.746 0 0 0-.243.374L15.81 8.28h-7.49l-1.85-5.746a.73.73 0 0 0-.243-.375.727.727 0 0 0-.838-.046.729.729 0 0 0-.282.345L2.363 9.713l-.027.073a5.24 5.24 0 0 0-.139 3.27 5.167 5.167 0 0 0 1.826 2.7l.01.007.025.018 4.173 3.173 2.065 1.586 1.257.965a.837.837 0 0 0 1.023 0l1.258-.965 2.064-1.586 4.198-3.192.01-.009a5.168 5.168 0 0 0 1.823-2.696 5.242 5.242 0 0 0-.137-3.267z"
        fill="#E24329"
      />
      <path
        d="M21.795 9.79l-.028-.073a9.187 9.187 0 0 0-3.684 1.681l-6.017 4.62 3.833 2.94 4.198-3.191.01-.01a5.17 5.17 0 0 0 1.825-2.697 5.242 5.242 0 0 0-.137-3.27z"
        fill="#FC6D26"
      />
      <path
        d="M8.23 18.958l2.065 1.587 1.258.964a.838.838 0 0 0 1.023 0l1.258-.964 2.065-1.587s-1.786-1.371-3.835-2.94c-2.05 1.569-3.834 2.94-3.834 2.94z"
        fill="#FCA326"
      />
      <path
        d="M6.046 11.398a9.176 9.176 0 0 0-3.683-1.686l-.027.074a5.24 5.24 0 0 0-.139 3.27 5.167 5.167 0 0 0 1.826 2.7l.01.007.025.018 4.173 3.173 3.833-2.941-6.018-4.615z"
        fill="#FC6D26"
      />
</svg>
