<?xml version="1.0" encoding="UTF-8" standalone="no"?>
<svg width="32px" height="29px" viewBox="0 0 32 29" version="1.1" xmlns="http://www.w3.org/2000/svg" xmlns:xlink="http://www.w3.org/1999/xlink">
    <!-- Generator: Sketch 3.8.3 (29802) - http://www.bohemiancoding.com/sketch -->
    <title>duck</title>
    <desc>Created with Sketch.</desc>
    <defs></defs>
    <g id="Action:-Onboarding" stroke="none" stroke-width="1" fill="none" fill-rule="evenodd">
        <g id="onboarding-ducks" transform="translate(-575.000000, -119.000000)" fill="#FD6157">
            <g id="Loading-message" transform="translate(480.000000, 119.000000)">
                <g id="Group" transform="translate(95.000000, 0.000000)">
                    <path d="M31.7256911,5.92081928 C31.3982482,5.42416127 30.8290528,5.19646705 30.2052836,5.30651926 C29.0233295,5.5185595 28.2971147,5.36107099 27.4799435,4.97778573 C27.2544675,4.24774115 26.8997376,3.53429927 26.3985202,2.87256295 C24.8934316,0.884033451 22.469205,-0.183283192 19.9085438,0.0259108698 C16.0151324,0.339939144 13.7292553,3.22975825 13.5554807,5.78942074 C13.3706957,8.49376393 14.7991894,10.0316486 15.7441782,11.0496315 C16.0644404,11.3949677 16.395713,11.7512143 16.4708717,11.965152 C16.6910819,12.5922598 16.448372,12.8792494 16.226247,12.9992633 C16.1673647,13.0272507 16.1118334,13.0609304 16.0591745,13.0998282 C13.3850572,15.1059091 6.94008031,13.5746655 2.80012933,9.94816074 C2.58231276,9.75746684 2.29077366,9.67540205 2.0030643,9.72378707 C1.71679109,9.77264645 1.4688153,9.94768638 1.32807229,10.1990987 C1.23807335,10.3613309 -0.873550583,14.2098375 0.416114999,17.9748563 C0.656910021,18.6773878 1.00781012,19.3215727 1.44631557,19.9173726 C1.21174388,22.1411861 1.7871626,24.131613 3.14336994,25.6884722 C5.27318515,28.1328645 8.7778777,29 11.1322115,29 C12.2954956,29 13.3831423,28.8899478 14.3846198,28.6783819 C14.9471132,28.866704 15.8853999,29 17.4752215,29 C20.33556,29 22.7176595,27.8828752 23.8886031,26.9256108 C28.0266392,23.5429286 27.2209572,17.3671973 24.8216239,14.4280445 C24.3888631,13.8972323 24.2203545,13.5196394 24.260088,13.1657647 C24.3199277,12.6325807 24.8761977,12.0937044 25.331937,11.7360347 C25.8216653,11.3513264 26.2352774,10.9149124 26.5789967,10.4433957 C26.8341533,10.4704344 27.0845227,10.4865627 27.3277113,10.4865627 C29.1229028,10.4865627 30.5887365,9.75651811 31.5375551,8.36189103 C32.0751551,7.57207672 32.1522286,6.56832471 31.7256911,5.92081928 L31.7256911,5.92081928 Z M24.1437596,10.2479581 C23.0647298,11.094696 22.4634604,12.0059472 22.357185,12.9560962 C22.2274525,14.1140162 22.8521792,15.0314341 23.3332905,15.6210673 C25.1892791,17.8951633 25.8542181,22.8588972 22.6702664,25.4612524 C22.0019765,26.0072441 20.3786446,26.8900336 18.2387763,27.0679197 C19.2426474,26.3559009 20.0263084,25.460778 20.5423661,24.3991537 C21.1517738,23.1444637 21.6108641,20.1967723 18.9884483,18.0147027 C18.5834531,17.6783794 17.9802688,17.730085 17.6394217,18.131396 C17.2995321,18.5331815 17.3521911,19.1308788 17.7571863,19.4681508 C19.479134,20.9002526 19.2033926,22.7806273 18.8175461,23.5756596 C17.7447396,25.7833448 14.8719545,27.1020738 11.1322115,27.1020738 C9.02824708,27.1020738 6.19088706,26.2814259 4.59340597,24.4475387 C3.92176498,23.6766989 3.51102517,22.7777812 3.36262267,21.7626444 C3.97203035,22.1919429 4.65276697,22.5794974 5.42445996,22.9125002 C5.90987974,23.1207456 6.4728518,22.9020642 6.68492376,22.4215346 C6.89555956,21.9410049 6.67439197,21.3822053 6.1894509,21.1725369 C4.12665618,20.2821577 2.79534215,19.0046982 2.23332753,17.3747871 C1.56934603,15.4488735 2.08731862,13.394882 2.53635585,12.1852564 C7.36518166,15.8316844 13.9102106,17.0033609 17.1472999,14.6633285 C17.8668127,14.2729278 18.9161619,13.1520081 18.2804248,11.3418391 C18.0750549,10.7564752 17.6279325,10.2749968 17.1540019,9.76505664 C16.3028418,8.84763869 15.3377468,7.80878383 15.4665219,5.91749874 C15.5871588,4.14812493 17.2396924,2.14489018 20.0646058,1.9167216 C22.8799448,1.6861812 24.4520538,3.4621961 24.8675808,4.01103403 C26.615858,6.32118161 25.7996443,8.94915237 24.1437596,10.2479581 L24.1437596,10.2479581 Z M29.9477335,7.30501037 C29.4024739,8.10526067 28.5695051,8.53455915 27.5053156,8.58009799 C27.6494096,8.09909396 27.7336639,7.60338467 27.7556849,7.10150867 C28.4081772,7.27986914 29.1181156,7.35197231 29.9778927,7.25615099 C29.968797,7.27275369 29.9582652,7.28888203 29.9477335,7.30501037 L29.9477335,7.30501037 Z M22.735372,4.52002548 C22.0742628,4.52002548 21.5390564,5.05083762 21.5390564,5.70593286 C21.5390564,6.36055374 22.0742628,6.89136588 22.735372,6.89136588 C23.3969599,6.89136588 23.9321664,6.36055374 23.9321664,5.70593286 C23.9321664,5.05083762 23.3969599,4.52002548 22.735372,4.52002548 L22.735372,4.52002548 Z" id="duck"></path>
                </g>
            </g>
        </g>
    </g>
</svg>
