<?xml version="1.0" encoding="utf-8"?>
<!-- Generator: Adobe Illustrator 25.4.1, SVG Export Plug-In . SVG Version: 6.00 Build 0)  -->
<svg version="1.0" id="Layer_3" xmlns="http://www.w3.org/2000/svg" xmlns:xlink="http://www.w3.org/1999/xlink" x="0px" y="0px"
	 viewBox="0 0 507.7 507.7" enable-background="new 0 0 507.7 507.7" xml:space="preserve">
<g id="Layer_1">
	<g>
		<g>
			<g>
				<defs>
					<circle id="SVGID_1_" cx="253.9" cy="253.9" r="242"/>
				</defs>
				<clipPath id="SVGID_00000018956888957657416080000018155415606706623384_">
					<use xlink:href="#SVGID_1_"  overflow="visible"/>
				</clipPath>
				<g clip-path="url(#SVGID_00000018956888957657416080000018155415606706623384_)">
					<path fill="#E5E5E4" d="M0,0h507.7v507.7H0V0z"/>
				</g>
			</g>
		</g>
	</g>
	<g>
		<g>
			<g>
				<defs>
					<circle id="SVGID_00000078041990826391215460000016297926594104408736_" cx="253.9" cy="253.9" r="237.2"/>
				</defs>
				<clipPath id="SVGID_00000043436540137258392690000015240225435972352393_">
					<use xlink:href="#SVGID_00000078041990826391215460000016297926594104408736_"  overflow="visible"/>
				</clipPath>
				<g clip-path="url(#SVGID_00000043436540137258392690000015240225435972352393_)">
					<path fill="#FFFFFF" d="M4.8,4.8H503V503H4.8V4.8z"/>
				</g>
			</g>
		</g>
	</g>
	<g>
		<g>
			<g>
				<defs>
					<circle id="SVGID_00000097501946011734884650000010310378433229471632_" cx="253.9" cy="253.9" r="218.2"/>
				</defs>
				<clipPath id="SVGID_00000080169194689786422170000013270035154859503488_">
					<use xlink:href="#SVGID_00000097501946011734884650000010310378433229471632_"  overflow="visible"/>
				</clipPath>
				<g clip-path="url(#SVGID_00000080169194689786422170000013270035154859503488_)">
					<path fill="#4A8CFF" d="M23.8,23.8H484V484H23.8V23.8z"/>
				</g>
			</g>
		</g>
	</g>
	<g>
		<g>
			<g>
				<defs>
					<path id="SVGID_00000039846321149549955530000007056577065917780876_" d="M320.3,225.6l61.7-45.1c5.4-4.4,9.5-3.4,9.5,4.7
						v137.5c0,9.1-5.1,8.1-9.5,4.7l-61.7-45.1V225.6z M111.5,185.6V288c0.1,23.2,19,41.9,42.2,41.8h149.5c4.2,0,7.6-3.4,7.7-7.6
						V219.7c-0.1-23.2-19-41.9-42.2-41.8H119.2C115,178,111.6,181.3,111.5,185.6z"/>
				</defs>
				<clipPath id="SVGID_00000137843013118262217070000007801489530190837900_">
					<use xlink:href="#SVGID_00000039846321149549955530000007056577065917780876_"  overflow="visible"/>
				</clipPath>
				<g clip-path="url(#SVGID_00000137843013118262217070000007801489530190837900_)">
					<path fill="#FFFFFF" d="M99.7,166.1h303.7v175.5H99.7V166.1z"/>
				</g>
			</g>
		</g>
	</g>
</g>
<g id="Layer_2">
</g>
</svg>
