<svg width="188" height="188" viewBox="0 0 188 188" fill="none" xmlns="http://www.w3.org/2000/svg">
<path d="M152.337 142.369C137.171 157.535 121.656 166.168 105.22 168.638C91.5208 170.695 80.6272 165.438 76.0945 154.595C72.7743 146.654 74.2598 138.185 77.2371 130.345C73.7101 130.206 70.2085 129.685 66.7942 128.79C57.8749 126.384 50.422 121.305 45.8702 114.417C35.9351 99.5049 38.576 76.5495 46.5431 59.6313C41.0574 58.1973 35.7167 56.257 30.5898 53.8353L33.6815 47.3537C38.9404 49.808 44.4314 51.7305 50.0728 53.0925C55.9679 43.5765 63.7632 35.3793 72.971 29.0135C83.1283 21.9034 91.362 19.1166 98.1293 20.3989C100.286 20.7551 102.31 21.6773 103.994 23.0714C105.678 24.4655 106.962 26.2817 107.715 28.3343C110.248 34.9302 108.014 43.0686 104.484 47.7029C96.9739 57.5872 84.5059 62.7547 68.4637 62.6467C63.5432 62.5727 58.6386 62.0692 53.8056 61.1422C46.1749 76.2638 43.1786 97.2385 51.9138 110.341C55.5197 115.75 61.4934 119.807 68.7305 121.762C72.5438 122.76 76.4765 123.228 80.4176 123.152C81.8142 120.321 83.2807 117.623 84.6329 115.128L84.8932 114.652C93.1079 99.5938 105.716 85.6022 121.351 74.1816C125.757 70.9694 131.051 67.6683 137.146 67.389C143.05 67.1224 148.446 70.1441 150.585 74.899C153.747 81.971 149.055 89.4049 147.506 91.8553C141.255 101.618 133.056 109.985 123.423 116.433C113.789 122.881 102.929 127.271 91.5208 129.329C89.3433 129.691 87.1659 129.989 85.0646 130.161C81.9095 137.455 79.9415 145.251 82.6967 151.815C87.1342 162.423 98.0405 162.461 104.148 161.547C123.053 158.703 140.149 147.219 157.956 125.387L163.548 129.951C160.022 134.276 156.28 138.42 152.337 142.369V142.369ZM88.8164 122.486L90.3209 122.251C100.73 120.37 110.64 116.363 119.431 110.481C128.223 104.6 135.707 96.9688 141.418 88.0653C144.199 83.6723 145.049 80.2696 143.996 77.87C142.942 75.4703 139.92 74.4927 137.438 74.6006C133.261 74.7911 129.261 77.3177 125.56 80.0157C110.762 90.8141 98.8721 103.987 91.1653 118.118L90.9304 118.582C90.2384 119.845 89.5274 121.14 88.8164 122.486V122.486ZM57.6653 54.6034C73.1488 57.0094 89.8067 55.2193 98.8085 43.3861C101.386 39.9961 102.389 34.4096 101.081 30.9561C100.764 30.0553 100.204 29.2594 99.4638 28.6558C98.7235 28.0522 97.8313 27.6641 96.885 27.5344C92.1682 26.6266 85.5343 29.1342 77.199 34.9428C69.509 40.207 62.8728 46.8647 57.6336 54.5717L57.6653 54.6034Z" fill="#329AE5"/>
</svg>
