<svg id="Layer_1" data-name="Layer 1" xmlns="http://www.w3.org/2000/svg" viewBox="0 0 1061.83 704.46">
	<defs>
		<style>
			.cls-1{fill:#f1f1f8;}.cls-2{fill:#7c4c59;}.cls-3{fill:#54c0d0;}.cls-4{fill:#eab659;}.cls-5{fill:#ffcc65;}.cls-6{fill:#d3d4e2;}.cls-7{fill:#33235e;}.cls-8{fill:#493272;}.cls-9{fill:#444258;}.cls-10{fill:#62626e;}.cls-11{fill:#cdae78;}.cls-12{fill:#f16259;}.cls-13{fill:#e5b155;}.cls-14{fill:#f8e6cd;}.cls-15,.cls-18{fill:none;stroke-miterlimit:10;}.cls-15{stroke:#fff;}.cls-16{fill:#61c08b;}.cls-17{fill:#db4643;}.cls-18{stroke:#d3d4e2;stroke-width:8px;}
		</style>
	</defs>
	<path class="cls-1" d="M1061.83,704.46H0C0,411.23,237.7,173.53,530.91,173.53S1061.83,411.23,1061.83,704.46Z" />
	<path class="cls-2" d="M949.36,219.57l26.42,343.14a37.52,37.52,0,0,1-26.42,38l-65.1-403.61Z" />
	<path class="cls-3" d="M336,365.89l41.55,133.37A122.84,122.84,0,0,0,455.33,579l216.83,73.53,13.29-26.44L454.26,509.23,382.68,333.05Z" />
	<polygon class="cls-4" points="964.87 702 827.93 702 823.85 572.25 822.46 527.76 819.01 417.87 803.74 527.76 802.28 538.26 790.66 621.87 779.52 702 641.37 702 647.33 676.74 654.02 648.36 654.45 646.55 655.14 643.61 662.06 614.29 682.03 529.61 732.22 316.84 733.7 310.33 775.61 311.38 792.41 311.8 842.45 313.05 860.28 313.5 903.21 314.57 920.46 315 920.47 315 934.27 435.31 944.88 527.76 945.17 530.26 953.09 599.29 960.11 660.51 964.87 702" />
	<rect class="cls-5" x="779.58" y="128.72" width="73.6" height="30.11" />
	<path class="cls-6" d="M351.18,702h-243L89.67,621l-7.13-31.15L79.38,576,51.57,454.31l-10.45-45.7A17.67,17.67,0,0,1,58.35,387H216.18l32,74.6L256.44,481l17.71,41.31,26,60.62Z" />
	<path class="cls-7" d="M706.63,702H579.18l46.05-25.34L374.37,580.5,302.63,553l4.48-30,4.51-30.2,1.76.77,71,31.17,6,2.62L438,548.29l2.07.91L478.34,566l23.05,10.12,153.75,67.5,2,.86,3.78,1.66a86.39,86.39,0,0,1,11.28,6.42h0A83.21,83.21,0,0,1,706.63,702Z" />
	<path class="cls-8" d="M676.84,702H251.23l-8.83-1.17A133.21,133.21,0,0,1,137.31,621a128.54,128.54,0,0,1-9-32.62c-.56-4.08-.94-8.21-1.1-12.38a129.07,129.07,0,0,1,.83-20.81A134.61,134.61,0,0,1,134,528.86l3.23-9.68L149.94,481l6.45-19.35h157v59.14l5.47,2.53,119.49,55.18,161.71,74.69,28,12.91,1,.46A150.57,150.57,0,0,1,676.84,702Z" />
	<path class="cls-9" d="M579.36,474.64l143.79,77a5,5,0,0,1,1.56,7.51L643,662.3A12.78,12.78,0,0,1,627.56,666l-192-89.45V558l58.63,28.29,78.79-110.12A5,5,0,0,1,579.36,474.64Z" />
	<path class="cls-2" d="M861.84,73.87a89,89,0,0,1-4.25,12.24c-10.24,23.6-29.27,38.14-46.15,33.61-6.5-1.74-11.87-6.1-15.84-12.28-8-12.42-10.3-32.19-4.81-52.63q.16-.64.36-1.26A85.38,85.38,0,0,1,798.79,35C809.5,16,826.2,5,841.17,9,860.8,14.23,870,43.3,861.84,73.87Z" />
	<path class="cls-9" d="M861.84,73.87a89,89,0,0,1-4.25,12.24c-10.24,23.6-29.27,38.14-46.15,33.61L807.81,85.3l-.24-11.52a154.53,154.53,0,0,1,3.62-36.57h0A32.37,32.37,0,0,1,795.61,51.6l-4.46,1.95A85.38,85.38,0,0,1,798.79,35C809.5,16,826.2,5,841.17,9,860.8,14.23,870,43.3,861.84,73.87Z" />
	<rect class="cls-2" x="799.56" y="54.81" width="21.01" height="30.72" rx="8.89" transform="matrix(0.98, 0.18, -0.18, 0.98, 26.09, -145.49)" />
	<path class="cls-9" d="M857,13.35h0A75.87,75.87,0,0,1,949.93,45.4l13.54,22.88L904,85.28Z" />
	<ellipse class="cls-10" cx="608.74" cy="573.28" rx="21.86" ry="14.77" transform="translate(-219.85 685.8) rotate(-51.01)" />
	<path class="cls-11" d="M245.14,275.43c-16.58,3.74-34.54-10.94-44.1-34.2a90.73,90.73,0,0,1-4.53-14.43c-7.06-31.32,3.24-60.33,23-64.78,9.74-2.2,20,2,28.66,10.5,9,8.78,16.37,22.22,20,38.12C275.23,242,264.92,271,245.14,275.43Z" />
	<path class="cls-12" d="M245.68,169.46l-1.4,4.09a140.65,140.65,0,0,1-45.77,64.62A90.29,90.29,0,0,1,194,223.75c-7.06-31.33,3.24-60.33,23-64.79C226.75,156.76,237,160.92,245.68,169.46Z" />
	<circle class="cls-12" cx="185.9" cy="155.91" r="18.1" />
	<path class="cls-11" d="M438,528.19l1.27.31a54.5,54.5,0,0,1,41.27,52.86h0L438,560.09Z" />
	<polygon class="cls-13" points="371.47 1.18 373.06 154.79 549.33 154.79 547.95 1.18 371.47 1.18" />
	<polygon class="cls-5" points="371.47 1.18 390.79 154.79 567.05 154.79 547.95 1.18 371.47 1.18" />
	<polygon class="cls-14" points="371.47 1.18 406.73 147.37 408.51 154.79 584.78 154.79 571.47 99.28 547.95 1.18 371.47 1.18" />
	<line class="cls-15" x1="386.05" y1="61.63" x2="562.44" y2="61.63" />
	<path class="cls-1" d="M378.2,22.33l7.61,41.82a43,43,0,0,0,36.85,35.13,41.86,41.86,0,0,0,11.51,0,42.88,42.88,0,0,0,17.75-6.65L471.25,80H571.39a38.06,38.06,0,0,1-3.92-9.48l-2.59-9.75-10.2-38.48Z" />
	<path class="cls-5" d="M606.42,98.9a38.33,38.33,0,0,0,16.85-5L647.52,80H471.25L451.92,92.63a42.88,42.88,0,0,1-17.75,6.65S608.07,99.17,606.42,98.9Z" />
	<polygon class="cls-12" points="371.47 0 371.47 1.32 380.93 40.55 563.58 40.55 553.85 0 371.47 0" />
	<path class="cls-2" d="M556.29,124.32c-1.39-18.56-2.52-42-16.62-54.18L529.07,61a6.44,6.44,0,0,0-8.51.08h0a6.44,6.44,0,0,0-.58,9l15,15.79L504.14,59.62a7,7,0,0,0-9.27-.09h0a7,7,0,0,0-.39,10.14l24.1,27a1,1,0,0,1-.17,1.53h0A1,1,0,0,1,517,98l-12.48-15.2A6.68,6.68,0,0,0,496.28,81a6.6,6.6,0,0,0-1.15.77h0a6.76,6.76,0,0,0-1.48,8.67l21.27,34.08Z" />
	<path class="cls-2" d="M698.74,171.17l-82.7,159L545.52,77.84,535.9,106.7l-28.85-9.62,50.09,239.31c10,55.55,84.3,67.6,111.33,18.05l68.1-159.93Z" />
	<path class="cls-5" d="M657.21,232.31l61.47,10.63-1.56,33.43a54.49,54.49,0,0,0,12.47,37.29l2.63,3.18L920.47,315h0c10.4-13.12,15.26-35,11.34-51.26l-7.41-30.83L976,215.7l-35.79-49.48a58.75,58.75,0,0,0-47.6-24.31H744.39a58.76,58.76,0,0,0-51.71,30.86Z" />
	<rect class="cls-6" x="63.18" y="576" width="225" height="45" />
	<path class="cls-3" d="M382.68,333.05a69.78,69.78,0,0,0-64.63-43.51H197.91A69.76,69.76,0,0,0,136.59,326L19.89,502.12c-21.71,40,7.62,88.6,53.14,88l366.58-11.74.85-52.41L87.57,518.07l46-72.2L128.43,481H346.72L336,365.89Z" />
	<path class="cls-16" d="M935.53,586.74l-10.65,45.31-23.5-2.84a464.88,464.88,0,0,1,38.34-206.94L946,408l1.71,59A465.15,465.15,0,0,1,935.53,586.74Z" />
	<path class="cls-16" d="M899.7,561l-14.23,60.62L854,617.78q-1-22-.44-44.08l-23.57,0c-.14-.85-.28-1.72-.41-2.57l-15,3a621.88,621.88,0,0,1-37.7-279l2-20.76,26.82,74.31a618.12,618.12,0,0,1,19,62.81A621.43,621.43,0,0,1,848.22,292.7l6-20,11.59,78.14a624,624,0,0,1,6.72,85.64,623.59,623.59,0,0,1,32.76-95.58l8.34-19.1,2.27,79A621.85,621.85,0,0,1,899.7,561Z" />
	<polygon class="cls-17" points="972.18 527.76 966.57 589.5 960.11 660.51 956.34 702 797.94 702 790.66 621.87 782.1 527.76 972.18 527.76" />
	<line class="cls-18" x1="243.18" y1="603" x2="189.18" y2="684" />
</svg>
