<svg viewBox="0 0 1024 1024" fill="none" xmlns="http://www.w3.org/2000/svg">
<path d="M896.53 701.52C896.42 701.66 896.31 701.78 896.2 701.92C854.24 752.28 755.18 792.72 635.38 804.28C626.67 805.12 617.85 805.82 608.94 806.34C564.75 808.96 522.43 807.41 483.77 802.34C480.83 801.96 477.91 801.55 475.02 801.12C474.01 800.97 472.99 800.82 471.98 800.67L471.94 800.66C471.87 800.65 471.81 800.64 471.74 800.63C363.46 784.1 286.68 739.53 283.32 682.83C280.61 637.03 326.41 593.42 399.78 562.94C399.9 562.9 400.02 562.85 400.14 562.8C452.61 541.06 519.15 526.04 592.07 521.71C658.5 517.77 720.69 523.28 772.58 535.92C772.84 535.98 773.1 536.05 773.36 536.11C857.88 556.85 914.82 596.58 917.7 645.23C918.85 664.66 911.26 683.7 896.53 701.52Z" fill="#45336D"/>
<path d="M896.53 702.37C854.85 752.8 755.92 793.37 636.16 805.05L635.38 804.27C626.67 805.11 617.85 805.81 608.94 806.33C564.75 808.95 522.43 807.4 483.77 802.33C480.83 801.95 477.91 801.54 475.02 801.11C474.01 800.96 472.99 800.81 471.98 800.66L471.94 800.65C471.87 800.64 471.81 800.63 471.74 800.62L471.68 800.41L442 690.5L426.43 632.76C419.95 608.72 411.1 585.59 400.13 563.66C400.01 563.42 399.89 563.19 399.77 562.95C366.92 497.62 315.13 442.95 250.37 406.62L222.04 390.73C208.5 383.14 199.13 371.45 194.17 358.02C192.81 354.34 191.77 350.52 191.08 346.62C189.85 339.72 189.85 332.66 190.79 325.71C191.1 323.41 191.67 321.15 192.5 318.99C193.34 316.84 194.44 314.79 195.83 312.93C201.92 304.77 212.07 300.16 222.68 301.47L248.04 304.62L436.56 327.98L571.47 344.71L636.11 352.72L772.55 535.93L773.33 536.97L896.18 701.93L896.53 702.37Z" fill="#F1F1F8"/>
<path d="M417.47 604.19L772.58 535.92L772.5 695.47L422.06 617.81L417.47 604.19Z" fill="#EC6B61"/>
<path d="M248.07 304.62C244.95 310.63 241.35 316.36 237.31 321.77C232.01 328.84 225.97 335.35 219.24 341.17C211.61 347.79 203.19 353.44 194.19 358.02C192.83 354.34 191.79 350.52 191.1 346.62C189.87 339.72 189.87 332.66 190.81 325.71C191.12 323.41 191.69 321.15 192.52 318.99C193.36 316.84 194.46 314.79 195.85 312.93C201.94 304.77 212.09 300.16 222.7 301.48L248.07 304.62Z" fill="#45336D"/>
<path d="M664.439 487.41L661.38 489.88C650.74 498.47 638.909 505.31 626.319 510.22C613.739 515.12 600.4 518.11 586.75 518.99C583.89 519.18 581.039 519.26 578.199 519.26C539.429 519.26 502.43 502.23 477.2 472.41C449.84 440.07 435.2 398.85 436.03 356.5L436.59 327.98L571.5 344.711L664.439 487.41Z" fill="#45336D"/>
<path d="M769.3 539.91C765.13 550.64 756.72 560.93 741.05 563.6C709.29 569.01 684.72 537.31 678.76 528.11L556.54 342.57L715.09 362.43L768.85 505.42C773.25 516.47 773.61 528.83 769.3 539.91Z" fill="#72BECB"/>
<path d="M635.38 804.28C626.67 805.12 617.85 805.81 608.94 806.35C564.75 808.97 522.43 807.42 483.77 802.35C482.27 802.16 480.78 801.95 479.29 801.75C477.86 801.55 476.44 801.34 475.02 801.13C473.89 800.84 472.77 800.59 471.68 800.42L442 690.49C444.09 690.7 446.17 690.94 448.24 691.19C450.02 691.42 451.81 691.65 453.59 691.92C506.13 699.63 555.17 724.05 593.16 762.05L635.38 804.28Z" fill="#45336D"/>
<path d="M479.29 801.74C477.86 801.54 476.44 801.33 475.02 801.12C473.89 800.83 472.77 800.58 471.68 800.41L442 690.49L447.42 688.27L448.24 691.189L479.29 801.74Z" fill="#F1F1F8"/>
<path d="M510.22 401.6C514.406 401.6 517.8 398.207 517.8 394.02C517.8 389.834 514.406 386.44 510.22 386.44C506.033 386.44 502.64 389.834 502.64 394.02C502.64 398.207 506.033 401.6 510.22 401.6Z" fill="#F1F1F8"/>
</svg>
