<svg viewBox="0 0 1024 1024" fill="none" xmlns="http://www.w3.org/2000/svg">
<path d="M329.79 876.539H684.77V678.33C684.77 580.39 605.3 500.979 507.28 500.979C409.25 500.979 329.79 580.38 329.79 678.33V876.539Z" fill="#54C0D0"/>
<path d="M797.681 696.72L638.09 780.81L611.07 876.54H412.28L385.26 780.81L183.17 654.38C134.21 623.75 125.05 556.24 164.08 513.69L380.15 278.18L464.9 380.72L240.48 577.36L407.88 682.89C413.97 686.73 421.03 688.77 428.23 688.77H595.22C602.37 688.77 609.371 686.76 615.431 682.98L751.96 610.28L575.45 353.72L694.23 278.19L843.6 538.67C875.82 594.85 854.991 666.52 797.681 696.72Z" fill="#493272"/>
<path d="M588.24 345.57C573.36 315.81 570.9 281.36 581.4 249.79L589.29 226.06C591.12 220.57 596.74 217.28 602.43 218.39C608.59 219.59 612.66 225.49 611.59 231.67L603.09 269.63L626.28 201.07C628.12 195.03 634.19 191.31 640.41 192.43C647.48 193.7 652.02 200.66 650.32 207.63L638.07 271.1C637.86 272.18 638.63 273.2 639.72 273.3C640.7 273.39 641.59 272.7 641.73 271.73L646.93 236.97C647.76 231.4 652.31 226.94 657.94 226.67C658.75 226.63 659.58 226.67 660.41 226.8C666.3 227.72 670.64 232.79 670.64 238.74L673.1 291.6L588.24 345.57Z" fill="#7C4C59"/>
<path d="M451.48 364.47C475.39 336 486.85 299.12 483.3 262.12L479.37 221.23C478.84 215.67 474.07 211.48 468.48 211.65C462.98 211.82 458.53 216.16 458.22 221.65L455.07 278.17L440.75 195.68C439.8 190.19 435.03 186.18 429.45 186.18C422.74 186.18 417.47 191.9 418.02 198.58L426.88 280.95C426.94 281.51 426.6 282.04 426.07 282.23C425.41 282.46 424.69 282.08 424.5 281.41L410.16 230.41C409.4 227.71 407.82 225.26 405.49 223.7C401.31 220.89 395.55 220.85 391.26 224.28C387.76 227.08 386.14 231.55 386.95 235.87L387.89 240.76L397.15 298.74L451.48 364.47Z" fill="#7C4C59"/>
<path d="M561.03 324.85L519.81 366.6L478.1 324.85C442.68 286.65 407.05 245.57 413.18 193.85C416.31 167.43 438.77 148 464.76 148C466.79 148 468.86 148.12 470.94 148.37C481.39 149.6 490.96 153.92 498.62 160.48C499.1 160.89 499.57 161.31 500.04 161.73C508.75 169.73 514.16 180.69 515.81 192.4L519.57 219.12L523.33 192.4C524.98 180.69 530.39 169.73 539.1 161.73C539.56 161.3 540.04 160.89 540.52 160.48C548.18 153.93 557.75 149.61 568.2 148.37C570.28 148.13 572.35 148 574.38 148C600.37 148 622.83 167.43 625.96 193.85C632.07 245.56 596.44 286.65 561.03 324.85Z" fill="#F16259"/>
<path d="M537.76 644.61C532.8 649.56 527.52 653.75 522.17 657.11C504.44 668.25 485.98 670.25 476.38 660.65C463.86 648.14 471.05 620.67 492.43 599.31C502.99 588.76 515.04 581.67 526.03 578.71C527.25 578.37 528.44 578.09 529.63 577.87C539.45 575.99 548.16 577.62 553.81 583.27C566.33 595.79 559.14 623.24 537.76 644.61Z" fill="#7C4C59"/>
<path d="M537.76 644.61C532.8 649.56 527.52 653.75 522.17 657.11L521.71 655.44C514.75 630.07 516.27 603.14 526.02 578.71L529.62 577.87C539.44 575.99 548.15 577.62 553.8 583.27C566.33 595.79 559.14 623.24 537.76 644.61Z" fill="#F16259"/>
<path d="M587.319 603.669C596.366 603.669 603.699 596.345 603.699 587.309C603.699 578.274 596.366 570.949 587.319 570.949C578.273 570.949 570.939 578.274 570.939 587.309C570.939 596.345 578.273 603.669 587.319 603.669Z" fill="#F16259"/>
</svg>
