<svg width="493" height="323" viewBox="0 0 493 323" fill="none" xmlns="http://www.w3.org/2000/svg">
	<g clip-path="url(#clip0)">
		<path d="M388.066 48.862H73.6825V280.592H388.066V48.862Z" fill="white" />
		<path d="M391.055 283.58H70.6934V45.8739H391.055V283.58ZM76.6717 277.604H385.077V51.85H76.6717V277.604Z" fill="#DFDDED" />
		<path d="M391.369 49.1309V57.8709H70.783V49.1309C70.7869 45.311 72.3056 41.6484 75.0063 38.946C77.707 36.2435 81.3693 34.7215 85.1906 34.7136H376.939C380.763 34.7175 384.43 36.2375 387.135 38.9402C389.841 41.6429 391.363 45.3077 391.369 49.1309Z" fill="#493372" />
		<path d="M224.724 152.734C222.212 152.734 219.755 151.989 217.666 150.594C215.577 149.198 213.949 147.215 212.987 144.894C212.026 142.574 211.774 140.021 212.264 137.557C212.755 135.094 213.964 132.831 215.741 131.055C217.518 129.279 219.781 128.069 222.246 127.579C224.71 127.089 227.264 127.341 229.586 128.302C231.907 129.263 233.891 130.891 235.287 132.979C236.683 135.068 237.428 137.523 237.428 140.035C237.428 143.403 236.09 146.633 233.707 149.014C231.325 151.396 228.093 152.734 224.724 152.734ZM224.724 133.312C223.394 133.312 222.094 133.706 220.988 134.445C219.882 135.183 219.02 136.233 218.511 137.462C218.001 138.69 217.868 140.042 218.128 141.346C218.387 142.65 219.028 143.848 219.968 144.789C220.909 145.729 222.107 146.369 223.412 146.629C224.717 146.888 226.069 146.755 227.298 146.246C228.527 145.737 229.577 144.875 230.316 143.77C231.055 142.664 231.45 141.364 231.45 140.035C231.45 138.252 230.741 136.542 229.48 135.281C228.219 134.02 226.508 133.312 224.724 133.312Z" fill="#71BDCB" />
		<path d="M209.405 84.7558C207.705 84.7558 206.043 84.252 204.63 83.3081C203.217 82.3641 202.116 81.0224 201.465 79.4527C200.815 77.883 200.644 76.1557 200.976 74.4893C201.308 72.8228 202.126 71.2921 203.328 70.0907C204.53 68.8893 206.061 68.0711 207.728 67.7397C209.395 67.4082 211.123 67.5783 212.693 68.2285C214.264 68.8787 215.606 69.9798 216.55 71.3925C217.494 72.8052 217.999 74.4662 217.999 76.1652C217.997 78.443 217.09 80.6269 215.479 82.2375C213.868 83.8482 211.683 84.7539 209.405 84.7558ZM209.405 73.5507C208.887 73.5507 208.382 73.704 207.952 73.9913C207.522 74.2786 207.186 74.6869 206.988 75.1647C206.79 75.6424 206.739 76.1681 206.839 76.6753C206.94 77.1825 207.189 77.6483 207.555 78.014C207.921 78.3796 208.387 78.6286 208.894 78.7295C209.402 78.8304 209.928 78.7786 210.406 78.5807C210.884 78.3828 211.292 78.0477 211.579 77.6178C211.867 77.1878 212.02 76.6823 212.02 76.1652C212.02 75.4718 211.745 74.8068 211.254 74.3165C210.764 73.8261 210.098 73.5507 209.405 73.5507Z" fill="#71BDCB" />
		<path d="M452.647 202.784H446.668C446.654 190.504 441.769 178.732 433.083 170.049C424.397 161.367 412.62 156.483 400.336 156.469V150.493C414.205 150.509 427.501 156.023 437.308 165.826C447.114 175.629 452.631 188.92 452.647 202.784Z" fill="#FFCC63" />
		<path d="M61.0683 184.108C47.1996 184.092 33.9035 178.578 24.0969 168.775C14.2903 158.972 8.774 145.681 8.75818 131.818H14.7365C14.7503 144.097 19.6361 155.869 28.322 164.552C37.0079 173.234 48.7846 178.118 61.0683 178.132V184.108Z" fill="#FFCC63" />
		<path d="M279.919 249.845H166.54C164.623 249.847 162.738 249.346 161.074 248.393C159.41 247.439 158.025 246.067 157.056 244.412C156.088 242.757 155.57 240.878 155.555 238.961C155.539 237.044 156.026 235.156 156.968 233.486L178.198 195.172L197.037 185.46C201.3 183.264 206.097 182.317 210.876 182.728C215.654 183.139 220.219 184.891 224.044 187.784C228.357 191.052 233.602 192.858 239.013 192.938C244.425 193.019 249.721 191.37 254.13 188.232L261.513 183.003L289.491 233.493C290.431 235.163 290.917 237.05 290.9 238.966C290.883 240.882 290.365 242.76 289.397 244.414C288.429 246.068 287.045 247.439 285.382 248.392C283.719 249.345 281.835 249.846 279.919 249.845Z" fill="#71BDCB" />
		<path d="M279.919 252.833H166.54C164.101 252.835 161.703 252.198 159.586 250.986C157.469 249.773 155.707 248.027 154.475 245.922C153.243 243.817 152.584 241.426 152.563 238.987C152.543 236.548 153.163 234.147 154.36 232.022L195.46 157.866V109.811C194.456 109.784 193.47 109.539 192.57 109.094C191.67 108.649 190.877 108.014 190.246 107.233C189.615 106.451 189.161 105.543 188.916 104.569C188.67 103.595 188.639 102.58 188.824 101.593C189.151 99.9983 190.021 98.5661 191.288 97.5426C192.555 96.519 194.138 95.9678 195.767 95.9834H250.827C251.85 95.9858 252.859 96.2139 253.784 96.6512C254.708 97.0886 255.525 97.7246 256.175 98.5137C256.825 99.3028 257.293 100.226 257.545 101.216C257.798 102.207 257.828 103.241 257.635 104.245C257.317 105.787 256.49 107.177 255.286 108.192C254.083 109.207 252.572 109.787 250.999 109.84V157.888L292.1 232.066C293.294 234.191 293.91 236.592 293.888 239.029C293.866 241.466 293.206 243.854 291.973 245.957C290.74 248.06 288.978 249.803 286.862 251.013C284.746 252.224 282.349 252.859 279.911 252.856L279.919 252.833ZM195.789 101.937C195.553 101.924 195.319 101.99 195.125 102.126C194.932 102.261 194.789 102.458 194.721 102.684C194.684 102.835 194.687 102.992 194.729 103.141C194.771 103.29 194.85 103.426 194.96 103.536C195.05 103.629 195.158 103.704 195.277 103.755C195.396 103.806 195.525 103.833 195.655 103.835H195.789C197.293 103.836 198.734 104.434 199.798 105.497C200.861 106.56 201.459 108.001 201.461 109.504V159.405L159.613 234.927C158.917 236.144 158.553 237.521 158.558 238.923C158.563 240.324 158.937 241.699 159.642 242.91C160.347 244.121 161.358 245.126 162.574 245.823C163.79 246.519 165.169 246.884 166.57 246.88H279.919C281.314 246.882 282.686 246.519 283.898 245.826C285.109 245.133 286.117 244.134 286.822 242.93C287.527 241.726 287.903 240.358 287.914 238.963C287.925 237.568 287.57 236.195 286.883 234.98L245.035 159.435V109.512C245.037 108.009 245.636 106.568 246.699 105.505C247.762 104.442 249.204 103.844 250.707 103.842C250.943 103.854 251.176 103.787 251.37 103.652C251.564 103.517 251.706 103.321 251.776 103.095C251.81 102.944 251.805 102.788 251.764 102.639C251.722 102.49 251.644 102.354 251.537 102.243C251.447 102.149 251.339 102.073 251.22 102.021C251.101 101.968 250.972 101.94 250.842 101.937H195.789Z" fill="#B8B6D1" />
		<path d="M126.187 118.999L73.6825 160.017V119.006L126.187 118.999Z" fill="#F0EFF9" />
		<path d="M76.6717 118.035H70.6934V172.276H76.6717V118.035Z" fill="#DFDDED" />
		<path d="M126.359 2.98804H6.02312C4.3475 2.98804 2.98914 4.3459 2.98914 6.0209V115.981C2.98914 117.656 4.3475 119.014 6.02312 119.014H126.359C128.034 119.014 129.393 117.656 129.393 115.981V6.0209C129.393 4.3459 128.034 2.98804 126.359 2.98804Z" fill="white" />
		<path d="M126.359 122.002H6.02313C4.42562 121.998 2.89478 121.361 1.76586 120.231C0.636946 119.101 0.00197223 117.57 0 115.973L0 6.02091C0.0019775 4.42467 0.63719 2.89438 1.76632 1.76567C2.89545 0.636955 4.4263 0.00197677 6.02313 0L126.336 0C127.933 0.00197677 129.464 0.636955 130.593 1.76567C131.722 2.89438 132.357 4.42467 132.359 6.02091V115.973C132.357 117.566 131.726 119.094 130.602 120.223C129.477 121.353 127.952 121.992 126.359 122.002ZM6.02313 5.97609L5.97829 115.973L126.359 116.026L126.404 6.02091L126.359 5.97609H6.02313Z" fill="#71BDCB" />
		<path d="M65.9256 94.5865L32.5518 61.2549L65.9256 27.871L99.2994 61.2549L65.9256 94.5865ZM41.011 61.2549L65.9256 86.1677L90.8401 61.2549L65.9256 36.3197L41.011 61.2549Z" fill="#71BDCB" />
		<path d="M337.153 216.245L306.507 280.592H336.07L337.153 216.245Z" fill="#F0EFF9" />
		<path d="M336.922 277.604H255.886V283.58H336.922V277.604Z" fill="#DFDDED" />
		<path d="M490.011 218.545V317.024C490.011 317.816 489.696 318.576 489.135 319.137C488.575 319.697 487.814 320.012 487.022 320.012H309.915L336.07 302.674V218.545C336.07 217.753 336.385 216.993 336.945 216.433C337.506 215.872 338.266 215.557 339.059 215.557H487.022C487.814 215.557 488.575 215.872 489.135 216.433C489.696 216.993 490.011 217.753 490.011 218.545Z" fill="white" />
		<path d="M487.022 323H299.998L333.081 301.045V218.545C333.081 216.961 333.711 215.44 334.832 214.32C335.953 213.199 337.473 212.569 339.059 212.569H487.022C488.607 212.569 490.128 213.199 491.249 214.32C492.37 215.44 493 216.961 493 218.545V317.024C493 318.609 492.37 320.129 491.249 321.25C490.128 322.37 488.607 323 487.022 323ZM319.831 317.024H487.022V218.545H339.059V304.28L319.831 317.024Z" fill="#C9C7DC" />
		<path d="M414.535 293.919C428.98 293.919 440.69 282.213 440.69 267.773C440.69 253.334 428.98 241.628 414.535 241.628C400.09 241.628 388.38 253.334 388.38 267.773C388.38 282.213 400.09 293.919 414.535 293.919Z" fill="#EB6B5E" />
		<path d="M243.055 47.6518C249.952 47.6518 255.542 42.0632 255.542 35.1693C255.542 28.2754 249.952 22.6867 243.055 22.6867C236.159 22.6867 230.568 28.2754 230.568 35.1693C230.568 42.0632 236.159 47.6518 243.055 47.6518Z" fill="white" />
		<path d="M243.055 50.6399C239.995 50.634 237.006 49.7216 234.465 48.0181C231.924 46.3146 229.945 43.8963 228.778 41.0689C227.611 38.2415 227.309 35.1319 227.91 32.1328C228.51 29.1338 229.987 26.38 232.152 24.2194C234.318 22.0588 237.075 20.5883 240.077 19.9938C243.078 19.3993 246.188 19.7074 249.014 20.8792C251.841 22.051 254.256 24.0339 255.955 26.5774C257.654 29.1209 258.561 32.1108 258.561 35.1693C258.559 37.2029 258.157 39.2161 257.376 41.0942C256.596 42.9722 255.453 44.6782 254.013 46.1148C252.574 47.5514 250.865 48.6904 248.984 49.4668C247.104 50.2432 245.089 50.6418 243.055 50.6399ZM243.055 25.6748C241.178 25.6807 239.344 26.2425 237.786 27.2894C236.228 28.3362 235.016 29.8211 234.301 31.5565C233.587 33.2919 233.403 35.2 233.773 37.0398C234.143 38.8796 235.05 40.5685 236.379 41.8934C237.709 43.2182 239.401 44.1195 241.243 44.4835C243.085 44.8474 244.993 44.6576 246.727 43.9382C248.46 43.2187 249.942 42.0017 250.984 40.441C252.027 38.8803 252.583 37.0458 252.583 35.1693C252.582 33.9202 252.335 32.6836 251.855 31.5301C251.376 30.3767 250.673 29.3291 249.788 28.4473C248.903 27.5654 247.853 26.8666 246.698 26.3909C245.542 25.9152 244.305 25.6718 243.055 25.6748Z" fill="#71BDCB" />
	</g>
	<defs>
		<clipPath id="clip0">
			<rect width="493" height="323" fill="white" />
		</clipPath>
	</defs>
</svg>
