<svg width="360" height="200" viewBox="0 0 360 200" fill="none" xmlns="http://www.w3.org/2000/svg">
<rect width="360" height="200" fill="white"/>
<g clip-path="url(#clip0)">
<path d="M236.426 55.1448H110.673V147.837H236.426V55.1448Z" fill="white"/>
<path d="M237.622 149.032H109.477V53.9495H237.622V149.032ZM111.869 146.642H235.231V56.3399H111.869V146.642Z" fill="#DFDDED"/>
<path d="M237.748 55.2523V58.7483H109.513V55.2523C109.515 53.7243 110.122 52.2593 111.203 51.1783C112.283 50.0973 113.748 49.4885 115.276 49.4854H231.976C233.505 49.4869 234.972 50.0949 236.054 51.176C237.136 52.2571 237.745 53.723 237.748 55.2523V55.2523Z" fill="#493372"/>
<path d="M171.09 96.6935C170.085 96.6935 169.102 96.3956 168.266 95.8374C167.431 95.2793 166.779 94.4859 166.395 93.5578C166.01 92.6296 165.91 91.6082 166.106 90.6229C166.302 89.6375 166.786 88.7324 167.496 88.022C168.207 87.3116 169.113 86.8278 170.098 86.6318C171.084 86.4358 172.106 86.5364 173.034 86.9208C173.963 87.3053 174.756 87.9564 175.315 88.7917C175.873 89.6271 176.171 90.6092 176.171 91.6139C176.171 92.9611 175.636 94.2531 174.683 95.2057C173.73 96.1583 172.437 96.6935 171.09 96.6935ZM171.09 88.9246C170.558 88.9246 170.037 89.0823 169.595 89.3778C169.153 89.6733 168.808 90.0933 168.604 90.5847C168.401 91.0761 168.347 91.6168 168.451 92.1385C168.555 92.6602 168.811 93.1393 169.187 93.5154C169.564 93.8915 170.043 94.1477 170.565 94.2514C171.087 94.3552 171.628 94.3019 172.119 94.0984C172.611 93.8948 173.031 93.5502 173.326 93.1079C173.622 92.6657 173.78 92.1457 173.78 91.6139C173.78 90.9006 173.496 90.2166 172.992 89.7123C172.487 89.2079 171.803 88.9246 171.09 88.9246V88.9246Z" fill="#71BDCB"/>
<path d="M164.962 69.5021C164.282 69.5021 163.617 69.3006 163.052 68.923C162.487 68.5454 162.046 68.0088 161.786 67.3809C161.526 66.753 161.458 66.0621 161.59 65.3955C161.723 64.7289 162.05 64.1167 162.531 63.6361C163.012 63.1555 163.624 62.8283 164.291 62.6957C164.958 62.5631 165.649 62.6311 166.277 62.8912C166.906 63.1513 167.442 63.5917 167.82 64.1568C168.198 64.7219 168.399 65.3863 168.399 66.0659C168.399 66.977 168.036 67.8506 167.392 68.4948C166.747 69.1391 165.873 69.5013 164.962 69.5021V69.5021ZM164.962 65.0201C164.755 65.0201 164.553 65.0814 164.381 65.1963C164.209 65.3112 164.075 65.4746 163.995 65.6657C163.916 65.8568 163.895 66.067 163.936 66.2699C163.976 66.4728 164.076 66.6591 164.222 66.8054C164.368 66.9516 164.555 67.0513 164.758 67.0916C164.961 67.132 165.171 67.1112 165.362 67.0321C165.553 66.9529 165.717 66.8189 165.832 66.6469C165.947 66.4749 166.008 66.2727 166.008 66.0659C166.008 65.7885 165.898 65.5225 165.702 65.3264C165.506 65.1303 165.239 65.0201 164.962 65.0201V65.0201Z" fill="#71BDCB"/>
<path d="M262.259 116.713H259.867C259.862 111.802 257.907 107.093 254.433 103.62C250.959 100.147 246.248 98.1931 241.334 98.1876V95.7971C246.882 95.8034 252.2 98.0092 256.123 101.93C260.046 105.852 262.252 111.168 262.259 116.713Z" fill="#FFCC63"/>
<path d="M105.627 109.243C100.08 109.237 94.7613 107.031 90.8386 103.11C86.916 99.1888 84.7095 93.8723 84.7031 88.3269H87.0944C87.1 93.2386 89.0543 97.9475 92.5287 101.421C96.003 104.894 100.714 106.847 105.627 106.853V109.243Z" fill="#FFCC63"/>
<path d="M193.167 135.538H147.816C147.049 135.539 146.295 135.338 145.629 134.957C144.964 134.576 144.41 134.027 144.022 133.365C143.635 132.703 143.428 131.951 143.422 131.184C143.416 130.417 143.61 129.662 143.987 128.994L152.479 113.669L160.015 109.784C161.72 108.906 163.639 108.527 165.55 108.691C167.462 108.855 169.287 109.556 170.817 110.713C172.543 112.021 174.641 112.743 176.805 112.775C178.97 112.807 181.088 112.148 182.852 110.893L185.805 108.801L196.996 128.997C197.372 129.665 197.566 130.42 197.56 131.186C197.553 131.953 197.346 132.704 196.959 133.366C196.572 134.027 196.018 134.576 195.353 134.957C194.687 135.338 193.934 135.538 193.167 135.538Z" fill="#71BDCB"/>
<path d="M193.167 136.733H147.816C146.84 136.734 145.881 136.479 145.034 135.994C144.187 135.509 143.483 134.811 142.99 133.969C142.497 133.127 142.233 132.17 142.225 131.195C142.217 130.219 142.465 129.259 142.944 128.409L159.384 98.7462V79.5242C158.982 79.5133 158.588 79.4155 158.228 79.2375C157.868 79.0594 157.551 78.8054 157.298 78.4929C157.046 78.1804 156.864 77.8169 156.766 77.4275C156.668 77.0381 156.656 76.632 156.73 76.2373C156.86 75.5992 157.208 75.0264 157.715 74.617C158.222 74.2075 158.855 73.987 159.507 73.9933H181.531C181.94 73.9943 182.344 74.0855 182.713 74.2604C183.083 74.4354 183.41 74.6898 183.67 75.0054C183.93 75.3211 184.117 75.6902 184.218 76.0865C184.319 76.4828 184.331 76.8965 184.254 77.2981C184.127 77.9147 183.796 78.4707 183.314 78.8767C182.833 79.2826 182.229 79.5149 181.599 79.5361V98.7552L198.04 128.426C198.517 129.276 198.764 130.237 198.755 131.211C198.746 132.186 198.482 133.142 197.989 133.983C197.496 134.824 196.791 135.521 195.945 136.005C195.098 136.489 194.14 136.743 193.164 136.742L193.167 136.733ZM159.516 76.3748C159.421 76.3694 159.328 76.3959 159.25 76.4501C159.173 76.5043 159.115 76.583 159.088 76.6736C159.074 76.7338 159.075 76.7967 159.091 76.8564C159.108 76.916 159.14 76.9704 159.184 77.0142C159.22 77.0516 159.263 77.0814 159.311 77.1019C159.358 77.1224 159.41 77.1332 159.462 77.1337H159.516C160.117 77.1345 160.694 77.3737 161.119 77.7989C161.544 78.224 161.784 78.8004 161.784 79.4016V99.3618L145.045 129.571C144.767 130.057 144.621 130.609 144.623 131.169C144.625 131.729 144.775 132.28 145.057 132.764C145.339 133.248 145.743 133.65 146.23 133.929C146.716 134.208 147.267 134.353 147.828 134.352H193.167C193.726 134.353 194.274 134.207 194.759 133.93C195.243 133.653 195.647 133.254 195.929 132.772C196.211 132.29 196.361 131.743 196.366 131.185C196.37 130.627 196.228 130.078 195.953 129.592L179.214 99.3737V79.4046C179.215 78.8034 179.454 78.227 179.879 77.8018C180.305 77.3767 180.881 77.1375 181.483 77.1367C181.577 77.1416 181.67 77.1148 181.748 77.0607C181.825 77.0066 181.882 76.9282 181.91 76.8379C181.924 76.7776 181.922 76.715 181.905 76.6555C181.889 76.5961 181.857 76.5417 181.815 76.4973C181.779 76.4595 181.736 76.4292 181.688 76.4082C181.64 76.3872 181.589 76.3758 181.537 76.3748H159.516Z" fill="#B8B6D1"/>
<path d="M131.675 83.1995L110.673 99.6068V83.2024L131.675 83.1995Z" fill="#F0EFF9"/>
<path d="M111.869 82.814H109.477V104.51H111.869V82.814Z" fill="#DFDDED"/>
<path d="M131.743 36.7952H83.6091C82.9389 36.7952 82.3955 37.3383 82.3955 38.0083V81.9923C82.3955 82.6623 82.9389 83.2055 83.6091 83.2055H131.743C132.414 83.2055 132.957 82.6623 132.957 81.9923V38.0083C132.957 37.3383 132.414 36.7952 131.743 36.7952Z" fill="white"/>
<path d="M131.743 84.4007H83.6092C82.9702 84.3991 82.3579 84.1445 81.9063 83.6925C81.4547 83.2405 81.2007 82.6281 81.2 81.9893V38.0083C81.2007 37.3698 81.4548 36.7577 81.9065 36.3062C82.3581 35.8548 82.9705 35.6008 83.6092 35.6H131.734C132.373 35.6008 132.986 35.8548 133.437 36.3062C133.889 36.7577 134.143 37.3698 134.144 38.0083V81.9893C134.143 82.6266 133.89 83.2376 133.441 83.6894C132.991 84.1411 132.381 84.3968 131.743 84.4007V84.4007ZM83.6092 37.9904L83.5913 81.9893L131.743 82.0103L131.761 38.0083L131.743 37.9904H83.6092Z" fill="#71BDCB"/>
<path d="M107.57 73.4345L94.2207 60.1019L107.57 46.7483L120.92 60.1019L107.57 73.4345ZM97.6044 60.1019L107.57 70.067L117.536 60.1019L107.57 50.1278L97.6044 60.1019Z" fill="#71BDCB"/>
<path d="M216.061 122.098L203.803 147.837H215.628L216.061 122.098Z" fill="#F0EFF9"/>
<path d="M215.968 146.642H183.554V149.032H215.968V146.642Z" fill="#DFDDED"/>
<path d="M277.204 123.018V162.41C277.204 162.727 277.078 163.031 276.854 163.255C276.63 163.479 276.326 163.605 276.009 163.605H205.166L215.628 156.67V123.018C215.628 122.701 215.754 122.397 215.978 122.173C216.202 121.949 216.506 121.823 216.823 121.823H276.009C276.326 121.823 276.63 121.949 276.854 122.173C277.078 122.397 277.204 122.701 277.204 123.018Z" fill="white"/>
<path d="M276.009 164.8H201.199L214.432 156.018V123.018C214.432 122.384 214.684 121.776 215.133 121.328C215.581 120.88 216.189 120.628 216.823 120.628H276.009C276.643 120.628 277.251 120.88 277.7 121.328C278.148 121.776 278.4 122.384 278.4 123.018V162.409C278.4 163.043 278.148 163.651 277.7 164.1C277.251 164.548 276.643 164.8 276.009 164.8ZM209.132 162.409H276.009V123.018H216.823V157.312L209.132 162.409Z" fill="#C9C7DC"/>
<path d="M247.014 153.168C252.792 153.168 257.476 148.485 257.476 142.709C257.476 136.933 252.792 132.251 247.014 132.251C241.236 132.251 236.552 136.933 236.552 142.709C236.552 148.485 241.236 153.168 247.014 153.168Z" fill="#EB6B5E"/>
<path d="M178.422 54.6607C181.18 54.6607 183.417 52.4253 183.417 49.6677C183.417 46.9101 181.18 44.6747 178.422 44.6747C175.663 44.6747 173.427 46.9101 173.427 49.6677C173.427 52.4253 175.663 54.6607 178.422 54.6607Z" fill="white"/>
<path d="M178.422 55.856C177.198 55.8536 176.002 55.4887 174.986 54.8072C173.97 54.1258 173.178 53.1585 172.711 52.0276C172.244 50.8966 172.124 49.6528 172.364 48.4531C172.604 47.2535 173.195 46.152 174.061 45.2878C174.927 44.4235 176.03 43.8353 177.231 43.5975C178.431 43.3597 179.675 43.483 180.806 43.9517C181.936 44.4204 182.902 45.2136 183.582 46.231C184.262 47.2484 184.624 48.4443 184.624 49.6677C184.624 50.4812 184.463 51.2865 184.15 52.0377C183.838 52.7889 183.381 53.4713 182.805 54.0459C182.229 54.6206 181.546 55.0762 180.794 55.3867C180.042 55.6973 179.236 55.8567 178.422 55.856V55.856ZM178.422 45.8699C177.671 45.8723 176.938 46.097 176.315 46.5158C175.691 46.9345 175.206 47.5285 174.921 48.2226C174.635 48.9168 174.561 49.68 174.709 50.4159C174.857 51.1518 175.22 51.8274 175.752 52.3574C176.284 52.8873 176.96 53.2478 177.697 53.3934C178.434 53.539 179.197 53.4631 179.891 53.1753C180.584 52.8875 181.177 52.4007 181.594 51.7764C182.011 51.1521 182.233 50.4183 182.233 49.6677C182.233 49.1681 182.134 48.6734 181.942 48.2121C181.75 47.7507 181.469 47.3317 181.115 46.9789C180.761 46.6262 180.341 46.3467 179.879 46.1564C179.417 45.9661 178.922 45.8687 178.422 45.8699V45.8699Z" fill="#71BDCB"/>
</g>
<defs>
<clipPath id="clip0">
<rect width="197.2" height="129.2" fill="white" transform="translate(81.2 35.6)"/>
</clipPath>
</defs>
</svg>
