<svg id="Layer_1" data-name="Layer 1" xmlns="http://www.w3.org/2000/svg" viewBox="0 0 427.28 350.4">
  <defs>
    <style>
      .cls-1 {
        fill: #79bc90;
      }

      .cls-2 {
        fill: #ffcc63;
      }

      .cls-3 {
        fill: #eb6b5e;
      }

      .cls-4 {
        fill: #c9c7dc;
      }
    </style>
  </defs>
  <path class="cls-1"
    d="M146.58,205.83l-.23-27.29A41.41,41.41,0,0,0,85,142.64l-11.11,6.13-2.61-4.72,11.12-6.13a46.79,46.79,0,0,1,69.39,40.57l.23,27.3Z" />
  <path class="cls-1"
    d="M261,157.64a12.89,12.89,0,0,1-9.23,12.41l-61,18.17L180.67,220l-5.14-1.64,20.7-65.19L157.6,101.75a13,13,0,1,1,22.88-11.14l16.29,60.84,13.5-42.51,5.14,1.63-24.1,75.88L240,147.59a12.91,12.91,0,0,1,17.67,1.48A12.72,12.72,0,0,1,261,157.64Z" />
  <rect class="cls-2" x="98.06" y="205.81" width="144.59" height="42.19" />
  <polygon class="cls-2" points="98.06 205.81 242.65 205.81 215.69 350.4 125.02 350.4 98.06 205.81" />
  <path class="cls-1" d="M122.35,164.62,85.88,213a12.46,12.46,0,0,0,4.64,18.76h0a12.45,12.45,0,0,0,17.41-8.3Z" />
  <rect class="cls-3" x="98.06" y="245.3" width="144.59" height="5.39" />
  <path class="cls-3"
    d="M207,51.12c8.06,11.3,8.9,37.92,4.95,50.79L209.18,109c-17.35-12.47-24.69-32.49-16.35-46.59A26.25,26.25,0,0,1,207,51.12Z" />
  <path class="cls-3"
    d="M268.39,102.73a23.68,23.68,0,0,1-1.64,3.36c-8.81,14.9-31.83,17.66-51.94,6.45l3.88-4.48C231.78,96.55,252.11,94.38,268.39,102.73Z" />
  <path class="cls-3"
    d="M269.85,97.43C252.79,89.16,232,91.05,217.53,102c3.62-13.69,2.81-39.15-5-52.36,10.23-1.83,22.43.39,33.6,7C262.88,66.61,272.11,83.34,269.85,97.43Z" />
  <path class="cls-4"
    d="M269.85,97.43a23.81,23.81,0,0,1-1.46,5.3c-16.28-8.35-36.61-6.18-49.7,5.33l-3.88,4.48c-.44-.24-.87-.49-1.31-.75-.84-.5-1.65-1-2.45-1.53l-.88-.6-1-.69,2.79-7.06C215.92,89,215.08,62.42,207,51.12a34.29,34.29,0,0,1,5.47-1.44c7.85,13.21,8.66,38.67,5,52.36C232,91.05,252.79,89.16,269.85,97.43Z" />
  <rect class="cls-2" x="296.93" y="64.3" width="27.25" height="5.39" />
  <polygon class="cls-2" points="362.11 69.69 362.1 64.3 362.1 64.3 362.11 69.69" />
  <rect class="cls-2" x="400.04" y="64.3" width="27.24" height="5.39" />
  <rect class="cls-2" x="359.41" y="103.18" width="5.39" height="27.23" />
  <polygon class="cls-2" points="359.41 67 359.41 66.99 364.8 66.99 359.41 67" />
  <rect class="cls-2" x="359.41" width="5.39" height="27.23" />
  <rect class="cls-2" x="312.91" y="99.87" width="27.24" height="5.39"
    transform="translate(23.12 260.93) rotate(-45)" />
  <polygon class="cls-2"
    points="362.11 69.69 362.1 67 359.41 67 359.41 64.3 362.1 64.3 362.11 66.99 364.8 66.99 362.11 67 362.11 69.69" />
  <rect class="cls-2" x="385.85" y="26.94" width="27.24" height="5.39"
    transform="translate(96.04 291.14) rotate(-45)" />
  <rect class="cls-2" x="394.98" y="88.94" width="5.39" height="27.24"
    transform="translate(43.95 311.23) rotate(-45)" />
  <polygon class="cls-2"
    points="362.1 69.69 362.1 67 359.41 67 359.41 66.99 362.1 66.99 362.1 64.3 364.79 64.3 364.8 66.99 362.1 67 362.1 69.69" />
  <rect class="cls-2" x="322.04" y="16.02" width="5.39" height="27.24"
    transform="translate(74.16 238.31) rotate(-45)" />
  <circle class="cls-2" cx="362.1" cy="65.2" r="23.92" />
  <path class="cls-4"
    d="M77.75,218.56c-.48,5.74-3,12.71-8.7,13.44-3.67.47-7.18-2.22-8.78-5.56s-1.69-7.19-1.6-10.89c0-1.37.09-2.73.18-4.09-.68,1.67-1.39,3.33-2.11,5-2.31,5.28-6.37,11.39-12.07,10.52-3.66-.56-6.29-4.12-6.91-7.77s.36-7.38,1.47-10.91q1.59-5,3.54-9.85-3.33,4.11-6.83,8.06c-3.82,4.31-9.58,8.86-14.73,6.28-3.31-1.67-4.71-5.87-4.17-9.53s2.62-6.91,4.78-9.92q2.49-3.48,5.18-6.78-4.35,3-8.82,5.72c-4.9,3-11.73,5.73-15.91,1.77-2.69-2.55-2.83-7-1.25-10.33s4.5-5.86,7.43-8.12c19.71-15.23,66.49-33.53,66.49-33.53S81,180,77.75,218.56Z" />
</svg>