<?xml version="1.0" encoding="UTF-8"?>
<svg xmlns="http://www.w3.org/2000/svg" xmlns:xlink="http://www.w3.org/1999/xlink" width="509pt" height="344.55pt"
  viewBox="0 0 509 344.55" version="1.1">
  <defs>
    <clipPath id="clip1">
      <path d="M 316 264 L 486 264 L 486 344.550781 L 316 344.550781 Z M 316 264 " />
    </clipPath>
  </defs>
  <g id="surface1">
    <path style=" stroke:none;fill-rule:nonzero;fill:rgb(28.24707%,19.993591%,44.309998%);fill-opacity:1;"
      d="M 401.40625 21.335938 L 401.40625 26.367188 L 4 26.367188 L 4 21.335938 C 4 11.761719 11.765625 3.996094 21.339844 3.996094 L 384.070313 3.996094 C 393.644531 3.996094 401.40625 11.761719 401.40625 21.335938 " />
    <path style=" stroke:none;fill-rule:nonzero;fill:rgb(28.24707%,19.993591%,44.309998%);fill-opacity:1;"
      d="M 8 22.367188 L 397.40625 22.367188 L 397.40625 21.335938 C 397.40625 13.980469 391.425781 7.996094 384.070313 7.996094 L 21.339844 7.996094 C 13.984375 7.996094 8 13.980469 8 21.335938 Z M 405.40625 30.367188 L 0 30.367188 L 0 21.335938 C 0 9.570313 9.570313 -0.00390625 21.339844 -0.00390625 L 384.070313 -0.00390625 C 395.835938 -0.00390625 405.40625 9.570313 405.40625 21.335938 " />
    <path style=" stroke:none;fill-rule:nonzero;fill:rgb(100%,100%,100%);fill-opacity:1;"
      d="M 4 308.515625 L 401.40625 308.515625 L 401.40625 28.246094 L 4 28.246094 Z M 4 308.515625 " />
    <path style=" stroke:none;fill-rule:nonzero;fill:rgb(78.514099%,77.734375%,86.326599%);fill-opacity:1;"
      d="M 8 304.515625 L 397.40625 304.515625 L 397.40625 32.246094 L 8 32.246094 Z M 405.40625 312.515625 L 0 312.515625 L 0 24.246094 L 405.40625 24.246094 Z M 405.40625 312.515625 " />
    <path style=" stroke:none;fill-rule:nonzero;fill:rgb(78.514099%,77.734375%,86.326599%);fill-opacity:1;"
      d="M 4 308.515625 L 131.359375 308.515625 L 131.359375 28.246094 L 4 28.246094 Z M 4 308.515625 " />
    <path style=" stroke:none;fill-rule:nonzero;fill:rgb(100%,100%,100%);fill-opacity:1;"
      d="M 475.90625 48.550781 L 326.90625 48.550781 C 323.59375 48.550781 320.90625 51.234375 320.90625 54.550781 L 320.90625 114.550781 C 320.90625 117.863281 323.59375 120.550781 326.90625 120.550781 L 475.90625 120.550781 C 479.222656 120.550781 481.90625 117.863281 481.90625 114.550781 L 481.90625 54.550781 C 481.90625 51.234375 479.222656 48.550781 475.90625 48.550781 " />
    <path style=" stroke:none;fill-rule:nonzero;fill:rgb(78.514099%,77.734375%,86.326599%);fill-opacity:1;"
      d="M 326.90625 52.550781 C 325.804688 52.550781 324.90625 53.445313 324.90625 54.550781 L 324.90625 114.550781 C 324.90625 115.652344 325.804688 116.550781 326.90625 116.550781 L 475.90625 116.550781 C 477.011719 116.550781 477.90625 115.652344 477.90625 114.550781 L 477.90625 54.550781 C 477.90625 53.445313 477.011719 52.550781 475.90625 52.550781 Z M 475.90625 124.550781 L 326.90625 124.550781 C 321.394531 124.550781 316.90625 120.0625 316.90625 114.550781 L 316.90625 54.550781 C 316.90625 49.035156 321.394531 44.550781 326.90625 44.550781 L 475.90625 44.550781 C 481.421875 44.550781 485.90625 49.035156 485.90625 54.550781 L 485.90625 114.550781 C 485.90625 120.0625 481.421875 124.550781 475.90625 124.550781 " />
    <path style=" stroke:none;fill-rule:nonzero;fill:rgb(100%,100%,100%);fill-opacity:1;"
      d="M 475.90625 158.550781 L 326.90625 158.550781 C 323.59375 158.550781 320.90625 161.234375 320.90625 164.550781 L 320.90625 224.550781 C 320.90625 227.863281 323.59375 230.550781 326.90625 230.550781 L 475.90625 230.550781 C 479.222656 230.550781 481.90625 227.863281 481.90625 224.550781 L 481.90625 164.550781 C 481.90625 161.234375 479.222656 158.550781 475.90625 158.550781 " />
    <path style=" stroke:none;fill-rule:nonzero;fill:rgb(78.514099%,77.734375%,86.326599%);fill-opacity:1;"
      d="M 326.90625 162.550781 C 325.804688 162.550781 324.90625 163.445313 324.90625 164.550781 L 324.90625 224.550781 C 324.90625 225.652344 325.804688 226.550781 326.90625 226.550781 L 475.90625 226.550781 C 477.011719 226.550781 477.90625 225.652344 477.90625 224.550781 L 477.90625 164.550781 C 477.90625 163.445313 477.011719 162.550781 475.90625 162.550781 Z M 475.90625 234.550781 L 326.90625 234.550781 C 321.394531 234.550781 316.90625 230.0625 316.90625 224.550781 L 316.90625 164.550781 C 316.90625 159.035156 321.394531 154.550781 326.90625 154.550781 L 475.90625 154.550781 C 481.421875 154.550781 485.90625 159.035156 485.90625 164.550781 L 485.90625 224.550781 C 485.90625 230.0625 481.421875 234.550781 475.90625 234.550781 " />
    <path style=" stroke:none;fill-rule:nonzero;fill:rgb(100%,100%,100%);fill-opacity:1;"
      d="M 475.90625 268.550781 L 326.90625 268.550781 C 323.59375 268.550781 320.90625 271.234375 320.90625 274.550781 L 320.90625 334.550781 C 320.90625 337.863281 323.59375 340.550781 326.90625 340.550781 L 475.90625 340.550781 C 479.222656 340.550781 481.90625 337.863281 481.90625 334.550781 L 481.90625 274.550781 C 481.90625 271.234375 479.222656 268.550781 475.90625 268.550781 " />
    <g clip-path="url(#clip1)" clip-rule="nonzero">
      <path style=" stroke:none;fill-rule:nonzero;fill:rgb(78.514099%,77.734375%,86.326599%);fill-opacity:1;"
        d="M 326.90625 272.550781 C 325.804688 272.550781 324.90625 273.449219 324.90625 274.550781 L 324.90625 334.550781 C 324.90625 335.652344 325.804688 336.550781 326.90625 336.550781 L 475.90625 336.550781 C 477.011719 336.550781 477.90625 335.652344 477.90625 334.550781 L 477.90625 274.550781 C 477.90625 273.449219 477.011719 272.550781 475.90625 272.550781 Z M 475.90625 344.550781 L 326.90625 344.550781 C 321.394531 344.550781 316.90625 340.0625 316.90625 334.550781 L 316.90625 274.550781 C 316.90625 269.035156 321.394531 264.550781 326.90625 264.550781 L 475.90625 264.550781 C 481.421875 264.550781 485.90625 269.035156 485.90625 274.550781 L 485.90625 334.550781 C 485.90625 340.0625 481.421875 344.550781 475.90625 344.550781 " />
    </g>
    <path style=" stroke:none;fill-rule:nonzero;fill:rgb(100%,80.076599%,38.426208%);fill-opacity:1;"
      d="M 509 48.550781 C 509 63.511719 496.871094 75.640625 481.90625 75.640625 C 466.945313 75.640625 454.816406 63.511719 454.816406 48.550781 C 454.816406 33.585938 466.945313 21.457031 481.90625 21.457031 C 496.871094 21.457031 509 33.585938 509 48.550781 " />
    <path style=" stroke:none;fill-rule:nonzero;fill:rgb(92.1875%,41.967773%,36.863708%);fill-opacity:1;"
      d="M 509 158.550781 C 509 173.511719 496.871094 185.640625 481.90625 185.640625 C 466.945313 185.640625 454.816406 173.511719 454.816406 158.550781 C 454.816406 143.585938 466.945313 131.457031 481.90625 131.457031 C 496.871094 131.457031 509 143.585938 509 158.550781 " />
    <path style=" stroke:none;fill-rule:nonzero;fill:rgb(43.920898%,73.631287%,79.296875%);fill-opacity:1;"
      d="M 509 268.328125 C 509 283.289063 496.871094 295.417969 481.90625 295.417969 C 466.945313 295.417969 454.816406 283.289063 454.816406 268.328125 C 454.816406 253.363281 466.945313 241.234375 481.90625 241.234375 C 496.871094 241.234375 509 253.363281 509 268.328125 " />
    <path style=" stroke:none;fill-rule:nonzero;fill:rgb(87.5%,86.71875%,93.75%);fill-opacity:1;"
      d="M 146 120.550781 L 284 120.550781 L 284 48.550781 L 146 48.550781 Z M 146 120.550781 " />
    <path style=" stroke:none;fill-rule:nonzero;fill:rgb(87.5%,86.71875%,93.75%);fill-opacity:1;"
      d="M 146 201.550781 L 284 201.550781 L 284 129.550781 L 146 129.550781 Z M 146 201.550781 " />
    <path style=" stroke:none;fill-rule:nonzero;fill:rgb(100%,100%,100%);fill-opacity:1;"
      d="M 477.585938 56.371094 C 478.757813 57.089844 480.46875 57.691406 482.265625 57.691406 C 484.9375 57.691406 486.496094 56.28125 486.496094 54.238281 C 486.496094 52.351563 485.417969 51.269531 482.6875 50.21875 C 479.386719 49.050781 477.347656 47.339844 477.347656 44.488281 C 477.347656 41.339844 479.957031 39 483.886719 39 C 485.957031 39 487.457031 39.480469 488.355469 39.992188 L 487.636719 42.121094 C 486.976563 41.761719 485.628906 41.160156 483.796875 41.160156 C 481.035156 41.160156 479.988281 42.808594 479.988281 44.191406 C 479.988281 46.078125 481.21875 47.011719 484.007813 48.089844 C 487.425781 49.410156 489.167969 51.058594 489.167969 54.03125 C 489.167969 57.148438 486.855469 59.847656 482.085938 59.847656 C 480.136719 59.847656 478.007813 59.28125 476.925781 58.558594 " />
    <path style=" stroke:none;fill-rule:nonzero;fill:rgb(100%,100%,100%);fill-opacity:1;"
      d="M 489.984375 159.671875 C 489.835938 156.851563 489.65625 153.460938 489.6875 150.941406 L 489.597656 150.941406 C 488.90625 153.308594 488.066406 155.828125 487.046875 158.621094 L 483.476563 168.429688 L 481.496094 168.429688 L 478.226563 158.800781 C 477.265625 155.949219 476.457031 153.339844 475.886719 150.941406 L 475.824219 150.941406 C 475.765625 153.460938 475.617188 156.851563 475.4375 159.878906 L 474.898438 168.550781 L 472.40625 168.550781 L 473.816406 148.328125 L 477.148438 148.328125 L 480.597656 158.109375 C 481.4375 160.601563 482.125 162.820313 482.636719 164.921875 L 482.726563 164.921875 C 483.234375 162.878906 483.957031 160.660156 484.855469 158.109375 L 488.457031 148.328125 L 491.785156 148.328125 L 493.046875 168.550781 L 490.496094 168.550781 " />
    <path style=" stroke:none;fill-rule:nonzero;fill:rgb(100%,100%,100%);fill-opacity:1;"
      d="M 477.945313 258.332031 L 480.558594 258.332031 L 480.558594 276.359375 L 489.195313 276.359375 L 489.195313 278.550781 L 477.945313 278.550781 " />
  </g>
</svg>