<svg width="360" height="200" viewBox="0 0 360 200" fill="none" xmlns="http://www.w3.org/2000/svg">
<rect width="360" height="200" fill="white"/>
<g clip-path="url(#clip0)">
<path d="M178.591 95.9505L178.572 95.9542L178.583 95.9431L178.591 95.9505Z" fill="#DFDDED"/>
<path d="M186.934 115.596L186.92 115.625L186.891 115.614L186.934 115.596Z" fill="#DFDDED"/>
<path d="M186.891 115.614H186.92V115.585L186.891 115.614Z" fill="#DFDDED"/>
<path d="M186.934 115.596L186.92 115.625L186.891 115.614L186.934 115.596Z" fill="#DFDDED"/>
<path d="M186.891 115.614H186.92V115.585L186.891 115.614Z" fill="#DFDDED"/>
<path d="M178.591 95.9505L178.572 95.9542L178.583 95.9431L178.591 95.9505Z" fill="#DFDDED"/>
<path d="M186.934 115.596L186.92 115.625L186.891 115.614L186.934 115.596Z" fill="#DFDDED"/>
<path d="M258.965 113.454L198.8 98.4421L203.127 89.8489L186.934 79.5429L178.251 91.4897L159.938 72.8394L145.072 83.2355L157.912 101.453L100.898 116.642L109.912 150.899L146.045 135.808L128.95 159.322L158.478 178.517L180.898 133.994L207.688 171.944L234.447 148.703L215.242 129.165L248.902 143.395L258.965 113.454Z" fill="#DFDDED"/>
<path d="M178.591 95.9505L178.572 95.9542L178.583 95.9431L178.591 95.9505Z" fill="#DFDDED"/>
<path d="M186.934 115.596L186.92 115.625L186.891 115.614L186.934 115.596Z" fill="#DFDDED"/>
<path d="M143.993 184.958C153.018 184.958 160.335 177.641 160.335 168.615C160.335 159.589 153.018 152.273 143.993 152.273C134.969 152.273 127.652 159.589 127.652 168.615C127.652 177.641 134.969 184.958 143.993 184.958Z" fill="white"/>
<path d="M143.994 186.4C140.476 186.4 137.038 185.357 134.114 183.403C131.189 181.448 128.91 178.671 127.564 175.421C126.218 172.171 125.866 168.595 126.552 165.145C127.238 161.695 128.932 158.527 131.419 156.039C133.906 153.552 137.075 151.858 140.524 151.172C143.974 150.486 147.55 150.838 150.799 152.184C154.049 153.53 156.826 155.81 158.78 158.734C160.734 161.659 161.777 165.098 161.777 168.615C161.771 173.33 159.896 177.85 156.562 181.185C153.228 184.519 148.708 186.394 143.994 186.4ZM143.994 153.715C141.047 153.715 138.166 154.589 135.716 156.226C133.266 157.863 131.357 160.19 130.229 162.913C129.101 165.636 128.806 168.632 129.381 171.522C129.956 174.412 131.375 177.067 133.459 179.151C135.542 181.235 138.197 182.654 141.087 183.229C143.977 183.804 146.973 183.509 149.695 182.381C152.418 181.253 154.744 179.343 156.382 176.893C158.019 174.443 158.892 171.562 158.892 168.615C158.888 164.665 157.316 160.878 154.523 158.084C151.73 155.291 147.944 153.72 143.994 153.715V153.715Z" fill="#C9C7DC"/>
<path d="M221.213 176.624C230.238 176.624 237.555 169.307 237.555 160.282C237.555 151.256 230.238 143.939 221.213 143.939C212.188 143.939 204.872 151.256 204.872 160.282C204.872 169.307 212.188 176.624 221.213 176.624Z" fill="white"/>
<path d="M221.214 178.074C217.696 178.074 214.258 177.031 211.334 175.076C208.409 173.122 206.13 170.345 204.784 167.095C203.438 163.845 203.086 160.269 203.772 156.819C204.458 153.369 206.152 150.2 208.639 147.713C211.126 145.226 214.295 143.532 217.744 142.846C221.194 142.159 224.77 142.512 228.019 143.858C231.268 145.204 234.046 147.483 236 150.408C237.954 153.333 238.997 156.771 238.997 160.289C238.991 165.004 237.116 169.524 233.782 172.858C230.448 176.192 225.928 178.068 221.214 178.074V178.074ZM221.214 145.389C218.267 145.389 215.386 146.263 212.936 147.9C210.486 149.537 208.577 151.864 207.449 154.587C206.321 157.309 206.026 160.305 206.601 163.196C207.176 166.086 208.595 168.741 210.679 170.825C212.762 172.909 215.417 174.328 218.307 174.903C221.197 175.477 224.193 175.182 226.915 174.055C229.638 172.927 231.964 171.017 233.602 168.567C235.239 166.117 236.112 163.236 236.112 160.289C236.11 156.337 234.539 152.548 231.746 149.753C228.953 146.959 225.165 145.386 221.214 145.382V145.389Z" fill="#C9C7DC"/>
<path d="M255.821 143.943C263.962 143.943 270.561 137.343 270.561 129.201C270.561 121.06 263.962 114.46 255.821 114.46C247.68 114.46 241.081 121.06 241.081 129.201C241.081 137.343 247.68 143.943 255.821 143.943Z" fill="white"/>
<path d="M255.821 145.382C252.62 145.382 249.491 144.434 246.829 142.656C244.168 140.878 242.093 138.35 240.868 135.393C239.643 132.435 239.322 129.181 239.946 126.041C240.57 122.902 242.112 120.018 244.375 117.754C246.638 115.491 249.522 113.949 252.662 113.325C255.801 112.7 259.055 113.021 262.012 114.247C264.969 115.472 267.497 117.547 269.274 120.209C271.052 122.871 272.001 126 272 129.201C271.995 133.491 270.289 137.604 267.256 140.637C264.223 143.671 260.111 145.377 255.821 145.382ZM255.821 115.902C253.191 115.902 250.62 116.681 248.432 118.142C246.245 119.603 244.54 121.68 243.533 124.11C242.526 126.54 242.262 129.214 242.775 131.794C243.288 134.374 244.554 136.744 246.413 138.604C248.273 140.464 250.642 141.731 253.222 142.245C255.802 142.758 258.476 142.495 260.906 141.488C263.336 140.482 265.413 138.777 266.874 136.59C268.336 134.403 269.116 131.832 269.116 129.201C269.112 125.676 267.71 122.296 265.218 119.803C262.726 117.31 259.346 115.907 255.821 115.902V115.902Z" fill="#C9C7DC"/>
<path d="M105.463 150.026C114.532 150.026 121.883 142.674 121.883 133.604C121.883 124.535 114.532 117.182 105.463 117.182C96.3942 117.182 89.0425 124.535 89.0425 133.604C89.0425 142.674 96.3942 150.026 105.463 150.026Z" fill="white"/>
<path d="M105.463 151.472C101.929 151.472 98.4749 150.424 95.5368 148.461C92.5987 146.497 90.3087 143.707 88.9564 140.442C87.6042 137.177 87.2504 133.584 87.9397 130.118C88.6291 126.652 90.3307 123.469 92.8294 120.97C95.328 118.471 98.5115 116.769 101.977 116.08C105.443 115.39 109.035 115.744 112.3 117.097C115.565 118.449 118.355 120.739 120.318 123.677C122.281 126.616 123.329 130.07 123.329 133.604C123.324 138.342 121.44 142.884 118.091 146.233C114.741 149.583 110.2 151.467 105.463 151.472V151.472ZM105.463 118.625C102.5 118.625 99.6028 119.504 97.139 121.15C94.6752 122.797 92.7549 125.137 91.6211 127.875C90.4873 130.613 90.1908 133.626 90.7692 136.532C91.3475 139.439 92.7748 142.108 94.8703 144.204C96.9659 146.299 99.6358 147.726 102.542 148.303C105.449 148.881 108.461 148.584 111.199 147.449C113.936 146.315 116.276 144.394 117.921 141.929C119.567 139.465 120.445 136.568 120.445 133.604C120.44 129.632 118.86 125.824 116.051 123.016C113.242 120.208 109.434 118.629 105.463 118.625V118.625Z" fill="#C9C7DC"/>
<path d="M182.431 152.644L178.23 160.332C178.23 160.332 169.407 155.792 169.187 155.688C166.89 154.606 164.031 153.257 163.345 150.152C163.137 149.229 163.163 148.268 163.422 147.357C163.68 146.446 164.162 145.615 164.824 144.938C165.657 144.139 166.727 143.633 167.873 143.496C169.019 143.359 170.179 143.598 171.177 144.177L171.318 144.271L174.563 146.734L182.431 152.644Z" fill="#DFDDED"/>
<path d="M204.62 118.964L206.315 120.612C199.69 127.798 190.699 132.359 180.988 133.46V133.46L182.791 129.854C173.079 130.957 163.294 128.532 155.222 123.021L152.878 126.248C146.062 121.416 140.896 114.606 138.08 106.74L157.912 101.453L145.072 83.2356L159.938 72.8286L178.248 91.4789L186.934 79.5322L203.127 89.8382L198.8 98.4313L201.685 99.1525L213.396 102.073C211.854 108.321 208.845 114.111 204.62 118.964V118.964Z" fill="#C9C7DC"/>
<path d="M211.197 89.546C211.197 98.775 207.531 107.626 201.006 114.152C194.48 120.678 185.63 124.344 176.402 124.344C167.173 124.344 158.323 120.678 151.798 114.152C145.272 107.626 141.606 98.775 141.606 89.546C141.606 56.1904 176.402 14 176.402 14C176.402 14 211.197 56.1904 211.197 89.546Z" fill="#EB6B5E"/>
<path d="M176.402 115.329C171.558 115.323 166.914 113.396 163.489 109.971C160.064 106.546 158.137 101.902 158.132 97.0573C158.132 80.5959 174.588 60.4491 175.291 59.598L176.402 58.2494L177.516 59.598C178.215 60.4491 194.676 80.5959 194.676 97.0573C194.669 101.902 192.741 106.546 189.316 109.971C185.89 113.397 181.246 115.323 176.402 115.329V115.329ZM176.402 62.8543C172.695 67.7008 161.016 84.0144 161.016 97.0573C161.078 101.098 162.726 104.952 165.605 107.787C168.484 110.623 172.363 112.212 176.404 112.212C180.444 112.212 184.323 110.623 187.202 107.787C190.081 104.952 191.729 101.098 191.791 97.0573C191.805 84.0144 180.108 67.7008 176.402 62.8543Z" fill="#FFCC63"/>
<path d="M143.994 176.992C142.337 176.992 140.717 176.501 139.34 175.58C137.963 174.66 136.889 173.351 136.255 171.821C135.621 170.29 135.455 168.606 135.778 166.981C136.102 165.356 136.899 163.863 138.071 162.692C139.242 161.52 140.735 160.722 142.359 160.399C143.984 160.076 145.668 160.242 147.199 160.876C148.729 161.51 150.038 162.584 150.958 163.961C151.878 165.339 152.37 166.958 152.37 168.615C152.367 170.836 151.483 172.965 149.913 174.535C148.343 176.106 146.214 176.989 143.994 176.992V176.992ZM143.994 163.123C142.907 163.123 141.846 163.445 140.943 164.049C140.04 164.652 139.336 165.51 138.92 166.513C138.504 167.517 138.396 168.621 138.608 169.686C138.819 170.752 139.342 171.73 140.11 172.498C140.878 173.267 141.857 173.79 142.922 174.001C143.987 174.213 145.092 174.105 146.095 173.689C147.098 173.273 147.956 172.569 148.56 171.666C149.163 170.763 149.485 169.701 149.485 168.615C149.484 167.159 148.905 165.762 147.876 164.733C146.846 163.703 145.45 163.124 143.994 163.123V163.123Z" fill="#F0EFF9"/>
<path d="M221.271 168.698C219.616 168.695 217.999 168.201 216.624 167.279C215.25 166.357 214.179 165.049 213.547 163.519C212.916 161.989 212.751 160.306 213.075 158.683C213.399 157.059 214.196 155.569 215.366 154.398C216.537 153.228 218.028 152.43 219.651 152.106C221.274 151.783 222.956 151.947 224.486 152.579C226.016 153.211 227.324 154.281 228.246 155.656C229.168 157.031 229.662 158.648 229.665 160.303C229.666 161.406 229.45 162.498 229.028 163.517C228.607 164.536 227.988 165.462 227.209 166.241C226.429 167.021 225.503 167.639 224.485 168.061C223.466 168.483 222.374 168.699 221.271 168.698V168.698ZM221.271 154.829C220.185 154.833 219.124 155.159 218.223 155.765C217.322 156.371 216.621 157.231 216.209 158.236C215.796 159.241 215.691 160.346 215.907 161.41C216.122 162.475 216.648 163.452 217.419 164.217C218.189 164.983 219.17 165.503 220.236 165.711C221.301 165.92 222.405 165.807 223.407 165.388C224.409 164.969 225.265 164.263 225.865 163.357C226.466 162.452 226.784 161.39 226.781 160.303C226.78 159.581 226.637 158.865 226.36 158.198C226.083 157.531 225.677 156.925 225.165 156.415C224.653 155.904 224.046 155.5 223.378 155.225C222.709 154.95 221.994 154.809 221.271 154.811V154.829Z" fill="#F0EFF9"/>
<path d="M255.886 137.686C254.231 137.683 252.614 137.189 251.239 136.267C249.865 135.345 248.794 134.037 248.162 132.507C247.53 130.977 247.366 129.294 247.69 127.671C248.014 126.048 248.811 124.557 249.981 123.386C251.152 122.216 252.643 121.418 254.266 121.095C255.889 120.771 257.571 120.935 259.101 121.567C260.631 122.199 261.939 123.27 262.861 124.644C263.783 126.019 264.277 127.636 264.28 129.291C264.281 130.394 264.065 131.486 263.643 132.505C263.222 133.524 262.603 134.45 261.824 135.23C261.044 136.009 260.118 136.628 259.1 137.049C258.081 137.471 256.989 137.687 255.886 137.686V137.686ZM255.886 123.818C254.8 123.821 253.739 124.147 252.838 124.753C251.937 125.36 251.236 126.22 250.824 127.224C250.411 128.229 250.306 129.334 250.522 130.399C250.737 131.463 251.263 132.44 252.034 133.206C252.804 133.971 253.785 134.491 254.851 134.699C255.916 134.908 257.02 134.795 258.022 134.376C259.024 133.958 259.88 133.251 260.48 132.346C261.081 131.441 261.399 130.378 261.396 129.291C261.395 128.569 261.252 127.853 260.975 127.186C260.698 126.519 260.292 125.913 259.78 125.403C259.268 124.893 258.661 124.488 257.993 124.213C257.324 123.938 256.609 123.798 255.886 123.8V123.818Z" fill="#F0EFF9"/>
<path d="M105.528 142.374C103.873 142.371 102.256 141.877 100.881 140.955C99.5063 140.033 98.4356 138.725 97.8038 137.195C97.1721 135.665 97.0077 133.982 97.3315 132.359C97.6553 130.735 98.4526 129.245 99.623 128.074C100.793 126.904 102.284 126.106 103.907 125.782C105.53 125.459 107.213 125.623 108.743 126.255C110.273 126.887 111.581 127.957 112.503 129.332C113.424 130.707 113.918 132.324 113.922 133.979C113.923 135.082 113.706 136.174 113.285 137.193C112.863 138.212 112.245 139.138 111.465 139.917C110.686 140.697 109.76 141.316 108.741 141.737C107.722 142.159 106.63 142.375 105.528 142.374V142.374ZM105.528 128.505C104.442 128.509 103.381 128.835 102.48 129.441C101.579 130.047 100.878 130.907 100.465 131.912C100.053 132.917 99.9479 134.022 100.163 135.086C100.379 136.151 100.905 137.128 101.675 137.893C102.446 138.659 103.426 139.179 104.492 139.387C105.558 139.596 106.662 139.483 107.664 139.064C108.666 138.645 109.521 137.939 110.122 137.034C110.722 136.128 111.041 135.066 111.037 133.979C111.037 133.257 110.894 132.541 110.617 131.874C110.339 131.207 109.933 130.601 109.421 130.091C108.91 129.58 108.302 129.176 107.634 128.901C106.966 128.626 106.25 128.485 105.528 128.487V128.505Z" fill="#F0EFF9"/>
<path d="M242.228 98.835C241.692 101.208 241.156 103.577 240.62 105.943C240.62 105.979 240.601 106.018 240.594 106.054C240.501 106.469 240.418 106.909 240.335 107.356C240.252 107.803 240.158 108.301 240.053 108.773C239.639 110.688 238.972 112.556 237.201 113.461C236.576 113.783 235.881 113.945 235.178 113.932C234.476 113.92 233.787 113.733 233.174 113.389C232.459 112.95 231.907 112.29 231.6 111.51C231.293 110.729 231.248 109.87 231.472 109.062L232.409 106.79L232.965 105.445L233.52 104.1L236.307 97.3494L242.228 98.835Z" fill="#DFDDED"/>
<path d="M240.619 105.953C240.619 105.989 240.601 106.029 240.594 106.065C240.5 106.48 240.417 106.92 240.335 107.367C240.252 107.814 240.158 108.312 240.053 108.784L232.409 106.819L232.964 105.474L233.52 104.129L240.619 105.953Z" fill="#C9C7DC"/>
<path d="M176.91 148.483L172.392 157.31L170.405 156.283L169.825 155.99L174.574 146.719L176.91 148.483Z" fill="#C9C7DC"/>
</g>
<defs>
<clipPath id="clip0">
<rect width="184.4" height="172.4" fill="white" transform="translate(87.6001 14)"/>
</clipPath>
</defs>
</svg>
