<svg width="360" height="200" viewBox="0 0 360 200" fill="none" xmlns="http://www.w3.org/2000/svg">
<rect width="360" height="200" fill="white"/>
<g clip-path="url(#clip0)">
<path d="M244.824 129.353L243.086 129.836L255.585 174.784L257.322 174.3L244.824 129.353Z" fill="#FFCC63"/>
<path d="M199.065 77.2336H196.333V75.4304H199.065C203.906 75.4375 208.626 73.916 212.552 71.0829C216.478 68.2497 219.409 64.2495 220.928 59.6524L222.281 55.6133L223.991 56.1813L222.639 60.2204C221.001 65.177 217.84 69.49 213.607 72.5448C209.374 75.5997 204.285 77.2406 199.065 77.2336Z" fill="#FFCC63"/>
<path d="M128.983 23.067L127.241 23.5343L135.222 53.2807L136.964 52.8134L128.983 23.067Z" fill="#FFCC63"/>
<path d="M203.669 129.098L195.687 158.845L197.429 159.312L205.41 129.566L203.669 129.098Z" fill="#FFCC63"/>
<path d="M201.03 96.9875H101.79C101.647 96.9871 101.508 96.9399 101.395 96.8532C101.282 96.7665 101.2 96.645 101.163 96.5074L89.7242 53.8799C89.6986 53.7838 89.6955 53.6832 89.715 53.5857C89.7345 53.4883 89.7761 53.3966 89.8367 53.3177C89.8972 53.2389 89.9751 53.175 90.0642 53.131C90.1533 53.087 90.2514 53.0641 90.3508 53.064H189.592C189.734 53.0644 189.873 53.1116 189.986 53.1983C190.099 53.285 190.181 53.4065 190.218 53.5441L201.657 96.1806C201.681 96.2761 201.683 96.3757 201.663 96.4721C201.642 96.5684 201.6 96.6588 201.54 96.7365C201.48 96.8143 201.402 96.8773 201.314 96.9208C201.226 96.9642 201.129 96.9871 201.03 96.9875V96.9875Z" fill="white"/>
<path d="M201.031 97.8893H101.79C101.448 97.889 101.117 97.7762 100.846 97.5683C100.576 97.3605 100.381 97.0693 100.293 96.7397L88.8543 54.1054C88.7923 53.8757 88.7841 53.6349 88.8302 53.4015C88.8764 53.1681 88.9757 52.9485 89.1204 52.7597C89.2652 52.5709 89.4515 52.418 89.6649 52.3129C89.8782 52.2078 90.113 52.1532 90.3509 52.1534H189.592C189.933 52.1537 190.265 52.2665 190.535 52.4743C190.806 52.6822 191 52.9734 191.088 53.303L202.527 95.9373C202.589 96.1669 202.597 96.4077 202.55 96.6408C202.504 96.874 202.405 97.0934 202.26 97.2821C202.115 97.4708 201.929 97.6236 201.716 97.7289C201.503 97.8342 201.268 97.8891 201.031 97.8893V97.8893ZM101.983 96.0861H200.706L189.398 53.9566H90.6822L101.983 96.0861Z" fill="#C6C5DA"/>
<path d="M158.302 96.9876L162.84 79.5281C162.942 79.1344 163.172 78.7857 163.494 78.5369C163.816 78.288 164.211 78.1531 164.618 78.1532H196.908L199.694 88.8709L170.291 85.4629L166.631 97.6931L158.302 96.9876Z" fill="#F0EFF9"/>
<path d="M133.113 85.2126L133.836 87.8047H146.467L145.746 85.2126H133.113Z" fill="#C9C5DA"/>
<path d="M105.042 85.2126L105.583 87.1579L105.763 87.8047H130.415L130.056 86.5087L129.693 85.2126H105.042Z" fill="#C9C5DA"/>
<path d="M114.61 61.2528H100.025C99.7855 61.2528 99.5562 61.1578 99.3871 60.9887C99.218 60.8196 99.123 60.5903 99.123 60.3512C99.123 60.1121 99.218 59.8827 99.3871 59.7137C99.5562 59.5446 99.7855 59.4496 100.025 59.4496H114.61C114.849 59.4496 115.078 59.5446 115.247 59.7137C115.416 59.8827 115.511 60.1121 115.511 60.3512C115.511 60.5903 115.416 60.8196 115.247 60.9887C115.078 61.1578 114.849 61.2528 114.61 61.2528V61.2528Z" fill="#F0EFF9"/>
<path d="M100.777 67.9764L100.863 68.2762L101.501 70.5663H171.411L171.139 69.5948L170.688 67.9764H100.777Z" fill="#4A3372"/>
<path d="M173.625 60.3264C171.526 60.3264 169.475 59.704 167.73 58.5378C165.986 57.3717 164.626 55.7142 163.824 53.7752C163.022 51.8362 162.812 49.7027 163.223 47.6448C163.633 45.5868 164.645 43.6968 166.129 42.2138C167.614 40.7309 169.505 39.7217 171.564 39.314C173.622 38.9062 175.755 39.1182 177.693 39.9231C179.631 40.7281 181.287 42.0897 182.451 43.8359C183.615 45.582 184.235 47.6341 184.232 49.7326C184.226 52.5428 183.106 55.2359 181.118 57.2218C179.129 59.2076 176.435 60.324 173.625 60.3264V60.3264ZM173.625 40.9173C171.884 40.9173 170.181 41.4336 168.734 42.401C167.286 43.3684 166.157 44.7434 165.491 46.3522C164.825 47.9609 164.65 49.7311 164.99 51.439C165.33 53.1468 166.168 54.7155 167.4 55.9468C168.631 57.1781 170.2 58.0166 171.907 58.3563C173.615 58.696 175.385 58.5217 176.994 57.8553C178.603 57.1889 179.978 56.0605 180.945 54.6127C181.912 53.1648 182.429 51.4627 182.429 49.7214C182.426 47.3871 181.498 45.1491 179.848 43.4986C178.197 41.848 175.959 40.9197 173.625 40.9173V40.9173Z" fill="#C9C7DC"/>
<path d="M173.625 59.427C178.985 59.427 183.33 55.0816 183.33 49.7213C183.33 44.361 178.985 40.0156 173.625 40.0156C168.265 40.0156 163.919 44.361 163.919 49.7213C163.919 55.0816 168.265 59.427 173.625 59.427Z" fill="white"/>
<path d="M173.625 60.3264C171.526 60.3264 169.475 59.704 167.73 58.5378C165.986 57.3717 164.626 55.7142 163.824 53.7752C163.022 51.8362 162.812 49.7027 163.223 47.6448C163.633 45.5868 164.645 43.6968 166.129 42.2138C167.614 40.7309 169.505 39.7217 171.564 39.314C173.622 38.9062 175.755 39.1182 177.693 39.9231C179.631 40.7281 181.287 42.0897 182.451 43.8359C183.615 45.582 184.235 47.6341 184.232 49.7326C184.226 52.5428 183.106 55.2359 181.118 57.2218C179.129 59.2076 176.435 60.324 173.625 60.3264V60.3264ZM173.625 40.9173C171.884 40.9173 170.181 41.4336 168.734 42.401C167.286 43.3684 166.157 44.7434 165.491 46.3522C164.825 47.9609 164.65 49.7311 164.99 51.439C165.33 53.1468 166.168 54.7155 167.4 55.9468C168.631 57.1781 170.2 58.0166 171.907 58.3563C173.615 58.696 175.385 58.5217 176.994 57.8553C178.603 57.1889 179.978 56.0605 180.945 54.6127C181.912 53.1648 182.429 51.4627 182.429 49.7214C182.426 47.3871 181.498 45.1491 179.848 43.4986C178.197 41.848 175.959 40.9197 173.625 40.9173V40.9173Z" fill="#C9C7DC"/>
<path d="M173.163 49.7213C174.694 49.7213 175.935 48.4801 175.935 46.9489C175.935 45.4178 174.694 44.1765 173.163 44.1765C171.632 44.1765 170.39 45.4178 170.39 46.9489C170.39 48.4801 171.632 49.7213 173.163 49.7213Z" fill="#71BDCB"/>
<path d="M168.116 56.916C169.799 58.283 171.891 59.0477 174.058 59.0886C176.226 59.1294 178.345 58.444 180.078 57.1414C179.97 55.6467 179.307 54.2463 178.219 53.2153C177.132 52.1842 175.698 51.5969 174.2 51.5687C172.702 51.5405 171.247 52.0733 170.121 53.0627C168.996 54.052 168.28 55.4264 168.116 56.916V56.916Z" fill="#71BDCB"/>
<path d="M173.625 60.3264C171.526 60.3264 169.475 59.704 167.73 58.5378C165.986 57.3717 164.626 55.7142 163.824 53.7752C163.022 51.8362 162.812 49.7027 163.223 47.6448C163.633 45.5868 164.645 43.6968 166.129 42.2138C167.614 40.7309 169.505 39.7217 171.564 39.314C173.622 38.9062 175.755 39.1182 177.693 39.9231C179.631 40.7281 181.287 42.0897 182.451 43.8359C183.615 45.582 184.235 47.6341 184.232 49.7326C184.226 52.5428 183.106 55.2359 181.118 57.2218C179.129 59.2076 176.435 60.324 173.625 60.3264V60.3264ZM173.625 40.9173C171.884 40.9173 170.181 41.4336 168.734 42.401C167.286 43.3684 166.157 44.7434 165.491 46.3522C164.825 47.9609 164.65 49.7311 164.99 51.439C165.33 53.1468 166.168 54.7155 167.4 55.9468C168.631 57.1781 170.2 58.0166 171.907 58.3563C173.615 58.696 175.385 58.5217 176.994 57.8553C178.603 57.1889 179.978 56.0605 180.945 54.6127C181.912 53.1648 182.429 51.4627 182.429 49.7214C182.426 47.3871 181.498 45.1491 179.848 43.4986C178.197 41.848 175.959 40.9197 173.625 40.9173V40.9173Z" fill="#C6C5DA"/>
<path d="M158.952 129.465H258.193C258.335 129.465 258.474 129.418 258.587 129.332C258.7 129.245 258.782 129.123 258.819 128.985L270.258 86.3488C270.283 86.2527 270.287 86.1521 270.267 86.0546C270.248 85.9571 270.206 85.8654 270.145 85.7866C270.085 85.7078 270.007 85.6439 269.918 85.5999C269.829 85.5559 269.731 85.533 269.631 85.5328H170.393C170.25 85.5332 170.111 85.5804 169.998 85.6672C169.885 85.7539 169.804 85.8754 169.766 86.0129L158.325 128.649C158.299 128.746 158.296 128.846 158.316 128.944C158.335 129.041 158.377 129.133 158.438 129.212C158.498 129.29 158.576 129.354 158.665 129.398C158.754 129.442 158.852 129.465 158.952 129.465V129.465Z" fill="white"/>
<path d="M258.193 130.367H158.952C158.714 130.367 158.479 130.313 158.266 130.208C158.052 130.102 157.866 129.949 157.721 129.761C157.576 129.572 157.477 129.352 157.431 129.119C157.385 128.886 157.393 128.645 157.455 128.415L168.894 85.7807C168.982 85.4514 169.177 85.1604 169.447 84.953C169.718 84.7455 170.049 84.6332 170.39 84.6334H269.631C269.869 84.6333 270.103 84.6878 270.317 84.7928C270.53 84.8978 270.716 85.0505 270.861 85.239C271.005 85.4275 271.105 85.6468 271.151 85.8799C271.197 86.113 271.19 86.3536 271.128 86.5831L259.689 129.22C259.601 129.549 259.406 129.84 259.136 130.047C258.865 130.255 258.534 130.367 258.193 130.367ZM159.283 128.564H258.006L269.307 86.4366H170.584L159.283 128.564Z" fill="#C6C5DA"/>
<path d="M181.523 117.693L180.801 120.283H168.168L168.889 117.693H181.523Z" fill="#C9C5DA"/>
<path d="M209.595 117.693L209.054 119.636L208.872 120.283H184.22L184.579 118.989L184.944 117.693H209.595Z" fill="#C9C5DA"/>
<path d="M190.32 93.7328H175.735C175.495 93.7328 175.266 93.6378 175.097 93.4687C174.928 93.2996 174.833 93.0703 174.833 92.8312C174.833 92.592 174.928 92.3627 175.097 92.1936C175.266 92.0246 175.495 91.9296 175.735 91.9296H190.32C190.559 91.9296 190.788 92.0246 190.957 92.1936C191.126 92.3627 191.221 92.592 191.221 92.8312C191.221 93.0703 191.126 93.2996 190.957 93.4687C190.788 93.6378 190.559 93.7328 190.32 93.7328V93.7328Z" fill="#F0EFF9"/>
<path d="M243.008 100.454L242.924 100.754L242.286 103.044H172.376L172.646 102.073L173.097 100.454H243.008Z" fill="#4A3372"/>
<path d="M253.728 92.8064C251.63 92.8064 249.579 92.1843 247.835 91.0188C246.09 89.8532 244.731 88.1966 243.928 86.2583C243.125 84.3201 242.915 82.1873 243.324 80.1297C243.734 78.0721 244.744 76.1821 246.227 74.6986C247.711 73.2151 249.601 72.2049 251.658 71.7956C253.716 71.3863 255.849 71.5964 257.787 72.3992C259.725 73.2021 261.382 74.5616 262.547 76.306C263.713 78.0504 264.335 80.1012 264.335 82.1991C264.332 85.0114 263.213 87.7077 261.225 89.6963C259.236 91.6849 256.54 92.8034 253.728 92.8064V92.8064ZM253.728 73.395C251.986 73.395 250.284 73.9114 248.836 74.8788C247.389 75.8462 246.26 77.2212 245.594 78.8299C244.928 80.4387 244.753 82.2089 245.093 83.9167C245.433 85.6245 246.271 87.1933 247.502 88.4245C248.734 89.6558 250.302 90.4943 252.01 90.834C253.718 91.1737 255.488 90.9994 257.097 90.333C258.705 89.6667 260.08 88.5382 261.048 87.0904C262.015 85.6426 262.532 83.9404 262.532 82.1991C262.529 79.865 261.6 77.6274 259.95 75.977C258.299 74.3265 256.062 73.398 253.728 73.395Z" fill="#C9C7DC"/>
<path d="M253.727 91.9048C259.088 91.9048 263.433 87.5594 263.433 82.1991C263.433 76.8388 259.088 72.4934 253.727 72.4934C248.367 72.4934 244.022 76.8388 244.022 82.1991C244.022 87.5594 248.367 91.9048 253.727 91.9048Z" fill="white"/>
<path d="M253.728 92.8064C251.63 92.8064 249.579 92.1843 247.835 91.0188C246.09 89.8532 244.731 88.1966 243.928 86.2583C243.125 84.3201 242.915 82.1873 243.324 80.1297C243.734 78.0721 244.744 76.1821 246.227 74.6986C247.711 73.2151 249.601 72.2049 251.658 71.7956C253.716 71.3863 255.849 71.5964 257.787 72.3992C259.725 73.2021 261.382 74.5616 262.547 76.306C263.713 78.0504 264.335 80.1012 264.335 82.1991C264.332 85.0114 263.213 87.7077 261.225 89.6963C259.236 91.6849 256.54 92.8034 253.728 92.8064V92.8064ZM253.728 73.395C251.986 73.395 250.284 73.9114 248.836 74.8788C247.389 75.8462 246.26 77.2212 245.594 78.8299C244.928 80.4387 244.753 82.2089 245.093 83.9167C245.433 85.6245 246.271 87.1933 247.502 88.4245C248.734 89.6558 250.302 90.4943 252.01 90.834C253.718 91.1737 255.488 90.9994 257.097 90.333C258.705 89.6667 260.08 88.5382 261.048 87.0904C262.015 85.6426 262.532 83.9404 262.532 82.1991C262.529 79.865 261.6 77.6274 259.95 75.977C258.299 74.3265 256.062 73.398 253.728 73.395Z" fill="#C9C7DC"/>
<path d="M254.19 82.1991C255.721 82.1991 256.962 80.9579 256.962 79.4267C256.962 77.8955 255.721 76.6543 254.19 76.6543C252.658 76.6543 251.417 77.8955 251.417 79.4267C251.417 80.9579 252.658 82.1991 254.19 82.1991Z" fill="#EB6B5E"/>
<path d="M259.236 89.3961C257.553 90.7621 255.462 91.5263 253.295 91.5672C251.128 91.608 249.01 90.9232 247.277 89.6215C247.388 88.1291 248.052 86.7319 249.139 85.7034C250.226 84.6749 251.658 84.0892 253.154 84.061C254.65 84.0328 256.103 84.5641 257.228 85.5509C258.353 86.5377 259.069 87.9089 259.236 89.3961V89.3961Z" fill="#EB6B5E"/>
<path d="M253.728 92.8064C251.63 92.8064 249.579 92.1843 247.835 91.0188C246.09 89.8532 244.731 88.1966 243.928 86.2583C243.125 84.3201 242.915 82.1873 243.324 80.1297C243.734 78.0721 244.744 76.1821 246.227 74.6986C247.711 73.2151 249.601 72.2049 251.658 71.7956C253.716 71.3863 255.849 71.5964 257.787 72.3992C259.725 73.2021 261.382 74.5616 262.547 76.306C263.713 78.0504 264.335 80.1012 264.335 82.1991C264.332 85.0114 263.213 87.7077 261.225 89.6963C259.236 91.6849 256.54 92.8034 253.728 92.8064V92.8064ZM253.728 73.395C251.986 73.395 250.284 73.9114 248.836 74.8788C247.389 75.8462 246.26 77.2212 245.594 78.8299C244.928 80.4387 244.753 82.2089 245.093 83.9167C245.433 85.6245 246.271 87.1933 247.502 88.4245C248.734 89.6558 250.302 90.4943 252.01 90.834C253.718 91.1737 255.488 90.9994 257.097 90.333C258.705 89.6667 260.08 88.5382 261.048 87.0904C262.015 85.6426 262.532 83.9404 262.532 82.1991C262.529 79.865 261.6 77.6274 259.95 75.977C258.299 74.3265 256.062 73.398 253.728 73.395Z" fill="#C6C5DA"/>
<path d="M120.427 146.246C118.157 142.696 115.047 137.832 115.41 132.616C115.577 130.216 116.632 127.644 118.304 125.559C120.391 122.956 123.238 122.165 125.553 123.531C125.917 123.746 126.264 123.99 126.592 124.259L126.666 124.148C128.837 120.905 133.523 118.022 138.281 118.786L137.994 120.567C134.03 119.931 129.97 122.453 128.163 125.151C128.075 125.284 127.989 125.415 127.906 125.548C128.687 126.457 129.303 127.496 129.725 128.618C130.09 129.616 130.881 132.855 129.77 134.604C129.59 134.901 129.342 135.15 129.046 135.331C128.751 135.512 128.416 135.62 128.07 135.646C127.6 135.706 127.123 135.656 126.676 135.499C126.229 135.343 125.824 135.084 125.494 134.744C124.015 133.191 124.329 130.263 124.405 129.693C124.606 128.343 125.034 127.037 125.67 125.83C125.347 125.548 125 125.296 124.633 125.077C122.814 123.997 120.898 125.194 119.71 126.673C118.263 128.476 117.351 130.687 117.209 132.727C116.911 137.009 119.179 140.934 121.942 145.261L120.427 146.246ZM126.977 127.283C126.59 128.13 126.326 129.028 126.193 129.95C126.053 130.978 126.098 132.776 126.801 133.513C126.968 133.689 127.266 133.915 127.915 133.858C127.986 133.854 128.054 133.831 128.113 133.792C128.171 133.752 128.218 133.697 128.248 133.633C128.747 132.851 128.541 130.626 128.023 129.235C127.764 128.54 127.412 127.884 126.977 127.283Z" fill="#FFCC63"/>
<path d="M197.74 173.745C204.568 173.745 210.103 168.21 210.103 161.382C210.103 154.554 204.568 149.019 197.74 149.019C190.912 149.019 185.377 154.554 185.377 161.382C185.377 168.21 190.912 173.745 197.74 173.745Z" fill="#FFCC63"/>
<path d="M197.74 174.644C195.116 174.645 192.551 173.867 190.369 172.41C188.188 170.952 186.487 168.881 185.483 166.457C184.479 164.033 184.216 161.366 184.728 158.792C185.239 156.219 186.503 153.855 188.358 152C190.213 150.145 192.577 148.881 195.15 148.37C197.723 147.858 200.391 148.121 202.814 149.125C205.238 150.129 207.31 151.83 208.767 154.012C210.225 156.193 211.002 158.758 211.002 161.382C210.998 164.898 209.599 168.269 207.113 170.755C204.627 173.242 201.256 174.64 197.74 174.644V174.644ZM197.74 149.92C195.473 149.92 193.257 150.592 191.371 151.851C189.486 153.11 188.017 154.9 187.149 156.994C186.281 159.088 186.054 161.393 186.496 163.617C186.938 165.84 188.029 167.882 189.632 169.486C191.235 171.089 193.277 172.181 195.501 172.623C197.724 173.065 200.028 172.839 202.123 171.971C204.217 171.104 206.007 169.635 207.267 167.75C208.526 165.865 209.199 163.649 209.199 161.382C209.195 158.344 207.987 155.431 205.839 153.282C203.69 151.133 200.778 149.925 197.74 149.92V149.92Z" fill="#FFCC63"/>
<path d="M257.936 190.298C264.763 190.298 270.298 184.763 270.298 177.935C270.298 171.107 264.763 165.572 257.936 165.572C251.108 165.572 245.573 171.107 245.573 177.935C245.573 184.763 251.108 190.298 257.936 190.298Z" fill="#FFCC63"/>
<path d="M257.936 191.2C255.312 191.2 252.748 190.422 250.567 188.965C248.385 187.507 246.685 185.435 245.681 183.012C244.677 180.588 244.414 177.921 244.926 175.347C245.438 172.774 246.701 170.411 248.556 168.556C250.412 166.701 252.775 165.437 255.348 164.925C257.921 164.414 260.588 164.676 263.012 165.68C265.436 166.684 267.507 168.384 268.965 170.566C270.422 172.747 271.2 175.312 271.2 177.935C271.197 181.452 269.798 184.824 267.311 187.311C264.824 189.798 261.453 191.196 257.936 191.2V191.2ZM257.936 166.476C255.669 166.476 253.453 167.148 251.568 168.408C249.683 169.667 248.214 171.457 247.347 173.552C246.479 175.646 246.253 177.951 246.695 180.174C247.137 182.398 248.229 184.44 249.832 186.043C251.435 187.646 253.478 188.737 255.701 189.179C257.925 189.621 260.229 189.394 262.323 188.526C264.418 187.658 266.208 186.189 267.467 184.304C268.726 182.418 269.398 180.202 269.397 177.935C269.394 174.897 268.185 171.984 266.036 169.836C263.887 167.687 260.974 166.479 257.936 166.476Z" fill="#FFCC63"/>
<path d="M132.168 34.428C138.996 34.428 144.531 28.8928 144.531 22.0648C144.531 15.2368 138.996 9.70166 132.168 9.70166C125.34 9.70166 119.805 15.2368 119.805 22.0648C119.805 28.8928 125.34 34.428 132.168 34.428Z" fill="#FFCC63"/>
<path d="M132.168 35.3272C129.544 35.3277 126.98 34.5501 124.798 33.0927C122.616 31.6353 120.916 29.5636 119.911 27.1397C118.907 24.7158 118.644 22.0485 119.156 19.4752C119.668 16.9019 120.931 14.5381 122.786 12.6829C124.642 10.8276 127.005 9.56426 129.579 9.0525C132.152 8.54075 134.819 8.80363 137.243 9.80789C139.667 10.8121 141.738 12.5127 143.196 14.6944C144.653 16.8761 145.431 19.441 145.43 22.0647C145.426 25.5809 144.027 28.9518 141.541 31.4381C139.055 33.9244 135.684 35.3231 132.168 35.3272ZM132.168 10.6032C129.901 10.6027 127.685 11.2746 125.8 12.5337C123.915 13.7929 122.445 15.5827 121.578 17.677C120.71 19.7713 120.482 22.0759 120.924 24.2994C121.366 26.5229 122.458 28.5653 124.061 30.1685C125.663 31.7716 127.706 32.8635 129.929 33.3059C132.152 33.7483 134.457 33.5215 136.551 32.6541C138.646 31.7866 140.436 30.3176 141.695 28.4327C142.955 26.5478 143.627 24.3317 143.627 22.0647C143.624 19.0264 142.415 16.1136 140.267 13.9649C138.119 11.8163 135.206 10.6074 132.168 10.6032V10.6032Z" fill="#FFCC63"/>
<path d="M228.267 55.9265C235.095 55.9265 240.63 50.3913 240.63 43.5634C240.63 36.7354 235.095 31.2002 228.267 31.2002C221.439 31.2002 215.904 36.7354 215.904 43.5634C215.904 50.3913 221.439 55.9265 228.267 55.9265Z" fill="#FFCC63"/>
<path d="M228.267 56.8282C225.644 56.8282 223.079 56.0503 220.898 54.5927C218.716 53.1352 217.016 51.0635 216.012 48.6397C215.008 46.2159 214.746 43.5488 215.258 40.9756C215.769 38.4025 217.033 36.039 218.888 34.1839C220.743 32.3288 223.106 31.0654 225.679 30.5536C228.252 30.0418 230.919 30.3045 233.343 31.3084C235.767 32.3124 237.839 34.0126 239.296 36.194C240.754 38.3753 241.532 40.94 241.532 43.5635C241.528 47.0804 240.129 50.4523 237.643 52.9391C235.156 55.426 231.784 56.8247 228.267 56.8282ZM228.267 32.1019C226 32.1019 223.784 32.7741 221.9 34.0335C220.015 35.2929 218.546 37.083 217.678 39.1773C216.811 41.2717 216.584 43.5762 217.026 45.7995C217.468 48.0228 218.56 50.0651 220.163 51.668C221.766 53.271 223.808 54.3626 226.031 54.8048C228.254 55.2471 230.559 55.0201 232.653 54.1526C234.747 53.2851 236.537 51.816 237.797 49.9312C239.056 48.0463 239.728 45.8304 239.728 43.5635C239.725 40.5246 238.517 37.611 236.368 35.4622C234.219 33.3134 231.306 32.1049 228.267 32.1019V32.1019Z" fill="#FFCC63"/>
<path d="M253.459 175.997C254.357 175.997 255.084 175.269 255.084 174.372C255.084 173.474 254.357 172.747 253.459 172.747C252.562 172.747 251.834 173.474 251.834 174.372C251.834 175.269 252.562 175.997 253.459 175.997Z" fill="white"/>
<path d="M261.589 175.997C262.487 175.997 263.215 175.269 263.215 174.372C263.215 173.474 262.487 172.747 261.589 172.747C260.692 172.747 259.964 173.474 259.964 174.372C259.964 175.269 260.692 175.997 261.589 175.997Z" fill="white"/>
<path d="M257.945 185.139H257.796C256.067 185.115 254.377 184.619 252.911 183.703C251.444 182.787 250.257 181.487 249.477 179.944L250.937 179.2C251.577 180.491 252.566 181.578 253.791 182.337C255.015 183.097 256.428 183.5 257.869 183.5C259.31 183.5 260.723 183.097 261.948 182.337C263.172 181.578 264.161 180.491 264.801 179.2L266.264 179.944C265.484 181.487 264.296 182.787 262.83 183.703C261.363 184.619 259.674 185.115 257.945 185.139V185.139Z" fill="white"/>
<path d="M193.018 159.545C193.915 159.545 194.643 158.817 194.643 157.92C194.643 157.022 193.915 156.295 193.018 156.295C192.12 156.295 191.393 157.022 191.393 157.92C191.393 158.817 192.12 159.545 193.018 159.545Z" fill="white"/>
<path d="M201.148 159.545C202.045 159.545 202.773 158.817 202.773 157.92C202.773 157.022 202.045 156.295 201.148 156.295C200.25 156.295 199.523 157.022 199.523 157.92C199.523 158.817 200.25 159.545 201.148 159.545Z" fill="white"/>
<path d="M197.503 168.689H197.354C195.625 168.666 193.936 168.169 192.469 167.253C191.003 166.337 189.815 165.037 189.035 163.494L190.495 162.75C191.136 164.041 192.124 165.128 193.349 165.888C194.574 166.647 195.986 167.05 197.427 167.05C198.869 167.05 200.281 166.647 201.506 165.888C202.731 165.128 203.719 164.041 204.359 162.75L205.822 163.494C205.042 165.037 203.855 166.337 202.388 167.253C200.921 168.169 199.232 168.666 197.503 168.689V168.689Z" fill="white"/>
<path d="M224.631 41.1675C225.529 41.1675 226.257 40.4399 226.257 39.5424C226.257 38.6448 225.529 37.9172 224.631 37.9172C223.734 37.9172 223.006 38.6448 223.006 39.5424C223.006 40.4399 223.734 41.1675 224.631 41.1675Z" fill="white"/>
<path d="M232.761 41.1675C233.659 41.1675 234.386 40.4399 234.386 39.5424C234.386 38.6448 233.659 37.9172 232.761 37.9172C231.864 37.9172 231.136 38.6448 231.136 39.5424C231.136 40.4399 231.864 41.1675 232.761 41.1675Z" fill="white"/>
<path d="M236.706 45.441H221.379V47.0188H236.706V45.441Z" fill="white"/>
<path d="M127.917 20.158C128.815 20.158 129.542 19.4304 129.542 18.5328C129.542 17.6353 128.815 16.9077 127.917 16.9077C127.02 16.9077 126.292 17.6353 126.292 18.5328C126.292 19.4304 127.02 20.158 127.917 20.158Z" fill="white"/>
<path d="M136.047 20.158C136.945 20.158 137.672 19.4304 137.672 18.5328C137.672 17.6353 136.945 16.9077 136.047 16.9077C135.15 16.9077 134.422 17.6353 134.422 18.5328C134.422 19.4304 135.15 20.158 136.047 20.158Z" fill="white"/>
<path d="M139.259 28.8606C138.619 27.5694 137.63 26.4828 136.406 25.7231C135.181 24.9634 133.768 24.5609 132.327 24.5609C130.886 24.5609 129.473 24.9634 128.249 25.7231C127.024 26.4828 126.036 27.5694 125.395 28.8606L123.935 28.1168C124.716 26.5757 125.904 25.2779 127.371 24.3641C128.837 23.4502 130.526 22.9552 132.254 22.9326H132.403C134.13 22.9552 135.819 23.4502 137.285 24.3641C138.752 25.2779 139.94 26.5757 140.722 28.1168L139.259 28.8606Z" fill="white"/>
<path d="M194.913 67.5571L193.17 68.0193L197.799 85.4773L199.542 85.0152L194.913 67.5571Z" fill="#C6C5DA"/>
<path d="M166.638 96.0859H144.923V97.8891H166.638V96.0859Z" fill="#C6C5DA"/>
</g>
<defs>
<clipPath id="clip0">
<rect width="182.4" height="182.4" fill="white" transform="translate(88.8 8.80005)"/>
</clipPath>
</defs>
</svg>
