<svg xmlns="http://www.w3.org/2000/svg" viewBox="0 0 320 240" width="320" height="240"><style>svg{--il-paper:#FFFFFF;--il-ground:#EDEBF7;--il-line:#8EC7F1;--il-ink:#2C2247;--il-outline:#493272}#dark:target{--il-paper:#F1F0FA;--il-ground:#3A365A;--il-line:#8EC7F1;--il-ink:#F1F0FA;--il-outline:transparent}</style><defs><filter id="grain" x="-10%" y="-10%" width="120%" height="120%"><feTurbulence type="fractalNoise" baseFrequency="0.85" numOctaves="2" seed="3" result="n"/><feColorMatrix in="n" type="matrix" values="0 0 0 0 0  0 0 0 0 0  0 0 0 0 0  0 0 0 .16 0" result="g"/><feComposite in="g" in2="SourceGraphic" operator="in" result="gi"/><feBlend in="SourceGraphic" in2="gi" mode="multiply"/></filter></defs><g id="dark"><g filter="url(#grain)"><ellipse style="fill:var(--il-ground)" cx="160" cy="214" rx="100" ry="12"/><rect style="stroke:var(--il-outline)" x="112" y="194" width="96" height="16" rx="3" fill="#493272" stroke-width="2"/><rect style="stroke:var(--il-outline)" x="120" y="182" width="80" height="14" rx="3" fill="#7340B5" stroke-width="2"/><rect style="fill:var(--il-paper);stroke:var(--il-outline)" x="132" y="70" width="56" height="114" stroke-width="2"/><g fill="#A06BD4" opacity=".5"><rect x="140" y="76" width="5" height="102"/><rect x="152" y="76" width="5" height="102"/><rect x="164" y="76" width="5" height="102"/><rect x="176" y="76" width="5" height="102"/></g><rect style="stroke:var(--il-outline)" x="118" y="56" width="84" height="16" rx="3" fill="#FFCC63" stroke-width="2"/><circle style="stroke:var(--il-outline)" cx="118" cy="72" r="12" fill="#FFCC63" stroke-width="2"/><circle style="stroke:var(--il-outline)" cx="202" cy="72" r="12" fill="#FFCC63" stroke-width="2"/><circle cx="118" cy="72" r="5" fill="#FE975D"/><circle cx="202" cy="72" r="5" fill="#FE975D"/><rect style="stroke:var(--il-outline)" x="124" y="42" width="72" height="14" rx="3" fill="#7340B5" stroke-width="2"/><g><path d="M96 64C88 46 100 24 144 12" fill="none" stroke="#4FA678" stroke-width="3" stroke-linecap="round"/><path d="M0-9C4-6 4 6 0 9-4 6-4-6 0-9z" fill="#4FA678" transform="translate(89 57) rotate(-124)"/><path d="M0-9C4-6 4 6 0 9-4 6-4-6 0-9z" fill="#4FA678" transform="translate(103 63) rotate(-20)"/><path d="M0-9C4-6 4 6 0 9-4 6-4-6 0-9z" fill="#66BC8C" transform="translate(89 46) rotate(-114)"/><path d="M0-9C4-6 4 6 0 9-4 6-4-6 0-9z" fill="#66BC8C" transform="translate(103 52) rotate(-10)"/><path d="M0-9C4-6 4 6 0 9-4 6-4-6 0-9z" fill="#4FA678" transform="translate(93 36) rotate(-104)"/><path d="M0-9C4-6 4 6 0 9-4 6-4-6 0-9z" fill="#4FA678" transform="translate(107 42) rotate(0)"/><path d="M0-9C4-6 4 6 0 9-4 6-4-6 0-9z" fill="#66BC8C" transform="translate(101 26) rotate(-94)"/><path d="M0-9C4-6 4 6 0 9-4 6-4-6 0-9z" fill="#66BC8C" transform="translate(115 32) rotate(10)"/><path d="M0-9C4-6 4 6 0 9-4 6-4-6 0-9z" fill="#4FA678" transform="translate(113 18) rotate(-82)"/><path d="M0-9C4-6 4 6 0 9-4 6-4-6 0-9z" fill="#4FA678" transform="translate(127 24) rotate(22)"/><path d="M0-9C4-6 4 6 0 9-4 6-4-6 0-9z" fill="#66BC8C" transform="translate(127 13) rotate(-68)"/><path d="M0-9C4-6 4 6 0 9-4 6-4-6 0-9z" fill="#66BC8C" transform="translate(141 19) rotate(36)"/><path d="M224 64C232 46 220 24 176 12" fill="none" stroke="#4FA678" stroke-width="3" stroke-linecap="round"/><path d="M0-9C4-6 4 6 0 9-4 6-4-6 0-9z" fill="#4FA678" transform="translate(231 57) rotate(124)"/><path d="M0-9C4-6 4 6 0 9-4 6-4-6 0-9z" fill="#4FA678" transform="translate(217 63) rotate(20)"/><path d="M0-9C4-6 4 6 0 9-4 6-4-6 0-9z" fill="#66BC8C" transform="translate(231 46) rotate(114)"/><path d="M0-9C4-6 4 6 0 9-4 6-4-6 0-9z" fill="#66BC8C" transform="translate(217 52) rotate(10)"/><path d="M0-9C4-6 4 6 0 9-4 6-4-6 0-9z" fill="#4FA678" transform="translate(227 36) rotate(104)"/><path d="M0-9C4-6 4 6 0 9-4 6-4-6 0-9z" fill="#4FA678" transform="translate(213 42) rotate(0)"/><path d="M0-9C4-6 4 6 0 9-4 6-4-6 0-9z" fill="#66BC8C" transform="translate(219 26) rotate(94)"/><path d="M0-9C4-6 4 6 0 9-4 6-4-6 0-9z" fill="#66BC8C" transform="translate(205 32) rotate(-10)"/><path d="M0-9C4-6 4 6 0 9-4 6-4-6 0-9z" fill="#4FA678" transform="translate(207 18) rotate(82)"/><path d="M0-9C4-6 4 6 0 9-4 6-4-6 0-9z" fill="#4FA678" transform="translate(193 24) rotate(-22)"/><path d="M0-9C4-6 4 6 0 9-4 6-4-6 0-9z" fill="#66BC8C" transform="translate(193 13) rotate(68)"/><path d="M0-9C4-6 4 6 0 9-4 6-4-6 0-9z" fill="#66BC8C" transform="translate(179 19) rotate(-36)"/><circle cx="96" cy="66" r="4" fill="#FD6157"/><circle cx="224" cy="66" r="4" fill="#FD6157"/></g><circle cx="150" cy="120" r="3" fill="#2C2247"/><circle cx="170" cy="120" r="3" fill="#2C2247"/><path d="M152 134c3 5 13 5 16 0" fill="none" stroke="#2C2247" stroke-width="3" stroke-linecap="round"/></g></g></svg>
