<svg xmlns="http://www.w3.org/2000/svg" viewBox="0 0 320 240" width="320" height="240"><style>svg{--il-paper:#FFFFFF;--il-ground:#EDEBF7;--il-line:#8EC7F1;--il-ink:#2C2247;--il-outline:#493272}#dark:target{--il-paper:#F1F0FA;--il-ground:#3A365A;--il-line:#8EC7F1;--il-ink:#F1F0FA;--il-outline:transparent}</style><defs><filter id="grain" x="-10%" y="-10%" width="120%" height="120%"><feTurbulence type="fractalNoise" baseFrequency="0.85" numOctaves="2" seed="3" result="n"/><feColorMatrix in="n" type="matrix" values="0 0 0 0 0  0 0 0 0 0  0 0 0 0 0  0 0 0 .16 0" result="g"/><feComposite in="g" in2="SourceGraphic" operator="in" result="gi"/><feBlend in="SourceGraphic" in2="gi" mode="multiply"/></filter></defs><g id="dark"><g filter="url(#grain)"><ellipse style="fill:var(--il-ground)" cx="160" cy="214" rx="90" ry="11"/><rect x="122" y="62" width="76" height="146" rx="30" fill="#329AE5"/><rect x="134" y="80" width="14" height="100" rx="7" fill="#8EC7F1" opacity=".6"/><rect style="fill:var(--il-ink)" x="150" y="44" width="20" height="24" rx="4"/><rect x="140" y="34" width="40" height="12" rx="6" fill="#493272"/><rect style="fill:var(--il-paper)" x="132" y="120" width="56" height="30" rx="6"/><rect x="140" y="128" width="40" height="6" rx="3" fill="#7340B5"/><rect x="140" y="138" width="24" height="6" rx="3" fill="#7340B5"/><circle cx="150" cy="100" r="3.5" fill="#2C2247"/><circle cx="170" cy="100" r="3.5" fill="#2C2247"/><path d="M152 110c3 5 13 5 16 0" fill="none" stroke="#2C2247" stroke-width="3" stroke-linecap="round"/><g style="stroke:var(--il-line)" fill="none" stroke-width="3"><circle cx="232" cy="120" r="8"/><circle cx="250" cy="90" r="12"/><circle cx="238" cy="58" r="6"/><circle cx="258" cy="42" r="9"/><circle cx="80" cy="130" r="10"/><circle cx="66" cy="96" r="6"/><circle cx="90" cy="66" r="8"/></g><path style="stroke:var(--il-ink)" d="M160 170c14-6 18 4 22 8" fill="none" stroke-width="5" stroke-linecap="round"/></g></g></svg>
