<svg xmlns="http://www.w3.org/2000/svg" viewBox="0 0 320 240" width="320" height="240"><style>svg{--il-paper:#FFFFFF;--il-ground:#EDEBF7;--il-line:#8EC7F1;--il-ink:#2C2247;--il-outline:#493272}#dark:target{--il-paper:#F1F0FA;--il-ground:#3A365A;--il-line:#8EC7F1;--il-ink:#F1F0FA;--il-outline:transparent}</style><defs><filter id="grain" x="-10%" y="-10%" width="120%" height="120%"><feTurbulence type="fractalNoise" baseFrequency="0.85" numOctaves="2" seed="3" result="n"/><feColorMatrix in="n" type="matrix" values="0 0 0 0 0  0 0 0 0 0  0 0 0 0 0  0 0 0 .16 0" result="g"/><feComposite in="g" in2="SourceGraphic" operator="in" result="gi"/><feBlend in="SourceGraphic" in2="gi" mode="multiply"/></filter></defs><g id="dark"><g filter="url(#grain)"><g transform="translate(16 0)"><ellipse style="fill:var(--il-ground)" cx="160" cy="214" rx="120" ry="12"/><g style="stroke:var(--il-ink)" stroke-width="3"><rect x="120" y="180" width="90" height="26" rx="4" fill="#FFE3A6"/><rect style="fill:var(--il-paper)" x="120" y="152" width="90" height="26" rx="4"/><rect x="138" y="124" width="90" height="26" rx="4" fill="#FFE3A6"/><rect style="fill:var(--il-paper)" x="120" y="96" width="90" height="26" rx="4"/><rect x="98" y="68" width="90" height="26" rx="4" fill="#FFCC63" transform="rotate(-8 143 81)"/></g><path style="stroke:var(--il-ink)" d="M44 132c-20 8-26 30-12 48" fill="none" stroke-width="6" stroke-linecap="round"/><circle cx="34" cy="182" r="7" fill="#FD6157"/><circle cx="70" cy="124" r="30" fill="#329AE5"/><circle cx="62" cy="120" r="3.5" fill="#2C2247"/><circle cx="80" cy="120" r="3.5" fill="#2C2247"/><ellipse cx="72" cy="134" rx="5" ry="6" fill="#2C2247"/><path style="stroke:var(--il-ink)" d="M96 106c14-8 22-16 18-30" fill="none" stroke-width="6" stroke-linecap="round"/><circle cx="116" cy="74" r="7" fill="#FD6157"/><path style="stroke:var(--il-ink)" d="M66 154v40M84 152v42" stroke-width="6" stroke-linecap="round"/><path style="stroke:var(--il-ink)" d="M56 196h16M76 196h16" stroke-width="7" stroke-linecap="round"/><path d="M240 60l6-10M256 74l10-4M250 96l10 2" stroke="#FD6157" stroke-width="4" stroke-linecap="round"/></g></g></g></svg>
