<svg viewBox="0 0 2048 1536" fill="none" xmlns="http://www.w3.org/2000/svg">
<path d="M1820.73 1294H228C228.33 1219.83 238.8 1148.05 258.1 1080C303.96 918.28 399.61 777.5 527.46 675.31C539.44 665.72 551.72 656.48 564.26 647.61C586.1 632.11 608.75 617.7 632.15 604.44H632.17C744.75 540.6 874.4 503.38 1012.59 501.39H1012.61C1016.52 501.33 1020.45 501.3 1024.38 501.3C1045.49 501.3 1066.4 502.13 1087.08 503.74C1142.33 508.03 1195.98 517.97 1247.47 532.97C1250.45 533.84 1253.42 534.73 1256.39 535.64C1278.62 542.37 1300.43 550.09 1321.79 558.71C1412.04 595.05 1494.1 647.46 1564.42 712.38C1564.98 712.89 1565.53 713.4 1566.07 713.91C1572.86 720.19 1579.54 726.63 1586.11 733.17C1595.79 742.78 1605.22 752.65 1614.37 762.76C1635.07 785.56 1654.45 809.57 1672.39 834.68L1672.41 834.71C1765.12 964.27 1819.96 1122.73 1820.73 1294Z" fill="#F1F1F8"/>
<path d="M731.94 789.84L794.27 989.9C811.8 1046.15 855.18 1090.63 910.98 1109.55L1236.23 1219.85L1256.17 1180.19L909.37 1004.85L802.01 740.57L731.94 789.84Z" fill="#54C0D0"/>
<path d="M1652.02 570.36L1691.66 1085.06C1693.11 1110.9 1676.75 1134.39 1652.02 1142.01L1554.38 536.59L1652.02 570.36Z" fill="#7C4C59"/>
<path d="M1675.3 1294H1469.89L1456.51 867.81L1397.28 1294H1190.05L1198.99 1256.11L1209.03 1213.56V1213.54L1209.67 1210.83L1210.71 1206.41L1221.09 1162.44L1251.04 1035.43L1326.33 716.26L1328.53 706.5L1564.41 712.39L1582.81 712.86L1608.69 713.5H1608.7L1614.36 762.78L1657.63 1139.94L1675.3 1294Z" fill="#EAB659"/>
<path d="M1507.76 434.08H1397.36V479.24H1507.76V434.08Z" fill="#FFCC65"/>
<path d="M1190.05 1294H1243.25H1287.94C1280.77 1264.89 1263.36 1238.08 1236.24 1219.84V1219.82C1230.97 1216.27 1225.32 1213.04 1219.32 1210.19L1213.65 1207.7L1210.71 1206.41L980.08 1105.16L945.49 1089.98L888.11 1064.8L884.99 1063.44L813.5 1032.04L804.53 1028.11L698.06 981.37L695.4 980.2L688.63 1025.5L681.93 1070.5L789.54 1111.75L1165.83 1255.99L1096.75 1294H1190.05V1294Z" fill="#33235E"/>
<path d="M1190.05 1294H1243.25C1230.36 1279.69 1215.53 1266.91 1198.98 1256.11C1190.31 1250.44 1181.15 1245.32 1171.55 1240.8C1171.52 1240.8 1171.49 1240.78 1171.48 1240.77C1171 1240.55 1170.5 1240.31 1170.01 1240.08L1129.25 1221.26L1128.07 1220.72L885.51 1108.68L706.27 1025.91H706.23L698.07 1022.11V981.37V962.43V933.4H462.57L452.9 962.43L433.77 1019.79L428.94 1034.3C424.57 1047.39 421.63 1060.61 420.04 1073.79C418 1090.72 418.21 1107.42 420.44 1123.57C432.34 1209.6 501.5 1280.31 591.59 1292.25L604.83 1294.01H1096.75H1190.05V1294Z" fill="#493272"/>
<path d="M1097.03 952.96L1312.72 1068.45C1316.84 1070.66 1317.96 1076.06 1315.06 1079.72L1192.47 1234.45C1186.96 1241.41 1177.39 1243.68 1169.34 1239.93L881.27 1105.76V1077.96L969.2 1120.4L1087.4 955.21C1089.58 952.14 1093.71 951.18 1097.03 952.96Z" fill="#444258"/>
<path d="M1520.74 351.81C1519.01 358.24 1516.87 364.4 1514.37 370.16C1499.01 405.56 1470.47 427.38 1445.15 420.58C1435.4 417.96 1427.35 411.42 1421.39 402.15C1409.39 383.52 1405.94 353.87 1414.17 323.21C1414.34 322.56 1414.51 321.94 1414.71 321.31C1417.57 311.17 1421.48 301.83 1426.17 293.49C1442.24 264.91 1467.28 248.41 1489.74 254.43C1519.19 262.35 1533.05 305.95 1520.74 351.81Z" fill="#7C4C59"/>
<path d="M1520.74 351.81C1519.01 358.24 1516.87 364.4 1514.37 370.16C1499.01 405.56 1470.47 427.38 1445.15 420.58L1439.71 368.94L1439.35 351.67C1438.96 333.23 1440.79 314.82 1444.78 296.82C1439.63 306.43 1431.4 314.03 1421.4 318.4L1414.71 321.32C1417.57 311.18 1421.48 301.84 1426.17 293.5C1442.24 264.92 1467.28 248.42 1489.74 254.44C1519.19 262.35 1533.05 305.95 1520.74 351.81Z" fill="#444258"/>
<path d="M1445.67 370.16L1432.16 367.67C1427.33 366.78 1424.14 362.15 1425.03 357.32L1430.15 329.48C1431.04 324.65 1435.67 321.46 1440.5 322.35L1454.01 324.84C1458.84 325.73 1462.03 330.36 1461.14 335.19L1456.02 363.03C1455.13 367.85 1450.49 371.05 1445.67 370.16Z" fill="#7C4C59"/>
<path d="M1513.52 261.03C1565.48 240.74 1624.49 261.09 1652.89 309.1L1673.2 343.43L1584 368.93L1513.52 261.03Z" fill="#444258"/>
<path d="M1158.29 1114.86C1169.68 1100.78 1171.2 1083.13 1161.69 1075.43C1152.18 1067.73 1135.23 1072.9 1123.84 1086.98C1112.44 1101.05 1110.92 1118.71 1120.43 1126.4C1129.95 1134.1 1146.89 1128.93 1158.29 1114.86Z" fill="#62626E"/>
<path d="M595.69 654.14C570.83 659.75 543.88 637.74 529.54 602.84C526.77 596.09 524.47 588.84 522.75 581.21C512.15 534.22 527.61 490.71 557.3 484.03C571.92 480.73 587.25 486.979 600.3 499.789C613.77 512.969 624.85 533.129 630.21 556.969C640.84 603.929 625.36 647.44 595.69 654.14Z" fill="#CDAE78"/>
<path d="M596.51 495.19L594.4 501.31C581.26 539.58 557.4 573.21 525.75 598.25C522.98 591.5 520.68 584.25 518.96 576.62C508.36 529.63 523.82 486.12 553.51 479.44C568.12 476.14 583.45 482.39 596.51 495.19Z" fill="#F16259"/>
<path d="M506.83 502.03C521.83 502.03 533.99 489.87 533.99 474.87C533.99 459.87 521.83 447.71 506.83 447.71C491.83 447.71 479.67 459.87 479.67 474.87C479.67 489.87 491.83 502.03 506.83 502.03Z" fill="#F16259"/>
<path d="M885 1033.28L886.91 1033.76C923.29 1042.86 948.81 1075.54 948.81 1113.04L885 1081.14V1033.28Z" fill="#CDAE78"/>
<path d="M785.19 242.77L787.58 473.19H1051.98L1049.91 242.77H785.19Z" fill="#E5B155"/>
<path d="M785.19 242.77L814.17 473.19H1078.57L1049.91 242.77H785.19Z" fill="#FFCC65"/>
<path d="M785.19 242.77L838.08 462.06L840.76 473.19H1105.15L1085.19 389.92L1049.91 242.77H785.19Z" fill="#F8E6CD"/>
<path d="M807.06 333.45H1071.65" stroke="white" stroke-miterlimit="10"/>
<path d="M795.29 274.5L806.7 337.23C807.41 341.09 808.41 344.8 809.71 348.31C818.27 371.52 839.01 386.83 861.97 389.93C867.64 390.72 873.45 390.73 879.24 389.93C888.36 388.7 897.42 385.46 905.87 379.96L934.87 361.08H1085.08C1082.56 356.75 1080.56 352.01 1079.2 346.86L1075.32 332.22L1060 274.5H795.29Z" fill="#F1F1F8"/>
<path d="M1137.62 389.34C1143.78 389 1149.98 387.67 1155.97 385.22C1158.31 384.27 1160.62 383.15 1162.88 381.85L1199.25 361.06H934.87L905.87 379.94C897.42 385.44 888.36 388.68 879.24 389.91C879.24 389.92 1140.09 389.76 1137.62 389.34Z" fill="#FFCC65"/>
<path d="M785.19 241V242.99L799.38 301.83H1073.35L1058.76 241H785.19Z" fill="#F16259"/>
<path d="M1062.43 427.48C1060.33 399.64 1058.65 364.43 1037.49 346.2L1021.59 332.51C1017.91 329.34 1012.44 329.39 1008.82 332.64C1004.9 336.16 1004.51 342.16 1007.94 346.15L1030.41 369.84L984.19 330.44C980.26 326.88 974.29 326.82 970.29 330.3C965.74 334.26 965.47 341.22 969.69 345.52L1005.84 385.97C1006.45 386.66 1006.34 387.72 1005.6 388.26C1004.93 388.75 1004 388.63 1003.47 387.99L984.76 365.19C981.76 361.54 976.57 360.28 972.39 362.51C971.79 362.83 971.21 363.22 970.67 363.67C966.82 366.87 965.88 372.39 968.44 376.68L1000.35 427.8L1062.43 427.48Z" fill="#7C4C59"/>
<path d="M1276.1 497.76L1152.05 736.2L1046.27 357.77L1031.84 401.049L988.56 386.62L1063.7 745.58C1078.67 828.91 1190.16 846.989 1230.69 772.659L1332.84 532.77L1276.1 497.76Z" fill="#7C4C59"/>
<path d="M1213.8 589.46L1306.01 605.41L1303.67 655.54C1302.72 675.87 1309.39 695.81 1322.38 711.48L1326.33 716.24L1608.69 713.48C1624.3 693.8 1631.58 661.02 1625.71 636.6L1614.59 590.35L1692.01 564.54L1638.31 490.33C1621.74 467.42 1595.18 453.86 1566.91 453.86H1344.57C1312.17 453.86 1282.39 471.64 1267.01 500.16L1213.8 589.46Z" fill="#FFCC65"/>
<path d="M802.01 740.57C785.98 701.12 747.64 675.31 705.06 675.31H524.85C486.47 675.31 451.17 696.32 432.87 730.05L257.82 994.18C225.26 1054.19 269.26 1127.08 337.53 1126.22L887.41 1108.61L888.69 1029.99L359.35 1018.09L428.31 909.79L420.64 962.42H748.08L731.95 789.83L802.01 740.57Z" fill="#54C0D0"/>
</svg>
