<?xml version="1.0" encoding="utf-8"?>
<!-- Generator: Adobe Illustrator 24.0.0, SVG Export Plug-In . SVG Version: 6.00 Build 0)  -->
<svg version="1.1" id="Layer_1" xmlns="http://www.w3.org/2000/svg" xmlns:xlink="http://www.w3.org/1999/xlink" x="0px" y="0px"
	 viewBox="0 0 2000 2000" style="enable-background:new 0 0 2000 2000;" xml:space="preserve">
<style type="text/css">
	.st0{fill:#F1F1F8;}
	.st1{fill:#54C0D0;}
	.st2{fill:#7C4C59;}
	.st3{fill:#EAB659;}
	.st4{fill:#FFCC65;}
	.st5{fill:#33235E;}
	.st6{fill:#493272;}
	.st7{fill:#444258;}
	.st8{fill:#62626E;}
	.st9{fill:#CDAE78;}
	.st10{fill:#F16259;}
	.st11{fill:none;}
	.st12{fill:#E5B155;}
	.st13{fill:#F8E6CD;}
	.st14{fill:none;stroke:#FFFFFF;stroke-miterlimit:10;}
	.st15{fill:#DB4643;}
	.st16{fill:#51C1D0;}
	.st17{fill:none;stroke:#7C4C59;stroke-width:10;stroke-linecap:round;stroke-linejoin:round;stroke-miterlimit:10;}
	.st18{fill:#EF4C86;}
	.st19{fill:#31AAB9;}
	.st20{fill:none;stroke:#61C08B;stroke-width:8;stroke-miterlimit:10;}
	.st21{fill:#61C08B;}
</style>
<g>
	<path class="st0" d="M1798.42,1526.5H205.69c0.33-74.17,10.8-145.95,30.1-214C281.65,1150.78,377.3,1010,505.15,907.81
		c11.98-9.59,24.26-18.83,36.8-27.7c21.84-15.5,44.49-29.91,67.89-43.17h0.02c112.58-63.84,242.23-101.06,380.42-103.05h0.02
		c3.91-0.06,7.84-0.09,11.77-0.09c21.11,0,42.02,0.83,62.7,2.44c55.25,4.29,108.9,14.23,160.39,29.23c2.98,0.87,5.95,1.76,8.92,2.67
		c22.23,6.73,44.04,14.45,65.4,23.07c90.25,36.34,172.31,88.75,242.63,153.67c0.56,0.51,1.11,1.02,1.65,1.53
		c6.79,6.28,13.47,12.72,20.04,19.26c9.68,9.61,19.11,19.48,28.26,29.59c20.7,22.8,40.08,46.81,58.02,71.92l0.02,0.03
		C1742.81,1196.77,1797.65,1355.23,1798.42,1526.5z"/>
	<path class="st1" d="M709.63,1022.34l62.33,200.06c17.53,56.25,60.91,100.73,116.71,119.65l325.25,110.3l19.94-39.66l-346.8-175.34
		L779.7,973.07L709.63,1022.34z"/>
	<path class="st2" d="M1629.71,802.86l39.64,514.7c1.45,25.84-14.91,49.33-39.64,56.95l-97.64-605.42L1629.71,802.86z"/>
	<polygon class="st3" points="1652.99,1526.5 1447.58,1526.5 1434.2,1100.31 1374.97,1526.5 1167.74,1526.5 1176.68,1488.61 
		1186.72,1446.06 1186.72,1446.04 1187.36,1443.33 1188.4,1438.91 1198.78,1394.94 1228.73,1267.93 1304.02,948.76 1306.22,939 
		1542.1,944.89 1560.5,945.36 1586.38,946 1586.39,946 1592.05,995.28 1635.32,1372.44 	"/>
	<rect x="1375.05" y="666.58" class="st4" width="110.4" height="45.16"/>
	<path class="st5" d="M1167.74,1526.5h53.2h44.69c-7.17-29.11-24.58-55.92-51.7-74.16v-0.02c-5.27-3.55-10.92-6.78-16.92-9.63
		l-5.67-2.49l-2.94-1.29l-230.63-101.25l-34.59-15.18l-57.38-25.18l-3.12-1.36l-71.49-31.4l-8.97-3.93l-106.47-46.74l-2.66-1.17
		l-6.77,45.3l-6.7,45l107.61,41.25l376.29,144.24l-69.08,38.01H1167.74z"/>
	<path class="st6" d="M1167.74,1526.5h53.2c-12.89-14.31-27.72-27.09-44.27-37.89c-8.67-5.67-17.83-10.79-27.43-15.31
		c-0.03,0-0.06-0.02-0.07-0.03c-0.48-0.22-0.98-0.46-1.47-0.69l-40.76-18.82l-1.18-0.54L863.2,1341.18l-179.24-82.77h-0.04
		l-8.16-3.8v-40.74v-18.94v-29.03h-235.5l-9.67,29.03l-19.13,57.36l-4.83,14.51c-4.37,13.09-7.31,26.31-8.9,39.49
		c-2.04,16.93-1.83,33.63,0.4,49.78c11.9,86.03,81.06,156.74,171.15,168.68l13.24,1.76h491.92H1167.74z"/>
	<path class="st7" d="M1074.72,1185.46l215.69,115.49c4.12,2.21,5.24,7.61,2.34,11.27l-122.59,154.73
		c-5.51,6.96-15.08,9.23-23.13,5.48l-288.07-134.17v-27.8l87.93,42.44l118.2-165.19C1067.27,1184.64,1071.4,1183.68,1074.72,1185.46
		z"/>
	<path class="st2" d="M1498.43,584.31c-1.73,6.43-3.87,12.59-6.37,18.35c-15.36,35.4-43.9,57.22-69.22,50.42
		c-9.75-2.62-17.8-9.16-23.76-18.43c-12-18.63-15.45-48.28-7.22-78.94c0.17-0.65,0.34-1.27,0.54-1.9
		c2.86-10.14,6.77-19.48,11.46-27.82c16.07-28.58,41.11-45.08,63.57-39.06C1496.88,494.85,1510.74,538.45,1498.43,584.31z"/>
	<path class="st7" d="M1498.43,584.31c-1.73,6.43-3.87,12.59-6.37,18.35c-15.36,35.4-43.9,57.22-69.22,50.42l-5.44-51.64
		l-0.36-17.27c-0.39-18.44,1.44-36.85,5.43-54.85l0,0l0,0c-5.15,9.61-13.38,17.21-23.38,21.58l-6.69,2.92
		c2.86-10.14,6.77-19.48,11.46-27.82c16.07-28.58,41.11-45.08,63.57-39.06C1496.88,494.85,1510.74,538.45,1498.43,584.31z"/>
	<path class="st2" d="M1423.36,602.66l-13.51-2.49c-4.83-0.89-8.02-5.52-7.13-10.35l5.12-27.84c0.89-4.83,5.52-8.02,10.35-7.13
		l13.51,2.49c4.83,0.89,8.02,5.52,7.13,10.35l-5.12,27.84C1432.82,600.35,1428.18,603.55,1423.36,602.66z"/>
	<path class="st7" d="M1491.21,493.53L1491.21,493.53c51.96-20.29,110.97,0.06,139.37,48.07l20.31,34.33l-89.2,25.5L1491.21,493.53z
		"/>
	
		<ellipse transform="matrix(0.6291 -0.7773 0.7773 0.6291 -621.5485 1364.1835)" class="st8" cx="1118.78" cy="1333.43" rx="32.79" ry="22.16"/>
	<path class="st9" d="M573.38,886.64c-24.86,5.61-51.81-16.4-66.15-51.3c-2.77-6.75-5.07-14-6.79-21.63
		c-10.6-46.99,4.86-90.5,34.55-97.18c14.62-3.3,29.95,2.95,43,15.76c13.47,13.18,24.55,33.34,29.91,57.18
		C618.53,836.43,603.05,879.94,573.38,886.64z"/>
	<path class="st10" d="M574.2,727.69l-2.11,6.12c-13.14,38.27-37,71.9-68.65,96.94c-2.77-6.75-5.07-14-6.79-21.63
		c-10.6-46.99,4.86-90.5,34.55-97.18C545.81,708.64,561.14,714.89,574.2,727.69z"/>
	<circle class="st10" cx="484.52" cy="707.37" r="27.16"/>
	<path class="st9" d="M862.69,1265.78l1.91,0.48c36.38,9.1,61.9,41.78,61.9,79.28l0,0l-63.81-31.9V1265.78z"/>
	<polygon class="st12" points="762.88,475.27 765.27,705.69 1029.67,705.69 1027.6,475.27 	"/>
	<polygon class="st4" points="762.88,475.27 791.86,705.69 1056.26,705.69 1027.6,475.27 	"/>
	<g>
		<polygon class="st13" points="762.88,475.27 815.77,694.56 818.45,705.69 1082.84,705.69 1062.88,622.42 1027.6,475.27 		"/>
	</g>
	<line class="st14" x1="784.75" y1="565.95" x2="1049.34" y2="565.95"/>
	<path class="st0" d="M772.98,507l11.41,62.73c0.71,3.86,1.71,7.57,3.01,11.08c8.56,23.21,29.3,38.52,52.26,41.62
		c5.67,0.79,11.48,0.8,17.27,0c9.12-1.23,18.18-4.47,26.63-9.97l29-18.88h150.21c-2.52-4.33-4.52-9.07-5.88-14.22l-3.88-14.64
		L1037.69,507H772.98z"/>
	<path class="st4" d="M1115.31,621.84c6.16-0.34,12.36-1.67,18.35-4.12c2.34-0.95,4.65-2.07,6.91-3.37l36.37-20.79H912.56l-29,18.88
		c-8.45,5.5-17.51,8.74-26.63,9.97C856.93,622.42,1117.78,622.26,1115.31,621.84z"/>
	<polygon class="st10" points="762.88,473.5 762.88,475.49 777.07,534.33 1051.04,534.33 1036.45,473.5 	"/>
	<path class="st2" d="M1040.12,659.98c-2.1-27.84-3.78-63.05-24.94-81.28l-15.9-13.69c-3.68-3.17-9.15-3.12-12.77,0.13l0,0
		c-3.92,3.52-4.31,9.52-0.88,13.51l22.47,23.69l-46.22-39.4c-3.93-3.56-9.9-3.62-13.9-0.14l0,0c-4.55,3.96-4.82,10.92-0.6,15.22
		l36.15,40.45c0.61,0.69,0.5,1.75-0.24,2.29l0,0c-0.67,0.49-1.6,0.37-2.13-0.27l-18.71-22.8c-3-3.65-8.19-4.91-12.37-2.68
		c-0.6,0.32-1.18,0.71-1.72,1.16h0c-3.85,3.2-4.79,8.72-2.23,13.01l31.91,51.12L1040.12,659.98z"/>
	<path class="st2" d="M1253.79,730.26L1129.74,968.7l-105.78-378.43l-14.43,43.28l-43.28-14.43l75.14,358.96
		c14.97,83.33,126.46,101.41,166.99,27.08l102.15-239.89L1253.79,730.26z"/>
	<path class="st4" d="M1191.49,821.96l92.21,15.95l-2.34,50.13c-0.95,20.33,5.72,40.27,18.71,55.94l3.95,4.76l282.36-2.76v0
		c15.61-19.68,22.89-52.46,17.02-76.88l-11.12-46.25l77.42-25.81L1616,722.83c-16.57-22.91-43.13-36.47-71.4-36.47h-222.34
		c-32.4,0-62.18,17.78-77.56,46.3L1191.49,821.96z"/>
	<path class="st1" d="M779.7,973.07c-16.03-39.45-54.37-65.26-96.95-65.26H502.54c-38.38,0-73.68,21.01-91.98,54.74l-175.05,264.13
		c-32.56,60.01,11.44,132.9,79.71,132.04l549.88-17.61l1.28-78.62l-529.34-11.9l68.96-108.3l-7.67,52.63h327.44l-16.13-172.59
		L779.7,973.07z"/>
</g>
</svg>
