<svg viewBox="0 0 2048 1536" fill="none" xmlns="http://www.w3.org/2000/svg">
	<path d="M1865.18 1128.5H244.189C244.189 680.866 607.055 318 1054.68 318C1502.3 318 1865.18 680.866 1865.18 1128.5Z" fill="#F1F1F8" />
	<path d="M1200.13 836.899L1136.27 1104.34L1095.45 790C1091.58 765.217 1077.86 743.049 1057.42 728.518L1011.91 702.626L996.912 752.778L1018.92 767.979L1036.6 1116.03C1038.68 1171.45 1083.89 1215.48 1139.34 1216.12C1192.24 1216.71 1237.16 1177.51 1243.72 1125.02L1307.76 818.654L1200.13 836.899Z" fill="#7C4C59" />
	<path d="M1675.85 943.866C1712.31 1002.02 1734.21 1063.03 1740.37 1130.53L1289.17 1129.3L1316.6 983.013L1675.85 943.866Z" fill="#493272" />
	<path d="M1299.81 985.106L1706.2 970.293V832.275L1831 776.484L1777.39 665.571C1753.92 617.041 1703 587.968 1649.28 592.456L1331.14 617.135C1282.38 621.215 1240.02 652.275 1221.47 697.552L1174.67 867.509L1295.07 888.066L1299.81 985.106Z" fill="#DB4643" />
	<path d="M519.974 1026.03L462.666 1129.42L854.657 1127.97L805.467 983.066L519.974 1026.03Z" fill="#51C1D0" />
	<path d="M579.134 1128.48L344.013 1213.17C250.309 1234.57 161 1183.52 161 1087.41C161 1032.32 191.265 981.675 239.785 955.584L499.302 776.882C515.235 768.314 532.518 762.529 550.396 759.767L842.187 714.783C910.312 704.279 971.773 756.984 971.773 825.915L977.276 1127.97H854.657L852.628 1033.44L521.753 1044.77L521.993 910.841L302.502 1076.2L565.199 1012.41L579.134 1128.48Z" fill="#FFCC65" />
	<path d="M1702.99 1129.42H1412.22L1362.64 909.657C1361.27 903.653 1365.06 897.669 1371.07 896.319L1625.98 838.802C1631.98 837.431 1637.95 841.219 1639.32 847.223L1702.99 1129.42Z" fill="#444258" />
	<path d="M1808.96 786.328L1885.02 1118.25C1898.85 1178.59 1842.09 1231.23 1782.96 1212.91L1377.62 1098.12C1354.21 1091.68 1338.66 1069.54 1340.5 1045.33L1341.97 1025.97C1343.57 1004.96 1358.37 987.303 1378.75 982.041L1391.97 1036.37L1775.11 1112.35L1706.19 832.275L1808.96 786.328Z" fill="#7C4C59" />
	<path d="M1562.34 496.964C1560.82 504.82 1558.75 512.384 1556.23 519.519C1540.81 563.289 1508.38 591.87 1477.45 585.865C1441.47 578.866 1421.13 527.741 1432.04 471.647C1434.62 458.361 1438.71 446.006 1443.95 434.969C1460.8 399.337 1489.46 377.41 1516.93 382.746C1552.91 389.744 1573.24 440.88 1562.34 496.964Z" fill="#7C4C59" />
	<path d="M684.313 716.362C655.754 722.817 624.798 697.521 608.332 657.433C605.152 649.67 602.505 641.354 600.528 632.587C588.35 578.616 606.114 528.631 640.208 520.953C656.998 517.166 674.616 524.342 689.607 539.051C705.09 554.189 717.8 577.34 723.973 604.738C736.171 658.678 718.397 708.662 684.313 716.362Z" fill="#CDAE78" />
	<path d="M579.322 1128.45L710.08 1129.39C701.575 1106.38 682.66 1088.76 659.101 1081.92L570.65 1056.21L579.322 1128.45Z" fill="#CDAE78" />
	<path d="M686.018 534.698L683.602 541.728C668.506 585.687 641.097 624.322 604.733 653.08C601.553 645.318 598.906 637.001 596.929 628.234C584.752 574.264 602.515 524.279 636.609 516.6C653.41 512.813 671.017 519.99 686.018 534.698Z" fill="#493272" />
	<path d="M583.005 542.544C600.234 542.544 614.201 528.578 614.201 511.348C614.201 494.119 600.234 480.152 583.005 480.152C565.776 480.152 551.809 494.119 551.809 511.348C551.809 528.578 565.776 542.544 583.005 542.544Z" fill="#493272" />
	<path d="M1562.34 496.964C1560.82 504.82 1558.75 512.384 1556.23 519.519C1539.09 504.58 1529.55 482.087 1531.56 458.549L1535.13 416.892C1519.6 434.226 1496.39 442.627 1473.36 439.258L1443.95 434.969C1460.8 399.337 1489.46 377.41 1516.93 382.746C1552.91 389.744 1573.24 440.88 1562.34 496.964Z" fill="#493272" />
	<path d="M1021.27 767.989C1019.72 767.989 1018.16 767.56 1016.77 766.671L972.6 738.425C971.512 737.724 970.591 736.782 969.932 735.673L952.629 706.789C950.254 702.825 951.541 697.688 955.505 695.313C959.47 692.938 964.607 694.225 966.982 698.19L983.281 725.39L1025.79 752.579C1029.68 755.069 1030.82 760.247 1028.33 764.139C1026.74 766.618 1024.03 767.989 1021.27 767.989Z" fill="#7C4C59" />
	<path d="M1032.53 755.204C1031.07 755.204 1029.57 754.817 1028.22 754.001L989.296 730.588C983.814 727.293 980.131 721.759 979.2 715.43L973.687 677.821C973.018 673.249 976.177 669.002 980.749 668.322C985.32 667.652 989.568 670.812 990.248 675.383L995.761 712.992C995.96 714.352 996.744 715.534 997.926 716.235L1036.85 739.648C1040.82 742.033 1042.09 747.17 1039.71 751.135C1038.15 753.761 1035.38 755.204 1032.53 755.204Z" fill="#7C4C59" />
	<path d="M1049.18 746.669C1047.63 746.669 1046.07 746.24 1044.68 745.35L1009.16 722.639C1001.55 717.764 996.587 709.478 995.897 700.45L994.233 678.585C993.888 673.972 997.33 669.955 1001.94 669.609C1006.54 669.275 1010.57 672.706 1010.92 677.32L1012.58 699.184C1012.88 702.982 1014.97 706.486 1018.18 708.537L1053.7 731.248C1057.59 733.738 1058.73 738.917 1056.24 742.808C1054.64 745.309 1051.94 746.669 1049.18 746.669Z" fill="#7C4C59" />
	<path d="M1005.02 363.1H1115.47V447.429V473.552H1005.02V446.687V363.1Z" fill="#FFCC65" />
	<path d="M1063.79 553.958H1174.23V638.288V664.41H1063.79V637.545V553.958Z" fill="#EF4C86" />
	<path d="M915.302 503.168H1025.75V556.448C1025.75 576.722 1019.93 596.568 1008.96 613.62H898.511L899.233 612.469C909.737 595.668 915.302 576.252 915.302 556.438V503.168V503.168Z" fill="#54C0D0" />
</svg>
