<?xml version="1.0" encoding="utf-8"?>
<!-- Generator: Adobe Illustrator 24.0.0, SVG Export Plug-In . SVG Version: 6.00 Build 0)  -->
<svg version="1.1" id="Layer_1" xmlns="http://www.w3.org/2000/svg" xmlns:xlink="http://www.w3.org/1999/xlink" x="0px" y="0px"
	 viewBox="0 0 2000 2000" style="enable-background:new 0 0 2000 2000;" xml:space="preserve">
<style type="text/css">
	.st0{fill:#F1F1F8;}
	.st1{fill:#54C0D0;}
	.st2{fill:#7C4C59;}
	.st3{fill:#EAB659;}
	.st4{fill:#FFCC65;}
	.st5{fill:#33235E;}
	.st6{fill:#493272;}
	.st7{fill:#444258;}
	.st8{fill:#62626E;}
	.st9{fill:#CDAE78;}
	.st10{fill:#F16259;}
	.st11{fill:none;}
	.st12{fill:#E5B155;}
	.st13{fill:#F8E6CD;}
	.st14{fill:none;stroke:#FFFFFF;stroke-miterlimit:10;}
	.st15{fill:#DB4643;}
	.st16{fill:#51C1D0;}
	.st17{fill:none;stroke:#7C4C59;stroke-width:10;stroke-linecap:round;stroke-linejoin:round;stroke-miterlimit:10;}
	.st18{fill:#EF4C86;}
	.st19{fill:#31AAB9;}
	.st20{fill:none;stroke:#61C08B;stroke-width:8;stroke-miterlimit:10;}
	.st21{fill:#61C08B;}
</style>
<g>
	<path class="st10" d="M582.93,1077.73c0,90.72-73.55,164.25-164.27,164.25c-90.7,0-164.25-73.53-164.25-164.25
		c0-63,35.48-117.72,87.54-145.28c1.77-0.93,3.55-1.84,5.37-2.72c1.86-0.9,3.72-1.75,5.61-2.56c20.13-8.82,42.36-13.71,65.73-13.71
		c34.13,0,65.82,10.4,92.07,28.23c1.7,1.16,3.36,2.34,5.01,3.54l0.02,0.02C556.49,975.12,582.93,1023.34,582.93,1077.73z"/>
	<rect x="208.67" y="1183.99" class="st0" width="1588" height="328"/>
	<path class="st1" d="M912.67,1047.99l175.2-212.3c29.63-35.91,73.76-56.7,120.32-56.7h374.48c86.16,0,156,69.84,156,156v249h-498
		l-56-225l-193,220L912.67,1047.99z"/>
	<path class="st2" d="M1649.48,838.35L1649.48,838.35c40.17-29.62,66.94-73.97,74.44-123.31l5.63-37.06
		c1.31-8.59-3.97-16.82-12.32-19.22l0,0c-9.05-2.6-18.52,2.51-21.29,11.51l-10.98,43.53c-0.33,1.29-2.25,0.9-2.05-0.41l14.27-94.01
		c1.67-9.33-3.92-18.43-12.99-21.18v0c-10.31-3.13-21.12,3.08-23.61,13.55l-26.91,93.15c-0.46,1.58-2.17,2.42-3.7,1.82l0,0
		c-1.38-0.55-2.09-2.07-1.62-3.47l19.64-64.25c2.68-8.01-0.35-17.06-7.69-21.27c-1.06-0.61-2.19-1.11-3.39-1.51h0
		c-8.5-2.79-17.75,1.02-21.81,8.98l-66.75,148.39l-5.04,10.6L1649.48,838.35z"/>
	<path class="st19" d="M1520.67,778.99h181l39.3,425.73c5.21,57.62-40.16,107.27-98.01,107.27h0c-52.31,0-95.48-40.92-98.27-93.15
		L1520.67,778.99z"/>
	<path class="st2" d="M1540.6,684.7l5.59,93.46l56.45-12.1l-34.03-73.03C1562.52,683.84,1550.72,680.34,1540.6,684.7L1540.6,684.7z"
		/>
	<path class="st2" d="M1488.55,672.13c-17.94,48.49-54.62,79.54-86.58,70.98c-35.22-9.44-51.36-63.36-36.06-120.44
		c2.5-9.31,5.68-18.15,9.41-26.35c15-6.2,29.58-13.37,43.65-21.47C1436.64,610.84,1460.14,643.74,1488.55,672.13z"/>
	<path class="st20" d="M396.67,721.99L396.67,721.99c21.4,37.35,32.67,79.65,32.67,122.7v131.3"/>
	<path class="st20" d="M341.33,727.32l13.53,22.9c1.11,1.88,2.21,3.76,3.29,5.66c35.3,61.81,53.98,131.72,55.77,202.88l0.41,16.23"
		/>
	<line class="st20" x1="371.86" y1="778.99" x2="323.33" y2="778.99"/>
	<line class="st20" x1="497.33" y1="721.99" x2="454" y2="978.36"/>
	<line class="st20" x1="485.88" y1="789.74" x2="454" y2="747.99"/>
	<path class="st20" d="M552,778.99l-6.01,9.06c-26.03,39.24-45.27,82.57-56.92,128.19l-16.84,53.75"/>
	<path class="st21" d="M418.67,978.36l-33.72-76.5c-8.88-29.45-28.79-54.6-55.98-68.97c-0.96-0.51-1.94-1.01-2.92-1.49L307,821.98v0
		c-4.14,41.37,19.97,73.28,53.67,105.34L418.67,978.36z"/>
	<circle class="st4" cx="559.67" cy="767.32" r="27.67"/>
	<circle class="st4" cx="502.94" cy="701.32" r="33"/>
	<circle class="st4" cx="388.27" cy="701.32" r="33"/>
	<circle class="st4" cx="329.47" cy="718.79" r="22.53"/>
	<circle class="st4" cx="308.87" cy="779.53" r="25.54"/>
	<circle class="st4" cx="450.45" cy="742.95" r="15.63"/>
	<g>
		<path class="st15" d="M519.78,949.69c-22.23,20.17-51.04,31.29-81.1,31.29c-38.03,0-73.05-17.36-96.12-47.6l-0.41-0.6l-0.2-0.33
			c1.77-0.93,3.55-1.84,5.37-2.72c1.86-0.9,3.72-1.75,5.61-2.56c20.78,26.58,51.95,41.81,85.74,41.81
			c26.63,0,52.17-9.68,72.06-27.29c0.33-0.3,0.66-0.58,0.99-0.89l4.02,4.43l0.02,0.02L519.78,949.69z"/>
	</g>
	<path class="st7" d="M1030.17,1183.99l-89.56-344.61c-1.44-5.53-6.43-9.39-12.15-9.39H466.89c-8.21,0-14.21,7.76-12.15,15.71
		l87.92,338.29H1030.17z"/>
	<path class="st7" d="M965.17,1183.99h329.33c13.62,0,24.67-11.04,24.67-24.67v-12.33h-354V1183.99z"/>
	
		<ellipse transform="matrix(0.9391 -0.3437 0.3437 0.9391 -302.3383 308.054)" class="st8" cx="717.92" cy="1006.99" rx="31.89" ry="47.61"/>
	<path class="st10" d="M1493.41,656.85c-1.41,5.26-3.05,10.36-4.86,15.28c-28.41-28.4-51.92-61.29-69.59-97.28
		c-14.07,8.1-28.65,15.27-43.65,21.47c8.63-18.97,20.17-34.64,32.95-45.39c15.55-13.05,32.92-18.85,49.09-14.52
		c0.53,0.13,1.05,0.28,1.56,0.45C1493.05,547.45,1508.49,600.63,1493.41,656.85z"/>
	<circle class="st10" cx="1512.4" cy="523.61" r="31.55"/>
</g>
</svg>
