<svg viewBox="0 0 2048 1536" fill="none" xmlns="http://www.w3.org/2000/svg">
<path d="M604.26 843.67C604.26 934.39 530.71 1007.92 439.99 1007.92C349.29 1007.92 275.74 934.39 275.74 843.67C275.74 780.67 311.22 725.95 363.28 698.39C365.05 697.46 366.83 696.55 368.65 695.67C370.51 694.77 372.37 693.92 374.26 693.11C394.39 684.29 416.62 679.4 439.99 679.4C474.12 679.4 505.81 689.8 532.06 707.63C533.76 708.79 535.42 709.97 537.07 711.17L537.09 711.19C577.82 741.06 604.26 789.28 604.26 843.67Z" fill="#F16259"/>
<path d="M1818 949.93H230V1277.93H1818V949.93Z" fill="#F1F1F8"/>
<path d="M934 813.93L1109.2 601.63C1138.83 565.72 1182.96 544.93 1229.52 544.93H1604C1690.16 544.93 1760 614.77 1760 700.93V949.93H1262L1206 724.93L1013 944.93L934 813.93Z" fill="#54C0D0"/>
<path d="M1670.81 604.29C1710.98 574.67 1737.75 530.32 1745.25 480.98L1750.88 443.92C1752.19 435.33 1746.91 427.101 1738.56 424.701C1729.51 422.101 1720.04 427.211 1717.27 436.211L1706.29 479.74C1705.96 481.03 1704.04 480.641 1704.24 479.331L1718.51 385.321C1720.18 375.991 1714.59 366.891 1705.52 364.141C1695.21 361.011 1684.4 367.221 1681.91 377.691L1655 470.841C1654.54 472.421 1652.83 473.26 1651.3 472.66C1649.92 472.11 1649.21 470.59 1649.68 469.19L1669.32 404.941C1672 396.931 1668.97 387.88 1661.63 383.67C1660.57 383.06 1659.44 382.56 1658.24 382.16C1649.74 379.37 1640.49 383.181 1636.43 391.141L1569.68 539.531L1564.64 550.131L1670.81 604.29Z" fill="#7C4C59"/>
<path d="M1542 544.93H1723L1762.3 970.66C1767.51 1028.28 1722.14 1077.93 1664.29 1077.93C1611.98 1077.93 1568.81 1037.01 1566.02 984.78L1542 544.93Z" fill="#31AAB9"/>
<path d="M1561.93 450.64L1567.52 544.1L1623.97 532L1589.94 458.97C1583.85 449.78 1572.05 446.28 1561.93 450.64Z" fill="#7C4C59"/>
<path d="M1509.88 438.07C1491.94 486.56 1455.26 517.61 1423.3 509.05C1388.08 499.61 1371.94 445.69 1387.24 388.61C1389.74 379.3 1392.92 370.46 1396.65 362.26C1411.65 356.06 1426.23 348.89 1440.3 340.79C1457.97 376.78 1481.47 409.68 1509.88 438.07Z" fill="#7C4C59"/>
<path d="M418 487.93C439.4 525.28 450.67 567.58 450.67 610.63V741.93" stroke="#61C08B" stroke-width="8" stroke-miterlimit="10"/>
<path d="M362.66 493.26L376.19 516.16C377.3 518.04 378.4 519.92 379.48 521.82C414.78 583.63 433.46 653.54 435.25 724.7L435.66 740.93" stroke="#61C08B" stroke-width="8" stroke-miterlimit="10"/>
<path d="M393.19 544.93H344.66" stroke="#61C08B" stroke-width="8" stroke-miterlimit="10"/>
<path d="M518.66 487.93L475.33 744.3" stroke="#61C08B" stroke-width="8" stroke-miterlimit="10"/>
<path d="M507.21 555.68L475.33 513.93" stroke="#61C08B" stroke-width="8" stroke-miterlimit="10"/>
<path d="M573.33 544.93L567.32 553.99C541.29 593.23 522.05 636.56 510.4 682.18L493.56 735.93" stroke="#61C08B" stroke-width="8" stroke-miterlimit="10"/>
<path d="M440 744.3L406.28 667.8C397.4 638.35 377.49 613.2 350.3 598.83C349.34 598.32 348.36 597.82 347.38 597.34L328.33 587.92C324.19 629.29 348.3 661.2 382 693.26L440 744.3Z" fill="#61C08B"/>
<path d="M581 560.93C596.282 560.93 608.67 548.542 608.67 533.26C608.67 517.978 596.282 505.59 581 505.59C565.718 505.59 553.33 517.978 553.33 533.26C553.33 548.542 565.718 560.93 581 560.93Z" fill="#FFCC65"/>
<path d="M524.27 500.26C542.495 500.26 557.27 485.485 557.27 467.26C557.27 449.034 542.495 434.26 524.27 434.26C506.045 434.26 491.27 449.034 491.27 467.26C491.27 485.485 506.045 500.26 524.27 500.26Z" fill="#FFCC65"/>
<path d="M409.6 500.26C427.825 500.26 442.6 485.485 442.6 467.26C442.6 449.034 427.825 434.26 409.6 434.26C391.375 434.26 376.6 449.034 376.6 467.26C376.6 485.485 391.375 500.26 409.6 500.26Z" fill="#FFCC65"/>
<path d="M350.8 507.26C363.243 507.26 373.33 497.173 373.33 484.73C373.33 472.287 363.243 462.2 350.8 462.2C338.357 462.2 328.27 472.287 328.27 484.73C328.27 497.173 338.357 507.26 350.8 507.26Z" fill="#FFCC65"/>
<path d="M330.2 571.01C344.305 571.01 355.74 559.575 355.74 545.47C355.74 531.364 344.305 519.93 330.2 519.93C316.095 519.93 304.66 531.364 304.66 545.47C304.66 559.575 316.095 571.01 330.2 571.01Z" fill="#FFCC65"/>
<path d="M471.78 524.52C480.412 524.52 487.41 517.522 487.41 508.89C487.41 500.258 480.412 493.26 471.78 493.26C463.148 493.26 456.15 500.258 456.15 508.89C456.15 517.522 463.148 524.52 471.78 524.52Z" fill="#FFCC65"/>
<path d="M541.11 715.63C518.88 735.8 490.07 746.92 460.01 746.92C421.98 746.92 386.96 729.56 363.89 699.32L363.48 698.72L363.28 698.39C365.05 697.46 366.83 696.55 368.65 695.67C370.51 694.77 372.37 693.92 374.26 693.11C395.04 719.69 426.21 734.92 460 734.92C486.63 734.92 512.17 725.24 532.06 707.63C532.39 707.33 532.72 707.05 533.05 706.74L537.07 711.17L537.09 711.19L541.11 715.63Z" fill="#DB4643"/>
<path d="M1051.5 949.93L961.94 605.32C960.5 599.79 955.51 595.93 949.79 595.93H488.22C480.01 595.93 474.01 603.69 476.07 611.64L563.99 949.93H1051.5Z" fill="#444258"/>
<path d="M986.5 949.93H1315.83C1329.45 949.93 1340.5 938.89 1340.5 925.26V912.93H986.5V949.93V949.93Z" fill="#444258"/>
<path d="M755.656 817.62C772.196 811.566 778.278 786.641 769.241 761.949C760.203 737.256 739.469 722.145 722.929 728.199C706.39 734.252 700.308 759.177 709.345 783.87C718.382 808.563 739.117 823.673 755.656 817.62Z" fill="#62626E"/>
<path d="M1514.74 422.79C1513.33 428.05 1511.69 433.15 1509.88 438.07C1481.47 409.67 1457.96 376.78 1440.29 340.79C1426.22 348.89 1411.64 356.06 1396.64 362.26C1405.27 343.29 1416.81 327.62 1429.59 316.87C1445.14 303.82 1462.51 298.02 1478.68 302.35C1479.21 302.48 1479.73 302.63 1480.24 302.8C1514.38 313.39 1529.82 366.57 1514.74 422.79Z" fill="#F16259"/>
<path d="M1533.73 321.1C1551.15 321.1 1565.28 306.975 1565.28 289.55C1565.28 272.125 1551.15 258 1533.73 258C1516.31 258 1502.18 272.125 1502.18 289.55C1502.18 306.975 1516.31 321.1 1533.73 321.1Z" fill="#F16259"/>
</svg>
