<?xml version="1.0" encoding="utf-8"?>
<!-- Generator: Adobe Illustrator 24.0.0, SVG Export Plug-In . SVG Version: 6.00 Build 0)  -->
<svg version="1.1" id="Layer_1" xmlns="http://www.w3.org/2000/svg" xmlns:xlink="http://www.w3.org/1999/xlink" x="0px" y="0px"
	 viewBox="0 0 2000 2000" style="enable-background:new 0 0 2000 2000;" xml:space="preserve">
<style type="text/css">
	.st0{fill:#F1F1F8;}
	.st1{fill:#54C0D0;}
	.st2{fill:#7C4C59;}
	.st3{fill:#EAB659;}
	.st4{fill:#FFCC65;}
	.st5{fill:#33235E;}
	.st6{fill:#493272;}
	.st7{fill:#444258;}
	.st8{fill:#62626E;}
	.st9{fill:#CDAE78;}
	.st10{fill:#F16259;}
	.st11{fill:none;}
	.st12{fill:#E5B155;}
	.st13{fill:#F8E6CD;}
	.st14{fill:none;stroke:#FFFFFF;stroke-miterlimit:10;}
	.st15{fill:#DB4643;}
	.st16{fill:#51C1D0;}
	.st17{fill:#EF4C86;}
	.st18{fill:#31AAB9;}
	.st19{fill:none;stroke:#61C08B;stroke-width:8;stroke-miterlimit:10;}
	.st20{fill:#61C08B;}
</style>
<g>
	<path class="st0" d="M1800.99,1343.37H251.5c0-427.89,346.86-774.75,774.74-774.75S1800.99,915.48,1800.99,1343.37z"/>
	<path class="st2" d="M1165.27,1064.63l-61.04,255.64l-39.02-300.47c-3.7-23.69-16.81-44.88-36.35-58.77l-43.5-24.75l-14.34,47.94
		l21.04,14.53l16.9,332.7c1.99,52.97,45.2,95.06,98.21,95.67h0c50.56,0.57,93.5-36.9,99.77-87.08l61.22-292.85L1165.27,1064.63z"/>
	<path class="st6" d="M1620.01,1166.88L1620.01,1166.88c34.85,55.59,55.79,113.91,61.67,178.43l-431.29-1.18l26.22-139.83
		L1620.01,1166.88z"/>
	<path class="st15" d="M1260.56,1206.3l388.46-14.16v-131.93l119.3-53.33l-51.25-106.02c-22.43-46.39-71.11-74.18-122.46-69.89
		l-304.1,23.59c-46.61,3.9-87.11,33.59-104.84,76.87l-44.73,162.46l115.09,19.65L1260.56,1206.3z"/>
	<polygon class="st16" points="515.12,1245.42 460.34,1344.25 835.04,1342.86 788.02,1204.35 	"/>
	<path class="st4" d="M571.67,1343.35l-224.75,80.95c-89.57,20.46-174.94-28.34-174.94-120.21v0c0-52.66,28.93-101.07,75.31-126.01
		l248.07-170.82c15.23-8.19,31.75-13.72,48.84-16.36l278.92-43c65.12-10.04,123.87,40.34,123.87,106.23l5.26,288.73H835.04
		l-1.94-90.36l-316.28,10.83l0.23-128.02l-209.81,158.07l251.11-60.98L571.67,1343.35z"/>
	<path class="st7" d="M1645.95,1344.25h-277.94l-47.39-210.07c-1.31-5.74,2.31-11.46,8.05-12.75l243.67-54.98
		c5.74-1.31,11.44,2.31,12.75,8.05L1645.95,1344.25z"/>
	<path class="st2" d="M1747.25,1016.29l72.7,317.28c13.22,57.68-41.03,108-97.55,90.49l-387.46-109.73
		c-22.38-6.16-37.25-27.32-35.49-50.46l1.41-18.51c1.53-20.08,15.67-36.96,35.16-41.99l0,0l12.63,51.93l366.24,72.63l-65.88-267.72
		L1747.25,1016.29z"/>
	<path class="st2" d="M1511.51,739.69c-1.46,7.51-3.43,14.74-5.84,21.56c-14.74,41.84-45.74,69.16-75.31,63.42
		c-34.39-6.69-53.83-55.56-43.41-109.18c2.47-12.7,6.38-24.51,11.39-35.06c16.11-34.06,43.5-55.02,69.76-49.92
		C1502.49,637.2,1521.93,686.08,1511.51,739.69z"/>
	<path class="st9" d="M672.21,949.41c-27.3,6.17-56.89-18.01-72.63-56.33c-3.04-7.42-5.57-15.37-7.46-23.75
		c-11.64-51.59,5.34-99.37,37.93-106.71c16.05-3.62,32.89,3.24,47.22,17.3c14.8,14.47,26.95,36.6,32.85,62.79
		C721.78,894.27,704.79,942.05,672.21,949.41z"/>
	<path class="st9" d="M571.85,1343.32l124.99,0.9l0,0c-8.13-22-26.21-38.84-48.73-45.38l-84.55-24.57L571.85,1343.32z"/>
	<path class="st6" d="M673.84,775.76l-2.31,6.72c-14.43,42.02-40.63,78.95-75.39,106.44c-3.04-7.42-5.57-15.37-7.46-23.75
		c-11.64-51.59,5.34-99.37,37.93-106.71C642.67,754.84,659.5,761.7,673.84,775.76z"/>
	<circle class="st6" cx="575.37" cy="753.44" r="29.82"/>
	<path class="st6" d="M1511.51,739.69c-1.46,7.51-3.43,14.74-5.84,21.56c-16.39-14.28-25.51-35.78-23.58-58.28l3.41-39.82
		c-14.85,16.57-37.03,24.6-59.05,21.38l-28.11-4.1c16.11-34.06,43.5-55.02,69.76-49.92C1502.49,637.2,1521.93,686.08,1511.51,739.69
		z"/>
	<g>
		<path class="st2" d="M994.3,998.76c-1.48,0-2.97-0.41-4.3-1.26l-42.22-27c-1.04-0.67-1.92-1.57-2.55-2.63l-16.54-27.61
			c-2.27-3.79-1.04-8.7,2.75-10.97c3.79-2.27,8.7-1.04,10.97,2.75l15.58,26l40.63,25.99c3.72,2.38,4.81,7.33,2.43,11.05
			C999.53,997.45,996.94,998.76,994.3,998.76z"/>
	</g>
	<g>
		<path class="st2" d="M1005.07,986.54c-1.4,0-2.83-0.37-4.12-1.15l-37.21-22.38c-5.24-3.15-8.76-8.44-9.65-14.49l-5.27-35.95
			c-0.64-4.37,2.38-8.43,6.75-9.08c4.37-0.64,8.43,2.38,9.08,6.75l5.27,35.95c0.19,1.3,0.94,2.43,2.07,3.1l37.21,22.38
			c3.79,2.28,5.01,7.19,2.73,10.98C1010.44,985.16,1007.79,986.54,1005.07,986.54z"/>
	</g>
	<g>
		<path class="st2" d="M1020.98,978.38c-1.48,0-2.97-0.41-4.3-1.26l-33.95-21.71c-7.28-4.66-12.02-12.58-12.68-21.21l-1.59-20.9
			c-0.33-4.41,2.96-8.25,7.37-8.58c4.39-0.32,8.25,2.96,8.58,7.37l1.59,20.9c0.28,3.63,2.28,6.98,5.35,8.94l33.95,21.71
			c3.72,2.38,4.81,7.33,2.43,11.05C1026.2,977.08,1023.62,978.38,1020.98,978.38z"/>
	</g>
	<polygon class="st4" points="978.77,611.73 1084.35,611.73 1084.35,692.34 1084.35,717.31 978.77,717.31 978.77,691.63 	"/>
	<polygon class="st17" points="1034.95,794.17 1140.52,794.17 1140.52,874.78 1140.52,899.75 1034.95,899.75 1034.95,874.07 	"/>
	<path class="st1" d="M893.01,745.62h105.58v50.93c0,19.38-5.57,38.35-16.05,54.65l0,0H876.96l0.69-1.1
		c10.04-16.06,15.36-34.62,15.36-53.56V745.62z"/>
</g>
</svg>
