<svg id="Layer_1" data-name="Layer 1" xmlns="http://www.w3.org/2000/svg" viewBox="0 0 414.14 383.63">
  <defs>
    <style>
      .cls-1 {
        fill: #eb6b5e;
      }

      .cls-2 {
        fill: #c9c7dc;
      }

      .cls-3 {
        fill: #71bdcb;
      }

      .cls-4 {
        fill: #f0eff9;
      }

      .cls-5 {
        fill: #ffcc63;
      }
    </style>
  </defs>
  <path class="cls-1" d="M224.68,360.38v-6.86a27.54,27.54,0,1,0,0-55.08v-6.86a34.4,34.4,0,0,1,0,68.8Z" />
  <path class="cls-1" d="M310.36,360.38v-6.86a27.54,27.54,0,1,0,0-55.08v-6.86a34.4,34.4,0,0,1,0,68.8Z" />
  <polygon class="cls-2" points="154.01 243.36 247.03 11.24 257.27 13.38 175.34 248.06 154.01 243.36" />
  <path class="cls-3"
    d="M349,36l-3.39,8.66L288.8,25.24C216.87-1.45,172.73,13.48,123.29,44.53l-10.38-9.38c12.64-12.22,28.93-21.4,46.63-27.39a151.49,151.49,0,0,1,92.27-1.12Z" />
  <path class="cls-1"
    d="M190.9,301.64l60.65-169.15a45.53,45.53,0,0,1,43.08-30.15l83.95.41A35.71,35.71,0,0,1,412.82,148L368.51,307.6Z" />
  <polygon class="cls-4"
    points="372.8 102.71 367.02 122.38 361.72 140.43 317.1 292.24 315.3 298.36 315.15 298.87 313.57 304.25 319.37 305.95 320.15 306.18 320.21 305.98 321.7 300.89 322.45 298.36 323.65 294.25 379.92 102.78 372.8 102.71" />
  <path class="cls-5"
    d="M391.3,325.78a27.42,27.42,0,0,1-27.42,27.42H185.65a27.42,27.42,0,0,1,0-54.84H363.88A27.42,27.42,0,0,1,391.3,325.78Z" />
  <path class="cls-1" d="M391.3,325.78a27.42,27.42,0,1,1-27.42-27.42A27.34,27.34,0,0,1,391.3,325.78Z" />
  <path class="cls-1" d="M310.49,360.38a34.4,34.4,0,0,1,0-68.8v6.86a27.54,27.54,0,0,0,0,55.08Z" />
  <path class="cls-1" d="M224.8,360.38a34.4,34.4,0,0,1,0-68.8v6.86a27.54,27.54,0,0,0,0,55.08Z" />
  <path class="cls-4"
    d="M252.22,130.76v28.89A19.82,19.82,0,0,0,272,179.44h43.21a33.42,33.42,0,0,0,26.23-12.86l20.26-26.15h0l11.11-14.34-5.42-4.2-.39.5h0l-31,40a26.5,26.5,0,0,1-20.81,10.21H272a13,13,0,0,1-12.94-12.94V119.16Z" />
  <rect class="cls-4" x="271.03" y="188.01" width="31.94" height="6.85"
    transform="translate(27.62 418.9) rotate(-74.95)" />
  <path class="cls-3"
    d="M65.09,382.47a37.57,37.57,0,0,1-6.25-.52L60,375.19a30.9,30.9,0,0,0,36.09-29.82L98.2,289a434.63,434.63,0,0,1,5.55-54.59l3.44-20.72a435.13,435.13,0,0,1,16.46-66.27l10-29.9a30.77,30.77,0,0,0-24.1-40.64l1.12-6.76a37.6,37.6,0,0,1,29.48,49.57l-10,29.9A428.84,428.84,0,0,0,114,214.79l-3.44,20.72a428.25,428.25,0,0,0-5.46,53.72l-2.15,56.41a37.71,37.71,0,0,1-37.81,36.83Z" />
  <path class="cls-3"
    d="M59,382A37.73,37.73,0,0,1,29,333.36l16.2-54.07a428.5,428.5,0,0,0,12.2-52.6L60.86,206a428.19,428.19,0,0,0,5.77-67l.22-31.52a37.6,37.6,0,0,1,43.92-37.37l-1.12,6.76A30.77,30.77,0,0,0,73.7,107.53l-.22,31.52a435.7,435.7,0,0,1-5.85,68l-3.45,20.72a436.38,436.38,0,0,1-12.39,53.45L35.58,335.33a30.9,30.9,0,0,0,24.51,39.88Z" />
  <path class="cls-3"
    d="M37.87,374.53a37.88,37.88,0,0,1-14.9-3l2.68-6.31a30.88,30.88,0,0,0,42.07-20.51l15.33-54.33a435,435,0,0,1,18.21-51.75l8.21-19.34A435.6,435.6,0,0,1,141,158.7L157.74,132a30.76,30.76,0,0,0-13.89-45.16l2.68-6.31a37.61,37.61,0,0,1,17,55.1l-16.72,26.73a428.32,428.32,0,0,0-31.05,59.6l-8.21,19.34a427.15,427.15,0,0,0-17.92,50.93L74.32,346.54a37.62,37.62,0,0,1-36.45,28Z" />
  <path class="cls-3"
    d="M23.09,371.55A37.75,37.75,0,0,1,5.38,317.27l28.45-48.76A427.38,427.38,0,0,0,58,220.24l8.21-19.33a428.1,428.1,0,0,0,21.32-63.74l7.61-30.59a37.62,37.62,0,0,1,51.48-26L144,86.87a30.75,30.75,0,0,0-42.14,21.37l-7.62,30.58a435.38,435.38,0,0,1-21.66,64.77l-8.21,19.33A436.15,436.15,0,0,1,39.75,272L11.31,320.72a30.88,30.88,0,0,0,14.46,44.52Z" />
  <path class="cls-3"
    d="M98.26,383.5l-.59-6.83a30.89,30.89,0,0,0,27.58-37.82l-11.89-55.18a433.86,433.86,0,0,1-8.13-54.26l-1.8-20.93a436.12,436.12,0,0,1-.47-68.29l2.27-31.44a30.75,30.75,0,0,0-33.42-33.4l-.58-6.83a37.61,37.61,0,0,1,40.84,40.72l-2.27,31.44a428.43,428.43,0,0,0,.46,67.21l1.8,20.93a427.24,427.24,0,0,0,8,53.4L132,337.4a37.74,37.74,0,0,1-33.69,46.1Z" />
  <path class="cls-3"
    d="M95.13,383.63a37.73,37.73,0,0,1-37.8-39.82l2.31-56.4a428.53,428.53,0,0,0-1.2-54l-1.8-20.93a427.61,427.61,0,0,0-11-66.3l-7.59-30.6a37.62,37.62,0,0,1,33.3-47.08l.59,6.83a30.76,30.76,0,0,0-27.24,38.6l7.59,30.6a435,435,0,0,1,11.18,67.37l1.8,20.93a436.48,436.48,0,0,1,1.22,54.85l-2.31,56.4A30.9,30.9,0,0,0,97.8,376.66l.58,6.83C97.3,383.58,96.21,383.63,95.13,383.63Z" />
  <rect class="cls-3" x="82.43" y="178.97" width="6.85" height="82.31"
    transform="matrix(0.16, -0.99, 0.99, 0.16, -145.37, 268.74)" />
  <rect class="cls-3" x="84.67" y="165.45" width="6.85" height="82.31"
    transform="translate(-130.15 259.65) rotate(-80.57)" />
  <rect class="cls-3" x="80.18" y="192.49" width="6.85" height="82.31"
    transform="translate(-160.59 277.83) rotate(-80.57)" />
  <rect class="cls-3" x="77.93" y="206.02" width="6.85" height="82.31"
    transform="translate(-175.81 286.92) rotate(-80.57)" />
</svg>