<svg id="Layer_1" data-name="Layer 1" xmlns="http://www.w3.org/2000/svg" viewBox="0 0 1033 601.43">
	<defs>
		<style>
			.cls-1{fill:#f1f1f8;}.cls-2{fill:#f16259;}.cls-3{fill:#54c0d0;}.cls-4{fill:#7c4c59;}.cls-5{fill:#31aab9;}.cls-6{fill:none;stroke:#61c08b;stroke-miterlimit:10;stroke-width:8px;}.cls-7{fill:#61c08b;}.cls-8{fill:#ffcc65;}.cls-9{fill:#db4643;}.cls-10{fill:#444258;}.cls-11{fill:#62626e;}
		</style>
	</defs>
	<path class="cls-1" d="M1033,516.5H0C0,231.24,231.25,0,516.5,0S1033,231.24,1033,516.5Z" />
	<path class="cls-2" d="M230.29,445.26A109,109,0,0,1,204,516.5H37.62a109.53,109.53,0,0,1,32-168.09c1.18-.62,2.37-1.23,3.58-1.81s2.48-1.17,3.74-1.71a109.55,109.55,0,0,1,105.2,9.68c1.13.77,2.24,1.56,3.35,2.36h0A109.3,109.3,0,0,1,230.29,445.26Z" />
	<path class="cls-3" d="M450.12,425.43,566.92,283.9a104,104,0,0,1,80.21-37.8H896.78a104,104,0,0,1,104,104v166h-332l-37.33-150L502.78,512.77Z" />
	<path class="cls-4" d="M941.33,285.68h0A125.61,125.61,0,0,0,991,203.47l3.75-24.71A11.52,11.52,0,0,0,986.5,166h0a11.51,11.51,0,0,0-14.19,7.67l-7.32,29a.7.7,0,0,1-1.37-.28l9.51-62.67a12.48,12.48,0,0,0-8.66-14.13h0a12.47,12.47,0,0,0-15.74,9l-17.94,62.1a1.85,1.85,0,0,1-2.47,1.21h0a1.85,1.85,0,0,1-1.07-2.31l13.09-42.83a12,12,0,0,0-5.12-14.19,12.41,12.41,0,0,0-2.26-1h0a12.08,12.08,0,0,0-14.54,6l-44.5,98.93-3.36,7.06Z" />
	<path class="cls-5" d="M855.45,246.1H976.12l26.2,283.82A65.61,65.61,0,0,1,937,601.43h0a65.61,65.61,0,0,1-65.52-62.1Z" />
	<path class="cls-4" d="M868.74,183.24l3.73,62.31,37.63-8.07-22.68-48.69a15.2,15.2,0,0,0-18.68-5.55Z" />
	<path class="cls-4" d="M834,174.86c-12,32.33-36.41,53-57.72,47.32-23.48-6.29-34.24-42.24-24-80.29a114.83,114.83,0,0,1,6.27-17.57A248.29,248.29,0,0,0,787.65,110,243.36,243.36,0,0,0,834,174.86Z" />
	<path class="cls-6" d="M106.12,208.1h0a164.51,164.51,0,0,1,21.78,81.8v87.53" />
	<path class="cls-6" d="M69.23,211.65l9,15.27c.74,1.25,1.47,2.51,2.19,3.77,23.53,41.21,36,87.81,37.18,135.25l.28,10.82" />
	<line class="cls-6" x1="89.58" y1="246.1" x2="57.23" y2="246.1" />
	<line class="cls-6" x1="173.23" y1="208.1" x2="144.34" y2="379.01" />
	<line class="cls-6" x1="165.59" y1="253.27" x2="144.34" y2="225.43" />
	<path class="cls-6" d="M209.67,246.1l-4,6a279.82,279.82,0,0,0-37.95,85.46L156.5,373.44" />
	<path class="cls-7" d="M120.79,379,98.3,328A76.93,76.93,0,0,0,61,282c-.65-.34-1.29-.67-2-1l-12.7-6.28h0C43.58,302.34,59.65,323.61,82.12,345Z" />
	<circle class="cls-8" cx="214.78" cy="238.32" r="18.44" />
	<circle class="cls-8" cx="176.97" cy="194.32" r="22" />
	<circle class="cls-8" cx="100.52" cy="194.32" r="22" />
	<circle class="cls-8" cx="61.32" cy="205.97" r="15.02" />
	<circle class="cls-8" cx="47.59" cy="246.46" r="17.03" />
	<circle class="cls-8" cx="141.97" cy="222.07" r="10.42" />
	<path class="cls-9" d="M188.19,359.9A80.54,80.54,0,0,1,70,349l-.27-.4-.13-.22c1.18-.62,2.37-1.23,3.58-1.81s2.48-1.17,3.74-1.71a72.54,72.54,0,0,0,105.2,9.68l.66-.59,2.68,2.95h0Z" />
	<path class="cls-10" d="M528.45,516.1l-59.7-229.74a8.37,8.37,0,0,0-8.1-6.26H152.94a8.36,8.36,0,0,0-8.1,10.47L203.45,516.1Z" />
	<path class="cls-10" d="M485.12,491.43h236a0,0,0,0,1,0,0v0a24.67,24.67,0,0,1-24.67,24.67H485.12a0,0,0,0,1,0,0V491.43A0,0,0,0,1,485.12,491.43Z" />
	<ellipse class="cls-11" cx="320.28" cy="398.1" rx="21.26" ry="31.74" transform="translate(-117.3 134.32) rotate(-20.1)" />
	<path class="cls-2" d="M837.28,164.67c-.94,3.51-2,6.91-3.24,10.19A243.36,243.36,0,0,1,787.65,110a248.29,248.29,0,0,1-29.1,14.31c5.75-12.65,13.45-23.09,22-30.26,10.37-8.7,22-12.57,32.73-9.68.35.09.7.19,1,.3C837,91.74,847.33,127.19,837.28,164.67Z" />
	<circle class="cls-2" cx="849.94" cy="75.85" r="21.03" />
</svg>
