<svg width="201" height="233" viewBox="0 0 201 233" fill="none" xmlns="http://www.w3.org/2000/svg">
<rect width="114.427" height="222.408" fill="white"/>
<path d="M20.0716 91.398L54.2225 129.141L35.387 81.8555C34.8321 80.4694 33.9481 79.2393 32.8112 78.2715C31.6744 77.3037 30.319 76.6273 28.8621 76.3007C27.4052 75.9742 25.8908 76.0073 24.4496 76.3973C23.0084 76.7872 21.6839 77.5223 20.5905 78.5389V78.5389C18.8387 80.1882 17.8032 82.4585 17.7062 84.8625C17.6092 87.2666 18.4584 89.6129 20.0716 91.398V91.398Z" fill="#66BC8C"/>
<path d="M80.2035 81.4609L60.6719 121.404L92.9247 90.8064C93.8718 89.9081 94.5854 88.7924 95.0038 87.5559C95.4222 86.3194 95.5327 84.9995 95.3256 83.7107C95.1186 82.4219 94.6003 81.2031 93.8157 80.1598C93.0311 79.1166 92.0039 78.2805 90.8231 77.724C88.917 76.8271 86.7345 76.7163 84.7473 77.4156C82.7602 78.1148 81.128 79.568 80.2035 81.4609Z" fill="#66BC8C"/>
<path d="M58.0711 17.9062L44.626 116.57L49.8319 117.28L63.277 18.6156L58.0711 17.9062Z" fill="#66BC8C"/>
<path d="M82.0635 17.7178L60.3872 114.139L65.5133 115.291L87.1896 18.8702L82.0635 17.7178Z" fill="#66BC8C"/>
<path d="M106.553 39.7476L76.1509 53.7793L78.3576 58.5604L108.76 44.5287L106.553 39.7476Z" fill="#66BC8C"/>
<path d="M41.2376 45.3349L36.7578 48.0801L50.9573 71.2516L55.4371 68.5064L41.2376 45.3349Z" fill="#66BC8C"/>
<path d="M88.3275 24.2449C94.9325 24.2449 100.287 18.8905 100.287 12.2856C100.287 5.68058 94.9325 0.326172 88.3275 0.326172C81.7225 0.326172 76.3682 5.68058 76.3682 12.2856C76.3682 18.8905 81.7225 24.2449 88.3275 24.2449Z" fill="#FD6157"/>
<path d="M59.181 30.2234C65.786 30.2234 71.1404 24.869 71.1404 18.264C71.1404 11.6591 65.786 6.30469 59.181 6.30469C52.576 6.30469 47.2217 11.6591 47.2217 18.264C47.2217 24.869 52.576 30.2234 59.181 30.2234Z" fill="#FD6157"/>
<path d="M39.0842 54.0698C43.1647 54.0698 46.4726 50.7619 46.4726 46.6814C46.4726 42.6009 43.1647 39.293 39.0842 39.293C35.0037 39.293 31.6958 42.6009 31.6958 46.6814C31.6958 50.7619 35.0037 54.0698 39.0842 54.0698Z" fill="#FD6157"/>
<path d="M106.441 50.4155C110.521 50.4155 113.829 47.1076 113.829 43.0271C113.829 38.9466 110.521 35.6387 106.441 35.6387C102.36 35.6387 99.0522 38.9466 99.0522 43.0271C99.0522 47.1076 102.36 50.4155 106.441 50.4155Z" fill="#FD6157"/>
<path d="M106.276 181.209C106.284 188.884 104.622 196.469 101.406 203.438C98.1897 210.406 93.4962 216.592 87.6509 221.566H18.7581C12.3242 216.078 7.29546 209.131 4.09097 201.304C0.886485 193.478 -0.400875 184.999 0.3362 176.575C1.07328 168.15 3.81345 160.024 8.32828 152.873C12.8431 145.722 19.0018 139.754 26.291 135.466V107.955H80.1049V135.466C88.0769 140.147 94.6863 146.831 99.2772 154.855C103.868 162.879 106.281 171.964 106.276 181.209V181.209Z" fill="#FFCC63"/>
<path d="M80.7029 129.621H25.917V134.875H80.7029V129.621Z" fill="white"/>
<path d="M87.5917 221.939H82.3378C82.3378 214.31 79.3071 206.994 73.9125 201.599C68.5179 196.205 61.2013 193.174 53.5722 193.174C45.9431 193.174 38.6265 196.205 33.232 201.599C27.8374 206.994 24.8067 214.31 24.8067 221.939H19.5527C19.5527 212.917 23.1369 204.264 29.5168 197.884C35.8967 191.504 44.5497 187.92 53.5722 187.92C62.5948 187.92 71.2478 191.504 77.6277 197.884C84.0076 204.264 87.5917 212.917 87.5917 221.939V221.939Z" fill="white"/>
<path d="M158.691 178.082H95.251V229.942H158.691V178.082Z" fill="#329AE5"/>
<path d="M145.588 223.395H168.999C174.006 223.395 178.808 221.406 182.349 217.865C185.889 214.324 187.878 209.522 187.878 204.515C187.878 199.507 185.889 194.705 182.349 191.165C178.808 187.624 174.006 185.635 168.999 185.635H145.588V223.395ZM168.999 189.662C172.938 189.662 176.716 191.227 179.501 194.013C182.286 196.798 183.851 200.576 183.851 204.515C183.851 208.454 182.286 212.232 179.501 215.017C176.716 217.802 172.938 219.367 168.999 219.367H149.616V189.662H168.999Z" fill="#329AE5"/>
<path d="M154.764 232.816C151.188 229.038 146.879 226.028 142.1 223.971C137.322 221.914 132.174 220.853 126.971 220.853C121.768 220.853 116.62 221.914 111.842 223.971C107.063 226.028 102.754 229.038 99.1781 232.816L96.2578 230.047C100.21 225.872 104.972 222.547 110.253 220.275C115.534 218.002 121.222 216.83 126.971 216.83C132.72 216.83 138.408 218.002 143.689 220.275C148.97 222.547 153.732 225.872 157.684 230.047L154.764 232.816Z" fill="white"/>
<path d="M120.385 96.7941C125.775 91.4473 133.063 88.4537 140.655 88.4688C148.247 88.4839 155.523 91.5064 160.892 96.8747L160.952 96.9401C161.188 97.1691 161.467 97.3485 161.773 97.4679C162.079 97.5873 162.406 97.6443 162.734 97.6354C163.063 97.6264 163.386 97.5519 163.685 97.416C163.985 97.2802 164.254 97.0859 164.476 96.8445C164.678 96.633 164.884 96.4215 165.091 96.2151C167.861 93.4928 171.335 91.5964 175.124 90.739C178.912 89.8816 182.864 90.097 186.537 91.3611C190.209 92.6252 193.457 94.8879 195.915 97.8952C198.373 100.903 199.944 104.535 200.452 108.386C200.96 112.237 200.384 116.153 198.79 119.695C197.196 123.236 194.646 126.264 191.427 128.437C188.208 130.61 184.447 131.843 180.566 131.997C176.685 132.151 172.837 131.221 169.456 129.31C169.165 129.152 168.846 129.053 168.516 129.021C168.187 128.989 167.854 129.023 167.538 129.121C167.222 129.22 166.929 129.381 166.676 129.595C166.424 129.809 166.217 130.072 166.068 130.367C163.521 135.277 159.611 139.347 154.808 142.089C150.005 144.831 144.512 146.128 138.99 145.824C138.665 145.801 138.339 145.86 138.044 145.998C137.749 146.135 137.494 146.346 137.303 146.61C137.112 146.874 136.992 147.182 136.954 147.506C136.916 147.829 136.962 148.157 137.086 148.458C138.084 150.807 138.358 153.401 137.874 155.907C137.39 158.413 136.17 160.717 134.369 162.526C132.569 164.335 130.27 165.567 127.766 166.062C125.262 166.558 122.668 166.296 120.313 165.31C117.959 164.324 115.953 162.658 114.55 160.526C113.148 158.393 112.413 155.891 112.439 153.339C112.466 150.787 113.253 148.3 114.7 146.198C116.147 144.095 118.187 142.472 120.562 141.535C120.867 141.421 121.138 141.231 121.349 140.983C121.561 140.735 121.706 140.437 121.77 140.118C121.835 139.798 121.817 139.468 121.718 139.157C121.619 138.846 121.443 138.566 121.206 138.343C120.314 137.529 119.473 136.662 118.689 135.744C114.036 130.222 111.628 123.153 111.942 115.938C112.257 108.724 115.27 101.891 120.385 96.7941V96.7941Z" fill="#F1F0FA"/>
</svg>
