<svg width="320" height="180" viewBox="0 0 320 180" fill="none" xmlns="http://www.w3.org/2000/svg">
<g clip-path="url(#clip0)">
<rect width="320" height="180" fill="#329AE5"/>
<path d="M284.489 180H35.625C35.6766 168.411 37.3125 157.195 40.3281 146.563C47.4937 121.294 62.4391 99.2969 82.4156 83.3297C84.2875 81.8313 86.2063 80.3875 88.1656 79.0016C91.5781 76.5797 95.1172 74.3281 98.7734 72.2563H98.7766C116.367 62.2813 136.625 56.4656 158.217 56.1547H158.22C158.831 56.1453 159.445 56.1406 160.059 56.1406C163.358 56.1406 166.625 56.2703 169.856 56.5219C178.489 57.1922 186.872 58.7453 194.917 61.0891C195.383 61.225 195.847 61.3641 196.311 61.5063C199.784 62.5578 203.192 63.7641 206.53 65.1109C220.631 70.7891 233.453 78.9781 244.441 89.1219C244.528 89.2016 244.614 89.2813 244.698 89.361C245.759 90.3422 246.803 91.3485 247.83 92.3703C249.342 93.8719 250.816 95.4141 252.245 96.9938C255.48 100.556 258.508 104.308 261.311 108.231L261.314 108.236C275.8 128.48 284.369 153.239 284.489 180Z" fill="#F1F1F8"/>
<path d="M114.366 101.226L124.105 132.485C126.844 141.274 133.622 148.224 142.341 151.181L193.161 168.415L196.277 162.218L142.089 134.821L125.314 93.5273L114.366 101.226Z" fill="#54C0D0"/>
<path d="M258.128 66.9309L264.322 147.353C264.548 151.39 261.992 155.061 258.128 156.251L242.872 61.6543L258.128 66.9309Z" fill="#7C4C59"/>
<path d="M261.766 180H229.671L227.58 113.408L218.325 180H185.946L187.342 174.08L188.911 167.431V167.428L189.011 167.005L189.174 166.314L190.796 159.444L195.475 139.598L207.239 89.7281L207.583 88.2031L244.439 89.1234L247.314 89.1969L251.358 89.2969H251.36L252.244 96.9969L259.005 155.928L261.766 180Z" fill="#EAB659"/>
<path d="M235.587 45.6367H218.337V52.693H235.587V45.6367Z" fill="#FFCC65"/>
<path d="M185.945 180H194.258H201.241C200.12 175.452 197.4 171.263 193.162 168.413V168.409C192.339 167.855 191.456 167.35 190.519 166.905L189.633 166.516L189.173 166.314L153.137 150.494L147.733 148.122L138.767 144.188L138.28 143.975L127.109 139.069L125.708 138.455L109.072 131.152L108.656 130.969L107.598 138.047L106.552 145.078L123.366 151.523L182.161 174.061L171.367 180H185.945V180Z" fill="#33235E"/>
<path d="M185.945 180H194.258C192.244 177.764 189.926 175.767 187.34 174.08C185.986 173.194 184.554 172.394 183.054 171.687C183.05 171.687 183.045 171.684 183.044 171.683C182.969 171.648 182.89 171.611 182.814 171.575L176.445 168.634L176.261 168.55L138.361 151.044L110.355 138.111H110.348L109.073 137.517V131.152V128.192V123.656H72.2764L70.7655 128.192L67.7764 137.155L67.0217 139.422C66.3389 141.467 65.8795 143.533 65.6311 145.592C65.3124 148.237 65.3452 150.847 65.6936 153.37C67.553 166.812 78.3592 177.861 92.4358 179.726L94.5045 180.001H171.367H185.945V180Z" fill="#493272"/>
<path d="M171.411 126.711L205.113 144.757C205.756 145.102 205.931 145.946 205.478 146.518L186.323 170.694C185.463 171.782 183.967 172.136 182.709 171.55L137.698 150.586V146.243L151.438 152.874L169.906 127.063C170.247 126.583 170.892 126.433 171.411 126.711Z" fill="#444258"/>
<path d="M237.616 32.7833C237.346 33.788 237.011 34.7505 236.621 35.6505C234.221 41.1817 229.761 44.5911 225.805 43.5286C224.282 43.1192 223.024 42.0974 222.092 40.6489C220.217 37.738 219.678 33.1052 220.964 28.3146C220.991 28.213 221.017 28.1161 221.049 28.0177C221.496 26.4333 222.107 24.9739 222.839 23.6708C225.35 19.2052 229.263 16.627 232.772 17.5677C237.374 18.8052 239.539 25.6177 237.616 32.7833Z" fill="#7C4C59"/>
<path d="M237.616 32.7817C237.345 33.7864 237.011 34.7489 236.62 35.6489C234.22 41.1802 229.761 44.5896 225.805 43.5271L224.955 35.4583L224.898 32.7599C224.837 29.8786 225.123 27.002 225.747 24.1895C224.942 25.6911 223.656 26.8786 222.094 27.5614L221.048 28.0177C221.495 26.4333 222.106 24.9739 222.839 23.6708C225.35 19.2052 229.262 16.627 232.772 17.5677C237.373 18.8036 239.539 25.6161 237.616 32.7817Z" fill="#444258"/>
<path d="M225.886 35.6498L223.775 35.2608C223.021 35.1217 222.522 34.3983 222.661 33.6436L223.461 29.2936C223.6 28.5389 224.324 28.0405 225.078 28.1795L227.189 28.5686C227.944 28.7077 228.442 29.4311 228.303 30.1858L227.503 34.5358C227.364 35.2889 226.639 35.7889 225.886 35.6498Z" fill="#7C4C59"/>
<path d="M236.488 18.5977C244.606 15.4274 253.827 18.607 258.264 26.1086L261.438 31.4727L247.5 35.457L236.488 18.5977Z" fill="#444258"/>
<path d="M180.982 152.009C182.762 149.809 183 147.051 181.514 145.848C180.028 144.645 177.379 145.453 175.599 147.652C173.819 149.852 173.581 152.61 175.068 153.813C176.554 155.016 179.202 154.208 180.982 152.009Z" fill="#62626E"/>
<path d="M93.0766 80.0225C89.1922 80.899 84.9813 77.46 82.7407 72.0069C82.3078 70.9522 81.9485 69.8194 81.6797 68.6272C80.0235 61.285 82.4391 54.4865 87.0782 53.4428C89.3625 52.9272 91.7578 53.9037 93.7969 55.9053C95.9016 57.9647 97.6328 61.1147 98.4703 64.8397C100.131 72.1772 97.7125 78.9756 93.0766 80.0225Z" fill="#CDAE78"/>
<path d="M93.2046 55.1869L92.875 56.1432C90.8218 62.1229 87.0937 67.3775 82.1484 71.29C81.7156 70.2354 81.3562 69.1025 81.0874 67.9104C79.4312 60.5682 81.8468 53.7697 86.4859 52.726C88.7687 52.2104 91.164 53.1869 93.2046 55.1869Z" fill="#F16259"/>
<path d="M79.1922 56.2551C81.536 56.2551 83.436 54.3551 83.436 52.0113C83.436 49.6676 81.536 47.7676 79.1922 47.7676C76.8485 47.7676 74.9485 49.6676 74.9485 52.0113C74.9485 54.3551 76.8485 56.2551 79.1922 56.2551Z" fill="#F16259"/>
<path d="M138.281 139.262L138.58 139.337C144.264 140.759 148.252 145.865 148.252 151.724L138.281 146.74V139.262Z" fill="#CDAE78"/>
<path d="M122.686 15.7461L123.059 51.7492H164.372L164.049 15.7461H122.686Z" fill="#E5B155"/>
<path d="M122.686 15.7461L127.214 51.7492H168.527L164.049 15.7461H122.686Z" fill="#FFCC65"/>
<path d="M122.686 15.7461L130.95 50.0102L131.369 51.7492H172.68L169.561 38.7383L164.049 15.7461H122.686Z" fill="#F8E6CD"/>
<path d="M126.103 29.9141H167.445" stroke="white" stroke-miterlimit="10"/>
<path d="M124.264 20.7031L126.047 30.5047C126.158 31.1078 126.314 31.6875 126.517 32.2359C127.855 35.8625 131.095 38.2547 134.683 38.7391C135.569 38.8625 136.477 38.8641 137.381 38.7391C138.806 38.5469 140.222 38.0406 141.542 37.1813L146.074 34.2313H169.544C169.15 33.5547 168.838 32.8141 168.625 32.0094L168.019 29.7219L165.625 20.7031H124.264Z" fill="#F1F1F8"/>
<path d="M177.753 38.6473C178.715 38.5942 179.684 38.3863 180.62 38.0035C180.986 37.8551 181.347 37.6801 181.7 37.477L187.383 34.2285H146.073L141.542 37.1785C140.222 38.0379 138.806 38.5441 137.381 38.7363C137.381 38.7379 178.139 38.7129 177.753 38.6473Z" fill="#FFCC65"/>
<path d="M122.686 15.4688V15.7797L124.903 24.9734H167.711L165.431 15.4688H122.686Z" fill="#F16259"/>
<path d="M166.005 44.6056C165.676 40.2556 165.414 34.754 162.108 31.9056L159.623 29.7665C159.048 29.2712 158.194 29.279 157.628 29.7868C157.015 30.3368 156.955 31.2743 157.49 31.8977L161.001 35.5993L153.78 29.4431C153.165 28.8868 152.233 28.8774 151.608 29.4212C150.897 30.0399 150.855 31.1274 151.514 31.7993L157.162 38.1196C157.258 38.2274 157.24 38.3931 157.125 38.4774C157.02 38.554 156.875 38.5352 156.792 38.4352L153.869 34.8727C153.4 34.3024 152.589 34.1056 151.936 34.454C151.842 34.504 151.751 34.5649 151.667 34.6352C151.065 35.1352 150.919 35.9977 151.319 36.6681L156.305 44.6556L166.005 44.6056Z" fill="#7C4C59"/>
<path d="M199.391 55.5883L180.008 92.8445L163.48 33.7148L161.225 40.4773L154.462 38.2227L166.203 94.3101C168.542 107.33 185.962 110.155 192.295 98.5414L208.256 61.0586L199.391 55.5883Z" fill="#7C4C59"/>
<path d="M189.656 69.916L204.064 72.4082L203.699 80.241C203.55 83.4176 204.592 86.5332 206.622 88.9816L207.239 89.7254L251.358 89.2941C253.797 86.2191 254.935 81.0973 254.017 77.2816L252.28 70.0551L264.377 66.0223L255.986 54.427C253.397 50.8473 249.247 48.7285 244.83 48.7285H210.089C205.027 48.7285 200.374 51.5066 197.971 55.9629L189.656 69.916Z" fill="#FFCC65"/>
<path d="M125.314 93.527C122.81 87.3629 116.819 83.3301 110.166 83.3301H82.008C76.0112 83.3301 70.4955 86.6129 67.6362 91.8832L40.2846 133.154C35.1971 142.53 42.0721 153.919 52.7393 153.785L138.658 151.033L138.858 138.749L56.1487 136.889L66.9237 119.968L65.7252 128.191H116.888L114.367 101.224L125.314 93.527Z" fill="#54C0D0"/>
</g>
<rect width="320" height="180" fill="#493272"/>
<path d="M291.434 146.328H38.1545C38.1545 76.3853 94.8523 19.6875 164.794 19.6875C234.735 19.6875 291.434 76.3853 291.434 146.328Z" fill="#F1F1F8"/>
<path d="M187.519 100.765L177.542 142.552L171.164 93.4373C170.559 89.565 168.416 86.1013 165.222 83.8308L158.111 79.7852L155.767 87.6214L159.207 89.9965L161.969 144.38C162.294 153.038 169.357 159.918 178.022 160.018C186.287 160.111 193.306 153.986 194.331 145.784L204.338 97.9145L187.519 100.765Z" fill="#7C4C59"/>
<path d="M261.851 117.479C267.548 126.565 270.971 136.098 271.932 146.645L201.433 146.452L205.719 123.595L261.851 117.479Z" fill="#493272"/>
<path d="M203.096 123.923L266.594 121.608V100.043L286.094 91.3253L277.717 73.9952C274.051 66.4123 266.093 61.8698 257.7 62.571L207.991 66.427C200.373 67.0645 193.752 71.9177 190.854 78.9922L183.543 105.548L202.355 108.76L203.096 123.923Z" fill="#DB4643"/>
<path d="M81.2461 130.317L72.2917 146.472L133.54 146.244L125.854 123.604L81.2461 130.317Z" fill="#51C1D0"/>
<path d="M90.4896 146.324L53.752 159.556C39.1108 162.9 25.1562 154.924 25.1562 139.907C25.1562 131.299 29.8852 123.386 37.4664 119.309L78.016 91.3866C80.5055 90.0478 83.2059 89.1439 85.9994 88.7124L131.592 81.6836C142.236 80.0424 151.84 88.2775 151.84 99.048L152.699 146.244H133.54L133.223 131.474L81.5239 133.244L81.5615 112.318L47.2659 138.156L88.3124 128.188L90.4896 146.324Z" fill="#FFCC65"/>
<path d="M266.092 146.473H220.66L212.913 112.135C212.699 111.196 213.291 110.261 214.229 110.05L254.059 101.063C254.998 100.849 255.929 101.441 256.144 102.379L266.092 146.473Z" fill="#444258"/>
<path d="M282.65 92.8633L294.534 144.726C296.695 154.154 287.827 162.38 278.588 159.517L215.254 141.581C211.596 140.574 209.165 137.115 209.453 133.333L209.683 130.307C209.934 127.025 212.245 124.266 215.431 123.443L217.495 131.932L277.361 143.804L266.592 100.042L282.65 92.8633Z" fill="#7C4C59"/>
<path d="M244.116 47.6507C243.878 48.8783 243.556 50.0601 243.162 51.1749C240.752 58.0141 235.685 62.4798 230.851 61.5415C225.23 60.448 222.052 52.4597 223.756 43.6949C224.159 41.619 224.798 39.6885 225.617 37.964C228.251 32.3966 232.728 28.9705 237.02 29.8041C242.642 30.8977 245.819 38.8876 244.116 47.6507Z" fill="#7C4C59"/>
<path d="M106.924 81.9311C102.461 82.9396 97.6246 78.9872 95.0517 72.7234C94.5548 71.5105 94.1412 70.211 93.8323 68.8412C91.9296 60.4083 94.7052 52.5982 100.032 51.3984C102.656 50.8066 105.409 51.928 107.751 54.2262C110.17 56.5915 112.156 60.2089 113.121 64.4899C115.027 72.9179 112.249 80.728 106.924 81.9311Z" fill="#CDAE78"/>
<path d="M90.5191 146.32L110.95 146.467C109.621 142.871 106.666 140.118 102.985 139.049L89.1641 135.033L90.5191 146.32Z" fill="#CDAE78"/>
<path d="M107.19 53.5465L106.813 54.645C104.454 61.5136 100.171 67.5502 94.4895 72.0437C93.9925 70.8308 93.579 69.5313 93.27 68.1615C91.3674 59.7286 94.1429 51.9185 99.4701 50.7187C102.095 50.127 104.846 51.2483 107.19 53.5465Z" fill="#493272"/>
<path d="M91.0944 54.7722C93.7864 54.7722 95.9688 52.5899 95.9688 49.8978C95.9688 47.2058 93.7864 45.0234 91.0944 45.0234C88.4023 45.0234 86.22 47.2058 86.22 49.8978C86.22 52.5899 88.4023 54.7722 91.0944 54.7722Z" fill="#493272"/>
<path d="M244.116 47.6507C243.878 48.8783 243.556 50.0601 243.162 51.1749C240.482 48.8407 238.992 45.3263 239.307 41.6484L239.865 35.1395C237.437 37.848 233.812 39.1606 230.212 38.6342L225.617 37.964C228.251 32.3966 232.728 28.9705 237.02 29.8041C242.642 30.8977 245.819 38.8876 244.116 47.6507Z" fill="#55C0CF"/>
<path d="M159.573 89.9987C159.331 89.9987 159.087 89.9317 158.87 89.7928L151.968 85.3793C151.798 85.2698 151.655 85.1227 151.552 84.9494L148.848 80.4363C148.477 79.8168 148.678 79.0142 149.297 78.6431C149.917 78.2721 150.72 78.4731 151.091 79.0927L153.637 83.3426L160.279 87.591C160.887 87.98 161.065 88.7891 160.676 89.3972C160.428 89.7846 160.004 89.9987 159.573 89.9987Z" fill="#7C4C59"/>
<path d="M161.333 88.0014C161.104 88.0014 160.871 87.941 160.66 87.8135L154.578 84.1552C153.721 83.6403 153.146 82.7756 153 81.7867L152.139 75.9103C152.034 75.196 152.528 74.5323 153.242 74.4261C153.956 74.3215 154.62 74.8151 154.726 75.5294L155.588 81.4058C155.619 81.6183 155.741 81.803 155.926 81.9126L162.008 85.5708C162.628 85.9435 162.827 86.7461 162.455 87.3656C162.211 87.7759 161.778 88.0014 161.333 88.0014Z" fill="#7C4C59"/>
<path d="M163.934 86.6671C163.692 86.6671 163.449 86.6001 163.231 86.4611L157.682 82.9124C156.492 82.1507 155.717 80.8561 155.609 79.4454L155.349 76.0291C155.295 75.3082 155.833 74.6805 156.554 74.6266C157.271 74.5743 157.902 75.1104 157.956 75.8313L158.216 79.2476C158.262 79.841 158.589 80.3886 159.091 80.7089L164.64 84.2577C165.248 84.6467 165.426 85.4558 165.037 86.0639C164.787 86.4546 164.366 86.6671 163.934 86.6671Z" fill="#7C4C59"/>
<path d="M157.034 26.7344H174.292V39.9109V43.9925H157.034V39.7948V26.7344Z" fill="#FFCC65"/>
<path d="M166.218 56.5566H183.474V69.7332V73.8148H166.218V69.6171V56.5566Z" fill="#EF4C86"/>
<path d="M143.016 48.6191H160.274V56.9442C160.274 60.112 159.363 63.2129 157.65 65.8773H140.392L140.505 65.6975C142.146 63.0723 143.016 60.0385 143.016 56.9425V48.6191V48.6191Z" fill="#54C0D0"/>
<rect width="320" height="180" fill="#FD6157"/>
<path d="M284.489 179.953H35.625C35.6766 168.364 37.3125 157.148 40.3281 146.516C47.4937 121.247 62.4391 99.25 82.4156 83.2828C84.2875 81.7844 86.2063 80.3406 88.1656 78.9547C91.5781 76.5328 95.1172 74.2813 98.7734 72.2094H98.7766C116.367 62.2344 136.625 56.4188 158.217 56.1078H158.22C158.831 56.0984 159.445 56.0938 160.059 56.0938C163.358 56.0938 166.625 56.2234 169.856 56.475C178.489 57.1453 186.872 58.6984 194.917 61.0422C195.383 61.1781 195.847 61.3172 196.311 61.4594C199.784 62.5109 203.192 63.7172 206.53 65.0641C220.631 70.7422 233.453 78.9313 244.441 89.075C244.528 89.1547 244.614 89.2344 244.698 89.3141C245.759 90.2953 246.803 91.3016 247.83 92.3235C249.342 93.825 250.816 95.3672 252.245 96.9469C255.48 100.509 258.508 104.261 261.311 108.184L261.314 108.189C275.8 128.433 284.369 153.192 284.489 179.953Z" fill="#F1F1F8"/>
<g clip-path="url(#clip1)">
<path d="M223.453 179.601C223.453 179.735 223.453 179.869 223.453 180.001H98.2269C98.2269 179.869 98.2269 179.735 98.2269 179.601C98.2149 171.631 99.7304 163.733 102.691 156.333L126.774 168.806L135.411 145.059L116.315 135.582C127.888 123.859 143.619 117.173 160.092 116.977C176.565 116.781 192.45 123.089 204.299 134.533L180.751 145.059L187.994 168.806L218.314 154.721C221.715 162.574 223.464 171.043 223.453 179.601V179.601Z" fill="#54C0D0"/>
<path d="M116.315 135.58L135.411 145.057L126.774 168.805L102.691 156.332C105.803 148.575 110.435 141.519 116.315 135.58V135.58Z" fill="#F16259"/>
<path d="M90.9819 180.001H44.73L50.7082 132.105L59.9322 143.195L67.8823 132.597L70.5332 153.792C75.9941 155.352 80.8552 158.528 84.4771 162.903C88.099 167.277 90.3123 172.645 90.826 178.3L90.9819 180.001Z" fill="#D3D4E2"/>
<path d="M218.314 154.719L187.993 168.804L180.751 145.057L204.299 134.531C210.257 140.27 215.02 147.131 218.314 154.719V154.719Z" fill="#F16259"/>
<path d="M167.945 50.0673C167.945 50.9501 167.893 51.816 167.804 52.658C167.07 59.691 163.524 65.057 158.815 65.4672C153.525 65.9302 148.6 59.9861 147.139 51.8184C146.995 51.0124 146.885 50.1849 146.811 49.3405C146.679 47.8518 146.669 46.3548 146.782 44.8645C147.041 41.5422 147.921 38.5582 149.253 36.241C150.877 33.4297 153.17 31.6091 155.838 31.3764C155.924 31.3764 156.011 31.362 156.097 31.3572C161.804 31.0837 167.031 38.232 167.84 47.5031C167.917 48.3738 167.95 49.2302 167.945 50.0673Z" fill="#7C4C59"/>
<path d="M195.865 158.413L191.127 160.316L183.606 170.469L175.929 173.545L173.986 166.886L172.573 162.043L171.573 158.62L175.891 149.744C176.532 148.399 177.649 147.34 179.026 146.77L188.668 142.898L190.225 146.384L194.303 155.499L195.865 158.413Z" fill="#7C4C59"/>
<path d="M176.445 150.994L162.013 156.398L169.82 177.243L184.252 171.839L176.445 150.994Z" fill="#FFCC65" stroke="white" stroke-width="2" stroke-miterlimit="10"/>
<path d="M193.907 156.927L189.188 158.82V158.848L171.568 172.562C170.33 173.38 168.775 173.018 168.109 171.751C167.822 171.162 167.743 170.493 167.884 169.854C168.024 169.214 168.376 168.64 168.883 168.225L174.854 160.65C174.274 153.84 179.153 151.295 183.543 148.946L189.656 147.363L193.907 156.927Z" fill="#7C4C59"/>
<path d="M120.297 158.413L125.035 160.316L132.556 170.469L140.232 173.545L142.176 166.886L143.589 162.043L144.589 158.62L140.271 149.744C139.63 148.399 138.513 147.34 137.135 146.77L127.494 142.898L125.937 146.384L121.859 155.499L120.297 158.413Z" fill="#7C4C59"/>
<path d="M132.219 172.286L146.855 177.111L153.826 155.973L139.19 151.147L132.219 172.286Z" fill="#FFCC65" stroke="white" stroke-width="2" stroke-miterlimit="10"/>
<path d="M122.255 156.927L126.973 158.819L126.985 158.848L144.606 172.562C145.844 173.38 147.398 173.018 148.065 171.751C148.351 171.162 148.431 170.493 148.29 169.853C148.149 169.214 147.797 168.64 147.29 168.225L141.307 160.65C141.888 153.83 137.008 151.28 132.618 148.937L126.506 147.354L122.255 156.927Z" fill="#7C4C59"/>
<path d="M84.6727 112.675C98.3855 112.675 109.502 101.56 109.502 87.8484C109.502 74.1369 98.3855 63.0215 84.6727 63.0215C70.9599 63.0215 59.8435 74.1369 59.8435 87.8484C59.8435 101.56 70.9599 112.675 84.6727 112.675Z" fill="#FFCC65"/>
<path d="M84.6726 106.199C94.8081 106.199 103.025 97.983 103.025 87.8484C103.025 77.7138 94.8081 69.498 84.6726 69.498C74.537 69.498 66.3206 77.7138 66.3206 87.8484C66.3206 97.983 74.537 106.199 84.6726 106.199Z" fill="white"/>
<path d="M243.86 142.851L218.314 154.72L187.994 168.806L180.751 145.058L204.299 134.533L224.211 125.628L195.864 97.5632L192.026 125.307C182.44 119.811 171.571 116.945 160.521 117.002C149.47 117.058 138.631 120.034 129.101 125.628L126.774 99.7221L96.2621 125.628L116.315 135.581L135.411 145.058L126.774 168.806L102.691 156.332L76.6194 142.851C65.6825 134.038 65.7833 117.346 76.8281 108.667L122.037 73.0098C124.921 70.7354 128.487 69.4984 132.16 69.498H188.32C191.993 69.4984 195.559 70.7354 198.443 73.0098L243.652 108.667C254.697 117.346 254.797 134.038 243.86 142.851Z" fill="#329AE5"/>
<path d="M275.805 151.534L236.121 146.554C237.241 131.447 238.953 116.399 241.258 101.41C242.131 95.7469 243.095 90.0715 244.856 84.6192C245.664 82.1053 247.358 78.1426 250.232 78.1426C253.005 78.1426 253.919 78.7447 254.454 81.0067C254.637 81.9151 254.718 82.8412 254.694 83.7676C254.759 90.8295 254.893 97.8913 254.732 104.953C254.62 109.928 254.373 114.903 253.895 119.857C253.838 120.456 253.777 121.056 253.713 121.656C253.473 123.814 252.665 132.112 252.401 134.273C253.387 130.596 255.224 120.862 256.354 117.223C258.547 110.149 260.116 102.876 262.707 95.9364C263.832 92.8633 265.222 89.8937 266.862 87.0611C269.5 82.5538 276.457 84.612 276.218 89.8364C275.901 96.6848 274.761 103.497 273.629 110.252C272.47 117.165 271.125 124.042 269.596 130.881C269.23 132.525 268.853 134.164 268.464 135.799C268.802 134.359 274.941 121.548 276.589 118.863C276.898 118.367 277.231 117.887 277.587 117.424C279.802 114.5 284.458 116.518 283.87 120.137C283.091 124.935 279.228 139.063 278.055 142.949C277.244 145.583 275.798 151.534 275.805 151.534Z" fill="#61C08B"/>
<path d="M279.588 142.898L279.286 146.367L276.362 180H233.156L229.93 142.898H279.588Z" fill="#FFCC65"/>
<path d="M167.945 50.0669C167.945 50.9496 167.893 51.8156 167.804 52.6575L166.086 51.9859C164.58 51.3826 163.212 50.4802 162.065 49.3332C160.918 48.1862 160.016 46.8184 159.412 45.3126L157.001 39.2726L155.413 44.0341C154.786 45.9152 153.702 47.6114 152.258 48.9704C150.814 50.3293 149.055 51.3086 147.139 51.8203C146.995 51.0144 146.885 50.1868 146.811 49.3425C146.679 47.8537 146.669 46.3567 146.782 44.8664C147.041 41.5442 147.921 38.5602 149.253 36.243C150.877 33.4317 153.17 31.611 155.838 31.3783C155.924 31.3783 156.011 31.364 156.097 31.3592C161.804 31.0857 167.031 38.2339 167.84 47.505C167.917 48.3734 167.95 49.2297 167.945 50.0669Z" fill="#493272"/>
<path d="M157.001 32.7969C160.578 32.7969 163.478 29.8972 163.478 26.3203C163.478 22.7434 160.578 19.8438 157.001 19.8438C153.424 19.8438 150.524 22.7434 150.524 26.3203C150.524 29.8972 153.424 32.7969 157.001 32.7969Z" fill="#493272"/>
<path d="M79.2749 80.291L85.7521 88.9265L79.2749 101.88" stroke="#493272" stroke-width="10" stroke-miterlimit="10"/>
<path d="M165.786 155.326H150.375V177.584H165.786V155.326Z" fill="#FFCC65" stroke="white" stroke-width="2" stroke-miterlimit="10"/>
</g>
<defs>
<clipPath id="clip0">
<rect width="320" height="180" fill="white"/>
</clipPath>
<clipPath id="clip1">
<rect width="247.812" height="160.156" fill="white" transform="translate(36.0938 19.8438)"/>
</clipPath>
</defs>
</svg>
