<svg width="320" height="180" viewBox="0 0 320 180" fill="none" xmlns="http://www.w3.org/2000/svg">
<rect width="320" height="180" fill="#493272"/>
<path d="M291.434 146.328H38.1545C38.1545 76.3853 94.8523 19.6875 164.794 19.6875C234.735 19.6875 291.434 76.3853 291.434 146.328Z" fill="#F1F1F8"/>
<path d="M187.519 100.765L177.542 142.552L171.164 93.4373C170.559 89.565 168.416 86.1013 165.222 83.8308L158.111 79.7852L155.767 87.6214L159.207 89.9965L161.969 144.38C162.294 153.038 169.357 159.918 178.022 160.018C186.287 160.111 193.306 153.986 194.331 145.784L204.338 97.9145L187.519 100.765Z" fill="#7C4C59"/>
<path d="M261.851 117.479C267.548 126.565 270.971 136.098 271.932 146.645L201.433 146.452L205.719 123.595L261.851 117.479Z" fill="#493272"/>
<path d="M203.096 123.923L266.594 121.608V100.043L286.094 91.3253L277.717 73.9952C274.051 66.4123 266.093 61.8698 257.7 62.571L207.991 66.427C200.373 67.0645 193.752 71.9177 190.854 78.9922L183.543 105.548L202.355 108.76L203.096 123.923Z" fill="#DB4643"/>
<path d="M81.2461 130.317L72.2917 146.472L133.54 146.244L125.854 123.604L81.2461 130.317Z" fill="#51C1D0"/>
<path d="M90.4896 146.324L53.752 159.556C39.1108 162.9 25.1562 154.924 25.1562 139.907C25.1562 131.299 29.8852 123.386 37.4664 119.309L78.016 91.3866C80.5055 90.0478 83.2059 89.1439 85.9994 88.7124L131.592 81.6836C142.236 80.0424 151.84 88.2775 151.84 99.048L152.699 146.244H133.54L133.223 131.474L81.5239 133.244L81.5615 112.318L47.2659 138.156L88.3124 128.188L90.4896 146.324Z" fill="#FFCC65"/>
<path d="M266.092 146.473H220.66L212.913 112.135C212.699 111.196 213.291 110.261 214.229 110.05L254.059 101.063C254.998 100.849 255.929 101.441 256.144 102.379L266.092 146.473Z" fill="#444258"/>
<path d="M282.65 92.8633L294.534 144.726C296.695 154.154 287.827 162.38 278.588 159.517L215.254 141.581C211.596 140.574 209.165 137.115 209.453 133.333L209.683 130.307C209.934 127.025 212.245 124.266 215.431 123.443L217.495 131.932L277.361 143.804L266.592 100.042L282.65 92.8633Z" fill="#7C4C59"/>
<path d="M244.116 47.6507C243.878 48.8783 243.556 50.0601 243.162 51.1749C240.752 58.0141 235.685 62.4798 230.851 61.5415C225.23 60.448 222.052 52.4597 223.756 43.6949C224.159 41.619 224.798 39.6885 225.617 37.964C228.251 32.3966 232.728 28.9705 237.02 29.8041C242.642 30.8977 245.819 38.8876 244.116 47.6507Z" fill="#7C4C59"/>
<path d="M106.924 81.9311C102.461 82.9396 97.6246 78.9872 95.0517 72.7234C94.5548 71.5105 94.1412 70.211 93.8323 68.8412C91.9296 60.4083 94.7052 52.5982 100.032 51.3984C102.656 50.8066 105.409 51.928 107.751 54.2262C110.17 56.5915 112.156 60.2089 113.121 64.4899C115.027 72.9179 112.249 80.728 106.924 81.9311Z" fill="#CDAE78"/>
<path d="M90.5191 146.32L110.95 146.467C109.621 142.871 106.666 140.118 102.985 139.049L89.1641 135.033L90.5191 146.32Z" fill="#CDAE78"/>
<path d="M107.19 53.5465L106.813 54.645C104.454 61.5136 100.171 67.5502 94.4895 72.0437C93.9925 70.8308 93.579 69.5313 93.27 68.1615C91.3674 59.7286 94.1429 51.9185 99.4701 50.7187C102.095 50.127 104.846 51.2483 107.19 53.5465Z" fill="#493272"/>
<path d="M91.0944 54.7722C93.7864 54.7722 95.9688 52.5899 95.9688 49.8978C95.9688 47.2058 93.7864 45.0234 91.0944 45.0234C88.4023 45.0234 86.22 47.2058 86.22 49.8978C86.22 52.5899 88.4023 54.7722 91.0944 54.7722Z" fill="#493272"/>
<path d="M244.116 47.6507C243.878 48.8783 243.556 50.0601 243.162 51.1749C240.482 48.8407 238.992 45.3263 239.307 41.6484L239.865 35.1395C237.437 37.848 233.812 39.1606 230.212 38.6342L225.617 37.964C228.251 32.3966 232.728 28.9705 237.02 29.8041C242.642 30.8977 245.819 38.8876 244.116 47.6507Z" fill="#55C0CF"/>
<path d="M159.573 89.9987C159.331 89.9987 159.087 89.9317 158.87 89.7928L151.968 85.3793C151.798 85.2698 151.655 85.1227 151.552 84.9494L148.848 80.4363C148.477 79.8168 148.678 79.0142 149.297 78.6431C149.917 78.2721 150.72 78.4731 151.091 79.0927L153.637 83.3426L160.279 87.591C160.887 87.98 161.065 88.7891 160.676 89.3972C160.428 89.7846 160.004 89.9987 159.573 89.9987Z" fill="#7C4C59"/>
<path d="M161.333 88.0014C161.104 88.0014 160.871 87.941 160.66 87.8135L154.578 84.1552C153.721 83.6403 153.146 82.7756 153 81.7867L152.139 75.9103C152.034 75.196 152.528 74.5323 153.242 74.4261C153.956 74.3215 154.62 74.8151 154.726 75.5294L155.588 81.4058C155.619 81.6183 155.741 81.803 155.926 81.9126L162.008 85.5708C162.628 85.9435 162.827 86.7461 162.455 87.3656C162.211 87.7759 161.778 88.0014 161.333 88.0014Z" fill="#7C4C59"/>
<path d="M163.934 86.6671C163.692 86.6671 163.449 86.6001 163.231 86.4611L157.682 82.9124C156.492 82.1507 155.717 80.8561 155.609 79.4454L155.349 76.0291C155.295 75.3082 155.833 74.6805 156.554 74.6266C157.271 74.5743 157.902 75.1104 157.956 75.8313L158.216 79.2476C158.262 79.841 158.589 80.3886 159.091 80.7089L164.64 84.2577C165.248 84.6467 165.426 85.4558 165.037 86.0639C164.787 86.4546 164.366 86.6671 163.934 86.6671Z" fill="#7C4C59"/>
<path d="M157.034 26.7344H174.292V39.9109V43.9925H157.034V39.7948V26.7344Z" fill="#FFCC65"/>
<path d="M166.218 56.5566H183.474V69.7332V73.8148H166.218V69.6171V56.5566Z" fill="#EF4C86"/>
<path d="M143.016 48.6191H160.274V56.9442C160.274 60.112 159.363 63.2129 157.65 65.8773H140.392L140.505 65.6975C142.146 63.0723 143.016 60.0385 143.016 56.9425V48.6191V48.6191Z" fill="#54C0D0"/>
</svg>
