<svg id="Layer_1" data-name="Layer 1" xmlns="http://www.w3.org/2000/svg" viewBox="0 0 1099.98 573.54">
	<defs>
		<style>
			.cls-1{fill:#f1f1f8;}.cls-2{fill:#7c4c59;}.cls-3{fill:#493272;}.cls-4{fill:#db4643;}.cls-5{fill:#51c1d0;}.cls-6{fill:#ffcc65;}.cls-7{fill:#444258;}.cls-8{fill:#cdae78;}.cls-9{fill:none;stroke:#7c4c59;stroke-linecap:round;stroke-linejoin:round;stroke-width:10px;}.cls-10{fill:#ef4c86;}.cls-11{fill:#54c0d0;}
		</style>
	</defs>
	<path class="cls-1" d="M1086,516.5H53C53,231.24,284.25,0,569.5,0S1086,231.24,1086,516.5Z" />
	<path class="cls-2" d="M662.19,330.68,621.5,501.11l-26-200.32a59.3,59.3,0,0,0-24.23-39.18l-29-16.49-9.56,31.95,14,9.69L558,508.56a66.27,66.27,0,0,0,65.47,63.78h0A66.28,66.28,0,0,0,690,514.28l40.81-195.23Z" />
	<path class="cls-3" d="M965.35,398.84h0c23.23,37.07,37.2,75.94,41.12,119L718.94,517l17.48-93.21Z" />
	<path class="cls-4" d="M725.72,425.12l259-9.43v-88l79.53-35.55-34.16-70.68a83,83,0,0,0-81.64-46.6L745.68,190.63a83,83,0,0,0-69.89,51.25L646,350.19l76.72,13.1Z" />
	<polygon class="cls-5" points="228.76 451.2 192.24 517.09 442.04 516.16 410.69 423.82 228.76 451.2" />
	<path class="cls-6" d="M266.46,516.49l-149.84,54C56.91,584.1,0,551.57,0,490.31H0a95.37,95.37,0,0,1,50.21-84L215.59,292.43a101.38,101.38,0,0,1,32.56-10.91l186-28.66a71.66,71.66,0,0,1,82.58,70.82l3.5,192.48H442l-1.29-60.24-210.86,7.22.16-85.34L90.18,483.18l167.4-40.66Z" />
	<path class="cls-7" d="M982.65,517.09H797.35L765.76,377a7.1,7.1,0,0,1,5.37-8.5l162.44-36.66a7.13,7.13,0,0,1,8.51,5.37Z" />
	<path class="cls-2" d="M1050.18,298.45,1098.65,510c8.81,38.46-27.36,72-65,60.33L775.3,497.15a32.34,32.34,0,0,1-23.65-33.64l.94-12.34a31.38,31.38,0,0,1,23.44-28h0l8.42,34.62,244.16,48.42L984.69,327.73Z" />
	<path class="cls-2" d="M893,114.05a102.54,102.54,0,0,1-3.89,14.37c-9.83,27.9-30.49,46.11-50.21,42.28C816,166.25,803,133.66,810,97.92a98.32,98.32,0,0,1,7.59-23.38c10.73-22.7,29-36.68,46.5-33.27C887,45.72,900,78.31,893,114.05Z" />
	<path class="cls-8" d="M333.49,253.86c-18.2,4.11-37.93-12-48.42-37.55a99.32,99.32,0,0,1-5-15.84c-7.76-34.39,3.55-66.24,25.29-71.14,10.69-2.41,21.92,2.16,31.48,11.54,9.86,9.64,18,24.4,21.89,41.85C366.53,217.11,355.21,249,333.49,253.86Z" />
	<path class="cls-8" d="M266.58,516.47l83.32.6h0a49.31,49.31,0,0,0-32.48-30.26l-56.37-16.37Z" />
	<path class="cls-3" d="M334.57,138.1,333,142.58a154.48,154.48,0,0,1-50.26,71,99.2,99.2,0,0,1-5-15.83c-7.76-34.4,3.56-66.25,25.29-71.15C313.79,124.15,325,128.72,334.57,138.1Z" />
	<circle class="cls-3" cx="268.93" cy="123.22" r="19.88" />
	<path class="cls-3" d="M893,114.05a102.54,102.54,0,0,1-3.89,14.37,46.24,46.24,0,0,1-15.72-38.85L875.68,63a44.28,44.28,0,0,1-39.37,14.26l-18.73-2.74c10.73-22.7,29-36.68,46.5-33.27C887,45.72,900,78.31,893,114.05Z" />
	<polyline class="cls-9" points="548.22 281.43 520.08 263.43 509.05 245.02" />
	<path class="cls-9" d="M555.4,273.28l-24.81-14.92a8.24,8.24,0,0,1-3.9-5.86l-3.51-24" />
	<path class="cls-9" d="M566,267.85l-22.63-14.48a13.13,13.13,0,0,1-6-10.05l-1.06-13.93" />
	<polygon class="cls-6" points="537.86 28.75 608.24 28.75 608.24 82.48 608.24 99.13 537.86 99.13 537.86 82.01 537.86 28.75" />
	<polygon class="cls-10" points="575.31 150.37 645.7 150.37 645.7 204.11 645.7 220.76 575.31 220.76 575.31 203.64 575.31 150.37" />
	<path class="cls-11" d="M480.68,118h70.39V152a67.37,67.37,0,0,1-10.7,36.44H470l.46-.74a67.31,67.31,0,0,0,10.24-35.71Z" />
</svg>
