<svg width="360" height="200" viewBox="0 0 360 200" fill="none" xmlns="http://www.w3.org/2000/svg">
  <rect width="360" height="200" fill="white" />
  <g clip-path="url(#clip0)">
    <path
      d="M279.626 61.0927L240.058 137.668C224.281 128.979 212.311 114.725 206.488 97.6902C200.664 80.6549 201.404 62.062 208.563 45.5427L237.078 71.2854L279.626 61.0927Z"
      fill="#71BDCB" />
    <path
      d="M149.334 101.339C149.354 113.15 145.192 124.587 137.584 133.626L113.463 136.99L79.2847 103.909L106.384 51.6359C130.677 55.1743 149.334 76.0816 149.334 101.339Z"
      fill="#FFCC63" />
    <path d="M158.44 47.9262L112.533 136.505L114.388 137.465L160.295 48.8863L158.44 47.9262Z" fill="#DFDDED" />
    <path d="M204.352 41.5244L158.446 130.103L160.301 131.063L206.207 42.4844L204.352 41.5244Z" fill="#DFDDED" />
    <path d="M236.556 70.5922L190.65 159.171L192.505 160.131L238.411 71.5523L236.556 70.5922Z" fill="#DFDDED" />
    <path
      d="M191.284 160.804L159.033 131.69L113.095 138.094L78 104.118L124.927 13.6L159.33 47.5234L205.221 41.1119L237.376 70.1425L281.6 59.5271L234.621 150.46L191.284 160.804ZM159.712 129.49L191.869 158.518L233.206 148.652L239.13 137.188L277.652 62.6324L236.791 72.4284L204.542 43.3143L158.599 49.7206L125.478 17.0758L80.5643 103.711L113.816 135.886L159.712 129.49Z"
      fill="#C9C7DC" />
    <path
      d="M189.623 118.387L165.266 79.1244L107.982 88.4089L107.648 86.3474L166.305 76.8411L190.517 115.866L245.867 96.5688L246.557 98.5416L189.623 118.387Z"
      fill="#C9C7DC" />
    <path
      d="M165.785 82.1592C168.093 82.1592 169.963 80.2899 169.963 77.984C169.963 75.6781 168.093 73.8088 165.785 73.8088C163.478 73.8088 161.607 75.6781 161.607 77.984C161.607 80.2899 163.478 82.1592 165.785 82.1592Z"
      fill="#493372" />
    <path
      d="M107.815 91.5535C110.123 91.5535 111.993 89.6842 111.993 87.3783C111.993 85.0724 110.123 83.2031 107.815 83.2031C105.508 83.2031 103.637 85.0724 103.637 87.3783C103.637 89.6842 105.508 91.5535 107.815 91.5535Z"
      fill="#493372" />
    <path
      d="M189.809 121.563C192.116 121.563 193.987 119.693 193.987 117.387C193.987 115.081 192.116 113.212 189.809 113.212C187.501 113.212 185.631 115.081 185.631 117.387C185.631 119.693 187.501 121.563 189.809 121.563Z"
      fill="#493372" />
    <path
      d="M244.646 102.252C246.953 102.252 248.824 100.383 248.824 98.0773C248.824 95.7714 246.953 93.9021 244.646 93.9021C242.338 93.9021 240.468 95.7714 240.468 98.0773C240.468 100.383 242.338 102.252 244.646 102.252Z"
      fill="#493372" />
    <path
      d="M156.124 186.8C175.593 186.8 191.376 182.01 191.376 176.101C191.376 170.192 175.593 165.402 156.124 165.402C136.654 165.402 120.872 170.192 120.872 176.101C120.872 182.01 136.654 186.8 156.124 186.8Z"
      fill="#F0EFF9" />
  </g>
  <defs>
    <clipPath id="clip0">
      <rect width="203.6" height="173.2" fill="white" transform="translate(78 13.6)" />
    </clipPath>
  </defs>
</svg>