<svg id="Layer_1" data-name="Layer 1" xmlns="http://www.w3.org/2000/svg" viewBox="0 0 1033 667.67">
	<defs>
		<style>
			.cls-1{fill:#f1f1f8;}.cls-2{fill:#54c0d0;}.cls-3{fill:#f16259;}.cls-4{fill:#d3d4e2;}.cls-5{fill:#7c4c59;}.cls-6,.cls-7{fill:#ffcc65;}.cls-6{stroke:#fff;stroke-width:4px;}.cls-11,.cls-6{stroke-miterlimit:10;}.cls-8{fill:#fff;}.cls-9{fill:#61c08b;}.cls-10{fill:#493272;}.cls-11{fill:none;stroke:#493272;stroke-width:10px;}
		</style>
	</defs>
	<path class="cls-1" d="M1033,667.67H0c0-285.26,231.25-516.5,516.5-516.5,231.37,0,427.21,152.13,492.94,361.83q2.25,7.18,4.3,14.46A516.83,516.83,0,0,1,1033,667.67Z" />
	<path class="cls-2" d="M781,666c0,.56,0,1.12,0,1.67H259c0-.55,0-1.11,0-1.67a260.07,260.07,0,0,1,18.61-97L378,621l36-99-79.6-39.51a260.78,260.78,0,0,1,366.76-4.37L603,522l30.19,99,126.39-58.72A260.15,260.15,0,0,1,781,666Z" />
	<path class="cls-3" d="M334.4,482.49,414,522l-36,99L277.61,569A261.17,261.17,0,0,1,334.4,482.49Z" />
	<path class="cls-4" d="M228.8,667.67H36L60.92,468l38.45,46.23,33.14-44.18,11.05,88.36a117.29,117.29,0,0,1,84.59,102.17Z" />
	<path class="cls-3" d="M759.58,562.28,633.19,621,603,522l98.16-43.88A261.39,261.39,0,0,1,759.58,562.28Z" />
	<path class="cls-5" d="M549.62,126c0,3.68-.22,7.29-.59,10.8-3.06,29.32-17.84,51.69-37.47,53.4-22.05,1.93-42.58-22.85-48.67-56.9-.6-3.36-1.06-6.81-1.37-10.33a114.26,114.26,0,0,1-.12-18.66c1.08-13.85,4.75-26.29,10.3-35.95,6.77-11.72,16.33-19.31,27.45-20.28.36,0,.72-.06,1.08-.08,23.79-1.14,45.58,28.66,48.95,67.31C549.5,118.94,549.64,122.51,549.62,126Z" />
	<path class="cls-5" d="M666,577.68l-19.75,7.93L614.9,627.94l-32,12.82L574.8,613l-5.89-20.19-4.17-14.27,18-37a25.11,25.11,0,0,1,13.07-12.4L636,513l6.49,14.53,17,38Z" />
	<rect class="cls-6" x="539.11" y="555.1" width="64.24" height="92.79" transform="translate(-174.65 238.5) rotate(-20.53)" />
	<path class="cls-5" d="M657.84,571.48l-19.67,7.89,0,.12-73.45,57.17c-5.16,3.41-11.64,1.9-14.42-3.38h0a12.14,12.14,0,0,1,3.23-14.7L578.42,587C576,558.61,596.34,548,614.64,538.21l25.48-6.6Z" />
	<path class="cls-5" d="M351,577.68l19.75,7.93,31.35,42.33,32,12.82L442.2,613l5.89-20.19,4.17-14.27-18-37a25.11,25.11,0,0,0-13.07-12.4L381,513l-6.49,14.53-17,38Z" />
	<rect class="cls-6" x="413.65" y="555.1" width="64.24" height="92.79" transform="translate(680.71 1312.35) rotate(-161.75)" />
	<path class="cls-5" d="M359.16,571.48l19.67,7.89.05.12,73.45,57.17c5.16,3.41,11.64,1.9,14.42-3.38h0a12.14,12.14,0,0,0-3.23-14.7L438.58,587c2.42-28.43-17.92-39.06-36.22-48.83l-25.48-6.6Z" />
	<circle class="cls-7" cx="202.5" cy="283.5" r="103.5" />
	<circle class="cls-8" cx="202.5" cy="283.5" r="76.5" />
	<path class="cls-3" d="M866.07,512.8,759.58,562.28,633.19,621,603,522l98.16-43.88,83-37.12L666,324l-16,115.66A261.33,261.33,0,0,0,387.7,441L378,333,250.81,441l83.59,41.49L414,522l-36,99L277.61,569,168.93,512.8c-45.59-36.74-45.17-106.33.87-142.51L358.25,221.64A68.16,68.16,0,0,1,400.45,207h234.1a68.16,68.16,0,0,1,42.2,14.64L865.2,370.29C911.24,406.47,911.66,476.06,866.07,512.8Z" />
	<path class="cls-9" d="M999.23,549,833.81,528.24q7-94.47,21.41-188.2c3.64-23.61,7.66-47.27,15-70,3.37-10.48,10.43-27,22.41-27,11.56,0,15.37,2.51,17.6,11.94a51.5,51.5,0,0,1,1,11.51c.27,29.44.83,58.88.16,88.32-.47,20.74-1.5,41.48-3.49,62.13q-.36,3.75-.76,7.5c-1,9-4.37,43.59-5.47,52.6,4.11-15.33,11.77-55.91,16.48-71.08,9.14-29.49,15.68-59.81,26.48-88.74a235.69,235.69,0,0,1,17.32-37c11-18.79,40-10.21,39,11.57-1.32,28.55-6.07,56.95-10.79,85.11q-7.25,43.23-16.81,86-2.29,10.28-4.72,20.5c1.41-6,27-59.41,33.87-70.6a72.49,72.49,0,0,1,4.16-6c9.23-12.19,28.64-3.78,26.19,11.31-3.25,20-19.35,78.9-24.24,95.1C1005.23,524.19,999.2,549,999.23,549Z" />
	<polygon class="cls-7" points="1015 513 1013.74 527.46 1001.55 667.67 821.45 667.67 808 513 1015 513" />
	<path class="cls-10" d="M549.62,126c0,3.68-.22,7.29-.59,10.8L541.87,134a50,50,0,0,1-27.82-27.82L504,81l-6.62,19.85a49.94,49.94,0,0,1-34.49,32.46c-.6-3.36-1.06-6.81-1.37-10.33a114.26,114.26,0,0,1-.12-18.66c1.08-13.85,4.75-26.29,10.3-35.95,6.77-11.72,16.33-19.31,27.45-20.28.36,0,.72-.06,1.08-.08,23.79-1.14,45.58,28.66,48.95,67.31C549.5,118.94,549.64,122.51,549.62,126Z" />
	<circle class="cls-10" cx="504" cy="27" r="27" />
	<polyline class="cls-11" points="180 252 207 288 180 342" />
	<rect class="cls-6" x="476.38" y="564.81" width="64.24" height="92.79" />
</svg>
