<svg width="320" height="180" viewBox="0 0 320 180" fill="none" xmlns="http://www.w3.org/2000/svg">
<g clip-path="url(#clip0)">
<rect width="320" height="180" fill="#329AE5"/>
<path d="M284.489 180H35.625C35.6766 168.411 37.3125 157.195 40.3281 146.563C47.4937 121.294 62.4391 99.2969 82.4156 83.3297C84.2875 81.8313 86.2063 80.3875 88.1656 79.0016C91.5781 76.5797 95.1172 74.3281 98.7734 72.2563H98.7766C116.367 62.2813 136.625 56.4656 158.217 56.1547H158.22C158.831 56.1453 159.445 56.1406 160.059 56.1406C163.358 56.1406 166.625 56.2703 169.856 56.5219C178.489 57.1922 186.872 58.7453 194.917 61.0891C195.383 61.225 195.847 61.3641 196.311 61.5063C199.784 62.5578 203.192 63.7641 206.53 65.1109C220.631 70.7891 233.453 78.9781 244.441 89.1219C244.528 89.2016 244.614 89.2813 244.698 89.361C245.759 90.3422 246.803 91.3485 247.83 92.3703C249.342 93.8719 250.816 95.4141 252.245 96.9938C255.48 100.556 258.508 104.308 261.311 108.231L261.314 108.236C275.8 128.48 284.369 153.239 284.489 180Z" fill="#F1F1F8"/>
<path d="M114.366 101.226L124.105 132.485C126.844 141.274 133.622 148.224 142.341 151.181L193.161 168.415L196.277 162.218L142.089 134.821L125.314 93.5273L114.366 101.226Z" fill="#54C0D0"/>
<path d="M258.128 66.9309L264.322 147.353C264.548 151.39 261.992 155.061 258.128 156.251L242.872 61.6543L258.128 66.9309Z" fill="#7C4C59"/>
<path d="M261.766 180H229.671L227.58 113.408L218.325 180H185.946L187.342 174.08L188.911 167.431V167.428L189.011 167.005L189.174 166.314L190.796 159.444L195.475 139.598L207.239 89.7281L207.583 88.2031L244.439 89.1234L247.314 89.1969L251.358 89.2969H251.36L252.244 96.9969L259.005 155.928L261.766 180Z" fill="#EAB659"/>
<path d="M235.587 45.6367H218.337V52.693H235.587V45.6367Z" fill="#FFCC65"/>
<path d="M185.945 180H194.258H201.241C200.12 175.452 197.4 171.263 193.162 168.413V168.409C192.339 167.855 191.456 167.35 190.519 166.905L189.633 166.516L189.173 166.314L153.137 150.494L147.733 148.122L138.767 144.188L138.28 143.975L127.109 139.069L125.708 138.455L109.072 131.152L108.656 130.969L107.598 138.047L106.552 145.078L123.366 151.523L182.161 174.061L171.367 180H185.945V180Z" fill="#33235E"/>
<path d="M185.945 180H194.258C192.244 177.764 189.926 175.767 187.34 174.08C185.986 173.194 184.554 172.394 183.054 171.687C183.05 171.687 183.045 171.684 183.044 171.683C182.969 171.648 182.89 171.611 182.814 171.575L176.445 168.634L176.261 168.55L138.361 151.044L110.355 138.111H110.348L109.073 137.517V131.152V128.192V123.656H72.2764L70.7655 128.192L67.7764 137.155L67.0217 139.422C66.3389 141.467 65.8795 143.533 65.6311 145.592C65.3124 148.237 65.3452 150.847 65.6936 153.37C67.553 166.812 78.3592 177.861 92.4358 179.726L94.5045 180.001H171.367H185.945V180Z" fill="#493272"/>
<path d="M171.411 126.711L205.113 144.757C205.756 145.102 205.931 145.946 205.478 146.518L186.323 170.694C185.463 171.782 183.967 172.136 182.709 171.55L137.698 150.586V146.243L151.438 152.874L169.906 127.063C170.247 126.583 170.892 126.433 171.411 126.711Z" fill="#444258"/>
<path d="M237.616 32.7833C237.346 33.788 237.011 34.7505 236.621 35.6505C234.221 41.1817 229.761 44.5911 225.805 43.5286C224.282 43.1192 223.024 42.0974 222.092 40.6489C220.217 37.738 219.678 33.1052 220.964 28.3146C220.991 28.213 221.017 28.1161 221.049 28.0177C221.496 26.4333 222.107 24.9739 222.839 23.6708C225.35 19.2052 229.263 16.627 232.772 17.5677C237.374 18.8052 239.539 25.6177 237.616 32.7833Z" fill="#7C4C59"/>
<path d="M237.616 32.7817C237.345 33.7864 237.011 34.7489 236.62 35.6489C234.22 41.1802 229.761 44.5896 225.805 43.5271L224.955 35.4583L224.898 32.7599C224.837 29.8786 225.123 27.002 225.747 24.1895C224.942 25.6911 223.656 26.8786 222.094 27.5614L221.048 28.0177C221.495 26.4333 222.106 24.9739 222.839 23.6708C225.35 19.2052 229.262 16.627 232.772 17.5677C237.373 18.8036 239.539 25.6161 237.616 32.7817Z" fill="#444258"/>
<path d="M225.886 35.6498L223.775 35.2608C223.021 35.1217 222.522 34.3983 222.661 33.6436L223.461 29.2936C223.6 28.5389 224.324 28.0405 225.078 28.1795L227.189 28.5686C227.944 28.7077 228.442 29.4311 228.303 30.1858L227.503 34.5358C227.364 35.2889 226.639 35.7889 225.886 35.6498Z" fill="#7C4C59"/>
<path d="M236.488 18.5977C244.606 15.4274 253.827 18.607 258.264 26.1086L261.438 31.4727L247.5 35.457L236.488 18.5977Z" fill="#444258"/>
<path d="M180.982 152.009C182.762 149.809 183 147.051 181.514 145.848C180.028 144.645 177.379 145.453 175.599 147.652C173.819 149.852 173.581 152.61 175.068 153.813C176.554 155.016 179.202 154.208 180.982 152.009Z" fill="#62626E"/>
<path d="M93.0766 80.0225C89.1922 80.899 84.9813 77.46 82.7407 72.0069C82.3078 70.9522 81.9485 69.8194 81.6797 68.6272C80.0235 61.285 82.4391 54.4865 87.0782 53.4428C89.3625 52.9272 91.7578 53.9037 93.7969 55.9053C95.9016 57.9647 97.6328 61.1147 98.4703 64.8397C100.131 72.1772 97.7125 78.9756 93.0766 80.0225Z" fill="#CDAE78"/>
<path d="M93.2046 55.1869L92.875 56.1432C90.8218 62.1229 87.0937 67.3775 82.1484 71.29C81.7156 70.2354 81.3562 69.1025 81.0874 67.9104C79.4312 60.5682 81.8468 53.7697 86.4859 52.726C88.7687 52.2104 91.164 53.1869 93.2046 55.1869Z" fill="#F16259"/>
<path d="M79.1922 56.2551C81.536 56.2551 83.436 54.3551 83.436 52.0113C83.436 49.6676 81.536 47.7676 79.1922 47.7676C76.8485 47.7676 74.9485 49.6676 74.9485 52.0113C74.9485 54.3551 76.8485 56.2551 79.1922 56.2551Z" fill="#F16259"/>
<path d="M138.281 139.262L138.58 139.337C144.264 140.759 148.252 145.865 148.252 151.724L138.281 146.74V139.262Z" fill="#CDAE78"/>
<path d="M122.686 15.7461L123.059 51.7492H164.372L164.049 15.7461H122.686Z" fill="#E5B155"/>
<path d="M122.686 15.7461L127.214 51.7492H168.527L164.049 15.7461H122.686Z" fill="#FFCC65"/>
<path d="M122.686 15.7461L130.95 50.0102L131.369 51.7492H172.68L169.561 38.7383L164.049 15.7461H122.686Z" fill="#F8E6CD"/>
<path d="M126.103 29.9141H167.445" stroke="white" stroke-miterlimit="10"/>
<path d="M124.264 20.7031L126.047 30.5047C126.158 31.1078 126.314 31.6875 126.517 32.2359C127.855 35.8625 131.095 38.2547 134.683 38.7391C135.569 38.8625 136.477 38.8641 137.381 38.7391C138.806 38.5469 140.222 38.0406 141.542 37.1813L146.074 34.2313H169.544C169.15 33.5547 168.838 32.8141 168.625 32.0094L168.019 29.7219L165.625 20.7031H124.264Z" fill="#F1F1F8"/>
<path d="M177.753 38.6473C178.715 38.5942 179.684 38.3863 180.62 38.0035C180.986 37.8551 181.347 37.6801 181.7 37.477L187.383 34.2285H146.073L141.542 37.1785C140.222 38.0379 138.806 38.5441 137.381 38.7363C137.381 38.7379 178.139 38.7129 177.753 38.6473Z" fill="#FFCC65"/>
<path d="M122.686 15.4688V15.7797L124.903 24.9734H167.711L165.431 15.4688H122.686Z" fill="#F16259"/>
<path d="M166.005 44.6056C165.676 40.2556 165.414 34.754 162.108 31.9056L159.623 29.7665C159.048 29.2712 158.194 29.279 157.628 29.7868C157.015 30.3368 156.955 31.2743 157.49 31.8977L161.001 35.5993L153.78 29.4431C153.165 28.8868 152.233 28.8774 151.608 29.4212C150.897 30.0399 150.855 31.1274 151.514 31.7993L157.162 38.1196C157.258 38.2274 157.24 38.3931 157.125 38.4774C157.02 38.554 156.875 38.5352 156.792 38.4352L153.869 34.8727C153.4 34.3024 152.589 34.1056 151.936 34.454C151.842 34.504 151.751 34.5649 151.667 34.6352C151.065 35.1352 150.919 35.9977 151.319 36.6681L156.305 44.6556L166.005 44.6056Z" fill="#7C4C59"/>
<path d="M199.391 55.5883L180.008 92.8445L163.48 33.7148L161.225 40.4773L154.462 38.2227L166.203 94.3101C168.542 107.33 185.962 110.155 192.295 98.5414L208.256 61.0586L199.391 55.5883Z" fill="#7C4C59"/>
<path d="M189.656 69.916L204.064 72.4082L203.699 80.241C203.55 83.4176 204.592 86.5332 206.622 88.9816L207.239 89.7254L251.358 89.2941C253.797 86.2191 254.935 81.0973 254.017 77.2816L252.28 70.0551L264.377 66.0223L255.986 54.427C253.397 50.8473 249.247 48.7285 244.83 48.7285H210.089C205.027 48.7285 200.374 51.5066 197.971 55.9629L189.656 69.916Z" fill="#FFCC65"/>
<path d="M125.314 93.527C122.81 87.3629 116.819 83.3301 110.166 83.3301H82.008C76.0112 83.3301 70.4955 86.6129 67.6362 91.8832L40.2846 133.154C35.1971 142.53 42.0721 153.919 52.7393 153.785L138.658 151.033L138.858 138.749L56.1487 136.889L66.9237 119.968L65.7252 128.191H116.888L114.367 101.224L125.314 93.527Z" fill="#54C0D0"/>
</g>
<defs>
<clipPath id="clip0">
<rect width="320" height="180" fill="white"/>
</clipPath>
</defs>
</svg>
