<svg width="360" height="200" viewBox="0 0 360 200" fill="none" xmlns="http://www.w3.org/2000/svg">
<rect width="360" height="200" fill="white"/>
<g clip-path="url(#clip0)">
<path d="M190.563 25.0833H134.5C133.444 25.0833 132.588 25.9381 132.588 26.9925V108.734C132.588 109.788 133.444 110.643 134.5 110.643H190.563C191.619 110.643 192.475 109.788 192.475 108.734V26.9925C192.475 25.9381 191.619 25.0833 190.563 25.0833Z" fill="white"/>
<path d="M140.642 55.6642L132.466 53.6818V50.7028L140.959 48.5363C141.635 48.5363 142.291 48.7595 142.827 49.1709C143.363 49.5823 143.747 50.159 143.92 50.8111L159.96 110.662H151.888L140.642 55.6642Z" fill="#F0EFF9"/>
<path d="M190.566 24H134.5C133.706 24.0014 132.944 24.3172 132.383 24.8781C131.821 25.439 131.505 26.1993 131.503 26.9926V108.737C131.508 109.528 131.825 110.285 132.387 110.843C132.948 111.401 133.708 111.715 134.5 111.716H190.566C191.357 111.716 192.116 111.402 192.675 110.843C193.235 110.284 193.549 109.527 193.549 108.737V26.9926C193.548 26.2014 193.234 25.4427 192.675 24.8821C192.116 24.3214 191.358 24.0043 190.566 24V24ZM133.673 108.737V35.48C136.051 35.2088 138.267 34.1399 139.958 32.4482C141.649 30.7565 142.715 28.5419 142.982 26.1666H182.064C182.333 28.5444 183.401 30.7608 185.096 32.4529C186.79 34.1449 189.009 35.2122 191.39 35.48V100.141C188.991 100.411 186.757 101.492 185.058 103.206C183.36 104.919 182.3 107.161 182.054 109.56H134.5C134.391 109.562 134.283 109.542 134.182 109.501C134.081 109.46 133.989 109.4 133.912 109.323C133.835 109.246 133.774 109.155 133.733 109.054C133.692 108.953 133.671 108.845 133.673 108.737V108.737Z" fill="#DFDDED"/>
<path d="M143.042 110.63V110.643H134.497C133.994 110.643 133.511 110.443 133.155 110.088C132.799 109.732 132.599 109.25 132.599 108.747V100.081C135.378 100.116 138.032 101.242 139.987 103.216C141.941 105.19 143.039 107.854 143.042 110.63V110.63Z" fill="white"/>
<path d="M144.254 111.851H134.492C133.665 111.85 132.872 111.522 132.287 110.938C131.703 110.354 131.374 109.562 131.373 108.737V98.8572H132.593C135.693 98.8984 138.653 100.154 140.834 102.355C143.015 104.555 144.244 107.523 144.254 110.619V111.851ZM133.795 101.373V108.737C133.795 108.923 133.869 109.101 134 109.233C134.132 109.364 134.311 109.438 134.497 109.438H141.762C141.493 107.411 140.569 105.528 139.132 104.072C137.694 102.617 135.82 101.669 133.795 101.373V101.373Z" fill="#71BDCB"/>
<path d="M172.638 57.8578H152.709V77.7603H172.638V57.8578Z" fill="#EB6B5E"/>
<path d="M164.538 119.41L162.521 118.616C165.531 110.993 169.335 102.418 176.435 97.1943C180.342 94.3155 187.333 91.9458 193.139 92.9831C196.296 93.5464 198.687 95.0359 200.26 97.392C201.418 99.1523 201.887 101.5 201.635 104.2C201.936 104.179 202.237 104.165 202.544 104.154C209.686 103.884 218.993 107.743 222.963 115.596L221.024 116.574C217.499 109.606 208.916 106.091 202.622 106.318C202.169 106.334 201.725 106.362 201.288 106.397C200.54 109.78 198.86 112.887 196.437 115.366C194.669 117.167 192.041 119.301 189.641 119.225C189.136 119.212 188.639 119.091 188.184 118.871C187.729 118.651 187.326 118.337 187.002 117.95C185.828 116.596 185.375 115.114 185.671 113.552C186.357 109.861 190.945 107.244 191.856 106.754C194.221 105.541 196.781 104.755 199.42 104.433L199.436 104.29C199.623 102.665 199.599 100.368 198.435 98.6026C197.215 96.7502 195.306 95.5802 192.757 95.1253C187.604 94.2045 181.169 96.4062 177.723 98.9465C171.087 103.821 167.448 112.068 164.538 119.41ZM198.978 106.681C196.848 107.007 194.785 107.679 192.873 108.672C191.301 109.511 188.215 111.697 187.794 113.953C187.629 114.846 187.905 115.694 188.635 116.539C188.763 116.7 188.924 116.83 189.109 116.921C189.293 117.012 189.495 117.061 189.701 117.064C190.94 117.102 192.868 115.902 194.88 113.855C196.835 111.854 198.245 109.386 198.975 106.687L198.978 106.681Z" fill="#FFCC63"/>
<path d="M273.73 105.584L249.072 165.368C246.751 164.705 244.272 164.855 242.049 165.794C239.825 166.732 237.989 168.403 236.847 170.527L200.729 155.678C201.414 153.37 201.289 150.898 200.375 148.67C199.46 146.443 197.812 144.595 195.702 143.431L220.363 83.6371C222.666 84.2927 225.124 84.1479 227.335 83.2264C229.545 82.3049 231.377 80.6613 232.53 78.5647L268.667 93.4272C268.008 95.7267 268.15 98.1816 269.07 100.39C269.99 102.599 271.633 104.43 273.73 105.584V105.584Z" fill="white"/>
<path d="M278.967 96.2735C278.817 95.9081 278.597 95.5761 278.317 95.2971C278.038 95.0181 277.705 94.7976 277.34 94.6486L225.504 73.3351C224.769 73.0338 223.945 73.0357 223.211 73.3402C222.478 73.6448 221.895 74.2273 221.591 74.96L190.419 150.546C190.118 151.279 190.119 152.102 190.424 152.834C190.729 153.566 191.313 154.148 192.046 154.451L243.887 175.775C244.25 175.923 244.637 175.999 245.029 176C245.622 175.999 246.202 175.823 246.695 175.493C247.187 175.163 247.571 174.695 247.798 174.148L278.983 98.5646C279.133 98.2008 279.208 97.8108 279.206 97.4174C279.203 97.0241 279.122 96.6352 278.967 96.2735V96.2735ZM236.847 170.535L200.729 155.678C201.414 153.37 201.289 150.898 200.375 148.67C199.46 146.443 197.812 144.595 195.702 143.431L220.363 83.6371C222.666 84.2926 225.124 84.1478 227.335 83.2263C229.545 82.3048 231.377 80.6613 232.53 78.5646L268.667 93.4272C268.009 95.7279 268.153 98.1836 269.074 100.392C269.996 102.601 271.641 104.431 273.741 105.584L249.072 165.368C246.75 164.706 244.271 164.857 242.047 165.797C239.823 166.737 237.988 168.409 236.847 170.535V170.535Z" fill="#CAC7DA"/>
<path d="M221.496 108.631L214.136 126.475L235.478 124.818L221.496 108.631Z" fill="#71BDCB"/>
<path d="M239.155 115.894L231.798 133.739L253.137 132.081L239.155 115.894Z" fill="#71BDCB"/>
<path d="M133.673 44.5145H131.503V53.6818H133.673V44.5145Z" fill="#DFDDED"/>
<path d="M161.471 109.56H150.364V111.726H161.471V109.56Z" fill="#DFDDED"/>
<path d="M146.532 136.479L108.263 144.284C107.54 141.989 106.054 140.008 104.05 138.671C102.047 137.334 99.6459 136.72 97.2454 136.932L84.2886 73.56C86.5633 72.8195 88.5194 71.3306 89.8375 69.3365C91.1555 67.3424 91.7575 64.9609 91.5453 62.581L129.836 54.7678C130.574 57.0441 132.065 59.0023 134.064 60.3219C136.063 61.6414 138.451 62.2441 140.837 62.0312L153.794 125.384C151.497 126.128 149.524 127.634 148.203 129.652C146.882 131.671 146.292 134.08 146.532 136.479V136.479Z" fill="white"/>
<path d="M157.642 133.37L141.263 53.281C141.103 52.5058 140.643 51.8252 139.982 51.3882C139.322 50.9512 138.515 50.7934 137.738 50.9492L82.7971 62.153C82.0209 62.3123 81.3394 62.7721 80.9018 63.4319C80.4643 64.0917 80.3062 64.8978 80.4623 65.6737L96.8414 145.763C96.9769 146.439 97.3428 147.047 97.8769 147.483C98.4109 147.92 99.08 148.158 99.7701 148.157C99.9731 148.157 100.176 148.137 100.375 148.098L155.307 136.891C155.692 136.814 156.059 136.661 156.385 136.442C156.711 136.223 156.99 135.942 157.207 135.615C157.424 135.288 157.574 134.921 157.649 134.536C157.723 134.151 157.721 133.755 157.642 133.37V133.37ZM146.524 136.479L108.263 144.284C107.54 141.989 106.054 140.008 104.05 138.671C102.047 137.334 99.6459 136.72 97.2454 136.932L84.2886 73.5599C86.5633 72.8195 88.5194 71.3306 89.8375 69.3365C91.1555 67.3424 91.7575 64.9609 91.5453 62.5809L129.835 54.7678C130.574 57.044 132.065 59.0023 134.064 60.3218C136.063 61.6414 138.451 62.2441 140.837 62.0312L153.794 125.384C151.497 126.128 149.524 127.634 148.203 129.652C146.882 131.671 146.292 134.08 146.532 136.479H146.524Z" fill="#CAC7DA"/>
<path d="M103.859 89.3351L109.055 114.743L131.604 96.9099L103.859 89.3351Z" fill="#FFCC63"/>
</g>
<defs>
<clipPath id="clip0">
<rect width="198.8" height="152" fill="white" transform="translate(80.3999 24)"/>
</clipPath>
</defs>
</svg>
