<svg id="Layer_1" data-name="Layer 1" xmlns="http://www.w3.org/2000/svg" viewBox="0 0 675.76 486.5">
  <defs>
    <style>
      .cls-1 {
        fill: #eb6b5e;
      }

      .cls-2 {
        fill: #c9c7dc;
      }

      .cls-3 {
        fill: #f0eff9;
      }

      .cls-4 {
        fill: #ffcc63;
      }

      .cls-5 {
        fill: #fff;
      }

      .cls-6 {
        fill: #71bdcb;
      }
    </style>
  </defs>
  <polygon class="cls-1" points="441.07 480.27 441.07 314.85 545.36 207.86 649.65 314.85 649.65 480.27 441.07 480.27" />
  <rect class="cls-1" x="614.05" y="244.45" width="35.59" height="123.34" />
  <polygon class="cls-2"
    points="279.37 316.08 279.37 481.5 70.8 481.5 70.8 316.08 79.85 306.78 114.33 271.36 174.96 209.08 235.73 271.36 270.3 306.78 279.37 316.08" />
  <path class="cls-3" d="M141.69,477V388.1a30.67,30.67,0,0,1,30.67-30.67h5.19a30.67,30.67,0,0,1,30.67,30.67V477Z" />
  <path class="cls-3"
    d="M298.05,341.16l-.2.2a9.83,9.83,0,0,1-13.89,0L175.36,232.75,66.75,341.36a9.83,9.83,0,0,1-13.89,0l-.2-.2a9.83,9.83,0,0,1,0-13.89L161.27,218.66l-8.15-8.14a9.92,9.92,0,0,1-2.92-7.05c0-2.54-.28-3.83,1.67-5.79a10,10,0,0,1,14.09,0l9.4,6.9,8.25-8.15a10,10,0,0,1,14.09,0,9.81,9.81,0,0,1,2.81,7,9.92,9.92,0,0,1-2.92,7.05l-8.14,8.14,108.6,108.61A9.81,9.81,0,0,1,298.05,341.16Z" />
  <rect class="cls-3" x="70.79" y="444.88" width="208.58" height="7.19" />
  <rect class="cls-3" x="70.79" y="409.46" width="208.58" height="7.19" />
  <rect class="cls-3" x="70.79" y="374.04" width="208.58" height="7.19" />
  <rect class="cls-3" x="70.79" y="338.61" width="208.58" height="7.19" />
  <rect class="cls-3" x="79.85" y="303.18" width="190.45" height="7.19" />
  <rect class="cls-3" x="114.33" y="267.76" width="121.41" height="7.19" />
  <path class="cls-3"
    d="M75.06,481.76l-.83,0-3.44-.16V445.05l3.46-.13.81,0a18.43,18.43,0,1,1,0,36.86ZM78,452.48v21.7a11.24,11.24,0,0,0,0-21.7Z" />
  <path class="cls-3"
    d="M279.37,448.31h-3.6a18.44,18.44,0,1,1-.1-36.87h3.6l.1,3.6Zm-7.19-29.12a11.25,11.25,0,0,0,0,21.37Z" />
  <path class="cls-3"
    d="M70.79,377.32V340.4l3.62,0a18.44,18.44,0,0,1,0,36.87ZM78,348.24v21.23a11.24,11.24,0,0,0,0-21.23Z" />
  <rect class="cls-3" x="218.23" y="306.78" width="7.19" height="35.42" />
  <rect class="cls-3" x="153.8" y="271.36" width="7.19" height="35.42" />
  <rect class="cls-3" x="153.51" y="341.52" width="7.19" height="35.42" />
  <rect class="cls-3" x="247.91" y="376.58" width="7.19" height="35.42" />
  <rect class="cls-3" x="218.24" y="445.81" width="7.19" height="35.42" />
  <circle class="cls-3" cx="232.74" cy="317.21" r="2.9" />
  <circle class="cls-3" cx="232.74" cy="333.39" r="2.9" />
  <circle class="cls-3" cx="134.35" cy="387.64" r="2.9" />
  <circle class="cls-3" cx="134.35" cy="403.82" r="2.9" />
  <circle class="cls-3" cx="230.55" cy="458.66" r="2.9" />
  <circle class="cls-3" cx="230.55" cy="474.84" r="2.9" />
  <circle class="cls-3" cx="147.84" cy="280.65" r="2.9" />
  <circle class="cls-3" cx="147.84" cy="296.84" r="2.9" />
  <path class="cls-4"
    d="M257.21,245.51V114.25a84,84,0,0,1,23.84-58.62h0a112.35,112.35,0,0,1,160.89,0h0a84,84,0,0,1,23.84,58.62V245.51Z" />
  <rect class="cls-1" x="417.05" y="115.39" width="71.82" height="7.19" />
  <rect class="cls-1" x="242.34" y="101.45" width="71.81" height="7.19" />
  <rect class="cls-1" x="285.17" y="196.23" width="71.82" height="7.19" />
  <rect class="cls-1" x="340.89" y="41.64" width="26.86" height="7.19" />
  <path class="cls-5"
    d="M328.23,126.84h33.26a33.26,33.26,0,0,1,33.26,33.26v47.65A33.26,33.26,0,0,1,361.49,241H328.23a0,0,0,0,1,0,0V126.84A0,0,0,0,1,328.23,126.84Z" />
  <rect class="cls-3" x="441.07" y="451.5" width="208.58" height="7.19" />
  <rect class="cls-3" x="441.07" y="419.58" width="208.58" height="7.19" />
  <rect class="cls-3" x="441.07" y="387.67" width="208.58" height="7.19" />
  <rect class="cls-3" x="441.07" y="355.76" width="208.58" height="7.19" />
  <rect class="cls-3" x="441.07" y="323.84" width="208.58" height="7.19" />
  <rect class="cls-3" x="458.15" y="291.93" width="174.41" height="7.19" />
  <rect class="cls-3" x="489.26" y="260.01" width="112.2" height="7.19" />
  <rect class="cls-3" x="520.38" y="228.1" width="49.97" height="7.19" />
  <rect class="cls-3" x="472.05" y="455.09" width="7.19" height="25.17" />
  <rect class="cls-3" x="537.26" y="455.09" width="7.19" height="25.17" />
  <rect class="cls-3" x="602.47" y="455.09" width="7.19" height="25.17" />
  <rect class="cls-3" x="490.03" y="426.33" width="7.19" height="25.17" />
  <rect class="cls-3" x="620.45" y="426.33" width="7.19" height="25.17" />
  <rect class="cls-3" x="472.05" y="394.86" width="7.19" height="25.17" />
  <rect class="cls-3" x="602.47" y="394.86" width="7.19" height="25.17" />
  <rect class="cls-3" x="490.03" y="362.49" width="7.19" height="25.17" />
  <rect class="cls-3" x="620.45" y="362.49" width="7.19" height="25.17" />
  <rect class="cls-3" x="472.05" y="331.03" width="7.19" height="25.17" />
  <rect class="cls-3" x="537.26" y="331.03" width="7.19" height="25.17" />
  <rect class="cls-3" x="602.47" y="331.03" width="7.19" height="25.17" />
  <rect class="cls-3" x="490.03" y="298.66" width="7.19" height="25.17" />
  <rect class="cls-3" x="555.24" y="298.66" width="7.19" height="25.17" />
  <rect class="cls-3" x="620.45" y="298.66" width="7.19" height="25.17" />
  <rect class="cls-3" x="472.05" y="277.09" width="7.19" height="15.28" />
  <rect class="cls-3" x="537.26" y="267.2" width="7.19" height="25.17" />
  <rect class="cls-3" x="602.47" y="267.2" width="7.19" height="25.17" />
  <rect class="cls-3" x="555.24" y="234.83" width="7.19" height="25.17" />
  <polygon class="cls-4"
    points="665 332.59 545.36 212.95 425.71 332.59 420.63 327.51 545.36 202.78 670.09 327.51 665 332.59" />
  <rect class="cls-4" x="512.09" y="357.18" width="66.53" height="119.57" />
  <circle class="cls-1" cx="566.34" cy="411.87" r="5.01" />
  <rect class="cls-1" x="512.1" y="355.76" width="66.52" height="7.19" />
  <rect class="cls-1" x="512.09" y="473.16" width="66.53" height="7.19" />
  <path class="cls-6"
    d="M656,194.76a22.92,22.92,0,1,1-45.83,0,22.66,22.66,0,0,1,3.14-11.55c-1,.06-2.08.1-3.14.1a45.83,45.83,0,0,1-45.83-45.83c0-.32,0-.64,0-.95a69.9,69.9,0,0,1-11.47.95,68.7,68.7,0,1,1,64.62-45.24,45.83,45.83,0,0,1,21.93,80.51A22.92,22.92,0,0,1,656,194.76Z" />
  <polygon class="cls-2" points="53.59 458.27 30.67 481.18 19.22 458.27 30.67 446.81 53.59 458.27" />
  <path class="cls-1"
    d="M30.92,388.94H40.7a0,0,0,0,1,0,0v87.81a3.84,3.84,0,0,1-3.84,3.84h-2.1a3.84,3.84,0,0,1-3.84-3.84V388.94a0,0,0,0,1,0,0Z"
    transform="translate(317.91 102.02) rotate(45)" />
</svg>