<svg width="360" height="200" viewBox="0 0 360 200" fill="none" xmlns="http://www.w3.org/2000/svg">
<rect width="360" height="200" fill="white"/>
<g clip-path="url(#clip0)">
<path d="M252.806 171.866L252.728 171.92L251.15 172.965L250.823 173.185L250.549 173.369L222.502 192.136L222.434 192.184L221.955 192.504L220.466 193.511L220.341 193.594C220.174 193.276 220.022 192.95 219.876 192.623L204.095 168.871C199.097 170.115 193.982 170.833 188.834 171.014C187.739 171.06 186.632 171.082 185.514 171.08C180.607 171.093 175.712 170.595 170.909 169.595C166.679 168.708 162.553 167.381 158.6 165.637C157.551 165.171 156.188 164.429 156.188 164.429C156.188 164.429 155.866 164.845 155.494 165.34C155.461 165.385 141.428 183.594 140.716 184.639C138.053 188.631 133.922 191.417 129.216 192.399C124.51 193.38 119.605 192.476 115.561 189.883C111.518 187.29 108.658 183.216 107.601 178.539C106.543 173.862 107.373 168.959 109.909 164.886C110.082 164.604 111.949 162.181 111.955 162.172C114.778 158.61 124.964 145.774 128.722 141.039C129.389 140.198 130.288 139.126 130.288 139.126C130.288 139.126 129.05 137.407 128.666 136.805C122.177 126.588 120.004 113.111 122.597 101.315C124.181 94.1094 128.832 87.3607 134.15 82.3548C140.621 76.2712 149.083 72.1174 157.971 71.1703C167.47 70.1549 176.802 73.314 184.684 78.4772L184.904 78.6197C185.354 78.9166 186.271 79.5728 186.714 79.8845C187.754 79.2907 188.962 78.6256 189.99 78.1031C198.809 73.6317 206.56 71.6721 214.731 72.6281C221.993 73.4802 232.525 76.9927 241.473 88.8868C248.128 97.7376 250.659 108.61 248.792 120.332C247.512 128.375 244.397 135.35 241.404 140.522C240.618 141.891 239.838 143.132 239.103 144.239C238.261 145.504 237.383 146.726 236.468 147.906L252.806 171.866Z" fill="#DFDDED"/>
<path d="M155.491 165.326L150.286 172.074C138.705 167.654 128.907 159.551 122.41 149.019C124.521 146.365 129.395 140.237 129.511 140.08C129.627 139.922 134.731 148.515 141.443 155.002C147.398 160.753 154.809 164.622 155.491 165.326Z" fill="#C9C7DC"/>
<path d="M156.185 164.414C156.072 164.56 155.863 164.83 155.491 165.326L155.39 165.459L154.729 166.332C143.116 160.008 134.794 149.643 128.752 141.071L128.728 141.041C129.395 140.201 130.029 139.447 130.295 139.129L130.321 139.168C136.294 147.704 144.599 158.215 156.185 164.414Z" fill="white"/>
<path d="M251.15 172.965L250.823 173.185L250.549 173.369L222.503 192.136L222.434 192.184L221.955 192.504C221.514 191.638 221.146 190.736 220.856 189.808C219.642 185.935 219.803 181.763 221.312 177.993C222.82 174.224 225.584 171.087 229.139 169.111C232.693 167.135 236.822 166.439 240.831 167.141C244.839 167.843 248.484 169.899 251.15 172.965V172.965Z" fill="#C9C7DC"/>
<path d="M219.865 192.629C220.007 192.956 220.162 193.279 220.326 193.6L220.454 193.514L219.865 192.629Z" fill="white"/>
<path d="M128.063 26.3458L125.941 27.4253L140.829 56.5229L142.951 55.4435L128.063 26.3458Z" fill="#FFCC63"/>
<path d="M189.829 6.40002H187.447V50.0454H189.829V6.40002Z" fill="#FFCC63"/>
<path d="M248.392 26.2828L233.504 55.3804L235.626 56.4598L250.514 27.3622L248.392 26.2828Z" fill="#FFCC63"/>
<path d="M205.092 168.603C199.78 170.012 194.325 170.818 188.832 171.008C181.585 159.318 178.549 145.515 180.223 131.873L205.092 168.603Z" fill="#C9C7DC"/>
<path d="M252.806 171.866L252.729 171.92L251.15 172.965L250.823 173.185L250.549 173.369C248.956 171.572 246.997 170.135 244.802 169.153C242.607 168.172 240.228 167.67 237.823 167.68C234.93 167.679 232.085 168.412 229.555 169.81C227.024 171.208 224.893 173.225 223.36 175.672C221.828 178.118 220.945 180.913 220.795 183.793C220.645 186.674 221.233 189.545 222.503 192.136L222.434 192.184L221.955 192.505L220.466 193.508L219.87 192.617L204.089 168.865L180.348 133.093L182.337 131.781L218.212 185.818C218.188 185.438 218.176 185.058 218.176 184.675C218.182 181.326 219.048 178.033 220.691 175.112C222.334 172.19 224.7 169.737 227.563 167.985C230.426 166.232 233.691 165.24 237.047 165.102C240.404 164.964 243.74 165.685 246.738 167.196L207.454 109.65L209.425 108.313L236.456 147.918L252.806 171.866Z" fill="white"/>
<path d="M221.955 192.51L220.454 193.517V193.514L221.955 192.51Z" fill="white"/>
<path d="M160.797 98.6282L153.651 106.309C144.804 118.806 158.371 137.425 173.303 133.922L185.827 128.874L184.723 128.72C177.627 127.717 171.188 124.036 166.736 118.436C162.284 112.836 160.158 105.746 160.797 98.6282V98.6282Z" fill="#C9C7DC"/>
<path d="M219.326 100.312L191.687 124.988C185.568 131.015 178.883 134.599 172.318 135.35C171.477 135.448 170.631 135.497 169.784 135.498C164.601 135.525 159.604 133.572 155.819 130.041C151.844 126.362 149.7 120.941 149.935 115.169C150.194 108.812 153.261 103.014 158.57 98.839L184.669 78.4712L184.889 78.6137C185.339 78.9106 186.256 79.5668 186.7 79.8785L160.041 100.707C155.277 104.439 152.543 109.614 152.299 115.255C152.091 120.329 153.961 125.083 157.424 128.289C166.038 136.264 178.833 134.296 190.02 123.269L190.062 123.227L217.724 98.5302L219.326 100.312Z" fill="white"/>
</g>
<defs>
<clipPath id="clip0">
<rect width="145.6" height="187.2" fill="white" transform="translate(107.2 6.40002)"/>
</clipPath>
</defs>
</svg>
