<?xml version="1.0" encoding="UTF-8"?>
<svg xmlns="http://www.w3.org/2000/svg" xmlns:xlink="http://www.w3.org/1999/xlink" width="286.88pt" height="506.42pt"
  viewBox="0 0 286.88 506.42" version="1.1">
  <defs>
    <clipPath id="clip1">
      <path d="M 0 152 L 286.878906 152 L 286.878906 174 L 0 174 Z M 0 152 " />
    </clipPath>
    <clipPath id="clip2">
      <path d="M 52 431 L 233 431 L 233 506.421875 L 52 506.421875 Z M 52 431 " />
    </clipPath>
  </defs>
  <g id="surface1">
    <path style=" stroke:none;fill-rule:nonzero;fill:rgb(100%,80.076599%,38.426208%);fill-opacity:1;"
      d="M 128.515625 374.796875 L 157 374.796875 L 157 162.796875 L 128.515625 162.796875 Z M 128.515625 374.796875 " />
    <g clip-path="url(#clip1)" clip-rule="nonzero">
      <path style=" stroke:none;fill-rule:nonzero;fill:rgb(100%,80.076599%,38.426208%);fill-opacity:1;"
        d="M 265.550781 173.464844 L 21.332031 173.464844 C 9.550781 173.464844 0 163.914063 0 152.132813 L 286.882813 152.132813 C 286.882813 163.914063 277.332031 173.464844 265.550781 173.464844 " />
    </g>
    <path style=" stroke:none;fill-rule:nonzero;fill:rgb(92.1875%,41.967773%,36.863708%);fill-opacity:1;"
      d="M 272.765625 338.382813 C 272.765625 409.804688 214.867188 467.707031 143.441406 467.707031 C 72.019531 467.707031 14.117188 409.804688 14.117188 338.382813 C 14.117188 266.957031 72.019531 209.054688 143.441406 209.054688 C 214.867188 209.054688 272.765625 266.957031 272.765625 338.382813 " />
    <path style=" stroke:none;fill-rule:nonzero;fill:rgb(92.1875%,41.967773%,36.863708%);fill-opacity:1;"
      d="M 143.441406 213.054688 C 74.339844 213.054688 18.117188 269.277344 18.117188 338.382813 C 18.117188 407.484375 74.339844 463.707031 143.441406 463.707031 C 212.546875 463.707031 268.765625 407.484375 268.765625 338.382813 C 268.765625 269.277344 212.546875 213.054688 143.441406 213.054688 M 143.441406 471.707031 C 69.925781 471.707031 10.117188 411.898438 10.117188 338.382813 C 10.117188 264.867188 69.925781 205.054688 143.441406 205.054688 C 216.957031 205.054688 276.765625 264.867188 276.765625 338.382813 C 276.765625 411.898438 216.957031 471.707031 143.441406 471.707031 " />
    <path style=" stroke:none;fill-rule:nonzero;fill:rgb(92.1875%,41.967773%,36.863708%);fill-opacity:1;"
      d="M 161.914063 435.484375 L 123.605469 435.484375 C 86.636719 435.484375 56.667969 465.453125 56.667969 502.421875 L 228.851563 502.421875 C 228.851563 465.453125 198.882813 435.484375 161.914063 435.484375 " />
    <g clip-path="url(#clip2)" clip-rule="nonzero">
      <path style=" stroke:none;fill-rule:nonzero;fill:rgb(92.1875%,41.967773%,36.863708%);fill-opacity:1;"
        d="M 60.792969 498.421875 L 224.726563 498.421875 C 222.65625 465.574219 195.273438 439.484375 161.914063 439.484375 L 123.605469 439.484375 C 90.242188 439.484375 62.863281 465.574219 60.792969 498.421875 M 232.851563 506.421875 L 52.667969 506.421875 L 52.667969 502.421875 C 52.667969 463.304688 84.488281 431.484375 123.605469 431.484375 L 161.914063 431.484375 C 201.027344 431.484375 232.851563 463.304688 232.851563 502.421875 " />
    </g>
    <path style=" stroke:none;fill-rule:nonzero;fill:rgb(100%,100%,100%);fill-opacity:1;"
      d="M 238.804688 338.382813 C 238.804688 391.046875 196.109375 433.742188 143.441406 433.742188 C 90.773438 433.742188 48.082031 391.046875 48.082031 338.382813 C 48.082031 285.714844 90.773438 243.019531 143.441406 243.019531 C 196.109375 243.019531 238.804688 285.714844 238.804688 338.382813 " />
    <path style=" stroke:none;fill-rule:nonzero;fill:rgb(92.1875%,41.967773%,36.863708%);fill-opacity:1;"
      d="M 150.523438 338.382813 C 150.523438 342.292969 147.351563 345.464844 143.441406 345.464844 C 139.53125 345.464844 136.359375 342.292969 136.359375 338.382813 C 136.359375 334.46875 139.53125 331.300781 143.441406 331.300781 C 147.351563 331.300781 150.523438 334.46875 150.523438 338.382813 " />
    <path style=" stroke:none;fill-rule:nonzero;fill:rgb(92.1875%,41.967773%,36.863708%);fill-opacity:1;"
      d="M 143.441406 335.300781 C 141.742188 335.300781 140.359375 336.683594 140.359375 338.382813 C 140.359375 340.082031 141.742188 341.464844 143.441406 341.464844 C 145.140625 341.464844 146.523438 340.082031 146.523438 338.382813 C 146.523438 336.683594 145.140625 335.300781 143.441406 335.300781 M 143.441406 349.464844 C 137.332031 349.464844 132.359375 344.492188 132.359375 338.382813 C 132.359375 332.269531 137.332031 327.300781 143.441406 327.300781 C 149.554688 327.300781 154.523438 332.269531 154.523438 338.382813 C 154.523438 344.492188 149.554688 349.464844 143.441406 349.464844 " />
    <path style=" stroke:none;fill-rule:nonzero;fill:rgb(92.1875%,41.967773%,36.863708%);fill-opacity:1;"
      d="M 143.441406 338.382813 L 194.515625 287.308594 " />
    <path style=" stroke:none;fill-rule:nonzero;fill:rgb(92.1875%,41.967773%,36.863708%);fill-opacity:1;"
      d="M 146.269531 341.210938 L 140.613281 335.554688 L 191.6875 284.480469 L 197.34375 290.136719 Z M 146.269531 341.210938 " />
    <path style=" stroke:none;fill-rule:nonzero;fill:rgb(43.920898%,73.631287%,79.296875%);fill-opacity:1;"
      d="M 144.667969 108.128906 C 144.667969 132.429688 124.96875 152.128906 100.667969 152.128906 C 76.367188 152.128906 56.667969 132.429688 56.667969 108.128906 C 56.667969 83.828125 76.367188 64.128906 100.667969 64.128906 C 124.96875 64.128906 144.667969 83.828125 144.667969 108.128906 " />
    <path style=" stroke:none;fill-rule:nonzero;fill:rgb(92.1875%,41.967773%,36.863708%);fill-opacity:1;"
      d="M 236.84375 152.449219 L 51.203125 16.300781 L 63.160156 -0.0078125 L 248.800781 136.144531 Z M 236.84375 152.449219 " />
    <path style=" stroke:none;fill-rule:nonzero;fill:rgb(92.1875%,41.967773%,36.863708%);fill-opacity:1;"
      d="M 128.515625 173.464844 L 157 173.464844 L 128.515625 191.832031 " />
    <path style=" stroke:none;fill-rule:nonzero;fill:rgb(100%,100%,100%);fill-opacity:1;"
      d="M 63.234375 457.695313 L 221.851563 457.695313 L 221.851563 449.695313 L 63.234375 449.695313 Z M 63.234375 457.695313 " />
  </g>
</svg>