<svg width="94" height="99" viewBox="0 0 94 99" fill="none" xmlns="http://www.w3.org/2000/svg">
<path d="M91.6437 68.3755L55.9818 78.4808C55.2358 78.6908 54.4445 78.6771 53.7062 78.4413C52.9679 78.2055 52.3151 77.7581 51.8289 77.1545C51.3426 76.551 51.0445 75.8179 50.9713 75.0463C50.8981 74.2747 51.0532 73.4986 51.4172 72.8144L62.8615 51.3683L40.2547 65.4977C39.6375 65.8768 38.9281 66.0792 38.2037 66.0828C37.4794 66.0864 36.768 65.8911 36.1471 65.5181C35.5206 65.1598 35.004 64.637 34.6533 64.0062C34.3026 63.3754 34.1312 62.6607 34.1576 61.9394L35.2897 37.1283L23.3807 59.5909C22.9991 60.2851 22.418 60.8489 21.7124 61.209C21.0068 61.5692 20.2094 61.7093 19.4234 61.6111C18.6373 61.5129 17.8988 61.1809 17.3035 60.6583C16.7082 60.1356 16.2836 59.4462 16.0846 58.6795L8.03691 26.7393L15.7088 24.8053L21.2445 46.7922L36.5906 17.8925C37.0116 17.098 37.6906 16.4707 38.5159 16.1138C39.3411 15.7569 40.2633 15.6918 41.1305 15.9291C41.9977 16.1665 42.7582 16.6921 43.2867 17.4195C43.8151 18.1469 44.0801 19.0326 44.0378 19.9307L42.4456 54.7631L71.1801 36.7972C71.9196 36.3342 72.7913 36.1286 73.6597 36.2124C74.5281 36.2962 75.3445 36.6648 75.9817 37.2607C76.6189 37.8565 77.0413 38.6463 77.1831 39.5072C77.3249 40.368 77.1781 41.2516 76.7657 42.0204L62.7829 68.3856L89.4887 60.8151L91.6437 68.3755Z" fill="#FFCC63"/>
</svg>
