<svg width="33" height="32" viewBox="0 0 33 32" fill="none" xmlns="http://www.w3.org/2000/svg">
<circle cx="16.5" cy="16" r="16" fill="#82809A"/>
<path d="M16.5 7C13.81 7 11.91 8.22 11.91 8.22L10.5 13H22.5L21.09 8.22C21.09 8.22 19.19 7 16.5 7ZM16.5 15C13.77 15 9.89 15.54 9.63 15.59C8.59 15.87 7.75 16.15 7.09 16.41C6.08 16.75 5.5 17 5.5 17H27.5C27.5 17 26.92 16.75 25.91 16.41C25.25 16.15 24.39 15.87 23.34 15.59C23.34 15.59 19.32 15 16.5 15ZM12 18C11.0717 18 10.1815 18.3687 9.52513 19.0251C8.86875 19.6815 8.5 20.5717 8.5 21.5C8.5 22.4283 8.86875 23.3185 9.52513 23.9749C10.1815 24.6313 11.0717 25 12 25C12.9283 25 13.8185 24.6313 14.4749 23.9749C15.1313 23.3185 15.5 22.4283 15.5 21.5C15.5 21.34 15.5 21.18 15.47 21.03C15.79 20.96 16.13 20.9 16.5 20.91C16.87 20.91 17.21 20.96 17.53 21.03C17.5 21.18 17.5 21.34 17.5 21.5C17.5 22.4283 17.8687 23.3185 18.5251 23.9749C19.1815 24.6313 20.0717 25 21 25C21.9283 25 22.8185 24.6313 23.4749 23.9749C24.1313 23.3185 24.5 22.4283 24.5 21.5C24.5 20.5717 24.1313 19.6815 23.4749 19.0251C22.8185 18.3687 21.9283 18 21 18C19.53 18 18.27 18.9 17.75 20.19C17.43 20.09 17.05 20 16.5 20C15.95 20 15.57 20.09 15.25 20.19C14.73 18.9 13.47 18 12 18ZM12 19C12.663 19 13.2989 19.2634 13.7678 19.7322C14.2366 20.2011 14.5 20.837 14.5 21.5C14.5 22.163 14.2366 22.7989 13.7678 23.2678C13.2989 23.7366 12.663 24 12 24C11.337 24 10.7011 23.7366 10.2322 23.2678C9.76339 22.7989 9.5 22.163 9.5 21.5C9.5 20.837 9.76339 20.2011 10.2322 19.7322C10.7011 19.2634 11.337 19 12 19V19ZM21 19C21.663 19 22.2989 19.2634 22.7678 19.7322C23.2366 20.2011 23.5 20.837 23.5 21.5C23.5 22.163 23.2366 22.7989 22.7678 23.2678C22.2989 23.7366 21.663 24 21 24C20.337 24 19.7011 23.7366 19.2322 23.2678C18.7634 22.7989 18.5 22.163 18.5 21.5C18.5 20.837 18.7634 20.2011 19.2322 19.7322C19.7011 19.2634 20.337 19 21 19V19Z" fill="#444258"/>
</svg>
