<svg width="32" height="32" viewBox="0 0 32 32" fill="none" xmlns="http://www.w3.org/2000/svg">
<circle cx="16" cy="16" r="16" fill="white"/>
<circle opacity="0.8" cx="16" cy="16" r="16" fill="#82809A"/>
<path d="M16 7C13.31 7 11.41 8.22 11.41 8.22L10 13H22L20.59 8.22C20.59 8.22 18.69 7 16 7ZM16 15C13.27 15 9.39 15.54 9.13 15.59C8.09 15.87 7.25 16.15 6.59 16.41C5.58 16.75 5 17 5 17H27C27 17 26.42 16.75 25.41 16.41C24.75 16.15 23.89 15.87 22.84 15.59C22.84 15.59 18.82 15 16 15ZM11.5 18C10.5717 18 9.6815 18.3687 9.02513 19.0251C8.36875 19.6815 8 20.5717 8 21.5C8 22.4283 8.36875 23.3185 9.02513 23.9749C9.6815 24.6313 10.5717 25 11.5 25C12.4283 25 13.3185 24.6313 13.9749 23.9749C14.6313 23.3185 15 22.4283 15 21.5C15 21.34 15 21.18 14.97 21.03C15.29 20.96 15.63 20.9 16 20.91C16.37 20.91 16.71 20.96 17.03 21.03C17 21.18 17 21.34 17 21.5C17 22.4283 17.3687 23.3185 18.0251 23.9749C18.6815 24.6313 19.5717 25 20.5 25C21.4283 25 22.3185 24.6313 22.9749 23.9749C23.6313 23.3185 24 22.4283 24 21.5C24 20.5717 23.6313 19.6815 22.9749 19.0251C22.3185 18.3687 21.4283 18 20.5 18C19.03 18 17.77 18.9 17.25 20.19C16.93 20.09 16.55 20 16 20C15.45 20 15.07 20.09 14.75 20.19C14.23 18.9 12.97 18 11.5 18ZM11.5 19C12.163 19 12.7989 19.2634 13.2678 19.7322C13.7366 20.2011 14 20.837 14 21.5C14 22.163 13.7366 22.7989 13.2678 23.2678C12.7989 23.7366 12.163 24 11.5 24C10.837 24 10.2011 23.7366 9.73223 23.2678C9.26339 22.7989 9 22.163 9 21.5C9 20.837 9.26339 20.2011 9.73223 19.7322C10.2011 19.2634 10.837 19 11.5 19ZM20.5 19C21.163 19 21.7989 19.2634 22.2678 19.7322C22.7366 20.2011 23 20.837 23 21.5C23 22.163 22.7366 22.7989 22.2678 23.2678C21.7989 23.7366 21.163 24 20.5 24C19.837 24 19.2011 23.7366 18.7322 23.2678C18.2634 22.7989 18 22.163 18 21.5C18 20.837 18.2634 20.2011 18.7322 19.7322C19.2011 19.2634 19.837 19 20.5 19Z" fill="#444258"/>
</svg>
