<svg width="44" height="44" viewBox="0 0 44 44" version="1.1" xmlns="http://www.w3.org/2000/svg" xmlns:xlink="http://www.w3.org/1999/xlink">
<title>avatar-user</title>
<desc>Created using Figma</desc>
<g id="Canvas" transform="translate(-317 -301)">
<g id="avatar-user">
<g id="Symbols">
<g id="New user icon avatar">
<g id="avatar user">
<mask id="mask0_alpha" mask-type="alpha">
<g id="mask 2">
<g id="Vector">
<use xlink:href="#path0_fill" transform="translate(317 301)" fill="#FFFFFF"/>
</g>
</g>
</mask>
<g id="Oval" mask="url(#mask0_alpha)">
<use xlink:href="#path1_fill" transform="translate(318 302)" fill="#FFFFFF"/>
</g>
<g id="Oval" mask="url(#mask0_alpha)">
<use xlink:href="#path2_fill" transform="translate(317 301)" fill="#B6ADC7"/>
</g>
<g id="&#239;&#128;&#135;" mask="url(#mask0_alpha)">
<use xlink:href="#path3_fill" transform="translate(324 309)" fill="#B6ADC7"/>
</g>
</g>
</g>
</g>
</g>
</g>
<defs>
<path id="path0_fill" d="M 22 44C 34.1503 44 44 34.1503 44 22C 44 9.84974 34.1503 0 22 0C 9.84974 0 0 9.84974 0 22C 0 34.1503 9.84974 44 22 44Z"/>
<path id="path1_fill" d="M 21 42C 32.598 42 42 32.598 42 21C 42 9.40202 32.598 0 21 0C 9.40202 0 0 9.40202 0 21C 0 32.598 9.40202 42 21 42Z"/>
<path id="path2_fill" d="M 22 42C 33.0457 42 42 33.0457 42 22C 42 10.9543 33.0457 2 22 2C 10.9543 2 2 10.9543 2 22C 2 33.0457 10.9543 42 22 42ZM 22 44C 9.84974 44 0 34.1503 0 22C 0 9.84974 9.84974 0 22 0C 34.1503 0 44 9.84974 44 22C 44 34.1503 34.1503 44 22 44Z"/>
<path id="path3_fill" fill-rule="evenodd" d="M 30 29.7891C 30 23.625 28.4766 16.5 22.336 16.5C 20.4375 18.3516 17.8594 19.5 15 19.5C 12.1406 19.5 9.56251 18.3516 7.66407 16.5C 1.52344 16.5 0 23.625 0 29.7891C 0 33.211 2.25 36 4.99219 36L 25.0078 36C 27.75 36 30 33.211 30 29.7891ZM 24 9.00001C 24 4.03125 19.9688 -2.37484e-07 15 -2.37484e-07C 10.0313 -2.37484e-07 6.00001 4.03125 6.00001 9.00001C 6.00001 13.9688 10.0313 18 15 18C 19.9688 18 24 13.9688 24 9.00001Z"/>
</defs>
</svg>
