<svg width="44" height="44" viewBox="0 0 44 44" version="1.1" xmlns="http://www.w3.org/2000/svg" xmlns:xlink="http://www.w3.org/1999/xlink">
<title>avatar-team</title>
<desc>Created using Figma</desc>
<g id="Canvas" transform="translate(-263 -301)">
<g id="avatar-team">
<g id="Symbols">
<g id="avatars/team avatar">
<g id="avatar team">
<mask id="mask0_alpha" mask-type="alpha">
<g id="mask 2">
<g id="Vector">
<use xlink:href="#path0_fill" transform="translate(263 301)" fill="#FFFFFF"/>
</g>
</g>
</mask>
<g id="Oval" mask="url(#mask0_alpha)">
<use xlink:href="#path1_fill" transform="translate(264 302)" fill="#FFFFFF"/>
</g>
<g id="Oval" mask="url(#mask0_alpha)">
<use xlink:href="#path2_fill" transform="translate(263 301)" fill="#B6ADC7"/>
</g>
<g id="&#239;&#131;&#128;" mask="url(#mask0_alpha)">
<use xlink:href="#path3_fill" transform="translate(270 309)" fill="#B6ADC7"/>
</g>
</g>
</g>
</g>
</g>
</g>
<defs>
<path id="path0_fill" d="M 22 44C 34.1503 44 44 34.1503 44 22C 44 9.84974 34.1503 0 22 0C 9.84974 0 0 9.84974 0 22C 0 34.1503 9.84974 44 22 44Z"/>
<path id="path1_fill" d="M 21 42C 32.598 42 42 32.598 42 21C 42 9.40202 32.598 0 21 0C 9.40202 0 0 9.40202 0 21C 0 32.598 9.40202 42 21 42Z"/>
<path id="path2_fill" d="M 22 42C 33.0457 42 42 33.0457 42 22C 42 10.9543 33.0457 2 22 2C 10.9543 2 2 10.9543 2 22C 2 33.0457 10.9543 42 22 42ZM 22 44C 9.84974 44 0 34.1503 0 22C 0 9.84974 9.84974 0 22 0C 34.1503 0 44 9.84974 44 22C 44 34.1503 34.1503 44 22 44Z"/>
<path id="path3_fill" fill-rule="evenodd" d="M 9.26573 14C 8.45323 12.8281 8.0001 11.4219 8.0001 10C 8.0001 9.65626 8.03135 9.31251 8.07823 8.96876C 7.40635 9.20314 6.71885 9.32814 6.0001 9.32814C 3.89073 9.32814 2.26572 8.00001 1.9376 8.00001C -0.0467801 8.00001 9.53984e-05 12.25 9.53984e-05 13.5156C 9.53984e-05 15.25 1.46885 16 3.03135 16L 5.1251 16C 6.17198 14.75 7.64073 14.0469 9.26573 14ZM 26.0001 23.9532C 26.0001 20.4219 25.172 15 20.5939 15C 20.0626 15 18.1251 17.1719 15.0001 17.1719C 11.8751 17.1719 9.93761 15 9.40636 15C 4.82823 15 4.0001 20.4219 4.0001 23.9532C 4.0001 26.4844 5.67198 28 8.17198 28L 21.8282 28C 24.3283 28 26.0001 26.4844 26.0001 23.9532ZM 10.0001 4C 10.0001 1.79688 8.20323 -2.29492e-10 6.0001 -2.29492e-10C 3.79698 -2.29492e-10 2.0001 1.79688 2.0001 4C 2.0001 6.20313 3.79698 8.00001 6.0001 8.00001C 8.20323 8.00001 10.0001 6.20313 10.0001 4ZM 21.0001 10C 21.0001 6.68751 18.3126 4 15.0001 4C 11.6876 4 9.00011 6.68751 9.00011 10C 9.00011 13.3125 11.6876 16 15.0001 16C 18.3126 16 21.0001 13.3125 21.0001 10ZM 30.0001 13.5156C 30.0001 12.25 30.047 8.00001 28.0626 8.00001C 27.7345 8.00001 26.1095 9.32814 24.0001 9.32814C 23.2814 9.32814 22.5939 9.20314 21.922 8.96876C 21.9689 9.31251 22.0001 9.65626 22.0001 10C 22.0001 11.4219 21.547 12.8281 20.7345 14C 22.3595 14.0469 23.8282 14.75 24.8751 16L 26.9689 16C 28.5314 16 30.0001 15.25 30.0001 13.5156ZM 28.0001 4C 28.0001 1.79688 26.2033 -2.29492e-10 24.0001 -2.29492e-10C 21.797 -2.29492e-10 20.0001 1.79688 20.0001 4C 20.0001 6.20313 21.797 8.00001 24.0001 8.00001C 26.2033 8.00001 28.0001 6.20313 28.0001 4Z"/>
</defs>
</svg>
