<svg xmlns="http://www.w3.org/2000/svg" viewBox="-85 -85 370 370">
    <title>Atlassian</title>
    <g fill="#fff">
        <path d="M66.519,84.151c-2.725-2.911-6.971-2.746-8.823.958L13.009,174.485a5.342,5.342,0,0,0,4.778,7.732H80.02a5.151,5.151,0,0,0,4.779-2.954C98.218,151.518,90.088,109.333,66.519,84.151Z"/>
        <path d="M99.307,2.862c-24.994,39.6-23.345,83.458-6.882,116.385l30.008,60.016a5.342,5.342,0,0,0,4.778,2.953h62.232a5.342,5.342,0,0,0,4.778-7.732S110.5,7.018,108.394,2.828C106.511-.923,101.728-.974,99.307,2.862Z"/>
    </g>
</svg>
